G04 #@! TF.GenerationSoftware,KiCad,Pcbnew,(5.1.2)-1*
G04 #@! TF.CreationDate,2019-06-22T12:29:30-06:00*
G04 #@! TF.ProjectId,superhashtagpcb,73757065-7268-4617-9368-746167706362,rev?*
G04 #@! TF.SameCoordinates,Original*
G04 #@! TF.FileFunction,Copper,L2,Bot*
G04 #@! TF.FilePolarity,Positive*
%FSLAX46Y46*%
G04 Gerber Fmt 4.6, Leading zero omitted, Abs format (unit mm)*
G04 Created by KiCad (PCBNEW (5.1.2)-1) date 2019-06-22 12:29:30*
%MOMM*%
%LPD*%
G04 APERTURE LIST*
%ADD10R,2.000000X2.000000*%
%ADD11C,2.000000*%
%ADD12C,1.600000*%
%ADD13O,1.600000X1.600000*%
%ADD14C,0.100000*%
%ADD15C,0.600000*%
%ADD16C,0.250000*%
%ADD17C,0.254000*%
G04 APERTURE END LIST*
D10*
X114300000Y-85090000D03*
D11*
X116840000Y-85090000D03*
D10*
X107950000Y-93980000D03*
D11*
X110490000Y-93980000D03*
D12*
X129540000Y-96520000D03*
D13*
X119380000Y-96520000D03*
D12*
X129540000Y-99060000D03*
D13*
X119380000Y-99060000D03*
D11*
X115043949Y-106153949D03*
X116840000Y-107950000D03*
X118636051Y-109746051D03*
D14*
G36*
X120050265Y-109746051D02*
G01*
X118636051Y-111160265D01*
X117221837Y-109746051D01*
X118636051Y-108331837D01*
X120050265Y-109746051D01*
X120050265Y-109746051D01*
G37*
D15*
X149860000Y-144780000D03*
D16*
X149860000Y-144780000D02*
X149860000Y-146050000D01*
D17*
G36*
X147659065Y-80181828D02*
G01*
X147686671Y-80191863D01*
X147690767Y-80192911D01*
X147694763Y-80194308D01*
X147723349Y-80201247D01*
X147864989Y-80237487D01*
X147895482Y-80245479D01*
X147897452Y-80245793D01*
X147899390Y-80246289D01*
X147930651Y-80251088D01*
X148010513Y-80263824D01*
X148011865Y-80264318D01*
X148077036Y-80274433D01*
X148108941Y-80279521D01*
X148110374Y-80279607D01*
X148111791Y-80279827D01*
X148144072Y-80281630D01*
X148209882Y-80285582D01*
X148211306Y-80285387D01*
X148275102Y-80288951D01*
X148294152Y-80290827D01*
X148308687Y-80290827D01*
X148323186Y-80291637D01*
X148342293Y-80290827D01*
X151658322Y-80290827D01*
X151677429Y-80291637D01*
X151691927Y-80290827D01*
X151706462Y-80290827D01*
X151725513Y-80288951D01*
X151789312Y-80285386D01*
X151790738Y-80285582D01*
X151856526Y-80281631D01*
X151888818Y-80279827D01*
X151890239Y-80279607D01*
X151891679Y-80279520D01*
X151923689Y-80274415D01*
X151988745Y-80264317D01*
X151990098Y-80263823D01*
X152070032Y-80251074D01*
X152101227Y-80246284D01*
X152103156Y-80245790D01*
X152105121Y-80245477D01*
X152135652Y-80237475D01*
X152277333Y-80201218D01*
X152305851Y-80194293D01*
X152309827Y-80192903D01*
X152313921Y-80191855D01*
X152341577Y-80181800D01*
X152469694Y-80137000D01*
X186626500Y-80137000D01*
X197956322Y-95243429D01*
X149860000Y-149668214D01*
X111263225Y-105992916D01*
X113408949Y-105992916D01*
X113408949Y-106314982D01*
X113471781Y-106630861D01*
X113595031Y-106928412D01*
X113773962Y-107196201D01*
X114001697Y-107423936D01*
X114269486Y-107602867D01*
X114567037Y-107726117D01*
X114882916Y-107788949D01*
X115204982Y-107788949D01*
X115205004Y-107788945D01*
X115205000Y-107788967D01*
X115205000Y-108111033D01*
X115267832Y-108426912D01*
X115391082Y-108724463D01*
X115570013Y-108992252D01*
X115797748Y-109219987D01*
X116065537Y-109398918D01*
X116363088Y-109522168D01*
X116611207Y-109571522D01*
X116596025Y-109621569D01*
X116583765Y-109746051D01*
X116596025Y-109870533D01*
X116632335Y-109990231D01*
X116691300Y-110100545D01*
X116770652Y-110197236D01*
X118184866Y-111611450D01*
X118281557Y-111690802D01*
X118391871Y-111749767D01*
X118511569Y-111786077D01*
X118636051Y-111798337D01*
X118760533Y-111786077D01*
X118880231Y-111749767D01*
X118990545Y-111690802D01*
X119087236Y-111611450D01*
X120501450Y-110197236D01*
X120580802Y-110100545D01*
X120639767Y-109990231D01*
X120676077Y-109870533D01*
X120688337Y-109746051D01*
X120676077Y-109621569D01*
X120639767Y-109501871D01*
X120580802Y-109391557D01*
X120501450Y-109294866D01*
X119087236Y-107880652D01*
X118990545Y-107801300D01*
X118880231Y-107742335D01*
X118760533Y-107706025D01*
X118636051Y-107693765D01*
X118511569Y-107706025D01*
X118461522Y-107721207D01*
X118412168Y-107473088D01*
X118288918Y-107175537D01*
X118109987Y-106907748D01*
X117882252Y-106680013D01*
X117614463Y-106501082D01*
X117316912Y-106377832D01*
X117001033Y-106315000D01*
X116678967Y-106315000D01*
X116678945Y-106315004D01*
X116678949Y-106314982D01*
X116678949Y-105992916D01*
X116616117Y-105677037D01*
X116492867Y-105379486D01*
X116313936Y-105111697D01*
X116086201Y-104883962D01*
X115818412Y-104705031D01*
X115520861Y-104581781D01*
X115204982Y-104518949D01*
X114882916Y-104518949D01*
X114567037Y-104581781D01*
X114269486Y-104705031D01*
X114001697Y-104883962D01*
X113773962Y-105111697D01*
X113595031Y-105379486D01*
X113471781Y-105677037D01*
X113408949Y-105992916D01*
X111263225Y-105992916D01*
X102891811Y-96520000D01*
X117938057Y-96520000D01*
X117965764Y-96801309D01*
X118047818Y-97071808D01*
X118181068Y-97321101D01*
X118360392Y-97539608D01*
X118578899Y-97718932D01*
X118711858Y-97790000D01*
X118578899Y-97861068D01*
X118360392Y-98040392D01*
X118181068Y-98258899D01*
X118047818Y-98508192D01*
X117965764Y-98778691D01*
X117938057Y-99060000D01*
X117965764Y-99341309D01*
X118047818Y-99611808D01*
X118181068Y-99861101D01*
X118360392Y-100079608D01*
X118578899Y-100258932D01*
X118828192Y-100392182D01*
X119098691Y-100474236D01*
X119309508Y-100495000D01*
X119450492Y-100495000D01*
X119661309Y-100474236D01*
X119931808Y-100392182D01*
X120181101Y-100258932D01*
X120399608Y-100079608D01*
X120578932Y-99861101D01*
X120712182Y-99611808D01*
X120794236Y-99341309D01*
X120821943Y-99060000D01*
X120794236Y-98778691D01*
X120712182Y-98508192D01*
X120578932Y-98258899D01*
X120399608Y-98040392D01*
X120181101Y-97861068D01*
X120048142Y-97790000D01*
X120181101Y-97718932D01*
X120399608Y-97539608D01*
X120578932Y-97321101D01*
X120712182Y-97071808D01*
X120794236Y-96801309D01*
X120821943Y-96520000D01*
X120808023Y-96378665D01*
X128105000Y-96378665D01*
X128105000Y-96661335D01*
X128160147Y-96938574D01*
X128268320Y-97199727D01*
X128425363Y-97434759D01*
X128625241Y-97634637D01*
X128857759Y-97790000D01*
X128625241Y-97945363D01*
X128425363Y-98145241D01*
X128268320Y-98380273D01*
X128160147Y-98641426D01*
X128105000Y-98918665D01*
X128105000Y-99201335D01*
X128160147Y-99478574D01*
X128268320Y-99739727D01*
X128425363Y-99974759D01*
X128625241Y-100174637D01*
X128860273Y-100331680D01*
X129121426Y-100439853D01*
X129398665Y-100495000D01*
X129681335Y-100495000D01*
X129958574Y-100439853D01*
X130219727Y-100331680D01*
X130454759Y-100174637D01*
X130654637Y-99974759D01*
X130811680Y-99739727D01*
X130919853Y-99478574D01*
X130975000Y-99201335D01*
X130975000Y-98918665D01*
X130919853Y-98641426D01*
X130811680Y-98380273D01*
X130654637Y-98145241D01*
X130454759Y-97945363D01*
X130222241Y-97790000D01*
X130454759Y-97634637D01*
X130654637Y-97434759D01*
X130811680Y-97199727D01*
X130919853Y-96938574D01*
X130975000Y-96661335D01*
X130975000Y-96378665D01*
X130919853Y-96101426D01*
X130811680Y-95840273D01*
X130654637Y-95605241D01*
X130454759Y-95405363D01*
X130219727Y-95248320D01*
X129958574Y-95140147D01*
X129681335Y-95085000D01*
X129398665Y-95085000D01*
X129121426Y-95140147D01*
X128860273Y-95248320D01*
X128625241Y-95405363D01*
X128425363Y-95605241D01*
X128268320Y-95840273D01*
X128160147Y-96101426D01*
X128105000Y-96378665D01*
X120808023Y-96378665D01*
X120794236Y-96238691D01*
X120712182Y-95968192D01*
X120578932Y-95718899D01*
X120399608Y-95500392D01*
X120181101Y-95321068D01*
X119931808Y-95187818D01*
X119661309Y-95105764D01*
X119450492Y-95085000D01*
X119309508Y-95085000D01*
X119098691Y-95105764D01*
X118828192Y-95187818D01*
X118578899Y-95321068D01*
X118360392Y-95500392D01*
X118181068Y-95718899D01*
X118047818Y-95968192D01*
X117965764Y-96238691D01*
X117938057Y-96520000D01*
X102891811Y-96520000D01*
X101763678Y-95243429D01*
X101961249Y-94980000D01*
X106311928Y-94980000D01*
X106324188Y-95104482D01*
X106360498Y-95224180D01*
X106419463Y-95334494D01*
X106498815Y-95431185D01*
X106595506Y-95510537D01*
X106705820Y-95569502D01*
X106825518Y-95605812D01*
X106950000Y-95618072D01*
X107664250Y-95615000D01*
X107823000Y-95456250D01*
X107823000Y-94107000D01*
X106473750Y-94107000D01*
X106315000Y-94265750D01*
X106311928Y-94980000D01*
X101961249Y-94980000D01*
X103461249Y-92980000D01*
X106311928Y-92980000D01*
X106315000Y-93694250D01*
X106473750Y-93853000D01*
X107823000Y-93853000D01*
X107823000Y-92503750D01*
X108077000Y-92503750D01*
X108077000Y-93853000D01*
X108097000Y-93853000D01*
X108097000Y-94107000D01*
X108077000Y-94107000D01*
X108077000Y-95456250D01*
X108235750Y-95615000D01*
X108950000Y-95618072D01*
X109074482Y-95605812D01*
X109194180Y-95569502D01*
X109304494Y-95510537D01*
X109401185Y-95431185D01*
X109480537Y-95334494D01*
X109505191Y-95288370D01*
X109715537Y-95428918D01*
X110013088Y-95552168D01*
X110328967Y-95615000D01*
X110651033Y-95615000D01*
X110966912Y-95552168D01*
X111264463Y-95428918D01*
X111532252Y-95249987D01*
X111759987Y-95022252D01*
X111938918Y-94754463D01*
X112062168Y-94456912D01*
X112125000Y-94141033D01*
X112125000Y-93818967D01*
X112062168Y-93503088D01*
X111938918Y-93205537D01*
X111759987Y-92937748D01*
X111532252Y-92710013D01*
X111264463Y-92531082D01*
X110966912Y-92407832D01*
X110651033Y-92345000D01*
X110328967Y-92345000D01*
X110013088Y-92407832D01*
X109715537Y-92531082D01*
X109505191Y-92671630D01*
X109480537Y-92625506D01*
X109401185Y-92528815D01*
X109304494Y-92449463D01*
X109194180Y-92390498D01*
X109074482Y-92354188D01*
X108950000Y-92341928D01*
X108235750Y-92345000D01*
X108077000Y-92503750D01*
X107823000Y-92503750D01*
X107664250Y-92345000D01*
X106950000Y-92341928D01*
X106825518Y-92354188D01*
X106705820Y-92390498D01*
X106595506Y-92449463D01*
X106498815Y-92528815D01*
X106419463Y-92625506D01*
X106360498Y-92735820D01*
X106324188Y-92855518D01*
X106311928Y-92980000D01*
X103461249Y-92980000D01*
X108628749Y-86090000D01*
X112661928Y-86090000D01*
X112674188Y-86214482D01*
X112710498Y-86334180D01*
X112769463Y-86444494D01*
X112848815Y-86541185D01*
X112945506Y-86620537D01*
X113055820Y-86679502D01*
X113175518Y-86715812D01*
X113300000Y-86728072D01*
X114014250Y-86725000D01*
X114173000Y-86566250D01*
X114173000Y-85217000D01*
X112823750Y-85217000D01*
X112665000Y-85375750D01*
X112661928Y-86090000D01*
X108628749Y-86090000D01*
X110128749Y-84090000D01*
X112661928Y-84090000D01*
X112665000Y-84804250D01*
X112823750Y-84963000D01*
X114173000Y-84963000D01*
X114173000Y-83613750D01*
X114427000Y-83613750D01*
X114427000Y-84963000D01*
X114447000Y-84963000D01*
X114447000Y-85217000D01*
X114427000Y-85217000D01*
X114427000Y-86566250D01*
X114585750Y-86725000D01*
X115300000Y-86728072D01*
X115424482Y-86715812D01*
X115544180Y-86679502D01*
X115654494Y-86620537D01*
X115751185Y-86541185D01*
X115830537Y-86444494D01*
X115855191Y-86398370D01*
X116065537Y-86538918D01*
X116363088Y-86662168D01*
X116678967Y-86725000D01*
X117001033Y-86725000D01*
X117316912Y-86662168D01*
X117614463Y-86538918D01*
X117882252Y-86359987D01*
X118109987Y-86132252D01*
X118288918Y-85864463D01*
X118412168Y-85566912D01*
X118475000Y-85251033D01*
X118475000Y-84928967D01*
X118412168Y-84613088D01*
X118288918Y-84315537D01*
X118109987Y-84047748D01*
X117882252Y-83820013D01*
X117614463Y-83641082D01*
X117316912Y-83517832D01*
X117001033Y-83455000D01*
X116678967Y-83455000D01*
X116363088Y-83517832D01*
X116065537Y-83641082D01*
X115855191Y-83781630D01*
X115830537Y-83735506D01*
X115751185Y-83638815D01*
X115654494Y-83559463D01*
X115544180Y-83500498D01*
X115424482Y-83464188D01*
X115300000Y-83451928D01*
X114585750Y-83455000D01*
X114427000Y-83613750D01*
X114173000Y-83613750D01*
X114014250Y-83455000D01*
X113300000Y-83451928D01*
X113175518Y-83464188D01*
X113055820Y-83500498D01*
X112945506Y-83559463D01*
X112848815Y-83638815D01*
X112769463Y-83735506D01*
X112710498Y-83845820D01*
X112674188Y-83965518D01*
X112661928Y-84090000D01*
X110128749Y-84090000D01*
X113091738Y-80139349D01*
X113093545Y-80137000D01*
X147530842Y-80137000D01*
X147659065Y-80181828D01*
X147659065Y-80181828D01*
G37*
X147659065Y-80181828D02*
X147686671Y-80191863D01*
X147690767Y-80192911D01*
X147694763Y-80194308D01*
X147723349Y-80201247D01*
X147864989Y-80237487D01*
X147895482Y-80245479D01*
X147897452Y-80245793D01*
X147899390Y-80246289D01*
X147930651Y-80251088D01*
X148010513Y-80263824D01*
X148011865Y-80264318D01*
X148077036Y-80274433D01*
X148108941Y-80279521D01*
X148110374Y-80279607D01*
X148111791Y-80279827D01*
X148144072Y-80281630D01*
X148209882Y-80285582D01*
X148211306Y-80285387D01*
X148275102Y-80288951D01*
X148294152Y-80290827D01*
X148308687Y-80290827D01*
X148323186Y-80291637D01*
X148342293Y-80290827D01*
X151658322Y-80290827D01*
X151677429Y-80291637D01*
X151691927Y-80290827D01*
X151706462Y-80290827D01*
X151725513Y-80288951D01*
X151789312Y-80285386D01*
X151790738Y-80285582D01*
X151856526Y-80281631D01*
X151888818Y-80279827D01*
X151890239Y-80279607D01*
X151891679Y-80279520D01*
X151923689Y-80274415D01*
X151988745Y-80264317D01*
X151990098Y-80263823D01*
X152070032Y-80251074D01*
X152101227Y-80246284D01*
X152103156Y-80245790D01*
X152105121Y-80245477D01*
X152135652Y-80237475D01*
X152277333Y-80201218D01*
X152305851Y-80194293D01*
X152309827Y-80192903D01*
X152313921Y-80191855D01*
X152341577Y-80181800D01*
X152469694Y-80137000D01*
X186626500Y-80137000D01*
X197956322Y-95243429D01*
X149860000Y-149668214D01*
X111263225Y-105992916D01*
X113408949Y-105992916D01*
X113408949Y-106314982D01*
X113471781Y-106630861D01*
X113595031Y-106928412D01*
X113773962Y-107196201D01*
X114001697Y-107423936D01*
X114269486Y-107602867D01*
X114567037Y-107726117D01*
X114882916Y-107788949D01*
X115204982Y-107788949D01*
X115205004Y-107788945D01*
X115205000Y-107788967D01*
X115205000Y-108111033D01*
X115267832Y-108426912D01*
X115391082Y-108724463D01*
X115570013Y-108992252D01*
X115797748Y-109219987D01*
X116065537Y-109398918D01*
X116363088Y-109522168D01*
X116611207Y-109571522D01*
X116596025Y-109621569D01*
X116583765Y-109746051D01*
X116596025Y-109870533D01*
X116632335Y-109990231D01*
X116691300Y-110100545D01*
X116770652Y-110197236D01*
X118184866Y-111611450D01*
X118281557Y-111690802D01*
X118391871Y-111749767D01*
X118511569Y-111786077D01*
X118636051Y-111798337D01*
X118760533Y-111786077D01*
X118880231Y-111749767D01*
X118990545Y-111690802D01*
X119087236Y-111611450D01*
X120501450Y-110197236D01*
X120580802Y-110100545D01*
X120639767Y-109990231D01*
X120676077Y-109870533D01*
X120688337Y-109746051D01*
X120676077Y-109621569D01*
X120639767Y-109501871D01*
X120580802Y-109391557D01*
X120501450Y-109294866D01*
X119087236Y-107880652D01*
X118990545Y-107801300D01*
X118880231Y-107742335D01*
X118760533Y-107706025D01*
X118636051Y-107693765D01*
X118511569Y-107706025D01*
X118461522Y-107721207D01*
X118412168Y-107473088D01*
X118288918Y-107175537D01*
X118109987Y-106907748D01*
X117882252Y-106680013D01*
X117614463Y-106501082D01*
X117316912Y-106377832D01*
X117001033Y-106315000D01*
X116678967Y-106315000D01*
X116678945Y-106315004D01*
X116678949Y-106314982D01*
X116678949Y-105992916D01*
X116616117Y-105677037D01*
X116492867Y-105379486D01*
X116313936Y-105111697D01*
X116086201Y-104883962D01*
X115818412Y-104705031D01*
X115520861Y-104581781D01*
X115204982Y-104518949D01*
X114882916Y-104518949D01*
X114567037Y-104581781D01*
X114269486Y-104705031D01*
X114001697Y-104883962D01*
X113773962Y-105111697D01*
X113595031Y-105379486D01*
X113471781Y-105677037D01*
X113408949Y-105992916D01*
X111263225Y-105992916D01*
X102891811Y-96520000D01*
X117938057Y-96520000D01*
X117965764Y-96801309D01*
X118047818Y-97071808D01*
X118181068Y-97321101D01*
X118360392Y-97539608D01*
X118578899Y-97718932D01*
X118711858Y-97790000D01*
X118578899Y-97861068D01*
X118360392Y-98040392D01*
X118181068Y-98258899D01*
X118047818Y-98508192D01*
X117965764Y-98778691D01*
X117938057Y-99060000D01*
X117965764Y-99341309D01*
X118047818Y-99611808D01*
X118181068Y-99861101D01*
X118360392Y-100079608D01*
X118578899Y-100258932D01*
X118828192Y-100392182D01*
X119098691Y-100474236D01*
X119309508Y-100495000D01*
X119450492Y-100495000D01*
X119661309Y-100474236D01*
X119931808Y-100392182D01*
X120181101Y-100258932D01*
X120399608Y-100079608D01*
X120578932Y-99861101D01*
X120712182Y-99611808D01*
X120794236Y-99341309D01*
X120821943Y-99060000D01*
X120794236Y-98778691D01*
X120712182Y-98508192D01*
X120578932Y-98258899D01*
X120399608Y-98040392D01*
X120181101Y-97861068D01*
X120048142Y-97790000D01*
X120181101Y-97718932D01*
X120399608Y-97539608D01*
X120578932Y-97321101D01*
X120712182Y-97071808D01*
X120794236Y-96801309D01*
X120821943Y-96520000D01*
X120808023Y-96378665D01*
X128105000Y-96378665D01*
X128105000Y-96661335D01*
X128160147Y-96938574D01*
X128268320Y-97199727D01*
X128425363Y-97434759D01*
X128625241Y-97634637D01*
X128857759Y-97790000D01*
X128625241Y-97945363D01*
X128425363Y-98145241D01*
X128268320Y-98380273D01*
X128160147Y-98641426D01*
X128105000Y-98918665D01*
X128105000Y-99201335D01*
X128160147Y-99478574D01*
X128268320Y-99739727D01*
X128425363Y-99974759D01*
X128625241Y-100174637D01*
X128860273Y-100331680D01*
X129121426Y-100439853D01*
X129398665Y-100495000D01*
X129681335Y-100495000D01*
X129958574Y-100439853D01*
X130219727Y-100331680D01*
X130454759Y-100174637D01*
X130654637Y-99974759D01*
X130811680Y-99739727D01*
X130919853Y-99478574D01*
X130975000Y-99201335D01*
X130975000Y-98918665D01*
X130919853Y-98641426D01*
X130811680Y-98380273D01*
X130654637Y-98145241D01*
X130454759Y-97945363D01*
X130222241Y-97790000D01*
X130454759Y-97634637D01*
X130654637Y-97434759D01*
X130811680Y-97199727D01*
X130919853Y-96938574D01*
X130975000Y-96661335D01*
X130975000Y-96378665D01*
X130919853Y-96101426D01*
X130811680Y-95840273D01*
X130654637Y-95605241D01*
X130454759Y-95405363D01*
X130219727Y-95248320D01*
X129958574Y-95140147D01*
X129681335Y-95085000D01*
X129398665Y-95085000D01*
X129121426Y-95140147D01*
X128860273Y-95248320D01*
X128625241Y-95405363D01*
X128425363Y-95605241D01*
X128268320Y-95840273D01*
X128160147Y-96101426D01*
X128105000Y-96378665D01*
X120808023Y-96378665D01*
X120794236Y-96238691D01*
X120712182Y-95968192D01*
X120578932Y-95718899D01*
X120399608Y-95500392D01*
X120181101Y-95321068D01*
X119931808Y-95187818D01*
X119661309Y-95105764D01*
X119450492Y-95085000D01*
X119309508Y-95085000D01*
X119098691Y-95105764D01*
X118828192Y-95187818D01*
X118578899Y-95321068D01*
X118360392Y-95500392D01*
X118181068Y-95718899D01*
X118047818Y-95968192D01*
X117965764Y-96238691D01*
X117938057Y-96520000D01*
X102891811Y-96520000D01*
X101763678Y-95243429D01*
X101961249Y-94980000D01*
X106311928Y-94980000D01*
X106324188Y-95104482D01*
X106360498Y-95224180D01*
X106419463Y-95334494D01*
X106498815Y-95431185D01*
X106595506Y-95510537D01*
X106705820Y-95569502D01*
X106825518Y-95605812D01*
X106950000Y-95618072D01*
X107664250Y-95615000D01*
X107823000Y-95456250D01*
X107823000Y-94107000D01*
X106473750Y-94107000D01*
X106315000Y-94265750D01*
X106311928Y-94980000D01*
X101961249Y-94980000D01*
X103461249Y-92980000D01*
X106311928Y-92980000D01*
X106315000Y-93694250D01*
X106473750Y-93853000D01*
X107823000Y-93853000D01*
X107823000Y-92503750D01*
X108077000Y-92503750D01*
X108077000Y-93853000D01*
X108097000Y-93853000D01*
X108097000Y-94107000D01*
X108077000Y-94107000D01*
X108077000Y-95456250D01*
X108235750Y-95615000D01*
X108950000Y-95618072D01*
X109074482Y-95605812D01*
X109194180Y-95569502D01*
X109304494Y-95510537D01*
X109401185Y-95431185D01*
X109480537Y-95334494D01*
X109505191Y-95288370D01*
X109715537Y-95428918D01*
X110013088Y-95552168D01*
X110328967Y-95615000D01*
X110651033Y-95615000D01*
X110966912Y-95552168D01*
X111264463Y-95428918D01*
X111532252Y-95249987D01*
X111759987Y-95022252D01*
X111938918Y-94754463D01*
X112062168Y-94456912D01*
X112125000Y-94141033D01*
X112125000Y-93818967D01*
X112062168Y-93503088D01*
X111938918Y-93205537D01*
X111759987Y-92937748D01*
X111532252Y-92710013D01*
X111264463Y-92531082D01*
X110966912Y-92407832D01*
X110651033Y-92345000D01*
X110328967Y-92345000D01*
X110013088Y-92407832D01*
X109715537Y-92531082D01*
X109505191Y-92671630D01*
X109480537Y-92625506D01*
X109401185Y-92528815D01*
X109304494Y-92449463D01*
X109194180Y-92390498D01*
X109074482Y-92354188D01*
X108950000Y-92341928D01*
X108235750Y-92345000D01*
X108077000Y-92503750D01*
X107823000Y-92503750D01*
X107664250Y-92345000D01*
X106950000Y-92341928D01*
X106825518Y-92354188D01*
X106705820Y-92390498D01*
X106595506Y-92449463D01*
X106498815Y-92528815D01*
X106419463Y-92625506D01*
X106360498Y-92735820D01*
X106324188Y-92855518D01*
X106311928Y-92980000D01*
X103461249Y-92980000D01*
X108628749Y-86090000D01*
X112661928Y-86090000D01*
X112674188Y-86214482D01*
X112710498Y-86334180D01*
X112769463Y-86444494D01*
X112848815Y-86541185D01*
X112945506Y-86620537D01*
X113055820Y-86679502D01*
X113175518Y-86715812D01*
X113300000Y-86728072D01*
X114014250Y-86725000D01*
X114173000Y-86566250D01*
X114173000Y-85217000D01*
X112823750Y-85217000D01*
X112665000Y-85375750D01*
X112661928Y-86090000D01*
X108628749Y-86090000D01*
X110128749Y-84090000D01*
X112661928Y-84090000D01*
X112665000Y-84804250D01*
X112823750Y-84963000D01*
X114173000Y-84963000D01*
X114173000Y-83613750D01*
X114427000Y-83613750D01*
X114427000Y-84963000D01*
X114447000Y-84963000D01*
X114447000Y-85217000D01*
X114427000Y-85217000D01*
X114427000Y-86566250D01*
X114585750Y-86725000D01*
X115300000Y-86728072D01*
X115424482Y-86715812D01*
X115544180Y-86679502D01*
X115654494Y-86620537D01*
X115751185Y-86541185D01*
X115830537Y-86444494D01*
X115855191Y-86398370D01*
X116065537Y-86538918D01*
X116363088Y-86662168D01*
X116678967Y-86725000D01*
X117001033Y-86725000D01*
X117316912Y-86662168D01*
X117614463Y-86538918D01*
X117882252Y-86359987D01*
X118109987Y-86132252D01*
X118288918Y-85864463D01*
X118412168Y-85566912D01*
X118475000Y-85251033D01*
X118475000Y-84928967D01*
X118412168Y-84613088D01*
X118288918Y-84315537D01*
X118109987Y-84047748D01*
X117882252Y-83820013D01*
X117614463Y-83641082D01*
X117316912Y-83517832D01*
X117001033Y-83455000D01*
X116678967Y-83455000D01*
X116363088Y-83517832D01*
X116065537Y-83641082D01*
X115855191Y-83781630D01*
X115830537Y-83735506D01*
X115751185Y-83638815D01*
X115654494Y-83559463D01*
X115544180Y-83500498D01*
X115424482Y-83464188D01*
X115300000Y-83451928D01*
X114585750Y-83455000D01*
X114427000Y-83613750D01*
X114173000Y-83613750D01*
X114014250Y-83455000D01*
X113300000Y-83451928D01*
X113175518Y-83464188D01*
X113055820Y-83500498D01*
X112945506Y-83559463D01*
X112848815Y-83638815D01*
X112769463Y-83735506D01*
X112710498Y-83845820D01*
X112674188Y-83965518D01*
X112661928Y-84090000D01*
X110128749Y-84090000D01*
X113091738Y-80139349D01*
X113093545Y-80137000D01*
X147530842Y-80137000D01*
X147659065Y-80181828D01*
M02*
