G04 #@! TF.GenerationSoftware,KiCad,Pcbnew,(5.1.2)-1*
G04 #@! TF.CreationDate,2019-06-22T12:29:30-06:00*
G04 #@! TF.ProjectId,superhashtagpcb,73757065-7268-4617-9368-746167706362,rev?*
G04 #@! TF.SameCoordinates,Original*
G04 #@! TF.FileFunction,Copper,L1,Top*
G04 #@! TF.FilePolarity,Positive*
%FSLAX46Y46*%
G04 Gerber Fmt 4.6, Leading zero omitted, Abs format (unit mm)*
G04 Created by KiCad (PCBNEW (5.1.2)-1) date 2019-06-22 12:29:30*
%MOMM*%
%LPD*%
G04 APERTURE LIST*
%ADD10R,1.270000X5.080000*%
%ADD11R,3.960000X3.960000*%
%ADD12R,2.000000X2.000000*%
%ADD13C,2.000000*%
%ADD14C,1.600000*%
%ADD15O,1.600000X1.600000*%
%ADD16C,0.100000*%
%ADD17C,0.600000*%
%ADD18C,0.250000*%
%ADD19C,0.254000*%
G04 APERTURE END LIST*
D10*
X160845000Y-132080000D03*
X138875000Y-132080000D03*
D11*
X149860000Y-132080000D03*
D12*
X114300000Y-85090000D03*
D13*
X116840000Y-85090000D03*
D12*
X107950000Y-93980000D03*
D13*
X110490000Y-93980000D03*
D14*
X129540000Y-96520000D03*
D15*
X119380000Y-96520000D03*
D14*
X129540000Y-99060000D03*
D15*
X119380000Y-99060000D03*
D13*
X115043949Y-106153949D03*
X116840000Y-107950000D03*
X118636051Y-109746051D03*
D16*
G36*
X120050265Y-109746051D02*
G01*
X118636051Y-111160265D01*
X117221837Y-109746051D01*
X118636051Y-108331837D01*
X120050265Y-109746051D01*
X120050265Y-109746051D01*
G37*
D17*
X149860000Y-144780000D03*
D18*
X114300000Y-87630000D02*
X107950000Y-93980000D01*
X114300000Y-85090000D02*
X114300000Y-87630000D01*
X149860000Y-132080000D02*
X149860000Y-144780000D01*
X117839999Y-86089999D02*
X116840000Y-85090000D01*
X120505001Y-88755001D02*
X117839999Y-86089999D01*
X120505001Y-95394999D02*
X120505001Y-88755001D01*
X119380000Y-96520000D02*
X120505001Y-95394999D01*
X115570000Y-99060000D02*
X110490000Y-93980000D01*
X119380000Y-99060000D02*
X115570000Y-99060000D01*
X125730000Y-99060000D02*
X116840000Y-107950000D01*
X129540000Y-99060000D02*
X125730000Y-99060000D01*
X129540000Y-99060000D02*
X129540000Y-96520000D01*
D19*
G36*
X147659065Y-80181828D02*
G01*
X147686671Y-80191863D01*
X147690767Y-80192911D01*
X147694763Y-80194308D01*
X147723349Y-80201247D01*
X147864989Y-80237487D01*
X147895482Y-80245479D01*
X147897452Y-80245793D01*
X147899390Y-80246289D01*
X147930651Y-80251088D01*
X148010513Y-80263824D01*
X148011865Y-80264318D01*
X148077036Y-80274433D01*
X148108941Y-80279521D01*
X148110374Y-80279607D01*
X148111791Y-80279827D01*
X148144072Y-80281630D01*
X148209882Y-80285582D01*
X148211306Y-80285387D01*
X148275102Y-80288951D01*
X148294152Y-80290827D01*
X148308687Y-80290827D01*
X148323186Y-80291637D01*
X148342293Y-80290827D01*
X151658322Y-80290827D01*
X151677429Y-80291637D01*
X151691927Y-80290827D01*
X151706462Y-80290827D01*
X151725513Y-80288951D01*
X151789312Y-80285386D01*
X151790738Y-80285582D01*
X151856526Y-80281631D01*
X151888818Y-80279827D01*
X151890239Y-80279607D01*
X151891679Y-80279520D01*
X151923689Y-80274415D01*
X151988745Y-80264317D01*
X151990098Y-80263823D01*
X152070032Y-80251074D01*
X152101227Y-80246284D01*
X152103156Y-80245790D01*
X152105121Y-80245477D01*
X152135652Y-80237475D01*
X152277333Y-80201218D01*
X152305851Y-80194293D01*
X152309827Y-80192903D01*
X152313921Y-80191855D01*
X152341577Y-80181800D01*
X152469694Y-80137000D01*
X186626500Y-80137000D01*
X197956322Y-95243429D01*
X149860000Y-149668214D01*
X136561579Y-134620000D01*
X137601928Y-134620000D01*
X137614188Y-134744482D01*
X137650498Y-134864180D01*
X137709463Y-134974494D01*
X137788815Y-135071185D01*
X137885506Y-135150537D01*
X137995820Y-135209502D01*
X138115518Y-135245812D01*
X138240000Y-135258072D01*
X138589250Y-135255000D01*
X138748000Y-135096250D01*
X138748000Y-132207000D01*
X139002000Y-132207000D01*
X139002000Y-135096250D01*
X139160750Y-135255000D01*
X139510000Y-135258072D01*
X139634482Y-135245812D01*
X139754180Y-135209502D01*
X139864494Y-135150537D01*
X139961185Y-135071185D01*
X140040537Y-134974494D01*
X140099502Y-134864180D01*
X140135812Y-134744482D01*
X140148072Y-134620000D01*
X140145000Y-132365750D01*
X139986250Y-132207000D01*
X139002000Y-132207000D01*
X138748000Y-132207000D01*
X137763750Y-132207000D01*
X137605000Y-132365750D01*
X137601928Y-134620000D01*
X136561579Y-134620000D01*
X132072277Y-129540000D01*
X137601928Y-129540000D01*
X137605000Y-131794250D01*
X137763750Y-131953000D01*
X138748000Y-131953000D01*
X138748000Y-129063750D01*
X139002000Y-129063750D01*
X139002000Y-131953000D01*
X139986250Y-131953000D01*
X140145000Y-131794250D01*
X140147308Y-130100000D01*
X147241928Y-130100000D01*
X147241928Y-134060000D01*
X147254188Y-134184482D01*
X147290498Y-134304180D01*
X147349463Y-134414494D01*
X147428815Y-134511185D01*
X147525506Y-134590537D01*
X147635820Y-134649502D01*
X147755518Y-134685812D01*
X147880000Y-134698072D01*
X149100000Y-134698072D01*
X149100001Y-144234463D01*
X149031414Y-144337111D01*
X148960932Y-144507271D01*
X148925000Y-144687911D01*
X148925000Y-144872089D01*
X148960932Y-145052729D01*
X149031414Y-145222889D01*
X149133738Y-145376028D01*
X149263972Y-145506262D01*
X149417111Y-145608586D01*
X149587271Y-145679068D01*
X149767911Y-145715000D01*
X149952089Y-145715000D01*
X150132729Y-145679068D01*
X150302889Y-145608586D01*
X150456028Y-145506262D01*
X150586262Y-145376028D01*
X150688586Y-145222889D01*
X150759068Y-145052729D01*
X150795000Y-144872089D01*
X150795000Y-144687911D01*
X150759068Y-144507271D01*
X150688586Y-144337111D01*
X150620000Y-144234465D01*
X150620000Y-134698072D01*
X151840000Y-134698072D01*
X151964482Y-134685812D01*
X152084180Y-134649502D01*
X152139373Y-134620000D01*
X159571928Y-134620000D01*
X159584188Y-134744482D01*
X159620498Y-134864180D01*
X159679463Y-134974494D01*
X159758815Y-135071185D01*
X159855506Y-135150537D01*
X159965820Y-135209502D01*
X160085518Y-135245812D01*
X160210000Y-135258072D01*
X160559250Y-135255000D01*
X160718000Y-135096250D01*
X160718000Y-132207000D01*
X160972000Y-132207000D01*
X160972000Y-135096250D01*
X161130750Y-135255000D01*
X161480000Y-135258072D01*
X161604482Y-135245812D01*
X161724180Y-135209502D01*
X161834494Y-135150537D01*
X161931185Y-135071185D01*
X162010537Y-134974494D01*
X162069502Y-134864180D01*
X162105812Y-134744482D01*
X162118072Y-134620000D01*
X162115000Y-132365750D01*
X161956250Y-132207000D01*
X160972000Y-132207000D01*
X160718000Y-132207000D01*
X159733750Y-132207000D01*
X159575000Y-132365750D01*
X159571928Y-134620000D01*
X152139373Y-134620000D01*
X152194494Y-134590537D01*
X152291185Y-134511185D01*
X152370537Y-134414494D01*
X152429502Y-134304180D01*
X152465812Y-134184482D01*
X152478072Y-134060000D01*
X152478072Y-130100000D01*
X152465812Y-129975518D01*
X152429502Y-129855820D01*
X152370537Y-129745506D01*
X152291185Y-129648815D01*
X152194494Y-129569463D01*
X152139374Y-129540000D01*
X159571928Y-129540000D01*
X159575000Y-131794250D01*
X159733750Y-131953000D01*
X160718000Y-131953000D01*
X160718000Y-129063750D01*
X160972000Y-129063750D01*
X160972000Y-131953000D01*
X161956250Y-131953000D01*
X162115000Y-131794250D01*
X162118072Y-129540000D01*
X162105812Y-129415518D01*
X162069502Y-129295820D01*
X162010537Y-129185506D01*
X161931185Y-129088815D01*
X161834494Y-129009463D01*
X161724180Y-128950498D01*
X161604482Y-128914188D01*
X161480000Y-128901928D01*
X161130750Y-128905000D01*
X160972000Y-129063750D01*
X160718000Y-129063750D01*
X160559250Y-128905000D01*
X160210000Y-128901928D01*
X160085518Y-128914188D01*
X159965820Y-128950498D01*
X159855506Y-129009463D01*
X159758815Y-129088815D01*
X159679463Y-129185506D01*
X159620498Y-129295820D01*
X159584188Y-129415518D01*
X159571928Y-129540000D01*
X152139374Y-129540000D01*
X152084180Y-129510498D01*
X151964482Y-129474188D01*
X151840000Y-129461928D01*
X147880000Y-129461928D01*
X147755518Y-129474188D01*
X147635820Y-129510498D01*
X147525506Y-129569463D01*
X147428815Y-129648815D01*
X147349463Y-129745506D01*
X147290498Y-129855820D01*
X147254188Y-129975518D01*
X147241928Y-130100000D01*
X140147308Y-130100000D01*
X140148072Y-129540000D01*
X140135812Y-129415518D01*
X140099502Y-129295820D01*
X140040537Y-129185506D01*
X139961185Y-129088815D01*
X139864494Y-129009463D01*
X139754180Y-128950498D01*
X139634482Y-128914188D01*
X139510000Y-128901928D01*
X139160750Y-128905000D01*
X139002000Y-129063750D01*
X138748000Y-129063750D01*
X138589250Y-128905000D01*
X138240000Y-128901928D01*
X138115518Y-128914188D01*
X137995820Y-128950498D01*
X137885506Y-129009463D01*
X137788815Y-129088815D01*
X137709463Y-129185506D01*
X137650498Y-129295820D01*
X137614188Y-129415518D01*
X137601928Y-129540000D01*
X132072277Y-129540000D01*
X115581796Y-110879720D01*
X117681987Y-110879720D01*
X117681987Y-111104226D01*
X118184866Y-111611450D01*
X118281557Y-111690803D01*
X118391871Y-111749767D01*
X118511570Y-111786076D01*
X118636051Y-111798337D01*
X118760532Y-111786076D01*
X118880231Y-111749767D01*
X118990545Y-111690803D01*
X119087236Y-111611450D01*
X119590115Y-111104226D01*
X119590115Y-110879720D01*
X118636051Y-109925656D01*
X117681987Y-110879720D01*
X115581796Y-110879720D01*
X111263225Y-105992916D01*
X113408949Y-105992916D01*
X113408949Y-106314982D01*
X113471781Y-106630861D01*
X113595031Y-106928412D01*
X113773962Y-107196201D01*
X114001697Y-107423936D01*
X114269486Y-107602867D01*
X114567037Y-107726117D01*
X114882916Y-107788949D01*
X115204982Y-107788949D01*
X115205004Y-107788945D01*
X115205000Y-107788967D01*
X115205000Y-108111033D01*
X115267832Y-108426912D01*
X115391082Y-108724463D01*
X115570013Y-108992252D01*
X115797748Y-109219987D01*
X116065537Y-109398918D01*
X116363088Y-109522168D01*
X116611207Y-109571522D01*
X116596026Y-109621570D01*
X116583765Y-109746051D01*
X116596026Y-109870532D01*
X116632335Y-109990231D01*
X116691299Y-110100545D01*
X116770652Y-110197236D01*
X117277876Y-110700115D01*
X117502382Y-110700115D01*
X118456446Y-109746051D01*
X118815656Y-109746051D01*
X119769720Y-110700115D01*
X119994226Y-110700115D01*
X120501450Y-110197236D01*
X120580803Y-110100545D01*
X120639767Y-109990231D01*
X120676076Y-109870532D01*
X120688337Y-109746051D01*
X120676076Y-109621570D01*
X120639767Y-109501871D01*
X120580803Y-109391557D01*
X120501450Y-109294866D01*
X119994226Y-108791987D01*
X119769720Y-108791987D01*
X118815656Y-109746051D01*
X118456446Y-109746051D01*
X118442304Y-109731909D01*
X118621909Y-109552304D01*
X118636051Y-109566446D01*
X119590115Y-108612382D01*
X119590115Y-108387876D01*
X119087236Y-107880652D01*
X118990545Y-107801299D01*
X118880231Y-107742335D01*
X118760532Y-107706026D01*
X118636051Y-107693765D01*
X118511570Y-107706026D01*
X118461522Y-107721207D01*
X118412168Y-107473088D01*
X118406177Y-107458624D01*
X126044802Y-99820000D01*
X128321957Y-99820000D01*
X128425363Y-99974759D01*
X128625241Y-100174637D01*
X128860273Y-100331680D01*
X129121426Y-100439853D01*
X129398665Y-100495000D01*
X129681335Y-100495000D01*
X129958574Y-100439853D01*
X130219727Y-100331680D01*
X130454759Y-100174637D01*
X130654637Y-99974759D01*
X130811680Y-99739727D01*
X130919853Y-99478574D01*
X130975000Y-99201335D01*
X130975000Y-98918665D01*
X130919853Y-98641426D01*
X130811680Y-98380273D01*
X130654637Y-98145241D01*
X130454759Y-97945363D01*
X130300000Y-97841957D01*
X130300000Y-97738043D01*
X130454759Y-97634637D01*
X130654637Y-97434759D01*
X130811680Y-97199727D01*
X130919853Y-96938574D01*
X130975000Y-96661335D01*
X130975000Y-96378665D01*
X130919853Y-96101426D01*
X130811680Y-95840273D01*
X130654637Y-95605241D01*
X130454759Y-95405363D01*
X130219727Y-95248320D01*
X129958574Y-95140147D01*
X129681335Y-95085000D01*
X129398665Y-95085000D01*
X129121426Y-95140147D01*
X128860273Y-95248320D01*
X128625241Y-95405363D01*
X128425363Y-95605241D01*
X128268320Y-95840273D01*
X128160147Y-96101426D01*
X128105000Y-96378665D01*
X128105000Y-96661335D01*
X128160147Y-96938574D01*
X128268320Y-97199727D01*
X128425363Y-97434759D01*
X128625241Y-97634637D01*
X128780001Y-97738044D01*
X128780000Y-97841956D01*
X128625241Y-97945363D01*
X128425363Y-98145241D01*
X128321957Y-98300000D01*
X125767333Y-98300000D01*
X125730000Y-98296323D01*
X125692667Y-98300000D01*
X125581014Y-98310997D01*
X125437753Y-98354454D01*
X125305724Y-98425026D01*
X125189999Y-98519999D01*
X125166201Y-98548997D01*
X117331376Y-106383823D01*
X117316912Y-106377832D01*
X117001033Y-106315000D01*
X116678967Y-106315000D01*
X116678945Y-106315004D01*
X116678949Y-106314982D01*
X116678949Y-105992916D01*
X116616117Y-105677037D01*
X116492867Y-105379486D01*
X116313936Y-105111697D01*
X116086201Y-104883962D01*
X115818412Y-104705031D01*
X115520861Y-104581781D01*
X115204982Y-104518949D01*
X114882916Y-104518949D01*
X114567037Y-104581781D01*
X114269486Y-104705031D01*
X114001697Y-104883962D01*
X113773962Y-105111697D01*
X113595031Y-105379486D01*
X113471781Y-105677037D01*
X113408949Y-105992916D01*
X111263225Y-105992916D01*
X101763678Y-95243429D01*
X103461249Y-92980000D01*
X106311928Y-92980000D01*
X106311928Y-94980000D01*
X106324188Y-95104482D01*
X106360498Y-95224180D01*
X106419463Y-95334494D01*
X106498815Y-95431185D01*
X106595506Y-95510537D01*
X106705820Y-95569502D01*
X106825518Y-95605812D01*
X106950000Y-95618072D01*
X108950000Y-95618072D01*
X109074482Y-95605812D01*
X109194180Y-95569502D01*
X109304494Y-95510537D01*
X109401185Y-95431185D01*
X109480537Y-95334494D01*
X109505191Y-95288370D01*
X109715537Y-95428918D01*
X110013088Y-95552168D01*
X110328967Y-95615000D01*
X110651033Y-95615000D01*
X110966912Y-95552168D01*
X110981376Y-95546177D01*
X115006201Y-99571003D01*
X115029999Y-99600001D01*
X115058997Y-99623799D01*
X115145723Y-99694974D01*
X115277753Y-99765546D01*
X115421014Y-99809003D01*
X115532667Y-99820000D01*
X115532677Y-99820000D01*
X115570000Y-99823676D01*
X115607323Y-99820000D01*
X118159099Y-99820000D01*
X118181068Y-99861101D01*
X118360392Y-100079608D01*
X118578899Y-100258932D01*
X118828192Y-100392182D01*
X119098691Y-100474236D01*
X119309508Y-100495000D01*
X119450492Y-100495000D01*
X119661309Y-100474236D01*
X119931808Y-100392182D01*
X120181101Y-100258932D01*
X120399608Y-100079608D01*
X120578932Y-99861101D01*
X120712182Y-99611808D01*
X120794236Y-99341309D01*
X120821943Y-99060000D01*
X120794236Y-98778691D01*
X120712182Y-98508192D01*
X120578932Y-98258899D01*
X120399608Y-98040392D01*
X120181101Y-97861068D01*
X120048142Y-97790000D01*
X120181101Y-97718932D01*
X120399608Y-97539608D01*
X120578932Y-97321101D01*
X120712182Y-97071808D01*
X120794236Y-96801309D01*
X120821943Y-96520000D01*
X120794236Y-96238691D01*
X120780708Y-96194094D01*
X121016005Y-95958797D01*
X121045002Y-95935000D01*
X121139975Y-95819275D01*
X121210547Y-95687246D01*
X121254004Y-95543985D01*
X121265001Y-95432332D01*
X121265001Y-95432324D01*
X121268677Y-95394999D01*
X121265001Y-95357674D01*
X121265001Y-88792324D01*
X121268677Y-88755001D01*
X121265001Y-88717678D01*
X121265001Y-88717668D01*
X121254004Y-88606015D01*
X121210547Y-88462754D01*
X121142552Y-88335546D01*
X121139975Y-88330724D01*
X121068800Y-88243998D01*
X121045002Y-88215000D01*
X121016004Y-88191202D01*
X118406177Y-85581376D01*
X118412168Y-85566912D01*
X118475000Y-85251033D01*
X118475000Y-84928967D01*
X118412168Y-84613088D01*
X118288918Y-84315537D01*
X118109987Y-84047748D01*
X117882252Y-83820013D01*
X117614463Y-83641082D01*
X117316912Y-83517832D01*
X117001033Y-83455000D01*
X116678967Y-83455000D01*
X116363088Y-83517832D01*
X116065537Y-83641082D01*
X115855191Y-83781630D01*
X115830537Y-83735506D01*
X115751185Y-83638815D01*
X115654494Y-83559463D01*
X115544180Y-83500498D01*
X115424482Y-83464188D01*
X115300000Y-83451928D01*
X113300000Y-83451928D01*
X113175518Y-83464188D01*
X113055820Y-83500498D01*
X112945506Y-83559463D01*
X112848815Y-83638815D01*
X112769463Y-83735506D01*
X112710498Y-83845820D01*
X112674188Y-83965518D01*
X112661928Y-84090000D01*
X112661928Y-86090000D01*
X112674188Y-86214482D01*
X112710498Y-86334180D01*
X112769463Y-86444494D01*
X112848815Y-86541185D01*
X112945506Y-86620537D01*
X113055820Y-86679502D01*
X113175518Y-86715812D01*
X113300000Y-86728072D01*
X113540001Y-86728072D01*
X113540001Y-87315197D01*
X108513271Y-92341928D01*
X106950000Y-92341928D01*
X106825518Y-92354188D01*
X106705820Y-92390498D01*
X106595506Y-92449463D01*
X106498815Y-92528815D01*
X106419463Y-92625506D01*
X106360498Y-92735820D01*
X106324188Y-92855518D01*
X106311928Y-92980000D01*
X103461249Y-92980000D01*
X113091738Y-80139349D01*
X113093545Y-80137000D01*
X147530842Y-80137000D01*
X147659065Y-80181828D01*
X147659065Y-80181828D01*
G37*
X147659065Y-80181828D02*
X147686671Y-80191863D01*
X147690767Y-80192911D01*
X147694763Y-80194308D01*
X147723349Y-80201247D01*
X147864989Y-80237487D01*
X147895482Y-80245479D01*
X147897452Y-80245793D01*
X147899390Y-80246289D01*
X147930651Y-80251088D01*
X148010513Y-80263824D01*
X148011865Y-80264318D01*
X148077036Y-80274433D01*
X148108941Y-80279521D01*
X148110374Y-80279607D01*
X148111791Y-80279827D01*
X148144072Y-80281630D01*
X148209882Y-80285582D01*
X148211306Y-80285387D01*
X148275102Y-80288951D01*
X148294152Y-80290827D01*
X148308687Y-80290827D01*
X148323186Y-80291637D01*
X148342293Y-80290827D01*
X151658322Y-80290827D01*
X151677429Y-80291637D01*
X151691927Y-80290827D01*
X151706462Y-80290827D01*
X151725513Y-80288951D01*
X151789312Y-80285386D01*
X151790738Y-80285582D01*
X151856526Y-80281631D01*
X151888818Y-80279827D01*
X151890239Y-80279607D01*
X151891679Y-80279520D01*
X151923689Y-80274415D01*
X151988745Y-80264317D01*
X151990098Y-80263823D01*
X152070032Y-80251074D01*
X152101227Y-80246284D01*
X152103156Y-80245790D01*
X152105121Y-80245477D01*
X152135652Y-80237475D01*
X152277333Y-80201218D01*
X152305851Y-80194293D01*
X152309827Y-80192903D01*
X152313921Y-80191855D01*
X152341577Y-80181800D01*
X152469694Y-80137000D01*
X186626500Y-80137000D01*
X197956322Y-95243429D01*
X149860000Y-149668214D01*
X136561579Y-134620000D01*
X137601928Y-134620000D01*
X137614188Y-134744482D01*
X137650498Y-134864180D01*
X137709463Y-134974494D01*
X137788815Y-135071185D01*
X137885506Y-135150537D01*
X137995820Y-135209502D01*
X138115518Y-135245812D01*
X138240000Y-135258072D01*
X138589250Y-135255000D01*
X138748000Y-135096250D01*
X138748000Y-132207000D01*
X139002000Y-132207000D01*
X139002000Y-135096250D01*
X139160750Y-135255000D01*
X139510000Y-135258072D01*
X139634482Y-135245812D01*
X139754180Y-135209502D01*
X139864494Y-135150537D01*
X139961185Y-135071185D01*
X140040537Y-134974494D01*
X140099502Y-134864180D01*
X140135812Y-134744482D01*
X140148072Y-134620000D01*
X140145000Y-132365750D01*
X139986250Y-132207000D01*
X139002000Y-132207000D01*
X138748000Y-132207000D01*
X137763750Y-132207000D01*
X137605000Y-132365750D01*
X137601928Y-134620000D01*
X136561579Y-134620000D01*
X132072277Y-129540000D01*
X137601928Y-129540000D01*
X137605000Y-131794250D01*
X137763750Y-131953000D01*
X138748000Y-131953000D01*
X138748000Y-129063750D01*
X139002000Y-129063750D01*
X139002000Y-131953000D01*
X139986250Y-131953000D01*
X140145000Y-131794250D01*
X140147308Y-130100000D01*
X147241928Y-130100000D01*
X147241928Y-134060000D01*
X147254188Y-134184482D01*
X147290498Y-134304180D01*
X147349463Y-134414494D01*
X147428815Y-134511185D01*
X147525506Y-134590537D01*
X147635820Y-134649502D01*
X147755518Y-134685812D01*
X147880000Y-134698072D01*
X149100000Y-134698072D01*
X149100001Y-144234463D01*
X149031414Y-144337111D01*
X148960932Y-144507271D01*
X148925000Y-144687911D01*
X148925000Y-144872089D01*
X148960932Y-145052729D01*
X149031414Y-145222889D01*
X149133738Y-145376028D01*
X149263972Y-145506262D01*
X149417111Y-145608586D01*
X149587271Y-145679068D01*
X149767911Y-145715000D01*
X149952089Y-145715000D01*
X150132729Y-145679068D01*
X150302889Y-145608586D01*
X150456028Y-145506262D01*
X150586262Y-145376028D01*
X150688586Y-145222889D01*
X150759068Y-145052729D01*
X150795000Y-144872089D01*
X150795000Y-144687911D01*
X150759068Y-144507271D01*
X150688586Y-144337111D01*
X150620000Y-144234465D01*
X150620000Y-134698072D01*
X151840000Y-134698072D01*
X151964482Y-134685812D01*
X152084180Y-134649502D01*
X152139373Y-134620000D01*
X159571928Y-134620000D01*
X159584188Y-134744482D01*
X159620498Y-134864180D01*
X159679463Y-134974494D01*
X159758815Y-135071185D01*
X159855506Y-135150537D01*
X159965820Y-135209502D01*
X160085518Y-135245812D01*
X160210000Y-135258072D01*
X160559250Y-135255000D01*
X160718000Y-135096250D01*
X160718000Y-132207000D01*
X160972000Y-132207000D01*
X160972000Y-135096250D01*
X161130750Y-135255000D01*
X161480000Y-135258072D01*
X161604482Y-135245812D01*
X161724180Y-135209502D01*
X161834494Y-135150537D01*
X161931185Y-135071185D01*
X162010537Y-134974494D01*
X162069502Y-134864180D01*
X162105812Y-134744482D01*
X162118072Y-134620000D01*
X162115000Y-132365750D01*
X161956250Y-132207000D01*
X160972000Y-132207000D01*
X160718000Y-132207000D01*
X159733750Y-132207000D01*
X159575000Y-132365750D01*
X159571928Y-134620000D01*
X152139373Y-134620000D01*
X152194494Y-134590537D01*
X152291185Y-134511185D01*
X152370537Y-134414494D01*
X152429502Y-134304180D01*
X152465812Y-134184482D01*
X152478072Y-134060000D01*
X152478072Y-130100000D01*
X152465812Y-129975518D01*
X152429502Y-129855820D01*
X152370537Y-129745506D01*
X152291185Y-129648815D01*
X152194494Y-129569463D01*
X152139374Y-129540000D01*
X159571928Y-129540000D01*
X159575000Y-131794250D01*
X159733750Y-131953000D01*
X160718000Y-131953000D01*
X160718000Y-129063750D01*
X160972000Y-129063750D01*
X160972000Y-131953000D01*
X161956250Y-131953000D01*
X162115000Y-131794250D01*
X162118072Y-129540000D01*
X162105812Y-129415518D01*
X162069502Y-129295820D01*
X162010537Y-129185506D01*
X161931185Y-129088815D01*
X161834494Y-129009463D01*
X161724180Y-128950498D01*
X161604482Y-128914188D01*
X161480000Y-128901928D01*
X161130750Y-128905000D01*
X160972000Y-129063750D01*
X160718000Y-129063750D01*
X160559250Y-128905000D01*
X160210000Y-128901928D01*
X160085518Y-128914188D01*
X159965820Y-128950498D01*
X159855506Y-129009463D01*
X159758815Y-129088815D01*
X159679463Y-129185506D01*
X159620498Y-129295820D01*
X159584188Y-129415518D01*
X159571928Y-129540000D01*
X152139374Y-129540000D01*
X152084180Y-129510498D01*
X151964482Y-129474188D01*
X151840000Y-129461928D01*
X147880000Y-129461928D01*
X147755518Y-129474188D01*
X147635820Y-129510498D01*
X147525506Y-129569463D01*
X147428815Y-129648815D01*
X147349463Y-129745506D01*
X147290498Y-129855820D01*
X147254188Y-129975518D01*
X147241928Y-130100000D01*
X140147308Y-130100000D01*
X140148072Y-129540000D01*
X140135812Y-129415518D01*
X140099502Y-129295820D01*
X140040537Y-129185506D01*
X139961185Y-129088815D01*
X139864494Y-129009463D01*
X139754180Y-128950498D01*
X139634482Y-128914188D01*
X139510000Y-128901928D01*
X139160750Y-128905000D01*
X139002000Y-129063750D01*
X138748000Y-129063750D01*
X138589250Y-128905000D01*
X138240000Y-128901928D01*
X138115518Y-128914188D01*
X137995820Y-128950498D01*
X137885506Y-129009463D01*
X137788815Y-129088815D01*
X137709463Y-129185506D01*
X137650498Y-129295820D01*
X137614188Y-129415518D01*
X137601928Y-129540000D01*
X132072277Y-129540000D01*
X115581796Y-110879720D01*
X117681987Y-110879720D01*
X117681987Y-111104226D01*
X118184866Y-111611450D01*
X118281557Y-111690803D01*
X118391871Y-111749767D01*
X118511570Y-111786076D01*
X118636051Y-111798337D01*
X118760532Y-111786076D01*
X118880231Y-111749767D01*
X118990545Y-111690803D01*
X119087236Y-111611450D01*
X119590115Y-111104226D01*
X119590115Y-110879720D01*
X118636051Y-109925656D01*
X117681987Y-110879720D01*
X115581796Y-110879720D01*
X111263225Y-105992916D01*
X113408949Y-105992916D01*
X113408949Y-106314982D01*
X113471781Y-106630861D01*
X113595031Y-106928412D01*
X113773962Y-107196201D01*
X114001697Y-107423936D01*
X114269486Y-107602867D01*
X114567037Y-107726117D01*
X114882916Y-107788949D01*
X115204982Y-107788949D01*
X115205004Y-107788945D01*
X115205000Y-107788967D01*
X115205000Y-108111033D01*
X115267832Y-108426912D01*
X115391082Y-108724463D01*
X115570013Y-108992252D01*
X115797748Y-109219987D01*
X116065537Y-109398918D01*
X116363088Y-109522168D01*
X116611207Y-109571522D01*
X116596026Y-109621570D01*
X116583765Y-109746051D01*
X116596026Y-109870532D01*
X116632335Y-109990231D01*
X116691299Y-110100545D01*
X116770652Y-110197236D01*
X117277876Y-110700115D01*
X117502382Y-110700115D01*
X118456446Y-109746051D01*
X118815656Y-109746051D01*
X119769720Y-110700115D01*
X119994226Y-110700115D01*
X120501450Y-110197236D01*
X120580803Y-110100545D01*
X120639767Y-109990231D01*
X120676076Y-109870532D01*
X120688337Y-109746051D01*
X120676076Y-109621570D01*
X120639767Y-109501871D01*
X120580803Y-109391557D01*
X120501450Y-109294866D01*
X119994226Y-108791987D01*
X119769720Y-108791987D01*
X118815656Y-109746051D01*
X118456446Y-109746051D01*
X118442304Y-109731909D01*
X118621909Y-109552304D01*
X118636051Y-109566446D01*
X119590115Y-108612382D01*
X119590115Y-108387876D01*
X119087236Y-107880652D01*
X118990545Y-107801299D01*
X118880231Y-107742335D01*
X118760532Y-107706026D01*
X118636051Y-107693765D01*
X118511570Y-107706026D01*
X118461522Y-107721207D01*
X118412168Y-107473088D01*
X118406177Y-107458624D01*
X126044802Y-99820000D01*
X128321957Y-99820000D01*
X128425363Y-99974759D01*
X128625241Y-100174637D01*
X128860273Y-100331680D01*
X129121426Y-100439853D01*
X129398665Y-100495000D01*
X129681335Y-100495000D01*
X129958574Y-100439853D01*
X130219727Y-100331680D01*
X130454759Y-100174637D01*
X130654637Y-99974759D01*
X130811680Y-99739727D01*
X130919853Y-99478574D01*
X130975000Y-99201335D01*
X130975000Y-98918665D01*
X130919853Y-98641426D01*
X130811680Y-98380273D01*
X130654637Y-98145241D01*
X130454759Y-97945363D01*
X130300000Y-97841957D01*
X130300000Y-97738043D01*
X130454759Y-97634637D01*
X130654637Y-97434759D01*
X130811680Y-97199727D01*
X130919853Y-96938574D01*
X130975000Y-96661335D01*
X130975000Y-96378665D01*
X130919853Y-96101426D01*
X130811680Y-95840273D01*
X130654637Y-95605241D01*
X130454759Y-95405363D01*
X130219727Y-95248320D01*
X129958574Y-95140147D01*
X129681335Y-95085000D01*
X129398665Y-95085000D01*
X129121426Y-95140147D01*
X128860273Y-95248320D01*
X128625241Y-95405363D01*
X128425363Y-95605241D01*
X128268320Y-95840273D01*
X128160147Y-96101426D01*
X128105000Y-96378665D01*
X128105000Y-96661335D01*
X128160147Y-96938574D01*
X128268320Y-97199727D01*
X128425363Y-97434759D01*
X128625241Y-97634637D01*
X128780001Y-97738044D01*
X128780000Y-97841956D01*
X128625241Y-97945363D01*
X128425363Y-98145241D01*
X128321957Y-98300000D01*
X125767333Y-98300000D01*
X125730000Y-98296323D01*
X125692667Y-98300000D01*
X125581014Y-98310997D01*
X125437753Y-98354454D01*
X125305724Y-98425026D01*
X125189999Y-98519999D01*
X125166201Y-98548997D01*
X117331376Y-106383823D01*
X117316912Y-106377832D01*
X117001033Y-106315000D01*
X116678967Y-106315000D01*
X116678945Y-106315004D01*
X116678949Y-106314982D01*
X116678949Y-105992916D01*
X116616117Y-105677037D01*
X116492867Y-105379486D01*
X116313936Y-105111697D01*
X116086201Y-104883962D01*
X115818412Y-104705031D01*
X115520861Y-104581781D01*
X115204982Y-104518949D01*
X114882916Y-104518949D01*
X114567037Y-104581781D01*
X114269486Y-104705031D01*
X114001697Y-104883962D01*
X113773962Y-105111697D01*
X113595031Y-105379486D01*
X113471781Y-105677037D01*
X113408949Y-105992916D01*
X111263225Y-105992916D01*
X101763678Y-95243429D01*
X103461249Y-92980000D01*
X106311928Y-92980000D01*
X106311928Y-94980000D01*
X106324188Y-95104482D01*
X106360498Y-95224180D01*
X106419463Y-95334494D01*
X106498815Y-95431185D01*
X106595506Y-95510537D01*
X106705820Y-95569502D01*
X106825518Y-95605812D01*
X106950000Y-95618072D01*
X108950000Y-95618072D01*
X109074482Y-95605812D01*
X109194180Y-95569502D01*
X109304494Y-95510537D01*
X109401185Y-95431185D01*
X109480537Y-95334494D01*
X109505191Y-95288370D01*
X109715537Y-95428918D01*
X110013088Y-95552168D01*
X110328967Y-95615000D01*
X110651033Y-95615000D01*
X110966912Y-95552168D01*
X110981376Y-95546177D01*
X115006201Y-99571003D01*
X115029999Y-99600001D01*
X115058997Y-99623799D01*
X115145723Y-99694974D01*
X115277753Y-99765546D01*
X115421014Y-99809003D01*
X115532667Y-99820000D01*
X115532677Y-99820000D01*
X115570000Y-99823676D01*
X115607323Y-99820000D01*
X118159099Y-99820000D01*
X118181068Y-99861101D01*
X118360392Y-100079608D01*
X118578899Y-100258932D01*
X118828192Y-100392182D01*
X119098691Y-100474236D01*
X119309508Y-100495000D01*
X119450492Y-100495000D01*
X119661309Y-100474236D01*
X119931808Y-100392182D01*
X120181101Y-100258932D01*
X120399608Y-100079608D01*
X120578932Y-99861101D01*
X120712182Y-99611808D01*
X120794236Y-99341309D01*
X120821943Y-99060000D01*
X120794236Y-98778691D01*
X120712182Y-98508192D01*
X120578932Y-98258899D01*
X120399608Y-98040392D01*
X120181101Y-97861068D01*
X120048142Y-97790000D01*
X120181101Y-97718932D01*
X120399608Y-97539608D01*
X120578932Y-97321101D01*
X120712182Y-97071808D01*
X120794236Y-96801309D01*
X120821943Y-96520000D01*
X120794236Y-96238691D01*
X120780708Y-96194094D01*
X121016005Y-95958797D01*
X121045002Y-95935000D01*
X121139975Y-95819275D01*
X121210547Y-95687246D01*
X121254004Y-95543985D01*
X121265001Y-95432332D01*
X121265001Y-95432324D01*
X121268677Y-95394999D01*
X121265001Y-95357674D01*
X121265001Y-88792324D01*
X121268677Y-88755001D01*
X121265001Y-88717678D01*
X121265001Y-88717668D01*
X121254004Y-88606015D01*
X121210547Y-88462754D01*
X121142552Y-88335546D01*
X121139975Y-88330724D01*
X121068800Y-88243998D01*
X121045002Y-88215000D01*
X121016004Y-88191202D01*
X118406177Y-85581376D01*
X118412168Y-85566912D01*
X118475000Y-85251033D01*
X118475000Y-84928967D01*
X118412168Y-84613088D01*
X118288918Y-84315537D01*
X118109987Y-84047748D01*
X117882252Y-83820013D01*
X117614463Y-83641082D01*
X117316912Y-83517832D01*
X117001033Y-83455000D01*
X116678967Y-83455000D01*
X116363088Y-83517832D01*
X116065537Y-83641082D01*
X115855191Y-83781630D01*
X115830537Y-83735506D01*
X115751185Y-83638815D01*
X115654494Y-83559463D01*
X115544180Y-83500498D01*
X115424482Y-83464188D01*
X115300000Y-83451928D01*
X113300000Y-83451928D01*
X113175518Y-83464188D01*
X113055820Y-83500498D01*
X112945506Y-83559463D01*
X112848815Y-83638815D01*
X112769463Y-83735506D01*
X112710498Y-83845820D01*
X112674188Y-83965518D01*
X112661928Y-84090000D01*
X112661928Y-86090000D01*
X112674188Y-86214482D01*
X112710498Y-86334180D01*
X112769463Y-86444494D01*
X112848815Y-86541185D01*
X112945506Y-86620537D01*
X113055820Y-86679502D01*
X113175518Y-86715812D01*
X113300000Y-86728072D01*
X113540001Y-86728072D01*
X113540001Y-87315197D01*
X108513271Y-92341928D01*
X106950000Y-92341928D01*
X106825518Y-92354188D01*
X106705820Y-92390498D01*
X106595506Y-92449463D01*
X106498815Y-92528815D01*
X106419463Y-92625506D01*
X106360498Y-92735820D01*
X106324188Y-92855518D01*
X106311928Y-92980000D01*
X103461249Y-92980000D01*
X113091738Y-80139349D01*
X113093545Y-80137000D01*
X147530842Y-80137000D01*
X147659065Y-80181828D01*
M02*
