G04 #@! TF.GenerationSoftware,KiCad,Pcbnew,(5.1.2)-1*
G04 #@! TF.CreationDate,2019-06-22T12:29:30-06:00*
G04 #@! TF.ProjectId,superhashtagpcb,73757065-7268-4617-9368-746167706362,rev?*
G04 #@! TF.SameCoordinates,Original*
G04 #@! TF.FileFunction,Legend,Top*
G04 #@! TF.FilePolarity,Positive*
%FSLAX46Y46*%
G04 Gerber Fmt 4.6, Leading zero omitted, Abs format (unit mm)*
G04 Created by KiCad (PCBNEW (5.1.2)-1) date 2019-06-22 12:29:30*
%MOMM*%
%LPD*%
G04 APERTURE LIST*
%ADD10C,0.100000*%
%ADD11C,0.120000*%
%ADD12C,0.150000*%
G04 APERTURE END LIST*
D10*
X139080000Y-129080000D02*
X139080000Y-128450000D01*
X139080000Y-137540000D02*
X139080000Y-135080000D01*
X160640000Y-129080000D02*
X160640000Y-128450000D01*
X160640000Y-137540000D02*
X160640000Y-135080000D01*
X140534756Y-124491831D02*
G75*
G02X143860000Y-123530000I2015244J-738169D01*
G01*
X139080000Y-128450000D02*
X140520000Y-124500000D01*
X141160000Y-139620000D02*
X139080000Y-137540000D01*
X141160000Y-139620000D02*
X158560000Y-139620000D01*
X158560000Y-139620000D02*
X160640000Y-137540000D01*
X160640000Y-128450000D02*
X159200000Y-124500000D01*
X155863354Y-123513470D02*
G75*
G02X159200000Y-124500000I1306646J-1716530D01*
G01*
X155864601Y-123526464D02*
G75*
G02X143860000Y-123530000I-6004601J7806464D01*
G01*
D11*
X127730000Y-97890000D02*
X127730000Y-95150000D01*
X127730000Y-95150000D02*
X121190000Y-95150000D01*
X121190000Y-95150000D02*
X121190000Y-97890000D01*
X121190000Y-97890000D02*
X127730000Y-97890000D01*
X128500000Y-96520000D02*
X127730000Y-96520000D01*
X120420000Y-96520000D02*
X121190000Y-96520000D01*
X127730000Y-100430000D02*
X127730000Y-97690000D01*
X127730000Y-97690000D02*
X121190000Y-97690000D01*
X121190000Y-97690000D02*
X121190000Y-100430000D01*
X121190000Y-100430000D02*
X127730000Y-100430000D01*
X128500000Y-99060000D02*
X127730000Y-99060000D01*
X120420000Y-99060000D02*
X121190000Y-99060000D01*
D10*
X118430990Y-113217946D02*
X118183503Y-112970458D01*
X118430990Y-113217946D02*
X118784544Y-112864392D01*
X111572054Y-106359010D02*
X111819542Y-106606497D01*
X111572054Y-106359010D02*
X111925608Y-106005456D01*
X115249010Y-102682054D02*
X114895456Y-103035608D01*
X115249010Y-102682054D02*
X115496497Y-102929542D01*
X122107946Y-109540990D02*
X121860458Y-109293503D01*
X122107946Y-109540990D02*
X121754392Y-109894544D01*
D12*
X149074285Y-143508571D02*
X149217142Y-143556190D01*
X149264761Y-143603809D01*
X149312380Y-143699047D01*
X149312380Y-143841904D01*
X149264761Y-143937142D01*
X149217142Y-143984761D01*
X149121904Y-144032380D01*
X148740952Y-144032380D01*
X148740952Y-143032380D01*
X149074285Y-143032380D01*
X149169523Y-143080000D01*
X149217142Y-143127619D01*
X149264761Y-143222857D01*
X149264761Y-143318095D01*
X149217142Y-143413333D01*
X149169523Y-143460952D01*
X149074285Y-143508571D01*
X148740952Y-143508571D01*
X149598095Y-143032380D02*
X150169523Y-143032380D01*
X149883809Y-144032380D02*
X149883809Y-143032380D01*
X151026666Y-144032380D02*
X150455238Y-144032380D01*
X150740952Y-144032380D02*
X150740952Y-143032380D01*
X150645714Y-143175238D01*
X150550476Y-143270476D01*
X150455238Y-143318095D01*
X123023333Y-99512380D02*
X122690000Y-99036190D01*
X122451904Y-99512380D02*
X122451904Y-98512380D01*
X122832857Y-98512380D01*
X122928095Y-98560000D01*
X122975714Y-98607619D01*
X123023333Y-98702857D01*
X123023333Y-98845714D01*
X122975714Y-98940952D01*
X122928095Y-98988571D01*
X122832857Y-99036190D01*
X122451904Y-99036190D01*
X123975714Y-99512380D02*
X123404285Y-99512380D01*
X123690000Y-99512380D02*
X123690000Y-98512380D01*
X123594761Y-98655238D01*
X123499523Y-98750476D01*
X123404285Y-98798095D01*
X125563333Y-99512380D02*
X125230000Y-99036190D01*
X124991904Y-99512380D02*
X124991904Y-98512380D01*
X125372857Y-98512380D01*
X125468095Y-98560000D01*
X125515714Y-98607619D01*
X125563333Y-98702857D01*
X125563333Y-98845714D01*
X125515714Y-98940952D01*
X125468095Y-98988571D01*
X125372857Y-99036190D01*
X124991904Y-99036190D01*
X125944285Y-98607619D02*
X125991904Y-98560000D01*
X126087142Y-98512380D01*
X126325238Y-98512380D01*
X126420476Y-98560000D01*
X126468095Y-98607619D01*
X126515714Y-98702857D01*
X126515714Y-98798095D01*
X126468095Y-98940952D01*
X125896666Y-99512380D01*
X126515714Y-99512380D01*
X113072468Y-109747061D02*
X113139811Y-109881748D01*
X113308170Y-110050107D01*
X113409185Y-110083779D01*
X113476529Y-110083779D01*
X113577544Y-110050107D01*
X113644887Y-109982764D01*
X113678559Y-109881748D01*
X113678559Y-109814405D01*
X113644887Y-109713390D01*
X113543872Y-109545031D01*
X113510200Y-109444016D01*
X113510200Y-109376672D01*
X113543872Y-109275657D01*
X113611216Y-109208313D01*
X113712231Y-109174642D01*
X113779574Y-109174642D01*
X113880590Y-109208313D01*
X114048948Y-109376672D01*
X114116292Y-109511359D01*
X114385666Y-109713390D02*
X113846918Y-110588855D01*
X114486681Y-110218466D01*
X114116292Y-110858229D01*
X114991757Y-110319481D01*
X114924414Y-111666351D02*
X114520353Y-111262290D01*
X114722383Y-111464321D02*
X115429490Y-110757214D01*
X115261131Y-110790886D01*
X115126444Y-110790886D01*
X115025429Y-110757214D01*
M02*
