G04 #@! TF.GenerationSoftware,KiCad,Pcbnew,(5.1.2)-1*
G04 #@! TF.CreationDate,2019-06-22T12:29:30-06:00*
G04 #@! TF.ProjectId,superhashtagpcb,73757065-7268-4617-9368-746167706362,rev?*
G04 #@! TF.SameCoordinates,Original*
G04 #@! TF.FileFunction,Legend,Bot*
G04 #@! TF.FilePolarity,Positive*
%FSLAX46Y46*%
G04 Gerber Fmt 4.6, Leading zero omitted, Abs format (unit mm)*
G04 Created by KiCad (PCBNEW (5.1.2)-1) date 2019-06-22 12:29:30*
%MOMM*%
%LPD*%
G04 APERTURE LIST*
%ADD10C,0.100000*%
%ADD11C,0.010000*%
%ADD12C,0.150000*%
G04 APERTURE END LIST*
D10*
X118181718Y-83482789D02*
G75*
G03X118180000Y-86700000I-2611718J-1607211D01*
G01*
X118180000Y-83490000D02*
X118180000Y-86700000D01*
X111831718Y-92372789D02*
G75*
G03X111830000Y-95590000I-2611718J-1607211D01*
G01*
X111830000Y-92380000D02*
X111830000Y-95590000D01*
D11*
G36*
X158466667Y-83838641D02*
G01*
X158464683Y-83936752D01*
X158459050Y-84108699D01*
X158450250Y-84343750D01*
X158438761Y-84631176D01*
X158425064Y-84960244D01*
X158409639Y-85320225D01*
X158392966Y-85700388D01*
X158375525Y-86090002D01*
X158357795Y-86478337D01*
X158340257Y-86854661D01*
X158323391Y-87208245D01*
X158307677Y-87528356D01*
X158293595Y-87804266D01*
X158281625Y-88025242D01*
X158272861Y-88171250D01*
X158245867Y-88584000D01*
X141071656Y-88584000D01*
X141090418Y-88382917D01*
X141095674Y-88302464D01*
X141103795Y-88146140D01*
X141114397Y-87922677D01*
X141127097Y-87640809D01*
X141141511Y-87309269D01*
X141157256Y-86936790D01*
X141173948Y-86532105D01*
X141191204Y-86103946D01*
X141197780Y-85938167D01*
X141214977Y-85509298D01*
X141231679Y-85105347D01*
X141247521Y-84734335D01*
X141262135Y-84404288D01*
X141275155Y-84123227D01*
X141286214Y-83899175D01*
X141294947Y-83740156D01*
X141300986Y-83654192D01*
X141302694Y-83641584D01*
X141319792Y-83635176D01*
X141368930Y-83629273D01*
X141453039Y-83623858D01*
X141575051Y-83618910D01*
X141737899Y-83614414D01*
X141944515Y-83610350D01*
X142197829Y-83606701D01*
X142500775Y-83603448D01*
X142856284Y-83600573D01*
X143267288Y-83598059D01*
X143736719Y-83595887D01*
X144267509Y-83594039D01*
X144862589Y-83592498D01*
X145524892Y-83591245D01*
X146257350Y-83590261D01*
X147062895Y-83589530D01*
X147944457Y-83589032D01*
X148904971Y-83588751D01*
X149892838Y-83588667D01*
X158466667Y-83588667D01*
X158466667Y-83838641D01*
X158466667Y-83838641D01*
G37*
X158466667Y-83838641D02*
X158464683Y-83936752D01*
X158459050Y-84108699D01*
X158450250Y-84343750D01*
X158438761Y-84631176D01*
X158425064Y-84960244D01*
X158409639Y-85320225D01*
X158392966Y-85700388D01*
X158375525Y-86090002D01*
X158357795Y-86478337D01*
X158340257Y-86854661D01*
X158323391Y-87208245D01*
X158307677Y-87528356D01*
X158293595Y-87804266D01*
X158281625Y-88025242D01*
X158272861Y-88171250D01*
X158245867Y-88584000D01*
X141071656Y-88584000D01*
X141090418Y-88382917D01*
X141095674Y-88302464D01*
X141103795Y-88146140D01*
X141114397Y-87922677D01*
X141127097Y-87640809D01*
X141141511Y-87309269D01*
X141157256Y-86936790D01*
X141173948Y-86532105D01*
X141191204Y-86103946D01*
X141197780Y-85938167D01*
X141214977Y-85509298D01*
X141231679Y-85105347D01*
X141247521Y-84734335D01*
X141262135Y-84404288D01*
X141275155Y-84123227D01*
X141286214Y-83899175D01*
X141294947Y-83740156D01*
X141300986Y-83654192D01*
X141302694Y-83641584D01*
X141319792Y-83635176D01*
X141368930Y-83629273D01*
X141453039Y-83623858D01*
X141575051Y-83618910D01*
X141737899Y-83614414D01*
X141944515Y-83610350D01*
X142197829Y-83606701D01*
X142500775Y-83603448D01*
X142856284Y-83600573D01*
X143267288Y-83598059D01*
X143736719Y-83595887D01*
X144267509Y-83594039D01*
X144862589Y-83592498D01*
X145524892Y-83591245D01*
X146257350Y-83590261D01*
X147062895Y-83589530D01*
X147944457Y-83589032D01*
X148904971Y-83588751D01*
X149892838Y-83588667D01*
X158466667Y-83588667D01*
X158466667Y-83838641D01*
G36*
X129227551Y-83546390D02*
G01*
X129856639Y-83546611D01*
X130410576Y-83547078D01*
X130894117Y-83547870D01*
X131312022Y-83549067D01*
X131669046Y-83550748D01*
X131969947Y-83552993D01*
X132219482Y-83555882D01*
X132422409Y-83559495D01*
X132583485Y-83563911D01*
X132707466Y-83569210D01*
X132799112Y-83575472D01*
X132863178Y-83582777D01*
X132904422Y-83591203D01*
X132927601Y-83600832D01*
X132937473Y-83611742D01*
X132939012Y-83620417D01*
X132936114Y-83687745D01*
X132928598Y-83822235D01*
X132917489Y-84006571D01*
X132903811Y-84223435D01*
X132898312Y-84308334D01*
X132884983Y-84529703D01*
X132869517Y-84814588D01*
X132852962Y-85141894D01*
X132836368Y-85490529D01*
X132820783Y-85839401D01*
X132813059Y-86022834D01*
X132793681Y-86472170D01*
X132773552Y-86897621D01*
X132753175Y-87290972D01*
X132733054Y-87644008D01*
X132713694Y-87948513D01*
X132695599Y-88196271D01*
X132679274Y-88379069D01*
X132665221Y-88488689D01*
X132660439Y-88509917D01*
X132654128Y-88520004D01*
X132639029Y-88529134D01*
X132611126Y-88537355D01*
X132566397Y-88544715D01*
X132500824Y-88551259D01*
X132410388Y-88557037D01*
X132291069Y-88562095D01*
X132138848Y-88566482D01*
X131949706Y-88570244D01*
X131719625Y-88573429D01*
X131444583Y-88576085D01*
X131120563Y-88578259D01*
X130743546Y-88579998D01*
X130309511Y-88581351D01*
X129814440Y-88582364D01*
X129254313Y-88583085D01*
X128625112Y-88583562D01*
X127922817Y-88583841D01*
X127143408Y-88583972D01*
X126391131Y-88584000D01*
X125513615Y-88583875D01*
X124717344Y-88583480D01*
X123998900Y-88582786D01*
X123354859Y-88581764D01*
X122781803Y-88580385D01*
X122276310Y-88578619D01*
X121834960Y-88576437D01*
X121454332Y-88573811D01*
X121131007Y-88570711D01*
X120861562Y-88567107D01*
X120642578Y-88562972D01*
X120470634Y-88558274D01*
X120342309Y-88552987D01*
X120254184Y-88547079D01*
X120202837Y-88540522D01*
X120184847Y-88533287D01*
X120185362Y-88531084D01*
X120265554Y-88427492D01*
X120389452Y-88268228D01*
X120551559Y-88060311D01*
X120746379Y-87810759D01*
X120968416Y-87526590D01*
X121212174Y-87214822D01*
X121472157Y-86882473D01*
X121742869Y-86536561D01*
X122018813Y-86184105D01*
X122294494Y-85832121D01*
X122564414Y-85487630D01*
X122823079Y-85157648D01*
X123064993Y-84849194D01*
X123284658Y-84569285D01*
X123476578Y-84324941D01*
X123635259Y-84123178D01*
X123755203Y-83971016D01*
X123830914Y-83875472D01*
X123848739Y-83853250D01*
X124097439Y-83546334D01*
X128518553Y-83546334D01*
X129227551Y-83546390D01*
X129227551Y-83546390D01*
G37*
X129227551Y-83546390D02*
X129856639Y-83546611D01*
X130410576Y-83547078D01*
X130894117Y-83547870D01*
X131312022Y-83549067D01*
X131669046Y-83550748D01*
X131969947Y-83552993D01*
X132219482Y-83555882D01*
X132422409Y-83559495D01*
X132583485Y-83563911D01*
X132707466Y-83569210D01*
X132799112Y-83575472D01*
X132863178Y-83582777D01*
X132904422Y-83591203D01*
X132927601Y-83600832D01*
X132937473Y-83611742D01*
X132939012Y-83620417D01*
X132936114Y-83687745D01*
X132928598Y-83822235D01*
X132917489Y-84006571D01*
X132903811Y-84223435D01*
X132898312Y-84308334D01*
X132884983Y-84529703D01*
X132869517Y-84814588D01*
X132852962Y-85141894D01*
X132836368Y-85490529D01*
X132820783Y-85839401D01*
X132813059Y-86022834D01*
X132793681Y-86472170D01*
X132773552Y-86897621D01*
X132753175Y-87290972D01*
X132733054Y-87644008D01*
X132713694Y-87948513D01*
X132695599Y-88196271D01*
X132679274Y-88379069D01*
X132665221Y-88488689D01*
X132660439Y-88509917D01*
X132654128Y-88520004D01*
X132639029Y-88529134D01*
X132611126Y-88537355D01*
X132566397Y-88544715D01*
X132500824Y-88551259D01*
X132410388Y-88557037D01*
X132291069Y-88562095D01*
X132138848Y-88566482D01*
X131949706Y-88570244D01*
X131719625Y-88573429D01*
X131444583Y-88576085D01*
X131120563Y-88578259D01*
X130743546Y-88579998D01*
X130309511Y-88581351D01*
X129814440Y-88582364D01*
X129254313Y-88583085D01*
X128625112Y-88583562D01*
X127922817Y-88583841D01*
X127143408Y-88583972D01*
X126391131Y-88584000D01*
X125513615Y-88583875D01*
X124717344Y-88583480D01*
X123998900Y-88582786D01*
X123354859Y-88581764D01*
X122781803Y-88580385D01*
X122276310Y-88578619D01*
X121834960Y-88576437D01*
X121454332Y-88573811D01*
X121131007Y-88570711D01*
X120861562Y-88567107D01*
X120642578Y-88562972D01*
X120470634Y-88558274D01*
X120342309Y-88552987D01*
X120254184Y-88547079D01*
X120202837Y-88540522D01*
X120184847Y-88533287D01*
X120185362Y-88531084D01*
X120265554Y-88427492D01*
X120389452Y-88268228D01*
X120551559Y-88060311D01*
X120746379Y-87810759D01*
X120968416Y-87526590D01*
X121212174Y-87214822D01*
X121472157Y-86882473D01*
X121742869Y-86536561D01*
X122018813Y-86184105D01*
X122294494Y-85832121D01*
X122564414Y-85487630D01*
X122823079Y-85157648D01*
X123064993Y-84849194D01*
X123284658Y-84569285D01*
X123476578Y-84324941D01*
X123635259Y-84123178D01*
X123755203Y-83971016D01*
X123830914Y-83875472D01*
X123848739Y-83853250D01*
X124097439Y-83546334D01*
X128518553Y-83546334D01*
X129227551Y-83546390D01*
G36*
X157815597Y-95367917D02*
G01*
X157807701Y-95660947D01*
X157797308Y-96030873D01*
X157784656Y-96469967D01*
X157769981Y-96970502D01*
X157753522Y-97524753D01*
X157735515Y-98124991D01*
X157716199Y-98763489D01*
X157695810Y-99432521D01*
X157674586Y-100124359D01*
X157652765Y-100831278D01*
X157630583Y-101545548D01*
X157608279Y-102259445D01*
X157586090Y-102965240D01*
X157564253Y-103655207D01*
X157543006Y-104321618D01*
X157522586Y-104956747D01*
X157503231Y-105552867D01*
X157493299Y-105856000D01*
X157465639Y-106685457D01*
X157439951Y-107431044D01*
X157416202Y-108093535D01*
X157394360Y-108673704D01*
X157374391Y-109172325D01*
X157356263Y-109590171D01*
X157339944Y-109928016D01*
X157325399Y-110186633D01*
X157312597Y-110366796D01*
X157301505Y-110469279D01*
X157296458Y-110491981D01*
X157286445Y-110499394D01*
X157260116Y-110506212D01*
X157214150Y-110512460D01*
X157145225Y-110518162D01*
X157050020Y-110523342D01*
X156925214Y-110528024D01*
X156767486Y-110532233D01*
X156573515Y-110535992D01*
X156339978Y-110539327D01*
X156063556Y-110542260D01*
X155740927Y-110544817D01*
X155368769Y-110547021D01*
X154943762Y-110548897D01*
X154462583Y-110550468D01*
X153921913Y-110551760D01*
X153318430Y-110552795D01*
X152648812Y-110553599D01*
X151909739Y-110554196D01*
X151097889Y-110554609D01*
X150209941Y-110554864D01*
X149242573Y-110554983D01*
X148643863Y-110555000D01*
X140015451Y-110555000D01*
X140035031Y-110332750D01*
X140037821Y-110292309D01*
X140041804Y-110219933D01*
X140047076Y-110113240D01*
X140053734Y-109969848D01*
X140061875Y-109787376D01*
X140071595Y-109563443D01*
X140082991Y-109295668D01*
X140096159Y-108981668D01*
X140111197Y-108619062D01*
X140128201Y-108205469D01*
X140147268Y-107738508D01*
X140168494Y-107215797D01*
X140191977Y-106634954D01*
X140217812Y-105993598D01*
X140246096Y-105289348D01*
X140276927Y-104519822D01*
X140310400Y-103682639D01*
X140346613Y-102775417D01*
X140385662Y-101795774D01*
X140427644Y-100741330D01*
X140472656Y-99609703D01*
X140520793Y-98398512D01*
X140572154Y-97105374D01*
X140578266Y-96951428D01*
X140596904Y-96492331D01*
X140615307Y-96058559D01*
X140633111Y-95657471D01*
X140649952Y-95296427D01*
X140665464Y-94982785D01*
X140679283Y-94723903D01*
X140691045Y-94527141D01*
X140700384Y-94399858D01*
X140706937Y-94349412D01*
X140707213Y-94349009D01*
X140757590Y-94340679D01*
X140890095Y-94332637D01*
X141102189Y-94324903D01*
X141391335Y-94317499D01*
X141754995Y-94310445D01*
X142190630Y-94303761D01*
X142695701Y-94297470D01*
X143267672Y-94291591D01*
X143904003Y-94286145D01*
X144602156Y-94281154D01*
X145359594Y-94276639D01*
X146173777Y-94272619D01*
X147042168Y-94269117D01*
X147962229Y-94266152D01*
X148931421Y-94263746D01*
X149947206Y-94261919D01*
X151007046Y-94260693D01*
X151498696Y-94260342D01*
X157844559Y-94256667D01*
X157815597Y-95367917D01*
X157815597Y-95367917D01*
G37*
X157815597Y-95367917D02*
X157807701Y-95660947D01*
X157797308Y-96030873D01*
X157784656Y-96469967D01*
X157769981Y-96970502D01*
X157753522Y-97524753D01*
X157735515Y-98124991D01*
X157716199Y-98763489D01*
X157695810Y-99432521D01*
X157674586Y-100124359D01*
X157652765Y-100831278D01*
X157630583Y-101545548D01*
X157608279Y-102259445D01*
X157586090Y-102965240D01*
X157564253Y-103655207D01*
X157543006Y-104321618D01*
X157522586Y-104956747D01*
X157503231Y-105552867D01*
X157493299Y-105856000D01*
X157465639Y-106685457D01*
X157439951Y-107431044D01*
X157416202Y-108093535D01*
X157394360Y-108673704D01*
X157374391Y-109172325D01*
X157356263Y-109590171D01*
X157339944Y-109928016D01*
X157325399Y-110186633D01*
X157312597Y-110366796D01*
X157301505Y-110469279D01*
X157296458Y-110491981D01*
X157286445Y-110499394D01*
X157260116Y-110506212D01*
X157214150Y-110512460D01*
X157145225Y-110518162D01*
X157050020Y-110523342D01*
X156925214Y-110528024D01*
X156767486Y-110532233D01*
X156573515Y-110535992D01*
X156339978Y-110539327D01*
X156063556Y-110542260D01*
X155740927Y-110544817D01*
X155368769Y-110547021D01*
X154943762Y-110548897D01*
X154462583Y-110550468D01*
X153921913Y-110551760D01*
X153318430Y-110552795D01*
X152648812Y-110553599D01*
X151909739Y-110554196D01*
X151097889Y-110554609D01*
X150209941Y-110554864D01*
X149242573Y-110554983D01*
X148643863Y-110555000D01*
X140015451Y-110555000D01*
X140035031Y-110332750D01*
X140037821Y-110292309D01*
X140041804Y-110219933D01*
X140047076Y-110113240D01*
X140053734Y-109969848D01*
X140061875Y-109787376D01*
X140071595Y-109563443D01*
X140082991Y-109295668D01*
X140096159Y-108981668D01*
X140111197Y-108619062D01*
X140128201Y-108205469D01*
X140147268Y-107738508D01*
X140168494Y-107215797D01*
X140191977Y-106634954D01*
X140217812Y-105993598D01*
X140246096Y-105289348D01*
X140276927Y-104519822D01*
X140310400Y-103682639D01*
X140346613Y-102775417D01*
X140385662Y-101795774D01*
X140427644Y-100741330D01*
X140472656Y-99609703D01*
X140520793Y-98398512D01*
X140572154Y-97105374D01*
X140578266Y-96951428D01*
X140596904Y-96492331D01*
X140615307Y-96058559D01*
X140633111Y-95657471D01*
X140649952Y-95296427D01*
X140665464Y-94982785D01*
X140679283Y-94723903D01*
X140691045Y-94527141D01*
X140700384Y-94399858D01*
X140706937Y-94349412D01*
X140707213Y-94349009D01*
X140757590Y-94340679D01*
X140890095Y-94332637D01*
X141102189Y-94324903D01*
X141391335Y-94317499D01*
X141754995Y-94310445D01*
X142190630Y-94303761D01*
X142695701Y-94297470D01*
X143267672Y-94291591D01*
X143904003Y-94286145D01*
X144602156Y-94281154D01*
X145359594Y-94276639D01*
X146173777Y-94272619D01*
X147042168Y-94269117D01*
X147962229Y-94266152D01*
X148931421Y-94263746D01*
X149947206Y-94261919D01*
X151007046Y-94260693D01*
X151498696Y-94260342D01*
X157844559Y-94256667D01*
X157815597Y-95367917D01*
G36*
X132304667Y-94743379D02*
G01*
X132302666Y-94868297D01*
X132296676Y-95077359D01*
X132286714Y-95370139D01*
X132272799Y-95746209D01*
X132254948Y-96205141D01*
X132233180Y-96746509D01*
X132207513Y-97369884D01*
X132177966Y-98074841D01*
X132144555Y-98860950D01*
X132107299Y-99727786D01*
X132066217Y-100674921D01*
X132021327Y-101701927D01*
X131972645Y-102808377D01*
X131920191Y-103993844D01*
X131863983Y-105257901D01*
X131804039Y-106600121D01*
X131775965Y-107226938D01*
X131752466Y-107744130D01*
X131729475Y-108236646D01*
X131707333Y-108697962D01*
X131686383Y-109121555D01*
X131666967Y-109500900D01*
X131649425Y-109829473D01*
X131634102Y-110100751D01*
X131621337Y-110308211D01*
X131611474Y-110445327D01*
X131604853Y-110505578D01*
X131604017Y-110507772D01*
X131558175Y-110512635D01*
X131435006Y-110517678D01*
X131241849Y-110522788D01*
X130986043Y-110527850D01*
X130674928Y-110532748D01*
X130315843Y-110537369D01*
X129916127Y-110541599D01*
X129483120Y-110545321D01*
X129024160Y-110548423D01*
X128985133Y-110548649D01*
X126392300Y-110563464D01*
X123960404Y-107733482D01*
X123014066Y-106631561D01*
X122114120Y-105582289D01*
X121261102Y-104586302D01*
X120455548Y-103644236D01*
X119697993Y-102756725D01*
X118988973Y-101924405D01*
X118329023Y-101147911D01*
X117718678Y-100427880D01*
X117158475Y-99764945D01*
X116648949Y-99159743D01*
X116190635Y-98612909D01*
X115784069Y-98125077D01*
X115429786Y-97696885D01*
X115128322Y-97328966D01*
X114880212Y-97021957D01*
X114685992Y-96776493D01*
X114546197Y-96593208D01*
X114461363Y-96472739D01*
X114441393Y-96439437D01*
X114417113Y-96380300D01*
X114418054Y-96319458D01*
X114450297Y-96236328D01*
X114519922Y-96110322D01*
X114557210Y-96047312D01*
X114634687Y-95924213D01*
X114751133Y-95747966D01*
X114896006Y-95534106D01*
X115058762Y-95298166D01*
X115228858Y-95055678D01*
X115262602Y-95008084D01*
X115796351Y-94256667D01*
X132304667Y-94256667D01*
X132304667Y-94743379D01*
X132304667Y-94743379D01*
G37*
X132304667Y-94743379D02*
X132302666Y-94868297D01*
X132296676Y-95077359D01*
X132286714Y-95370139D01*
X132272799Y-95746209D01*
X132254948Y-96205141D01*
X132233180Y-96746509D01*
X132207513Y-97369884D01*
X132177966Y-98074841D01*
X132144555Y-98860950D01*
X132107299Y-99727786D01*
X132066217Y-100674921D01*
X132021327Y-101701927D01*
X131972645Y-102808377D01*
X131920191Y-103993844D01*
X131863983Y-105257901D01*
X131804039Y-106600121D01*
X131775965Y-107226938D01*
X131752466Y-107744130D01*
X131729475Y-108236646D01*
X131707333Y-108697962D01*
X131686383Y-109121555D01*
X131666967Y-109500900D01*
X131649425Y-109829473D01*
X131634102Y-110100751D01*
X131621337Y-110308211D01*
X131611474Y-110445327D01*
X131604853Y-110505578D01*
X131604017Y-110507772D01*
X131558175Y-110512635D01*
X131435006Y-110517678D01*
X131241849Y-110522788D01*
X130986043Y-110527850D01*
X130674928Y-110532748D01*
X130315843Y-110537369D01*
X129916127Y-110541599D01*
X129483120Y-110545321D01*
X129024160Y-110548423D01*
X128985133Y-110548649D01*
X126392300Y-110563464D01*
X123960404Y-107733482D01*
X123014066Y-106631561D01*
X122114120Y-105582289D01*
X121261102Y-104586302D01*
X120455548Y-103644236D01*
X119697993Y-102756725D01*
X118988973Y-101924405D01*
X118329023Y-101147911D01*
X117718678Y-100427880D01*
X117158475Y-99764945D01*
X116648949Y-99159743D01*
X116190635Y-98612909D01*
X115784069Y-98125077D01*
X115429786Y-97696885D01*
X115128322Y-97328966D01*
X114880212Y-97021957D01*
X114685992Y-96776493D01*
X114546197Y-96593208D01*
X114461363Y-96472739D01*
X114441393Y-96439437D01*
X114417113Y-96380300D01*
X114418054Y-96319458D01*
X114450297Y-96236328D01*
X114519922Y-96110322D01*
X114557210Y-96047312D01*
X114634687Y-95924213D01*
X114751133Y-95747966D01*
X114896006Y-95534106D01*
X115058762Y-95298166D01*
X115228858Y-95055678D01*
X115262602Y-95008084D01*
X115796351Y-94256667D01*
X132304667Y-94256667D01*
X132304667Y-94743379D01*
G36*
X174350659Y-83599131D02*
G01*
X181725651Y-83609834D01*
X186690481Y-90023334D01*
X187193797Y-90673618D01*
X187683084Y-91305993D01*
X188155836Y-91917208D01*
X188609544Y-92504010D01*
X189041698Y-93063149D01*
X189449791Y-93591374D01*
X189831314Y-94085433D01*
X190183759Y-94542077D01*
X190504618Y-94958053D01*
X190791381Y-95330110D01*
X191041541Y-95654998D01*
X191252589Y-95929465D01*
X191422017Y-96150261D01*
X191547316Y-96314134D01*
X191625977Y-96417832D01*
X191655493Y-96458106D01*
X191655656Y-96458488D01*
X191651351Y-96467576D01*
X191637287Y-96487585D01*
X191611947Y-96520259D01*
X191573808Y-96567341D01*
X191521351Y-96630575D01*
X191453057Y-96711706D01*
X191367405Y-96812477D01*
X191262875Y-96934631D01*
X191137947Y-97079914D01*
X190991101Y-97250068D01*
X190820817Y-97446838D01*
X190625575Y-97671968D01*
X190403854Y-97927201D01*
X190154136Y-98214281D01*
X189874900Y-98534952D01*
X189564626Y-98890958D01*
X189221794Y-99284044D01*
X188844883Y-99715952D01*
X188432374Y-100188427D01*
X187982748Y-100703212D01*
X187494482Y-101262052D01*
X186966059Y-101866690D01*
X186395958Y-102518870D01*
X185782658Y-103220337D01*
X185124640Y-103972833D01*
X184420383Y-104778104D01*
X183668368Y-105637892D01*
X182867075Y-106553942D01*
X182014983Y-107527997D01*
X181110573Y-108561802D01*
X180152325Y-109657100D01*
X179885278Y-109962334D01*
X178765189Y-111242542D01*
X177699084Y-112460963D01*
X176685236Y-113619565D01*
X175721918Y-114720316D01*
X174807405Y-115765186D01*
X173939971Y-116756143D01*
X173117889Y-117695157D01*
X172339433Y-118584195D01*
X171602877Y-119425226D01*
X170906494Y-120220220D01*
X170248560Y-120971146D01*
X169627347Y-121679971D01*
X169041129Y-122348665D01*
X168488180Y-122979196D01*
X167966774Y-123573534D01*
X167475185Y-124133647D01*
X167011686Y-124661504D01*
X166574552Y-125159074D01*
X166162056Y-125628325D01*
X165772472Y-126071227D01*
X165404073Y-126489747D01*
X165055135Y-126885856D01*
X164723930Y-127261521D01*
X164408733Y-127618711D01*
X164107816Y-127959396D01*
X163888041Y-128208000D01*
X162852054Y-129378937D01*
X161870979Y-130486783D01*
X160944130Y-131532297D01*
X160070819Y-132516240D01*
X159250361Y-133439373D01*
X158482067Y-134302458D01*
X157765252Y-135106254D01*
X157099229Y-135851523D01*
X156483310Y-136539025D01*
X155916810Y-137169521D01*
X155399040Y-137743773D01*
X154929315Y-138262539D01*
X154506948Y-138726582D01*
X154131252Y-139136662D01*
X153801540Y-139493540D01*
X153517125Y-139797977D01*
X153277320Y-140050733D01*
X153081440Y-140252570D01*
X152928796Y-140404247D01*
X152818703Y-140506526D01*
X152750473Y-140560168D01*
X152728875Y-140569334D01*
X152681771Y-140540340D01*
X152590135Y-140461362D01*
X152467107Y-140344402D01*
X152325827Y-140201463D01*
X152323381Y-140198917D01*
X152147207Y-140012522D01*
X151918412Y-139765624D01*
X151639990Y-139461559D01*
X151314931Y-139103667D01*
X150946229Y-138695284D01*
X150536875Y-138239748D01*
X150089861Y-137740397D01*
X149608180Y-137200568D01*
X149094824Y-136623600D01*
X148552785Y-136012830D01*
X147985054Y-135371596D01*
X147394625Y-134703235D01*
X147266492Y-134558000D01*
X147083619Y-134350409D01*
X146860474Y-134096658D01*
X146600971Y-133801221D01*
X146309022Y-133468571D01*
X145988538Y-133103180D01*
X145643434Y-132709521D01*
X145277620Y-132292068D01*
X144895011Y-131855293D01*
X144499518Y-131403670D01*
X144095054Y-130941670D01*
X143685532Y-130473768D01*
X143274863Y-130004435D01*
X142866961Y-129538145D01*
X142465739Y-129079371D01*
X142075108Y-128632585D01*
X141698981Y-128202262D01*
X141341271Y-127792872D01*
X141005890Y-127408890D01*
X140696752Y-127054788D01*
X140417767Y-126735040D01*
X140172850Y-126454118D01*
X139965912Y-126216494D01*
X139800866Y-126026643D01*
X139681625Y-125889037D01*
X139612100Y-125808148D01*
X139596401Y-125789367D01*
X139586131Y-125761153D01*
X139578564Y-125702182D01*
X139573797Y-125607099D01*
X139571926Y-125470553D01*
X139573050Y-125287189D01*
X139577266Y-125051656D01*
X139584670Y-124758599D01*
X139595359Y-124402667D01*
X139609431Y-123978506D01*
X139626984Y-123480763D01*
X139648113Y-122904085D01*
X139649401Y-122869442D01*
X139685086Y-121914320D01*
X139718012Y-121042376D01*
X139748238Y-120252168D01*
X139775823Y-119542254D01*
X139800825Y-118911193D01*
X139823306Y-118357542D01*
X139843323Y-117879861D01*
X139860935Y-117476706D01*
X139876203Y-117146637D01*
X139889186Y-116888211D01*
X139899941Y-116699988D01*
X139907055Y-116598084D01*
X139933479Y-116270000D01*
X148414408Y-116270000D01*
X149255488Y-116270156D01*
X150073891Y-116270614D01*
X150865602Y-116271360D01*
X151626608Y-116272377D01*
X152352893Y-116273651D01*
X153040443Y-116275168D01*
X153685244Y-116276912D01*
X154283282Y-116278867D01*
X154830543Y-116281020D01*
X155323011Y-116283355D01*
X155756674Y-116285857D01*
X156127516Y-116288511D01*
X156431523Y-116291302D01*
X156664681Y-116294216D01*
X156822976Y-116297236D01*
X156902393Y-116300349D01*
X156911317Y-116301750D01*
X156911909Y-116347866D01*
X156908962Y-116472408D01*
X156902717Y-116669222D01*
X156893412Y-116932153D01*
X156881287Y-117255045D01*
X156866581Y-117631742D01*
X156849535Y-118056090D01*
X156830387Y-118521933D01*
X156809377Y-119023116D01*
X156786744Y-119553484D01*
X156767601Y-119995334D01*
X156739472Y-120642132D01*
X156709575Y-121332908D01*
X156678185Y-122061137D01*
X156645577Y-122820296D01*
X156612026Y-123603859D01*
X156577809Y-124405303D01*
X156543198Y-125218102D01*
X156508471Y-126035734D01*
X156473902Y-126851674D01*
X156439765Y-127659397D01*
X156406337Y-128452379D01*
X156373892Y-129224096D01*
X156342706Y-129968023D01*
X156313053Y-130677637D01*
X156285210Y-131346413D01*
X156259450Y-131967827D01*
X156236049Y-132535354D01*
X156215282Y-133042471D01*
X156197425Y-133482653D01*
X156182752Y-133849375D01*
X156174463Y-134060422D01*
X156162816Y-134384159D01*
X156153941Y-134680364D01*
X156148012Y-134938531D01*
X156145203Y-135148153D01*
X156145688Y-135298721D01*
X156149641Y-135379730D01*
X156152450Y-135390561D01*
X156198700Y-135384014D01*
X156276077Y-135331249D01*
X156292626Y-135316639D01*
X156362182Y-135246648D01*
X156484169Y-135116709D01*
X156655245Y-134930579D01*
X156872073Y-134692014D01*
X157131310Y-134404770D01*
X157429619Y-134072604D01*
X157763659Y-133699271D01*
X158130090Y-133288529D01*
X158525573Y-132844132D01*
X158946767Y-132369838D01*
X159390333Y-131869402D01*
X159852931Y-131346582D01*
X160331221Y-130805132D01*
X160821864Y-130248810D01*
X161321519Y-129681371D01*
X161826847Y-129106572D01*
X162334508Y-128528169D01*
X162744926Y-128059834D01*
X163179182Y-127562213D01*
X163558402Y-127123875D01*
X163884988Y-126741897D01*
X164161343Y-126413358D01*
X164389872Y-126135340D01*
X164572976Y-125904920D01*
X164713060Y-125719178D01*
X164812526Y-125575194D01*
X164870364Y-125476833D01*
X164885228Y-125440050D01*
X164899167Y-125386698D01*
X164912481Y-125311665D01*
X164925474Y-125209843D01*
X164938447Y-125076123D01*
X164951702Y-124905394D01*
X164965542Y-124692547D01*
X164980268Y-124432474D01*
X164996183Y-124120064D01*
X165013589Y-123750208D01*
X165032787Y-123317796D01*
X165054081Y-122817720D01*
X165077771Y-122244869D01*
X165104161Y-121594135D01*
X165113123Y-121371167D01*
X165143955Y-120609786D01*
X165173284Y-119899620D01*
X165200960Y-119243877D01*
X165226835Y-118645765D01*
X165250758Y-118108491D01*
X165272582Y-117635262D01*
X165292156Y-117229287D01*
X165309332Y-116893773D01*
X165323961Y-116631928D01*
X165335892Y-116446958D01*
X165344979Y-116342073D01*
X165347857Y-116322917D01*
X165368613Y-116227667D01*
X173137320Y-116227667D01*
X175587311Y-113423084D01*
X178037303Y-110618500D01*
X174295068Y-110592930D01*
X173661524Y-110588745D01*
X172995711Y-110584612D01*
X172310518Y-110580596D01*
X171618838Y-110576763D01*
X170933560Y-110573178D01*
X170267575Y-110569906D01*
X169633775Y-110567012D01*
X169045051Y-110564562D01*
X168514293Y-110562620D01*
X168054392Y-110561254D01*
X168024745Y-110561180D01*
X167479677Y-110559514D01*
X167014007Y-110557299D01*
X166622466Y-110554413D01*
X166299787Y-110550730D01*
X166040702Y-110546128D01*
X165839943Y-110540481D01*
X165692243Y-110533667D01*
X165592332Y-110525560D01*
X165534944Y-110516036D01*
X165514810Y-110504973D01*
X165514933Y-110502084D01*
X165520894Y-110449455D01*
X165530855Y-110317405D01*
X165544542Y-110111070D01*
X165561685Y-109835588D01*
X165582010Y-109496095D01*
X165605244Y-109097728D01*
X165631116Y-108645626D01*
X165659352Y-108144923D01*
X165689680Y-107600759D01*
X165721827Y-107018269D01*
X165755521Y-106402592D01*
X165790489Y-105758863D01*
X165826459Y-105092220D01*
X165863158Y-104407800D01*
X165900314Y-103710740D01*
X165937653Y-103006178D01*
X165974904Y-102299250D01*
X166011794Y-101595093D01*
X166048050Y-100898844D01*
X166083400Y-100215641D01*
X166117571Y-99550621D01*
X166150290Y-98908920D01*
X166181286Y-98295675D01*
X166210285Y-97716025D01*
X166237015Y-97175105D01*
X166261203Y-96678053D01*
X166282577Y-96230006D01*
X166300864Y-95836101D01*
X166315791Y-95501475D01*
X166327087Y-95231265D01*
X166331967Y-95103334D01*
X166361834Y-94277834D01*
X185157834Y-94235500D01*
X185171028Y-94066167D01*
X185176202Y-93992067D01*
X185186172Y-93842031D01*
X185200383Y-93624622D01*
X185218285Y-93348402D01*
X185239323Y-93021932D01*
X185262946Y-92653774D01*
X185288601Y-92252492D01*
X185315735Y-91826646D01*
X185326763Y-91653167D01*
X185469304Y-89409500D01*
X185160534Y-89007334D01*
X184851764Y-88605167D01*
X175762727Y-88594487D01*
X174728664Y-88593248D01*
X173775957Y-88592038D01*
X172901292Y-88590828D01*
X172101357Y-88589585D01*
X171372841Y-88588280D01*
X170712432Y-88586880D01*
X170116817Y-88585356D01*
X169582684Y-88583675D01*
X169106722Y-88581808D01*
X168685618Y-88579724D01*
X168316061Y-88577390D01*
X167994738Y-88574777D01*
X167718337Y-88571854D01*
X167483547Y-88568589D01*
X167287055Y-88564952D01*
X167125549Y-88560912D01*
X166995717Y-88556438D01*
X166894247Y-88551498D01*
X166817828Y-88546063D01*
X166763147Y-88540100D01*
X166726891Y-88533580D01*
X166705750Y-88526471D01*
X166696411Y-88518742D01*
X166695562Y-88510362D01*
X166695714Y-88509820D01*
X166708138Y-88432421D01*
X166723267Y-88279282D01*
X166740549Y-88059269D01*
X166759432Y-87781245D01*
X166779364Y-87454076D01*
X166799792Y-87086626D01*
X166820166Y-86687760D01*
X166839932Y-86266343D01*
X166850572Y-86022834D01*
X166865356Y-85690773D01*
X166881739Y-85349283D01*
X166898623Y-85019487D01*
X166914910Y-84722505D01*
X166929504Y-84479461D01*
X166935248Y-84393000D01*
X166950076Y-84171345D01*
X166962442Y-83971140D01*
X166971193Y-83812215D01*
X166975175Y-83714400D01*
X166975295Y-83704965D01*
X166975667Y-83588429D01*
X174350659Y-83599131D01*
X174350659Y-83599131D01*
G37*
X174350659Y-83599131D02*
X181725651Y-83609834D01*
X186690481Y-90023334D01*
X187193797Y-90673618D01*
X187683084Y-91305993D01*
X188155836Y-91917208D01*
X188609544Y-92504010D01*
X189041698Y-93063149D01*
X189449791Y-93591374D01*
X189831314Y-94085433D01*
X190183759Y-94542077D01*
X190504618Y-94958053D01*
X190791381Y-95330110D01*
X191041541Y-95654998D01*
X191252589Y-95929465D01*
X191422017Y-96150261D01*
X191547316Y-96314134D01*
X191625977Y-96417832D01*
X191655493Y-96458106D01*
X191655656Y-96458488D01*
X191651351Y-96467576D01*
X191637287Y-96487585D01*
X191611947Y-96520259D01*
X191573808Y-96567341D01*
X191521351Y-96630575D01*
X191453057Y-96711706D01*
X191367405Y-96812477D01*
X191262875Y-96934631D01*
X191137947Y-97079914D01*
X190991101Y-97250068D01*
X190820817Y-97446838D01*
X190625575Y-97671968D01*
X190403854Y-97927201D01*
X190154136Y-98214281D01*
X189874900Y-98534952D01*
X189564626Y-98890958D01*
X189221794Y-99284044D01*
X188844883Y-99715952D01*
X188432374Y-100188427D01*
X187982748Y-100703212D01*
X187494482Y-101262052D01*
X186966059Y-101866690D01*
X186395958Y-102518870D01*
X185782658Y-103220337D01*
X185124640Y-103972833D01*
X184420383Y-104778104D01*
X183668368Y-105637892D01*
X182867075Y-106553942D01*
X182014983Y-107527997D01*
X181110573Y-108561802D01*
X180152325Y-109657100D01*
X179885278Y-109962334D01*
X178765189Y-111242542D01*
X177699084Y-112460963D01*
X176685236Y-113619565D01*
X175721918Y-114720316D01*
X174807405Y-115765186D01*
X173939971Y-116756143D01*
X173117889Y-117695157D01*
X172339433Y-118584195D01*
X171602877Y-119425226D01*
X170906494Y-120220220D01*
X170248560Y-120971146D01*
X169627347Y-121679971D01*
X169041129Y-122348665D01*
X168488180Y-122979196D01*
X167966774Y-123573534D01*
X167475185Y-124133647D01*
X167011686Y-124661504D01*
X166574552Y-125159074D01*
X166162056Y-125628325D01*
X165772472Y-126071227D01*
X165404073Y-126489747D01*
X165055135Y-126885856D01*
X164723930Y-127261521D01*
X164408733Y-127618711D01*
X164107816Y-127959396D01*
X163888041Y-128208000D01*
X162852054Y-129378937D01*
X161870979Y-130486783D01*
X160944130Y-131532297D01*
X160070819Y-132516240D01*
X159250361Y-133439373D01*
X158482067Y-134302458D01*
X157765252Y-135106254D01*
X157099229Y-135851523D01*
X156483310Y-136539025D01*
X155916810Y-137169521D01*
X155399040Y-137743773D01*
X154929315Y-138262539D01*
X154506948Y-138726582D01*
X154131252Y-139136662D01*
X153801540Y-139493540D01*
X153517125Y-139797977D01*
X153277320Y-140050733D01*
X153081440Y-140252570D01*
X152928796Y-140404247D01*
X152818703Y-140506526D01*
X152750473Y-140560168D01*
X152728875Y-140569334D01*
X152681771Y-140540340D01*
X152590135Y-140461362D01*
X152467107Y-140344402D01*
X152325827Y-140201463D01*
X152323381Y-140198917D01*
X152147207Y-140012522D01*
X151918412Y-139765624D01*
X151639990Y-139461559D01*
X151314931Y-139103667D01*
X150946229Y-138695284D01*
X150536875Y-138239748D01*
X150089861Y-137740397D01*
X149608180Y-137200568D01*
X149094824Y-136623600D01*
X148552785Y-136012830D01*
X147985054Y-135371596D01*
X147394625Y-134703235D01*
X147266492Y-134558000D01*
X147083619Y-134350409D01*
X146860474Y-134096658D01*
X146600971Y-133801221D01*
X146309022Y-133468571D01*
X145988538Y-133103180D01*
X145643434Y-132709521D01*
X145277620Y-132292068D01*
X144895011Y-131855293D01*
X144499518Y-131403670D01*
X144095054Y-130941670D01*
X143685532Y-130473768D01*
X143274863Y-130004435D01*
X142866961Y-129538145D01*
X142465739Y-129079371D01*
X142075108Y-128632585D01*
X141698981Y-128202262D01*
X141341271Y-127792872D01*
X141005890Y-127408890D01*
X140696752Y-127054788D01*
X140417767Y-126735040D01*
X140172850Y-126454118D01*
X139965912Y-126216494D01*
X139800866Y-126026643D01*
X139681625Y-125889037D01*
X139612100Y-125808148D01*
X139596401Y-125789367D01*
X139586131Y-125761153D01*
X139578564Y-125702182D01*
X139573797Y-125607099D01*
X139571926Y-125470553D01*
X139573050Y-125287189D01*
X139577266Y-125051656D01*
X139584670Y-124758599D01*
X139595359Y-124402667D01*
X139609431Y-123978506D01*
X139626984Y-123480763D01*
X139648113Y-122904085D01*
X139649401Y-122869442D01*
X139685086Y-121914320D01*
X139718012Y-121042376D01*
X139748238Y-120252168D01*
X139775823Y-119542254D01*
X139800825Y-118911193D01*
X139823306Y-118357542D01*
X139843323Y-117879861D01*
X139860935Y-117476706D01*
X139876203Y-117146637D01*
X139889186Y-116888211D01*
X139899941Y-116699988D01*
X139907055Y-116598084D01*
X139933479Y-116270000D01*
X148414408Y-116270000D01*
X149255488Y-116270156D01*
X150073891Y-116270614D01*
X150865602Y-116271360D01*
X151626608Y-116272377D01*
X152352893Y-116273651D01*
X153040443Y-116275168D01*
X153685244Y-116276912D01*
X154283282Y-116278867D01*
X154830543Y-116281020D01*
X155323011Y-116283355D01*
X155756674Y-116285857D01*
X156127516Y-116288511D01*
X156431523Y-116291302D01*
X156664681Y-116294216D01*
X156822976Y-116297236D01*
X156902393Y-116300349D01*
X156911317Y-116301750D01*
X156911909Y-116347866D01*
X156908962Y-116472408D01*
X156902717Y-116669222D01*
X156893412Y-116932153D01*
X156881287Y-117255045D01*
X156866581Y-117631742D01*
X156849535Y-118056090D01*
X156830387Y-118521933D01*
X156809377Y-119023116D01*
X156786744Y-119553484D01*
X156767601Y-119995334D01*
X156739472Y-120642132D01*
X156709575Y-121332908D01*
X156678185Y-122061137D01*
X156645577Y-122820296D01*
X156612026Y-123603859D01*
X156577809Y-124405303D01*
X156543198Y-125218102D01*
X156508471Y-126035734D01*
X156473902Y-126851674D01*
X156439765Y-127659397D01*
X156406337Y-128452379D01*
X156373892Y-129224096D01*
X156342706Y-129968023D01*
X156313053Y-130677637D01*
X156285210Y-131346413D01*
X156259450Y-131967827D01*
X156236049Y-132535354D01*
X156215282Y-133042471D01*
X156197425Y-133482653D01*
X156182752Y-133849375D01*
X156174463Y-134060422D01*
X156162816Y-134384159D01*
X156153941Y-134680364D01*
X156148012Y-134938531D01*
X156145203Y-135148153D01*
X156145688Y-135298721D01*
X156149641Y-135379730D01*
X156152450Y-135390561D01*
X156198700Y-135384014D01*
X156276077Y-135331249D01*
X156292626Y-135316639D01*
X156362182Y-135246648D01*
X156484169Y-135116709D01*
X156655245Y-134930579D01*
X156872073Y-134692014D01*
X157131310Y-134404770D01*
X157429619Y-134072604D01*
X157763659Y-133699271D01*
X158130090Y-133288529D01*
X158525573Y-132844132D01*
X158946767Y-132369838D01*
X159390333Y-131869402D01*
X159852931Y-131346582D01*
X160331221Y-130805132D01*
X160821864Y-130248810D01*
X161321519Y-129681371D01*
X161826847Y-129106572D01*
X162334508Y-128528169D01*
X162744926Y-128059834D01*
X163179182Y-127562213D01*
X163558402Y-127123875D01*
X163884988Y-126741897D01*
X164161343Y-126413358D01*
X164389872Y-126135340D01*
X164572976Y-125904920D01*
X164713060Y-125719178D01*
X164812526Y-125575194D01*
X164870364Y-125476833D01*
X164885228Y-125440050D01*
X164899167Y-125386698D01*
X164912481Y-125311665D01*
X164925474Y-125209843D01*
X164938447Y-125076123D01*
X164951702Y-124905394D01*
X164965542Y-124692547D01*
X164980268Y-124432474D01*
X164996183Y-124120064D01*
X165013589Y-123750208D01*
X165032787Y-123317796D01*
X165054081Y-122817720D01*
X165077771Y-122244869D01*
X165104161Y-121594135D01*
X165113123Y-121371167D01*
X165143955Y-120609786D01*
X165173284Y-119899620D01*
X165200960Y-119243877D01*
X165226835Y-118645765D01*
X165250758Y-118108491D01*
X165272582Y-117635262D01*
X165292156Y-117229287D01*
X165309332Y-116893773D01*
X165323961Y-116631928D01*
X165335892Y-116446958D01*
X165344979Y-116342073D01*
X165347857Y-116322917D01*
X165368613Y-116227667D01*
X173137320Y-116227667D01*
X175587311Y-113423084D01*
X178037303Y-110618500D01*
X174295068Y-110592930D01*
X173661524Y-110588745D01*
X172995711Y-110584612D01*
X172310518Y-110580596D01*
X171618838Y-110576763D01*
X170933560Y-110573178D01*
X170267575Y-110569906D01*
X169633775Y-110567012D01*
X169045051Y-110564562D01*
X168514293Y-110562620D01*
X168054392Y-110561254D01*
X168024745Y-110561180D01*
X167479677Y-110559514D01*
X167014007Y-110557299D01*
X166622466Y-110554413D01*
X166299787Y-110550730D01*
X166040702Y-110546128D01*
X165839943Y-110540481D01*
X165692243Y-110533667D01*
X165592332Y-110525560D01*
X165534944Y-110516036D01*
X165514810Y-110504973D01*
X165514933Y-110502084D01*
X165520894Y-110449455D01*
X165530855Y-110317405D01*
X165544542Y-110111070D01*
X165561685Y-109835588D01*
X165582010Y-109496095D01*
X165605244Y-109097728D01*
X165631116Y-108645626D01*
X165659352Y-108144923D01*
X165689680Y-107600759D01*
X165721827Y-107018269D01*
X165755521Y-106402592D01*
X165790489Y-105758863D01*
X165826459Y-105092220D01*
X165863158Y-104407800D01*
X165900314Y-103710740D01*
X165937653Y-103006178D01*
X165974904Y-102299250D01*
X166011794Y-101595093D01*
X166048050Y-100898844D01*
X166083400Y-100215641D01*
X166117571Y-99550621D01*
X166150290Y-98908920D01*
X166181286Y-98295675D01*
X166210285Y-97716025D01*
X166237015Y-97175105D01*
X166261203Y-96678053D01*
X166282577Y-96230006D01*
X166300864Y-95836101D01*
X166315791Y-95501475D01*
X166327087Y-95231265D01*
X166331967Y-95103334D01*
X166361834Y-94277834D01*
X185157834Y-94235500D01*
X185171028Y-94066167D01*
X185176202Y-93992067D01*
X185186172Y-93842031D01*
X185200383Y-93624622D01*
X185218285Y-93348402D01*
X185239323Y-93021932D01*
X185262946Y-92653774D01*
X185288601Y-92252492D01*
X185315735Y-91826646D01*
X185326763Y-91653167D01*
X185469304Y-89409500D01*
X185160534Y-89007334D01*
X184851764Y-88605167D01*
X175762727Y-88594487D01*
X174728664Y-88593248D01*
X173775957Y-88592038D01*
X172901292Y-88590828D01*
X172101357Y-88589585D01*
X171372841Y-88588280D01*
X170712432Y-88586880D01*
X170116817Y-88585356D01*
X169582684Y-88583675D01*
X169106722Y-88581808D01*
X168685618Y-88579724D01*
X168316061Y-88577390D01*
X167994738Y-88574777D01*
X167718337Y-88571854D01*
X167483547Y-88568589D01*
X167287055Y-88564952D01*
X167125549Y-88560912D01*
X166995717Y-88556438D01*
X166894247Y-88551498D01*
X166817828Y-88546063D01*
X166763147Y-88540100D01*
X166726891Y-88533580D01*
X166705750Y-88526471D01*
X166696411Y-88518742D01*
X166695562Y-88510362D01*
X166695714Y-88509820D01*
X166708138Y-88432421D01*
X166723267Y-88279282D01*
X166740549Y-88059269D01*
X166759432Y-87781245D01*
X166779364Y-87454076D01*
X166799792Y-87086626D01*
X166820166Y-86687760D01*
X166839932Y-86266343D01*
X166850572Y-86022834D01*
X166865356Y-85690773D01*
X166881739Y-85349283D01*
X166898623Y-85019487D01*
X166914910Y-84722505D01*
X166929504Y-84479461D01*
X166935248Y-84393000D01*
X166950076Y-84171345D01*
X166962442Y-83971140D01*
X166971193Y-83812215D01*
X166975175Y-83714400D01*
X166975295Y-83704965D01*
X166975667Y-83588429D01*
X174350659Y-83599131D01*
D12*
X117578095Y-90622380D02*
X117578095Y-89622380D01*
X117340000Y-89622380D01*
X117197142Y-89670000D01*
X117101904Y-89765238D01*
X117054285Y-89860476D01*
X117006666Y-90050952D01*
X117006666Y-90193809D01*
X117054285Y-90384285D01*
X117101904Y-90479523D01*
X117197142Y-90574761D01*
X117340000Y-90622380D01*
X117578095Y-90622380D01*
X116054285Y-90622380D02*
X116625714Y-90622380D01*
X116340000Y-90622380D02*
X116340000Y-89622380D01*
X116435238Y-89765238D01*
X116530476Y-89860476D01*
X116625714Y-89908095D01*
X111228095Y-99512380D02*
X111228095Y-98512380D01*
X110990000Y-98512380D01*
X110847142Y-98560000D01*
X110751904Y-98655238D01*
X110704285Y-98750476D01*
X110656666Y-98940952D01*
X110656666Y-99083809D01*
X110704285Y-99274285D01*
X110751904Y-99369523D01*
X110847142Y-99464761D01*
X110990000Y-99512380D01*
X111228095Y-99512380D01*
X110275714Y-98607619D02*
X110228095Y-98560000D01*
X110132857Y-98512380D01*
X109894761Y-98512380D01*
X109799523Y-98560000D01*
X109751904Y-98607619D01*
X109704285Y-98702857D01*
X109704285Y-98798095D01*
X109751904Y-98940952D01*
X110323333Y-99512380D01*
X109704285Y-99512380D01*
M02*
