<?xml version="1.0" encoding="UTF-8" standalone="no"?>
<!-- Created with Inkscape (http://www.inkscape.org/) -->

<svg
   xmlns:dc="http://purl.org/dc/elements/1.1/"
   xmlns:cc="http://creativecommons.org/ns#"
   xmlns:rdf="http://www.w3.org/1999/02/22-rdf-syntax-ns#"
   xmlns:svg="http://www.w3.org/2000/svg"
   xmlns="http://www.w3.org/2000/svg"
   xmlns:sodipodi="http://sodipodi.sourceforge.net/DTD/sodipodi-0.dtd"
   xmlns:inkscape="http://www.inkscape.org/namespaces/inkscape"
   width="100.0mm"
   height="100.0mm"
   viewBox="0 0 100.000000 100.000000"
   id="svg2"
   version="1.1"
   inkscape:version="0.92.3 (2405546, 2018-03-11)"
   sodipodi:docname="superhashtagpcb.svg">
  <sodipodi:namedview
     id="base"
     pagecolor="#ffffff"
     bordercolor="#666666"
     borderopacity="1.0"
     inkscape:pageopacity="0.0"
     inkscape:pageshadow="2"
     inkscape:zoom="2"
     inkscape:cx="155.87951"
     inkscape:cy="270.44532"
     inkscape:document-units="mm"
     inkscape:current-layer="g8155"
     showgrid="false"
     inkscape:window-width="3440"
     inkscape:window-height="1377"
     inkscape:window-x="-8"
     inkscape:window-y="-8"
     inkscape:window-maximized="1"
     inkscape:measure-start="0,0"
     inkscape:measure-end="0,0"
     inkscape:snap-others="false"
     inkscape:snap-nodes="false"
     inkscape:snap-global="false" />
  <defs
     id="defs4" />
  <metadata
     id="metadata7">
    <rdf:RDF>
      <cc:Work
         rdf:about="">
        <dc:format>image/svg+xml</dc:format>
        <dc:type
           rdf:resource="http://purl.org/dc/dcmitype/StillImage" />
        <dc:title />
      </cc:Work>
    </rdf:RDF>
  </metadata>
  <g
     id="layer1"
     inkscape:groupmode="layer"
     inkscape:label="Layer 1" />
  <g
     id="g8151"
     sodipodi:insensitive="true"
     inkscape:groupmode="layer"
     inkscape:label="[fixed] BG">
    <rect
       id="rect8153"
       style="stroke:none;fill-opacity:1;fill:#FFFFFF"
       height="100.0"
       width="100.0"
       y="0"
       x="0" />
  </g>
  <g
     style="display:inline"
     id="g8155"
     inkscape:groupmode="layer"
     inkscape:label="Edge.Cuts">
    <path
       style="display:inline;fill:none;stroke:#000000;stroke-width:0.47;stroke-miterlimit:4;stroke-dasharray:none;stroke-opacity:1"
       d="M57.443129 6.7711629L57.443129 6.7913159L57.622673 6.8137919L57.79938 6.8452079L57.97306 6.8853409L58.143531 6.9339679L58.3106 6.9908669L58.474083 7.0558149L58.633791 7.1285889L58.789538 7.2089669L58.941136 7.2967259L59.088396 7.3916429L59.231133 7.4934956L59.369158 7.6020613L59.502286 7.7171172L59.630328 7.8384405L59.753095 7.9658088L59.870401 8.0989995L59.982057 8.2377896L60.08788 8.3819566L60.18768 8.5312776L60.28127 8.6855303L60.36846 8.8444919L60.44907 9.0079393L60.5229 9.1756505L60.58977 9.3474024L60.6495 9.5229725L60.70189 9.702138L60.74676 9.8846761L60.78392 10.070364L60.81318 10.25898L60.83435 10.4503L60.84726 10.644103L60.85166 10.840165L60.85376 10.990697L60.85986 11.145746L60.88277 11.467977L60.9178 11.804017L60.96241 12.151025L61.01404 12.506161L61.07013 12.866585L61.185475 13.591935L85.563818 13.591935L86.319328 13.591935L86.416998 13.591935L86.416998 13.599735L86.581329 13.648825L86.722922 13.738745L86.834027 13.862768L86.907407 14.014697L99.333522 30.16668L99.368662 30.20802L99.378462 30.21837L99.408952 30.26229L99.436342 30.3119L99.441042 30.3202L99.456542 30.35482L99.468942 30.38789L99.475642 30.41062L99.484942 30.44524L99.489642 30.46797L99.494342 30.50052L99.498442 30.53669L99.500042 30.57545L99.498442 30.62247L99.494342 30.65348L99.487642 30.69379L99.487126 30.69999L99.473686 30.74805L99.468986 30.76199L99.453486 30.80488L99.441086 30.83073L99.428686 30.85449L99.415246 30.87722L99.393546 30.91288L99.390946 30.91758L99.355286 30.96254L99.314466 31.00491L99.310866 31.00901L99.272626 31.04208L99.245236 31.06224L99.227146 31.07465L99.199236 31.09066L50.512285 86.145696L50.510685 86.143596L50.481235 86.180806L50.440925 86.225766L50.395455 86.266586L50.346875 86.302756L50.294685 86.334276L50.246105 86.357006L50.235255 86.361706L50.192365 86.377216L50.177385 86.381916L50.147925 86.389716L50.109685 86.398016L50.107585 86.398016L50.097235 86.400116L50.051765 86.405816L50.046565 86.406916L49.997985 86.408516L49.939075 86.405416L49.923565 86.402816L49.880155 86.396116L49.879055 86.396116L49.873355 86.394516L49.822715 86.382106L49.811335 86.378006L49.760695 86.359906L49.705405 86.334056L49.603602 86.266876L49.517822 86.181096L49.489402 86.143886L49.487802 86.146486L0.80085281 31.091966L0.77294721 31.074926L0.75537891 31.062516L0.72747591 31.042886L0.68923301 31.009296L0.68560801 31.005696L0.64478541 30.962806L0.60912751 30.917846L0.60648151 30.913146L0.58478571 30.878006L0.57134491 30.854746L0.55893601 30.830986L0.54652701 30.805666L0.53155161 30.762776L0.52639261 30.748306L0.51348091 30.700766L0.51242291 30.694066L0.50570291 30.653756L0.50207791 30.622746L0.49996091 30.575716L0.50207791 30.536956L0.50570291 30.500786L0.51035991 30.468236L0.51551891 30.445506L0.52483191 30.411396L0.53155191 30.388136L0.54396091 30.355066L0.55893631 30.320966L0.56409531 30.312166L0.59148231 30.262556L0.62197291 30.218636L0.63075691 30.208296L0.66589621 30.167466L13.0916 14.014596L13.16498 13.862667L13.276084 13.738644L13.417678 13.648724L13.582008 13.599634L13.582008 13.591834L13.680188 13.591834L14.435182 13.591834L14.533362 13.591834L40.517824 13.591834L40.633193 12.866487L40.689283 12.506055L40.740903 12.150909L40.785503 11.803893L40.820533 11.467851L40.843443 11.145626L40.849543 10.990585L40.851643 10.840064L40.856543 10.630677L40.871013 10.42404L40.894853 10.220407L40.927833 10.020034L40.969703 9.8231765L41.020233 9.6300904L41.079183 9.4410316L41.146323 9.2562553L41.221413 9.0760175L41.304213 8.9005736L41.394503 8.730179L41.492033 8.5650896L41.59657 8.4055612L41.707883 8.2518491L41.825734 8.1042092L41.949887 7.9628969L42.080107 7.8281679L42.216155 7.7002778L42.357803 7.5794826L42.50481 7.4660372L42.656941 7.3601977L42.813963 7.2622197L42.975636 7.1723587L43.141729 7.0908707L43.312004 7.0180107L43.486227 6.9540347L43.664162 6.8991987L43.845573 6.8537577L44.030223 6.8179677L44.217879 6.7920837L44.408305 6.7763617L44.601266 6.7710617L44.698936 6.7746817L44.698936 6.7710617L57.101279 6.7710617L57.442862 6.7710617L57.442862 6.7710617M50.613821 9.9372767L49.385987 9.9372767L49.316447 9.9393167L49.249787 9.9453367L49.185897 9.9552067L49.124657 9.9687847L49.065957 9.9859377L49.009677 10.0065297L48.903916 10.0574897L48.806456 10.1205797L48.716376 10.1947197L48.632756 10.2788097L48.554676 10.3717797L48.481206 10.4725347L48.411426 10.5799897L48.344416 10.6930607L48.279256 10.8106617L48.150785 11.0551067L48.018631 11.3046387L46.959779 13.2383707L46.929539 13.3007507L46.906839 13.3632207L46.891409 13.4256507L46.883009 13.4879007L46.881109 13.5498307L46.885809 13.6113007L46.896609 13.6721807L46.913249 13.7323407L46.935449 13.7916407L46.962939 13.8499407L46.995419 13.9071107L47.032609 13.9630107L47.074219 14.0175107L47.119969 14.0704707L47.222751 14.1712257L47.338678 14.2641957L47.465472 14.3482857L47.600854 14.4224257L47.742552 14.4855157L47.888289 14.5364757L48.035792 14.5742257L48.182779 14.5976757L48.326979 14.6057757L51.671995 14.6057757L51.816201 14.5976757L51.963206 14.5742257L52.110732 14.5364757L52.256502 14.4855157L52.398239 14.4224257L52.533666 14.3482857L52.660508 14.2641957L52.776482 14.1712257L52.879313 14.0704707L52.925093 14.0175107L52.966723 13.9630107L53.003933 13.9071107L53.036433 13.8499407L53.063943 13.7916407L53.086163 13.7323407L53.102833 13.6721807L53.113653 13.6113007L53.118353 13.5498307L53.116453 13.4879007L53.108053 13.4256507L53.092623 13.3632207L53.069953 13.3007507L53.039713 13.2383707L51.980864 11.3046387L51.848709 11.0551067L51.720238 10.8106617L51.655078 10.6930607L51.588068 10.5799897L51.518288 10.4725347L51.444818 10.3717797L51.366738 10.2788097L51.283118 10.1947197L51.193038 10.1205797L51.095578 10.0574897L50.989816 10.0065297L50.933536 9.9859377L50.874836 9.9687847L50.813596 9.9552067L50.749706 9.9453367L50.683046 9.9393167L50.613506 9.9372767L50.613506 9.9372767"
       id="path59"
       inkscape:connector-curvature="0" />
  </g>
  <g
     sodipodi:insensitive="true"
     id="g8159"
     inkscape:groupmode="layer"
     inkscape:label="B.Cu-disabled" />
  <g
     style="display:inline"
     id="g8161"
     inkscape:groupmode="layer"
     inkscape:label="B.Mask">
    <path
       transform="matrix(-0.96725142,-1.1091042,-1.1091042,0.96725142,174.54323,62.604108)"
       d="m 52.224609,69.328125 a 0.09643306,0.09643306 0 0 0 -0.08594,0.0957 v 3.039063 a 0.09643306,0.09643306 0 0 0 0.0957,0.0957 h 0.34375 a 0.09643306,0.09643306 0 0 0 0.0918,-0.06445 c 0.05852,0.02656 0.115895,0.05761 0.175781,0.07617 0.104436,0.03382 0.222016,0.04883 0.353516,0.04883 0.145118,0 0.282282,-0.02711 0.40625,-0.08398 0.123457,-0.0581 0.2361,-0.144774 0.335937,-0.255859 0.09609,-0.108995 0.170486,-0.243941 0.22461,-0.398438 0.05637,-0.157832 0.08398,-0.333891 0.08398,-0.52539 0,-0.374064 -0.07738,-0.676073 -0.244141,-0.896485 C 53.841331,70.239614 53.602826,70.125 53.320312,70.125 c -0.156713,0 -0.301763,0.02857 -0.43164,0.08984 -0.068,0.03133 -0.127798,0.07981 -0.191406,0.121094 v -0.91211 a 0.09643306,0.09643306 0 0 0 -0.0957,-0.0957 h -0.367187 a 0.09643306,0.09643306 0 0 0 -0.0098,0 z m 6.302735,0 a 0.09643306,0.09643306 0 0 0 -0.08594,0.0957 v 0.802734 c -0.05279,-0.02143 -0.107058,-0.04896 -0.158203,-0.0625 -0.09896,-0.02767 -0.208555,-0.03906 -0.330078,-0.03906 -0.139566,0 -0.27619,0.02876 -0.40625,0.08594 -0.129676,0.05763 -0.244755,0.141543 -0.341797,0.25 -0.09862,0.111474 -0.175483,0.246237 -0.232422,0.40039 -0.05653,0.156885 -0.08398,0.333374 -0.08398,0.527344 0,0.36929 0.07908,0.670182 0.248047,0.892578 0.169656,0.221414 0.412074,0.33789 0.697265,0.337891 0.1463,0 0.284781,-0.02756 0.41211,-0.08398 0.06868,-0.03044 0.130353,-0.0836 0.195312,-0.126953 v 0.05469 a 0.09643306,0.09643306 0 0 0 0.0957,0.0957 h 0.367188 A 0.09643306,0.09643306 0 0 0 59,72.462891 v -3.039063 a 0.09643306,0.09643306 0 0 0 -0.0957,-0.0957 h -0.367188 a 0.09643306,0.09643306 0 0 0 -0.0098,0 z m -8.453125,0.130859 a 0.09643306,0.09643306 0 0 0 -0.08398,0.07227 l -0.1875,0.751953 h -0.59375 a 0.09643306,0.09643306 0 0 0 -0.0957,0.0957 v 0.263672 a 0.09643306,0.09643306 0 0 0 0.0957,0.0957 H 49.6875 l -0.132812,0.542969 h -0.574219 a 0.09643306,0.09643306 0 0 0 -0.0957,0.0957 v 0.263672 a 0.09643306,0.09643306 0 0 0 0.0957,0.0957 h 0.458984 l -0.173828,0.703125 a 0.09643306,0.09643306 0 0 0 0.09375,0.119141 h 0.251953 a 0.09643306,0.09643306 0 0 0 0.09375,-0.07227 l 0.185547,-0.75 h 0.328125 l -0.173828,0.703125 a 0.09643306,0.09643306 0 0 0 0.09375,0.119141 h 0.251953 a 0.09643306,0.09643306 0 0 0 0.09375,-0.07227 l 0.185547,-0.75 h 0.59375 a 0.09643306,0.09643306 0 0 0 0.0957,-0.0957 v -0.263672 a 0.09643306,0.09643306 0 0 0 -0.0957,-0.0957 h -0.478516 l 0.132813,-0.542969 h 0.574219 a 0.09643306,0.09643306 0 0 0 0.0957,-0.0957 v -0.263672 a 0.09643306,0.09643306 0 0 0 -0.0957,-0.0957 h -0.458985 l 0.175781,-0.705078 a 0.09643306,0.09643306 0 0 0 -0.09375,-0.119141 h -0.251953 a 0.09643306,0.09643306 0 0 0 -0.09375,0.07227 l -0.1875,0.751953 h -0.328125 l 0.175782,-0.705078 a 0.09643306,0.09643306 0 0 0 -0.09375,-0.119141 h -0.251954 a 0.09643306,0.09643306 0 0 0 -0.0098,0 z m 14.447265,0 a 0.09643306,0.09643306 0 0 0 -0.08594,0.0957 v 2.908203 a 0.09643306,0.09643306 0 0 0 0.0957,0.0957 h 0.386719 a 0.09643306,0.09643306 0 0 0 0.0957,-0.0957 v -1.328125 h 1.259766 v 1.328125 a 0.09643306,0.09643306 0 0 0 0.0957,0.0957 h 0.386718 a 0.09643306,0.09643306 0 0 0 0.0957,-0.0957 v -2.908203 a 0.09643306,0.09643306 0 0 0 -0.0957,-0.0957 h -0.386718 a 0.09643306,0.09643306 0 0 0 -0.0957,0.0957 v 1.044921 h -1.259766 v -1.044921 a 0.09643306,0.09643306 0 0 0 -0.0957,-0.0957 H 64.53125 a 0.09643306,0.09643306 0 0 0 -0.0098,0 z M 60.441406,70.125 c -0.133777,0 -0.268683,0.02929 -0.40039,0.08594 -0.131868,0.05571 -0.246286,0.136087 -0.339844,0.238281 -0.0998,0.108344 -0.179042,0.236107 -0.236328,0.382812 -0.05744,0.149346 -0.08398,0.323082 -0.08398,0.519531 0,0.356788 0.07975,0.64643 0.25,0.857422 0.170588,0.208173 0.411728,0.316406 0.695313,0.316407 0.165117,0 0.30496,-0.02219 0.421875,-0.07227 a 0.09643306,0.09643306 0 0 0 0.002,0 c 0.06008,-0.02619 0.122428,-0.07413 0.183594,-0.113281 v 0.02539 c 0,0.08144 -0.01048,0.152888 -0.02734,0.214844 -0.01606,0.05885 -0.04107,0.105412 -0.07617,0.144531 a 0.09643306,0.09643306 0 0 0 -0.002,0.002 c -0.03282,0.03845 -0.08029,0.07207 -0.150391,0.09766 -0.06724,0.02454 -0.160029,0.03906 -0.277343,0.03906 -0.121553,0 -0.242812,-0.01773 -0.365235,-0.05078 a 0.09643306,0.09643306 0 0 0 -0.002,0 c -0.128476,-0.03342 -0.220949,-0.06149 -0.273437,-0.08203 a 0.09643306,0.09643306 0 0 0 -0.03516,-0.0059 h -0.01953 a 0.09643306,0.09643306 0 0 0 -0.0957,0.0957 v 0.375 a 0.09643306,0.09643306 0 0 0 0.07031,0.09375 c 0.110817,0.03107 0.222354,0.05408 0.335937,0.07031 0.115662,0.01769 0.232923,0.02539 0.353516,0.02539 0.364952,0 0.652535,-0.09191 0.84375,-0.289063 0.191865,-0.19781 0.279296,-0.496422 0.279297,-0.880859 V 70.28125 a 0.09643306,0.09643306 0 0 0 -0.0957,-0.0957 h -0.34375 a 0.09643306,0.09643306 0 0 0 -0.08789,0.05859 c -0.0598,-0.02719 -0.120091,-0.05949 -0.177735,-0.07617 h -0.002 c -0.09716,-0.02965 -0.21154,-0.04297 -0.34375,-0.04297 z m 2.583985,0 c -0.338951,0 -0.626734,0.115015 -0.839844,0.34375 -0.212552,0.229669 -0.316406,0.541723 -0.316406,0.916016 0,0.37882 0.109666,0.68717 0.333984,0.904296 a 0.09643306,0.09643306 0 0 0 0,0.002 c 0.223771,0.215169 0.5347,0.318359 0.914063,0.318359 0.149905,0 0.294055,-0.01717 0.43164,-0.05469 0.133045,-0.03627 0.26303,-0.08105 0.390625,-0.134766 a 0.09643306,0.09643306 0 0 0 0.05859,-0.08984 v -0.40039 a 0.09643306,0.09643306 0 0 0 -0.0957,-0.0957 h -0.01953 a 0.09643306,0.09643306 0 0 0 -0.06445,0.02344 c -0.0481,0.04319 -0.14737,0.100463 -0.292968,0.158203 -0.139699,0.05466 -0.276334,0.08203 -0.41211,0.08203 -0.103038,0 -0.19452,-0.01535 -0.277343,-0.04297 -0.08077,-0.02731 -0.149505,-0.06603 -0.207032,-0.119141 a 0.09643306,0.09643306 0 0 0 0,-0.002 c -0.05837,-0.05297 -0.104996,-0.120284 -0.140625,-0.207032 v -0.002 c -0.02396,-0.05998 -0.03139,-0.140804 -0.03906,-0.21875 h 1.496093 a 0.09643306,0.09643306 0 0 0 0.0957,-0.0957 v -0.199218 c 0,-0.332715 -0.08534,-0.605346 -0.265625,-0.798829 C 63.59638,70.218425 63.338467,70.125 63.025391,70.125 Z m 7.978515,0 c -0.151076,0 -0.296769,0.03011 -0.43164,0.0918 -0.07041,0.03188 -0.129372,0.08016 -0.19336,0.121094 v -0.05664 a 0.09643306,0.09643306 0 0 0 -0.0957,-0.0957 h -0.367187 a 0.09643306,0.09643306 0 0 0 -0.0957,0.0957 v 2.986328 a 0.09643306,0.09643306 0 0 0 0.0957,0.0957 h 0.367187 a 0.09643306,0.09643306 0 0 0 0.0957,-0.0957 v -0.771484 c 0.05352,0.02229 0.107668,0.05216 0.160156,0.06641 0.101979,0.02731 0.213679,0.03906 0.333985,0.03906 0.143077,0 0.279991,-0.02831 0.408203,-0.08594 0.129025,-0.05877 0.243343,-0.142034 0.337891,-0.248047 0.102004,-0.112063 0.179897,-0.247852 0.234375,-0.404297 0.05468,-0.158431 0.08008,-0.331258 0.08008,-0.517578 0,-0.366308 -0.07476,-0.662856 -0.238282,-0.882812 C 71.533145,70.241359 71.291298,70.125 71.003906,70.125 Z m 2.492188,0 c -0.151076,0 -0.29677,0.03011 -0.431641,0.0918 -0.07036,0.03187 -0.12814,0.0803 -0.191406,0.121094 v -0.05664 a 0.09643306,0.09643306 0 0 0 -0.0957,-0.0957 h -0.367188 a 0.09643306,0.09643306 0 0 0 -0.0957,0.0957 v 2.986328 a 0.09643306,0.09643306 0 0 0 0.0957,0.0957 h 0.367188 a 0.09643306,0.09643306 0 0 0 0.0957,-0.0957 v -0.771484 c 0.05275,0.02215 0.105797,0.05218 0.158203,0.06641 0.101979,0.02731 0.213682,0.03906 0.333984,0.03906 0.143079,0 0.279992,-0.02831 0.408204,-0.08594 0.129026,-0.05877 0.243341,-0.142036 0.33789,-0.248047 0.102006,-0.112063 0.179899,-0.247852 0.234375,-0.404297 0.05467,-0.158424 0.08008,-0.331255 0.08008,-0.517578 0,-0.366309 -0.07476,-0.662857 -0.238281,-0.882812 C 74.025334,70.241358 73.783485,70.125 73.496094,70.125 Z m -18.023438,0.0078 c -0.137258,10e-7 -0.275422,0.01084 -0.416015,0.03516 -0.137059,0.02372 -0.243261,0.0454 -0.320313,0.06641 a 0.09643306,0.09643306 0 0 0 -0.07031,0.09375 v 0.373047 a 0.09643306,0.09643306 0 0 0 0.0957,0.0957 h 0.01953 a 0.09643306,0.09643306 0 0 0 0.03516,-0.0059 c 0.122077,-0.04656 0.2386,-0.08188 0.351563,-0.105469 a 0.09643306,0.09643306 0 0 0 0.002,0 c 0.113159,-0.02487 0.2131,-0.03711 0.300781,-0.03711 0.07522,0 0.146756,0.0059 0.214844,0.01562 0.06332,0.0091 0.112902,0.02616 0.152344,0.04883 a 0.09643306,0.09643306 0 0 0 0.002,0 c 0.03997,0.02284 0.06548,0.05079 0.08594,0.08984 a 0.09643306,0.09643306 0 0 0 0.002,0.002 c 0.01615,0.0295 0.02345,0.07705 0.02734,0.128906 -0.176931,0.01024 -0.349711,0.02137 -0.507812,0.03906 -0.193636,0.02166 -0.363628,0.06334 -0.507813,0.126953 -0.144742,0.06449 -0.263174,0.156847 -0.345703,0.275391 -0.08426,0.121703 -0.121094,0.276032 -0.121094,0.455078 0,0.223616 0.07963,0.420982 0.234375,0.56836 0.153448,0.14614 0.348491,0.220702 0.566407,0.220703 0.112342,0 0.213479,-0.01 0.302734,-0.0332 0.08344,-0.02053 0.158927,-0.04736 0.226562,-0.08008 l 0.0039,-0.002 c 0.05108,-0.02329 0.10309,-0.05469 0.154297,-0.08984 v 0.04883 a 0.09643306,0.09643306 0 0 0 0.0957,0.0957 h 0.367187 a 0.09643306,0.09643306 0 0 0 0.0957,-0.0957 v -1.480469 c 0,-0.150454 -0.02192,-0.281242 -0.07227,-0.392578 -0.04978,-0.110119 -0.126112,-0.202418 -0.220704,-0.271485 -0.09486,-0.06966 -0.206868,-0.117271 -0.332031,-0.144531 h -0.002 c -0.122162,-0.02791 -0.261534,-0.04102 -0.419922,-0.04102 z m 12.783203,0 c -0.137258,10e-7 -0.275426,0.01083 -0.416015,0.03516 -0.137057,0.02372 -0.24326,0.0454 -0.320313,0.06641 a 0.09643306,0.09643306 0 0 0 -0.07031,0.09375 v 0.373047 a 0.09643306,0.09643306 0 0 0 0.0957,0.0957 h 0.01953 a 0.09643306,0.09643306 0 0 0 0.03516,-0.0059 c 0.122074,-0.04656 0.238602,-0.08188 0.351563,-0.105469 a 0.09643306,0.09643306 0 0 0 0.002,0 c 0.113165,-0.02487 0.213104,-0.03711 0.300781,-0.03711 0.07522,0 0.14675,0.0059 0.214844,0.01562 0.06331,0.0091 0.112913,0.02616 0.152344,0.04883 a 0.09643306,0.09643306 0 0 0 0.002,0 c 0.03997,0.02284 0.06549,0.0508 0.08594,0.08984 a 0.09643306,0.09643306 0 0 0 0.002,0.002 c 0.01615,0.0295 0.02344,0.07705 0.02734,0.128906 -0.176932,0.01024 -0.349711,0.02137 -0.507812,0.03906 -0.193637,0.02166 -0.363628,0.06334 -0.507813,0.126953 -0.144743,0.06449 -0.263175,0.156846 -0.345703,0.275391 -0.08427,0.121708 -0.121094,0.276036 -0.121094,0.455078 0,0.223617 0.07963,0.420982 0.234375,0.56836 0.153449,0.146139 0.348489,0.220702 0.566407,0.220703 0.112342,0 0.213478,-0.01 0.302734,-0.0332 0.08345,-0.02053 0.158927,-0.04736 0.226563,-0.08008 l 0.0039,-0.002 c 0.05108,-0.02329 0.103091,-0.0547 0.154297,-0.08984 v 0.04883 a 0.09643306,0.09643306 0 0 0 0.0957,0.0957 h 0.365234 a 0.09643306,0.09643306 0 0 0 0.0957,-0.0957 v -1.480469 c 0,-0.150454 -0.02192,-0.281242 -0.07227,-0.392578 -0.04933,-0.109131 -0.123573,-0.201991 -0.21875,-0.271485 -0.09487,-0.06965 -0.206868,-0.117271 -0.332032,-0.144531 h -0.002 c -0.122163,-0.02791 -0.261538,-0.04102 -0.419922,-0.04102 z m 6.386719,0.05273 a 0.09643306,0.09643306 0 0 0 -0.08008,0.132812 l 0.853516,2.03711 -0.388672,0.873047 a 0.09643306,0.09643306 0 0 0 0.08789,0.134765 h 0.392578 a 0.09643306,0.09643306 0 0 0 0.08789,-0.05859 l 1.273438,-2.986329 a 0.09643306,0.09643306 0 0 0 -0.08789,-0.132812 h -0.384766 a 0.09643306,0.09643306 0 0 0 -0.08984,0.05859 l -0.585938,1.40039 -0.580078,-1.40039 a 0.09643306,0.09643306 0 0 0 -0.08984,-0.05859 h -0.398437 a 0.09643306,0.09643306 0 0 0 -0.0098,0 z m -11.636719,0.433594 c 0.17799,0 0.290196,0.04586 0.363282,0.126953 a 0.09643306,0.09643306 0 0 0 0.002,0 c 0.06044,0.06617 0.09269,0.165708 0.107422,0.287109 h -1.017578 c 0.0261,-0.102028 0.06742,-0.192421 0.142578,-0.267578 0.09804,-0.09695 0.224637,-0.146484 0.402343,-0.146484 z m -2.5,0.02734 c 0.07579,0 0.152062,0.0095 0.228516,0.02734 a 0.09643306,0.09643306 0 0 0 0.002,0 c 0.05935,0.01278 0.12799,0.04025 0.197266,0.06836 v 1.066406 c -0.07312,0.05169 -0.150211,0.09766 -0.236328,0.130859 -0.09618,0.03613 -0.191137,0.05469 -0.285157,0.05469 -0.178877,0 -0.28119,-0.05076 -0.347656,-0.148438 -0.06966,-0.102379 -0.113281,-0.268406 -0.113281,-0.501953 0,-0.243408 0.05609,-0.414865 0.152344,-0.527344 0.09793,-0.114434 0.222049,-0.169922 0.402343,-0.169922 z m -2.490234,0.0059 c 0.08656,0 0.165835,0.0082 0.236328,0.02344 0.05343,0.01158 0.120886,0.03877 0.189453,0.06641 v 1.128906 c -0.07661,0.05658 -0.155488,0.108422 -0.242187,0.146484 -0.09568,0.04058 -0.187819,0.06055 -0.277344,0.06055 -0.173276,0 -0.275105,-0.05127 -0.345703,-0.158203 -0.07314,-0.111872 -0.117188,-0.290889 -0.117188,-0.539063 0,-0.249057 0.05573,-0.428052 0.152344,-0.548828 0.09702,-0.121277 0.220904,-0.179687 0.404297,-0.179687 z m -4.785156,0.01367 c 0.168701,0 0.265383,0.0501 0.333984,0.158203 a 0.09643306,0.09643306 0 0 0 0,0.002 c 0.07066,0.110268 0.115235,0.289212 0.115235,0.539062 0,0.272141 -0.05658,0.457847 -0.150391,0.566407 -0.0962,0.111501 -0.22215,0.166015 -0.404297,0.166015 -0.0889,0 -0.165856,-0.0093 -0.232422,-0.02539 -0.05091,-0.0125 -0.123128,-0.04041 -0.195312,-0.07031 v -1.128906 c 0.07725,-0.05593 0.157829,-0.105801 0.246093,-0.142578 a 0.09643306,0.09643306 0 0 0 0,-0.002 c 0.09896,-0.04241 0.19443,-0.0625 0.28711,-0.0625 z m 17.679687,0 c 0.163759,0 0.261805,0.04968 0.333985,0.154296 0.07263,0.105251 0.11914,0.283072 0.11914,0.535157 0,0.257278 -0.05558,0.436579 -0.15039,0.550781 -0.09661,0.116367 -0.221529,0.173828 -0.404297,0.173828 -0.08933,0 -0.167215,-0.0084 -0.234375,-0.02344 -0.05069,-0.01156 -0.122829,-0.04069 -0.195313,-0.07031 v -1.113281 c 0.0808,-0.0574 0.163273,-0.109467 0.25,-0.146485 0.09624,-0.04108 0.189649,-0.06055 0.28125,-0.06055 z m 2.492188,0 c 0.163759,0 0.261806,0.04968 0.333984,0.154296 0.07263,0.105251 0.119141,0.283072 0.119141,0.535157 0,0.257278 -0.05558,0.43658 -0.150391,0.550781 -0.09661,0.116366 -0.221533,0.173828 -0.404297,0.173828 -0.08932,0 -0.167222,-0.0084 -0.234375,-0.02344 -0.05031,-0.01147 -0.121421,-0.04073 -0.193359,-0.07031 v -1.113281 c 0.08066,-0.05755 0.161725,-0.10964 0.248047,-0.146485 0.09625,-0.04108 0.189649,-0.06055 0.28125,-0.06055 z m -23.265625,0.06836 h 0.335937 l -0.136718,0.550781 H 50 Z m 5.824219,0.6875 v 0.451172 c -0.07585,0.05507 -0.15491,0.104974 -0.242188,0.146484 -0.09337,0.04326 -0.195912,0.06641 -0.3125,0.06641 -0.140969,0 -0.232387,-0.03088 -0.283203,-0.07227 -0.05183,-0.04378 -0.08008,-0.103379 -0.08008,-0.208984 0,-0.09179 0.02375,-0.146631 0.06836,-0.189454 a 0.09643306,0.09643306 0 0 0 0.002,-0.002 c 0.05191,-0.05087 0.119699,-0.09073 0.212891,-0.117187 v 0.002 c 0.07907,-0.02211 0.194328,-0.04198 0.341797,-0.05469 0.112652,-0.0096 0.202849,-0.01546 0.292969,-0.02148 z m 12.783203,0 v 0.451172 c -0.07585,0.05507 -0.154912,0.104973 -0.242188,0.146484 -0.09337,0.04326 -0.195908,0.06641 -0.3125,0.06641 -0.140965,0 -0.232386,-0.03088 -0.283203,-0.07227 -0.05183,-0.04378 -0.08008,-0.103379 -0.08008,-0.208984 0,-0.0918 0.02375,-0.146634 0.06836,-0.189454 a 0.09643306,0.09643306 0 0 0 0.002,-0.002 c 0.05191,-0.05087 0.119699,-0.09073 0.212891,-0.117187 v 0.002 c 0.07907,-0.02211 0.194324,-0.04198 0.341797,-0.05469 0.112649,-0.0096 0.202848,-0.01546 0.292969,-0.02148 z"
       id="path3811"
       style="font-style:normal;font-weight:normal;font-size:medium;line-height:1.25;font-family:sans-serif;letter-spacing:0px;word-spacing:0px;display:inline;fill:#000000;fill-opacity:1;stroke:none;stroke-width:0.10001391"
       inkscape:original="M 52.234375 69.423828 L 52.234375 72.462891 L 52.578125 72.462891 L 52.601562 72.361328 C 52.691423 72.410818 52.782539 72.449862 52.875 72.478516 C 52.96746 72.508456 53.075504 72.523438 53.199219 72.523438 C 53.332049 72.523438 53.45376 72.498046 53.564453 72.447266 C 53.675145 72.395176 53.77668 72.317722 53.869141 72.214844 C 53.956391 72.115874 54.025384 71.993509 54.076172 71.847656 C 54.128262 71.701802 54.154297 71.537789 54.154297 71.355469 C 54.154297 70.994743 54.079449 70.715524 53.929688 70.517578 C 53.78123 70.319635 53.578162 70.220703 53.320312 70.220703 C 53.175762 70.220703 53.045591 70.248054 52.929688 70.302734 C 52.813786 70.356124 52.704441 70.425116 52.601562 70.509766 L 52.601562 69.423828 L 52.234375 69.423828 z M 58.537109 69.423828 L 58.537109 70.369141 C 58.439439 70.318351 58.346364 70.281249 58.257812 70.257812 C 58.169252 70.233052 58.067721 70.220703 57.953125 70.220703 C 57.826803 70.220703 57.704441 70.246728 57.585938 70.298828 C 57.468733 70.350918 57.3659 70.426418 57.277344 70.525391 C 57.187484 70.626965 57.115893 70.749978 57.0625 70.894531 C 57.01041 71.039084 56.984375 71.203752 56.984375 71.388672 C 56.984375 71.744194 57.060521 72.022105 57.212891 72.222656 C 57.366558 72.423203 57.573531 72.523437 57.833984 72.523438 C 57.968115 72.523438 58.092431 72.498046 58.207031 72.447266 C 58.321631 72.396476 58.431627 72.325535 58.537109 72.234375 L 58.537109 72.462891 L 58.904297 72.462891 L 58.904297 69.423828 L 58.537109 69.423828 z M 50.083984 69.554688 L 49.878906 70.378906 L 49.208984 70.378906 L 49.208984 70.642578 L 49.810547 70.642578 L 49.630859 71.376953 L 48.980469 71.376953 L 48.980469 71.640625 L 49.5625 71.640625 L 49.359375 72.462891 L 49.611328 72.462891 L 49.814453 71.640625 L 50.341797 71.640625 L 50.138672 72.462891 L 50.390625 72.462891 L 50.59375 71.640625 L 51.263672 71.640625 L 51.263672 71.376953 L 50.662109 71.376953 L 50.841797 70.642578 L 51.492188 70.642578 L 51.492188 70.378906 L 50.910156 70.378906 L 51.115234 69.554688 L 50.863281 69.554688 L 50.658203 70.378906 L 50.130859 70.378906 L 50.335938 69.554688 L 50.083984 69.554688 z M 64.53125 69.554688 L 64.53125 72.462891 L 64.917969 72.462891 L 64.917969 71.039062 L 66.369141 71.039062 L 66.369141 72.462891 L 66.755859 72.462891 L 66.755859 69.554688 L 66.369141 69.554688 L 66.369141 70.695312 L 64.917969 70.695312 L 64.917969 69.554688 L 64.53125 69.554688 z M 60.441406 70.220703 C 60.321598 70.220703 60.201188 70.246738 60.080078 70.298828 C 59.958966 70.349618 59.856131 70.421212 59.771484 70.513672 C 59.680324 70.612642 59.608081 70.730453 59.554688 70.867188 C 59.502598 71.002623 59.476562 71.164038 59.476562 71.351562 C 59.476562 71.694057 59.552712 71.959609 59.705078 72.148438 C 59.858745 72.335962 60.065719 72.429687 60.326172 72.429688 C 60.482443 72.429688 60.61066 72.408184 60.710938 72.365234 C 60.812511 72.320954 60.918605 72.254568 61.029297 72.166016 L 61.029297 72.365234 C 61.029297 72.453784 61.0195 72.533841 61 72.605469 C 60.98046 72.677089 60.947924 72.738271 60.902344 72.789062 C 60.856764 72.842452 60.792979 72.884119 60.710938 72.914062 C 60.628898 72.944002 60.525409 72.958984 60.400391 72.958984 C 60.270164 72.958984 60.139993 72.94141 60.009766 72.90625 C 59.879539 72.87238 59.784512 72.843752 59.724609 72.820312 L 59.705078 72.820312 L 59.705078 73.195312 C 59.811864 73.225252 59.919906 73.248042 60.029297 73.263672 C 60.139988 73.280602 60.253241 73.289062 60.369141 73.289062 C 60.71815 73.289062 60.976541 73.2025 61.144531 73.029297 C 61.312524 72.856099 61.396484 72.584688 61.396484 72.214844 L 61.396484 70.28125 L 61.052734 70.28125 L 61.029297 70.375 C 60.934227 70.32291 60.843763 70.284506 60.757812 70.259766 C 60.673162 70.233726 60.567728 70.220703 60.441406 70.220703 z M 63.025391 70.220703 C 62.707639 70.220703 62.451201 70.325491 62.255859 70.535156 C 62.061821 70.74482 61.964844 71.027944 61.964844 71.384766 C 61.964844 71.745493 62.066376 72.024061 62.269531 72.220703 C 62.472682 72.416045 62.75516 72.513672 63.117188 72.513672 C 63.259135 72.513672 63.394515 72.496098 63.523438 72.460938 C 63.652364 72.425787 63.778627 72.382164 63.902344 72.330078 L 63.902344 71.929688 L 63.882812 71.929688 C 63.819003 71.986987 63.711609 72.045562 63.560547 72.105469 C 63.410785 72.164069 63.261739 72.193359 63.113281 72.193359 C 63.001286 72.193359 62.898451 72.177754 62.804688 72.146484 C 62.712227 72.115224 62.632169 72.068374 62.564453 72.005859 C 62.494133 71.942049 62.438808 71.860692 62.398438 71.761719 C 62.358067 71.661445 62.337891 71.544287 62.337891 71.410156 L 63.945312 71.410156 L 63.945312 71.210938 C 63.945312 70.894486 63.865256 70.650418 63.705078 70.478516 C 63.546203 70.306618 63.319702 70.220703 63.025391 70.220703 z M 71.003906 70.220703 C 70.865866 70.220703 70.735695 70.248697 70.613281 70.304688 C 70.492172 70.359387 70.380872 70.42772 70.283203 70.509766 L 70.283203 70.28125 L 69.916016 70.28125 L 69.916016 73.267578 L 70.283203 73.267578 L 70.283203 72.353516 C 70.378263 72.405606 70.473293 72.44401 70.564453 72.46875 C 70.656913 72.49351 70.759747 72.505859 70.873047 72.505859 C 71.003273 72.505859 71.126287 72.479824 71.242188 72.427734 C 71.359392 72.374344 71.460928 72.299494 71.546875 72.203125 C 71.639335 72.101548 71.71093 71.977884 71.761719 71.832031 C 71.812509 71.684873 71.837891 71.52281 71.837891 71.345703 C 71.837891 70.99279 71.764349 70.717477 71.617188 70.519531 C 71.471334 70.320284 71.266964 70.220703 71.003906 70.220703 z M 73.496094 70.220703 C 73.358054 70.220703 73.227882 70.248697 73.105469 70.304688 C 72.98436 70.359387 72.875013 70.42772 72.777344 70.509766 L 72.777344 70.28125 L 72.410156 70.28125 L 72.410156 73.267578 L 72.777344 73.267578 L 72.777344 72.353516 C 72.872404 72.405606 72.965482 72.44401 73.056641 72.46875 C 73.149101 72.49351 73.251938 72.505859 73.365234 72.505859 C 73.495461 72.505859 73.618475 72.479824 73.734375 72.427734 C 73.85158 72.374344 73.953112 72.299494 74.039062 72.203125 C 74.131523 72.101548 74.203118 71.977884 74.253906 71.832031 C 74.304686 71.684873 74.330078 71.52281 74.330078 71.345703 C 74.330078 70.99279 74.256532 70.717477 74.109375 70.519531 C 73.963522 70.320284 73.759151 70.220703 73.496094 70.220703 z M 55.472656 70.228516 C 55.341129 70.228516 55.207702 70.240242 55.072266 70.263672 C 54.93683 70.287112 54.833343 70.308595 54.761719 70.328125 L 54.761719 70.701172 L 54.78125 70.701172 C 54.90757 70.652992 55.029932 70.616544 55.148438 70.591797 C 55.266942 70.565757 55.374335 70.552734 55.470703 70.552734 C 55.550143 70.552734 55.626294 70.557949 55.699219 70.568359 C 55.772149 70.578789 55.834626 70.598966 55.886719 70.628906 C 55.941409 70.660166 55.983062 70.703116 56.011719 70.757812 C 56.041659 70.812502 56.056641 70.881497 56.056641 70.964844 L 56.056641 71.021484 C 55.843072 71.031914 55.643255 71.047519 55.457031 71.068359 C 55.270807 71.089189 55.111346 71.128901 54.978516 71.1875 C 54.846986 71.2461 54.745453 71.326806 54.673828 71.429688 C 54.603508 71.531261 54.568359 71.664694 54.568359 71.830078 C 54.568359 72.03193 54.636701 72.197898 54.773438 72.328125 C 54.910176 72.458352 55.076799 72.523437 55.273438 72.523438 C 55.380224 72.523438 55.473296 72.513018 55.552734 72.492188 C 55.632174 72.472647 55.702466 72.447919 55.763672 72.417969 C 55.815762 72.394529 55.869135 72.363289 55.923828 72.324219 C 55.979828 72.283849 56.024084 72.252599 56.056641 72.230469 L 56.056641 72.462891 L 56.423828 72.462891 L 56.423828 70.982422 C 56.423828 70.841778 56.402365 70.72397 56.359375 70.628906 C 56.316395 70.533836 56.251964 70.456387 56.169922 70.396484 C 56.086582 70.335284 55.987647 70.292322 55.873047 70.267578 C 55.759752 70.241538 55.626326 70.228516 55.472656 70.228516 z M 68.255859 70.228516 C 68.124332 70.228516 67.990901 70.240242 67.855469 70.263672 C 67.720034 70.287112 67.616547 70.308595 67.544922 70.328125 L 67.544922 70.701172 L 67.564453 70.701172 C 67.690771 70.652992 67.813137 70.616544 67.931641 70.591797 C 68.05015 70.565757 68.157541 70.552734 68.253906 70.552734 C 68.333346 70.552734 68.409493 70.557949 68.482422 70.568359 C 68.555342 70.578789 68.617832 70.598966 68.669922 70.628906 C 68.724622 70.660166 68.766275 70.703116 68.794922 70.757812 C 68.824862 70.812502 68.839844 70.881497 68.839844 70.964844 L 68.839844 71.021484 C 68.626271 71.031914 68.426458 71.047519 68.240234 71.068359 C 68.054009 71.089189 67.89455 71.128901 67.761719 71.1875 C 67.630188 71.2461 67.528655 71.326806 67.457031 71.429688 C 67.386701 71.531261 67.351562 71.664694 67.351562 71.830078 C 67.351562 72.03193 67.419905 72.197898 67.556641 72.328125 C 67.693381 72.458352 67.859999 72.523437 68.056641 72.523438 C 68.163427 72.523438 68.256499 72.513018 68.335938 72.492188 C 68.415378 72.472647 68.485668 72.447919 68.546875 72.417969 C 68.598965 72.394529 68.652334 72.363289 68.707031 72.324219 C 68.763031 72.283849 68.807286 72.252599 68.839844 72.230469 L 68.839844 72.462891 L 69.205078 72.462891 L 69.205078 70.982422 C 69.205078 70.841778 69.183615 70.72397 69.140625 70.628906 C 69.097655 70.533836 69.035167 70.456387 68.953125 70.396484 C 68.869775 70.335284 68.77085 70.292322 68.65625 70.267578 C 68.542954 70.241538 68.409525 70.228516 68.255859 70.228516 z M 74.652344 70.28125 L 75.521484 72.357422 L 75.115234 73.267578 L 75.507812 73.267578 L 76.78125 70.28125 L 76.396484 70.28125 L 75.720703 71.898438 L 75.050781 70.28125 L 74.652344 70.28125 z M 63.005859 70.523438 C 63.201197 70.523438 63.346341 70.576156 63.441406 70.681641 C 63.537766 70.787124 63.586584 70.936169 63.587891 71.128906 L 62.337891 71.128906 C 62.353501 70.957008 62.41925 70.813166 62.535156 70.697266 C 62.652361 70.581362 62.809217 70.523438 63.005859 70.523438 z M 60.505859 70.550781 C 60.589209 70.550781 60.672516 70.560588 60.755859 70.580078 C 60.840509 70.598298 60.931628 70.629558 61.029297 70.673828 L 61.029297 71.863281 C 60.939437 71.932301 60.840509 71.987626 60.732422 72.029297 C 60.625635 72.069667 60.518896 72.089844 60.412109 72.089844 C 60.212863 72.089844 60.070326 72.02671 59.984375 71.900391 C 59.898425 71.774069 59.855469 71.588576 59.855469 71.34375 C 59.855469 71.085901 59.913394 70.889342 60.029297 70.753906 C 60.145197 70.618471 60.304008 70.550781 60.505859 70.550781 z M 58.015625 70.556641 C 58.108085 70.556641 58.193347 70.565131 58.271484 70.582031 C 58.349624 70.598961 58.438136 70.629548 58.537109 70.673828 L 58.537109 71.925781 C 58.444649 71.998711 58.345068 72.058588 58.238281 72.105469 C 58.131495 72.151049 58.026057 72.173828 57.921875 72.173828 C 57.726537 72.173828 57.584646 72.106786 57.496094 71.972656 C 57.407544 71.83722 57.363281 71.640012 57.363281 71.380859 C 57.363281 71.117805 57.420558 70.914733 57.535156 70.771484 C 57.649756 70.628235 57.809865 70.556641 58.015625 70.556641 z M 53.230469 70.570312 C 53.421901 70.570312 53.560536 70.638003 53.646484 70.773438 C 53.732434 70.907568 53.775391 71.104781 53.775391 71.365234 C 53.775391 71.650431 53.717466 71.86001 53.601562 71.994141 C 53.486964 72.126972 53.328153 72.193359 53.125 72.193359 C 53.02994 72.193359 52.944672 72.184246 52.869141 72.166016 C 52.794911 72.147796 52.705745 72.115239 52.601562 72.068359 L 52.601562 70.818359 C 52.695323 70.745429 52.79686 70.686205 52.90625 70.640625 C 53.015641 70.593745 53.123683 70.570312 53.230469 70.570312 z M 70.910156 70.570312 C 71.09638 70.570312 71.234363 70.635394 71.324219 70.765625 C 71.414079 70.895848 71.458984 71.092411 71.458984 71.355469 C 71.458984 71.62634 71.401706 71.83071 71.287109 71.96875 C 71.172509 72.10679 71.013053 72.175781 70.808594 72.175781 C 70.713524 72.175781 70.628267 72.167291 70.552734 72.150391 C 70.478504 72.133461 70.387382 72.101568 70.283203 72.054688 L 70.283203 70.818359 C 70.380873 70.744129 70.48501 70.684252 70.591797 70.638672 C 70.698579 70.593092 70.804674 70.570313 70.910156 70.570312 z M 73.402344 70.570312 C 73.588569 70.570312 73.726551 70.635394 73.816406 70.765625 C 73.906266 70.895848 73.951172 71.092411 73.951172 71.355469 C 73.951172 71.62634 73.893895 71.83071 73.779297 71.96875 C 73.664697 72.10679 73.505236 72.175781 73.300781 72.175781 C 73.205721 72.175781 73.120451 72.167291 73.044922 72.150391 C 72.970692 72.133461 72.881526 72.101568 72.777344 72.054688 L 72.777344 70.818359 C 72.875014 70.744129 72.977197 70.684252 73.083984 70.638672 C 73.190771 70.593092 73.296862 70.570313 73.402344 70.570312 z M 50.060547 70.638672 L 50.595703 70.638672 L 50.412109 71.380859 L 49.876953 71.380859 L 50.060547 70.638672 z M 56.056641 71.318359 L 56.056641 71.925781 C 55.965481 71.996101 55.866552 72.056633 55.759766 72.107422 C 55.652979 72.156902 55.535173 72.181641 55.40625 72.181641 C 55.251279 72.181641 55.136079 72.150401 55.060547 72.087891 C 54.985017 72.024081 54.947266 71.929705 54.947266 71.804688 C 54.947266 71.693996 54.979812 71.607429 55.044922 71.544922 C 55.110032 71.481112 55.195299 71.434247 55.300781 71.404297 C 55.389331 71.379537 55.509094 71.360676 55.660156 71.347656 C 55.812523 71.334616 55.944646 71.324869 56.056641 71.318359 z M 68.839844 71.318359 L 68.839844 71.925781 C 68.748684 71.996101 68.649752 72.056633 68.542969 72.107422 C 68.436182 72.156902 68.31838 72.181641 68.189453 72.181641 C 68.034486 72.181641 67.919283 72.150401 67.84375 72.087891 C 67.76822 72.024081 67.730469 71.929705 67.730469 71.804688 C 67.730469 71.693996 67.763005 71.607429 67.828125 71.544922 C 67.893235 71.481112 67.978502 71.434247 68.083984 71.404297 C 68.172534 71.379537 68.292293 71.360676 68.443359 71.347656 C 68.595722 71.334616 68.727849 71.324869 68.839844 71.318359 z "
       inkscape:radius="0.096423417"
       sodipodi:type="inkscape:offset" />
  </g>
  <g
     style="display:inline"
     id="g8163"
     inkscape:groupmode="layer"
     inkscape:label="B.Silk">
    <path
       inkscape:connector-curvature="0"
       style="display:inline;fill:#000000;stroke-width:0.3940005"
       d="m 24.07285,18.555329 8.866434,0.0048 -0.04846,0.773231 c -0.0293,0.462188 -0.07481,1.441147 -0.100978,2.175902 -0.02617,0.734753 -0.06762,1.501164 -0.09233,1.702626 l -0.04477,0.365666 H 26.36596 20.139173 Z m 17.230081,0.0095 11.589888,0.0066 5.567828,0.0029 c 0.01916,0.05913 -0.01474,1.089942 -0.07721,2.331124 -0.06302,1.256183 -0.115722,2.372052 -0.118118,2.478714 l -0.0055,0.193305 h -8.588386 -8.587426 l 0.0562,-1.356959 c 0.03096,-0.746607 0.08053,-1.89072 0.110379,-2.542517 z m 25.685144,0.01437 14.725671,0.0087 4.986946,6.442949 4.968869,6.420099 c -0.0074,0.02403 -0.329443,0.407201 -0.868458,1.036053 L 72.343565,53.587759 C 61.704302,65.750382 52.877008,75.653923 52.727121,75.595305 52.472714,75.495815 46.599418,68.836996 39.544124,60.741091 l 0.171373,-4.678419 c 0.0962,-2.61204 0.191091,-4.764774 0.21044,-4.784125 0.01935,-0.01935 3.851736,-0.0254 8.516961,-0.01326 l 8.482685,0.02189 -0.407573,9.480641 c -0.224094,5.214387 -0.399134,9.547109 -0.38852,9.628242 0.0199,0.152173 0.161422,-0.0035 5.812561,-6.41629 2.281882,-2.589483 2.95783,-3.408417 2.990078,-3.623327 0.02285,-0.152725 0.102822,-1.887477 0.178007,-3.854725 0.07518,-1.967246 0.160502,-3.955327 0.189506,-4.417508 l 0.05325,-0.839885 3.887098,-0.0021 3.888056,-9.75e-4 2.464442,-2.82153 2.464422,-2.820578 -6.271547,-0.02189 -6.272486,-0.02287 0.03999,-0.451371 c 0.05105,-0.575875 0.809419,-15.131993 0.809419,-15.534962 v -0.301827 h 9.394908 c 5.166981,0 9.398152,-0.009 9.403514,-0.02097 0.0055,-0.0118 0.07702,-1.107114 0.159027,-2.433008 l 0.149445,-2.410154 -0.310443,-0.407567 -0.309467,-0.40661 -9.076892,-0.0048 -9.07785,-0.0048 0.04662,-0.453275 c 0.02561,-0.248866 0.068,-1.033477 0.09434,-1.744531 0.02617,-0.711053 0.07113,-1.63256 0.100057,-2.047342 z m -34.66966,10.686197 -9.76e-4,0.409468 c -9.3e-5,0.225168 -0.154421,3.861917 -0.343761,8.080828 -0.189377,4.218915 -0.344607,7.699612 -0.344718,7.735166 -9.2e-5,0.03555 -1.194436,0.06475 -2.653947,0.06475 H 26.382982 C 19.999785,38.147306 14.881286,32.133858 14.442681,31.454626 c -0.02027,-0.03866 -0.04865,-0.08692 -0.04957,-0.104741 0.02875,-0.152946 0.559599,-0.93659 1.392178,-2.077819 l 8.237015,-0.0029 z m 25.511836,9.76e-4 0.0018,0.366621 c 0.0037,0.751482 -0.439158,14.697529 -0.48565,15.297962 l -0.04846,0.624679 H 48.661 40.02406 l 0.02764,-0.538027 c 0.0293,-0.560101 0.626582,-15.485547 0.626582,-15.655055 0,-0.07033 2.314314,-0.09617 8.576002,-0.09617 z"
       id="path3807" />
  </g>
  <g
     sodipodi:insensitive="true"
     style="display:inline"
     id="g8165"
     inkscape:groupmode="layer"
     inkscape:label="F.Cu" />
  <g
     sodipodi:insensitive="true"
     style="display:inline"
     id="g8167"
     inkscape:groupmode="layer"
     inkscape:label="F.Mask" />
  <g
     sodipodi:insensitive="true"
     style="display:inline"
     id="g8157"
     inkscape:groupmode="layer"
     inkscape:label="Drill" />
  <g
     style="display:inline"
     id="g8169"
     inkscape:groupmode="layer"
     inkscape:label="F.Silk">
    <path
       inkscape:connector-curvature="0"
       id="path3834"
       d="m 123.80049,59.593394 -11.76832,-13.453344 3.03409,-3.919669 3.0341,-3.919668 17.53332,-0.0099 17.53333,-0.0099 2.93218,3.743566 c 1.6127,2.058961 2.94504,3.880858 2.96076,4.048658 0.0257,0.274223 -22.92691,26.753002 -23.32536,26.908812 -0.0911,0.03566 -5.46153,-5.989175 -11.9341,-13.388514 z"
       style="fill:#ff5555;stroke-width:0.23969692"
       sodipodi:nodetypes="sccccccccs" />
    <text
       id="text3842"
       y="89.041946"
       x="107.70962"
       style="font-style:normal;font-weight:normal;font-size:10.58333302px;line-height:1.25;font-family:sans-serif;letter-spacing:0px;word-spacing:0px;fill:#000000;fill-opacity:1;stroke:none;stroke-width:0.26458332"
       xml:space="preserve"><tspan
         style="stroke-width:0.26458332"
         y="89.041946"
         x="107.70962"
         id="tspan3840"
         sodipodi:role="line">#badgeHappy</tspan></text>
    <path
       inkscape:connector-curvature="0"
       style="fill:#000000;stroke-width:0.26458332"
       d="m 167.89337,-9.3362962 -19.35334,0.010848 -19.35386,0.010848 -3.34915,4.3268688 -3.34915,4.32635017 12.99042,14.85025523 c 7.14459,8.167571 13.07219,14.817786 13.17284,14.778426 0.43983,-0.171987 25.77567,-29.39988544 25.74727,-29.70257936 -0.0174,-0.18522156 -1.48788,-2.19624534 -3.26802,-4.46897644 z m -5.31957,2.0872105 2.1239,2.7114632 h -6.77943 l -0.12403,-2.7088782 z m -9.36429,0.00516 0.10697,2.7062959 h -9.27695 l -0.12403,-2.7011286 3.01843,-0.00159 z m -13.93196,0.00775 0.12402,2.6990595 h -9.81594 l -0.16123,0.2082562 -0.19275,0.2490814 0.15761,2.6546175 h 10.19679 l 0.46612,8.8082489 h -6.84557 l 2.72231,3.1119552 h 4.23489 l 0.216,5.078243 c 1.79726,2.046848 3.41736,3.883631 4.83485,5.480801 l -0.44855,-10.540442 4.58266,-0.01188 c 2.53027,-0.0066 4.60755,-0.0033 4.62039,0.0072 l 0.18707,5.160409 c -3.81839,4.381402 -6.9946,7.981807 -7.13238,8.035684 -0.0813,0.03181 -4.87169,-5.342591 -10.64534,-11.942939 L 126.36205,0.31116339 c -0.29251,-0.34126223 -0.4674,-0.5492062 -0.47129,-0.56223958 l 2.69648,-3.48402531 2.7063,-3.4964264 z m 4.98419,5.8104986 h 7.93491 c 0.80928,0.00741 1.28513,0.018283 1.34359,0.036174 l 0.35347,8.7720724 h -9.35034 z m 13.84153,0 h 8.97361 c 0.44784,0.61415616 0.73433,1.03725136 0.74983,1.11982782 -5.3e-4,0.009684 -0.0159,0.0358696 -0.0269,0.0568431 -0.23755,0.36787137 -3.00773,3.62225428 -6.46213,7.63157538 h -2.72284 c -0.071,-0.0037 -0.10622,-0.00762 -0.11988,-0.01188 z"
       id="use3791" />
    <path
       id="use3793"
       d="m 162.57379,-7.249086 -4.81159,0.0026 0.0263,0.419613 c 0.0159,0.250818 0.0406,0.782074 0.0548,1.180807 0.0142,0.398732 0.0367,0.814644 0.0501,0.923972 l 0.0243,0.198438 h 3.41168 3.37912 z m -9.35033,0.0052 -6.28954,0.0036 -3.02152,0.0016 c -0.0104,0.03209 0.008,0.591484 0.0419,1.265042 0.0342,0.681699 0.0628,1.287253 0.0641,1.345136 l 0.003,0.104902 h 4.6607 4.66018 l -0.0305,-0.736388 c -0.0168,-0.405165 -0.0437,-1.026046 -0.0599,-1.37976 z m -13.93868,0.0078 -7.99125,0.0047 -2.70629,3.496426 -2.69648,3.484025 c 0.004,0.01304 0.17878,0.220978 0.47129,0.56224 l 10.01644,11.45085 c 5.77366,6.600349 10.56401,11.974751 10.64535,11.94294 0.13806,-0.05399 3.32535,-3.667564 7.15408,-8.061007 l -0.093,-2.53886 c -0.0522,-1.417489 -0.1037,-2.585723 -0.1142,-2.596224 -0.0105,-0.0105 -2.09024,-0.01378 -4.62194,-0.0072 l -4.60334,0.01188 0.22118,5.144905 c 0.12161,2.829716 0.2166,5.180975 0.21084,5.225004 -0.0108,0.08258 -0.0876,-0.0019 -3.15433,-3.481959 -1.23832,-1.405247 -1.60514,-1.849662 -1.62264,-1.966288 -0.0124,-0.08288 -0.0558,-1.024286 -0.0966,-2.091862 -0.0408,-1.067575 -0.0871,-2.146456 -0.10284,-2.39727 l -0.0289,-0.455785 -2.10943,-0.0011 -2.10995,-5.29e-4 -1.33739,-1.531173 -1.33738,-1.530657 3.40341,-0.01188 3.40392,-0.01241 -0.0217,-0.244948 c -0.0277,-0.312574 -0.43925,-8.211812 -0.43925,-8.430493 V -1.436555 H 134.526 c -2.80399,0 -5.10014,-0.0049 -5.10305,-0.01138 -0.003,-0.0064 -0.0418,-0.600803 -0.0863,-1.320332 l -0.0811,-1.30793 0.16847,-0.221176 0.16794,-0.220657 4.9258,-0.0026 4.92632,-0.0026 -0.0253,-0.245981 c -0.0139,-0.135053 -0.0369,-0.560842 -0.0512,-0.946713 -0.0142,-0.385871 -0.0386,-0.885949 -0.0543,-1.111041 z m 18.81435,5.799129 5.3e-4,0.222208 c 5e-5,0.122193 0.0838,2.095765 0.18655,4.385262 0.10277,2.289498 0.18701,4.178385 0.18707,4.197679 5e-5,0.01929 0.64819,0.03514 1.44023,0.03514 h 1.40663 c 3.464,-4.020299 6.24168,-7.283646 6.4797,-7.652248 0.011,-0.02098 0.0264,-0.04717 0.0269,-0.05684 -0.0156,-0.083 -0.30368,-0.508264 -0.7555,-1.12758 l -4.47002,-0.0016 z m -13.84463,5.3e-4 -0.001,0.198956 c -0.002,0.40781 0.23832,7.975978 0.26355,8.301818 l 0.0263,0.338997 h 4.68705 4.68705 l -0.015,-0.291973 c -0.0159,-0.303953 -0.34003,-8.403616 -0.34003,-8.495604 0,-0.03817 -1.25592,-0.05219 -4.65398,-0.05219 z"
       style="fill:#ffffff;stroke-width:0.21381414"
       inkscape:connector-curvature="0" />
    <path
       inkscape:connector-curvature="0"
       style="fill:#000000;stroke-width:0.26458332"
       d="m 207.5372,-46.977779 -19.35334,0.01085 -19.35386,0.01085 -3.34915,4.326869 -3.34915,4.32635 12.99042,14.850256 c 7.14458,8.167571 13.07219,14.8177851 13.17284,14.7784257 0.43982,-0.1719871 25.77567,-29.3998857 25.74726,-29.7025797 -0.0173,-0.185221 -1.48787,-2.196245 -3.26801,-4.468976 z m -5.31958,2.08721 2.12391,2.711463 h -6.77944 l -0.12402,-2.708878 z m -9.36428,0.0052 0.10697,2.706295 h -9.27696 l -0.12402,-2.701128 3.01842,-0.0015 z m -13.93197,0.0078 0.12403,2.699059 h -9.81594 l -0.16123,0.208257 -0.19276,0.249081 0.15762,2.654617 h 10.19679 l 0.46612,8.808249 h -6.84558 l 2.72232,3.111955 h 4.23488 l 0.21601,5.078243 c 1.79726,2.046849 3.41736,3.883631 4.83485,5.480802 l -0.44855,-10.540442 4.58266,-0.01188 c 2.53027,-0.0066 4.60755,-0.0033 4.62039,0.0072 l 0.18707,5.160409 c -3.81839,4.381402 -6.9946,7.981807 -7.13238,8.035684 -0.0813,0.03181 -4.87169,-5.34259 -10.64535,-11.942939 l -10.01644,-11.451032 c -0.29251,-0.341263 -0.4674,-0.549207 -0.47129,-0.56224 l 2.69648,-3.484025 2.70629,-3.496427 z m 4.98419,5.810498 h 7.93492 c 0.80928,0.0074 1.28513,0.01828 1.34359,0.03617 l 0.35346,8.772073 h -9.35033 z m 13.84154,0 h 8.97361 c 0.44783,0.614157 0.73433,1.037252 0.74982,1.119828 -4.3e-4,0.0097 -0.0159,0.03587 -0.0269,0.05684 -0.23755,0.367872 -3.00773,3.622255 -6.46214,7.631576 h -2.72283 c -0.071,-0.0037 -0.10623,-0.0076 -0.11989,-0.01188 z"
       id="path3803" />
  </g>
</svg>
