<?xml version="1.0" encoding="UTF-8" standalone="no"?>
<!-- Created with Inkscape (http://www.inkscape.org/) -->

<svg
   xmlns:dc="http://purl.org/dc/elements/1.1/"
   xmlns:cc="http://creativecommons.org/ns#"
   xmlns:rdf="http://www.w3.org/1999/02/22-rdf-syntax-ns#"
   xmlns:svg="http://www.w3.org/2000/svg"
   xmlns="http://www.w3.org/2000/svg"
   xmlns:sodipodi="http://sodipodi.sourceforge.net/DTD/sodipodi-0.dtd"
   xmlns:inkscape="http://www.inkscape.org/namespaces/inkscape"
   width="100.0mm"
   height="100.0mm"
   viewBox="0 0 100.000000 100.000000"
   id="svg2"
   version="1.1"
   inkscape:version="0.92.3 (2405546, 2018-03-11)"
   sodipodi:docname="superhashtagpcb.svg">
  <sodipodi:namedview
     id="base"
     pagecolor="#ffffff"
     bordercolor="#666666"
     borderopacity="1.0"
     inkscape:pageopacity="0.0"
     inkscape:pageshadow="2"
     inkscape:zoom="2"
     inkscape:cx="237.12951"
     inkscape:cy="350.44532"
     inkscape:document-units="mm"
     inkscape:current-layer="g8167"
     showgrid="false"
     inkscape:window-width="900"
     inkscape:window-height="609"
     inkscape:window-x="518"
     inkscape:window-y="142"
     inkscape:window-maximized="0"
     inkscape:measure-start="0,0"
     inkscape:measure-end="0,0"
     inkscape:snap-others="false"
     inkscape:snap-nodes="false"
     inkscape:snap-global="false" />
  <defs
     id="defs4" />
  <metadata
     id="metadata7">
    <rdf:RDF>
      <cc:Work
         rdf:about="">
        <dc:format>image/svg+xml</dc:format>
        <dc:type
           rdf:resource="http://purl.org/dc/dcmitype/StillImage" />
        <dc:title></dc:title>
      </cc:Work>
    </rdf:RDF>
  </metadata>
  <g
     inkscape:label="Layer 1"
     inkscape:groupmode="layer"
     id="layer1" />
  <g
     inkscape:label="[fixed] BG"
     inkscape:groupmode="layer"
     sodipodi:insensitive="true"
     id="g8151">
    <rect
       x="0"
       y="0"
       width="100.0"
       height="100.0"
       style="stroke:none;fill-opacity:1;fill:#FFFFFF"
       id="rect8153" />
  </g>
  <g
     inkscape:label="Edge.Cuts"
     inkscape:groupmode="layer"
     id="g8155"
     style="display:inline">
    <path
       id="path59"
       transform="scale(0.26458333)"
       d="M160.8457 25.591797L160.8457 25.667969L160.167109088 25.7529178943L159.499242271 25.8716546858L158.842807805 26.023337756L158.198513945 26.2071254863L157.567068948 26.4221762585L156.949181069 26.6676484539L156.345558564 26.9427004541L155.756909688 27.2464906406L155.183942696 27.5781773951L154.627365845 27.9369190989L154.08788739 28.3218741336L153.566215586 28.7322008809L153.06305869 29.1670577221L152.579124956 29.6256030388L152.115122641 30.1069952126L151.67176 30.610392625L151.249745289 31.1349536575L150.849786763 31.6798366917L150.472592678 32.244200109L150.118871289 32.827202291L149.789330853 33.4280016193L149.484679624 34.0457564753L149.205625859 34.6796252407L148.952877812 35.3287662969L148.727143741 35.9923380254L148.529131899 36.6694988079L148.359550544 37.3594070257L148.21910793 38.0612210605L148.108512313 38.7740992939L148.028471948 39.4972001072L147.979695092 40.229681882L147.96289 40.970703L147.95490219 41.5396429197L147.93183002 42.1256564355L147.845262656 43.3435365469L147.712848027 44.613607916L147.54424625 45.925135125L147.349117441 47.2673827559L147.137121719 48.6296153906L146.70117 51.371094L54.5625 51.371094L51.707031 51.371094L51.337891 51.371094L51.337891 51.400391L50.716797 51.585938L50.181641 51.925781L49.761719 52.394531L49.484375 52.96875L2.5195312 114.01562L2.3867188 114.17188L2.3496094 114.21094L2.234375 114.37695L2.1308594 114.56445L2.1132812 114.5957L2.0546875 114.72656L2.0078125 114.85156L1.9824219 114.9375L1.9472656 115.06836L1.9296875 115.1543L1.9121094 115.27734L1.8964844 115.41406L1.890625 115.56055L1.8964844 115.73828L1.9121094 115.85547L1.9375 116.00781L1.9394531 116.03125L1.9902344 116.21289L2.0078125 116.26562L2.0664062 116.42773L2.1132812 116.52539L2.1601562 116.61523L2.2109375 116.70117L2.2929688 116.83594L2.3027344 116.85352L2.4375 117.02344L2.5917969 117.18359L2.6054688 117.19922L2.75 117.32422L2.8535156 117.40039L2.921875 117.44727L3.0273438 117.50781L187.04102 325.58984L187.04688 325.58203L187.1582 325.72266L187.31055 325.89258L187.48242 326.04688L187.66602 326.18359L187.86328 326.30273L188.04688 326.38867L188.08789 326.40625L188.25 326.46484L188.30664 326.48242L188.41797 326.51172L188.5625 326.54297L188.57031 326.54297L188.60938 326.55078L188.78125 326.57227L188.80078 326.57617L188.98438 326.58203L189.20703 326.57031L189.26562 326.56055L189.42969 326.53516L189.43359 326.53516L189.45508 326.5293L189.64648 326.48242L189.68945 326.4668L189.88086 326.39844L190.08984 326.30078L190.47461 326.04688L190.79883 325.72266L190.90625 325.58203L190.91211 325.5918L374.92578 117.51172L375.03125 117.44727L375.09766 117.40039L375.20312 117.32617L375.34766 117.19922L375.36133 117.18555L375.51562 117.02344L375.65039 116.85352L375.66016 116.83594L375.74219 116.70312L375.79297 116.61523L375.83984 116.52539L375.88672 116.42969L375.94336 116.26758L375.96289 116.21289L376.01172 116.0332L376.01562 116.00781L376.04102 115.85547L376.05469 115.73828L376.0625 115.56055L376.05469 115.41406L376.04102 115.27734L376.02344 115.1543L376.00391 115.06836L375.96875 114.93945L375.94336 114.85156L375.89648 114.72656L375.83984 114.59766L375.82031 114.56445L375.7168 114.37695L375.60156 114.21094L375.56836 114.17188L375.43555 114.01758L328.47266 52.96875L328.19531 52.394531L327.77539 51.925781L327.24023 51.585938L326.61914 51.400391L326.61914 51.371094L326.24805 51.371094L323.39453 51.371094L323.02344 51.371094L224.81445 51.371094L224.378413906 48.6296269219L224.166414668 47.2673632441L223.97129875 45.925078125L223.802719238 44.6135205527L223.670329219 43.3434395156L223.583781777 42.125584002L223.560715613 41.5395998752L223.55273 40.970703L223.534260226 40.1793209884L223.479508096 39.3983283757L223.389363773 38.6286913267L223.264717422 37.8713760059L223.106459205 37.1273485779L222.915479287 36.3975752073L222.692667831 35.6830220587L222.438915 34.9846552969L222.155110958 34.3034410863L221.842145869 33.6403455916L221.500909896 32.9963349773L221.132293203 32.3723754082L220.737185953 31.7694330488L220.316478311 31.1884740637L219.871060438 30.6304646176L219.4018225 30.096370875L218.909654659 29.5871590006L218.39544708 29.1037951589L217.860089926 28.6472455147L217.304473359 28.2184762324L216.729487545 27.8184534768L216.136022646 27.4481434124L215.524968827 27.1085122038L214.89721625 26.8005260156L214.253655079 26.5251510125L213.595175479 26.2833533591L212.922667611 26.07609922L212.237021641 25.9043547598L211.539127731 25.769086143L210.829876045 25.6712595344L210.110156747 25.6118410985L209.38086 25.591797L209.01172 25.605469L209.01172 25.591797L162.13672 25.591797L160.8457 25.591797L160.8457 25.591797M186.65625 37.558594L191.29688 37.558594L191.55972298 37.5662913551L191.811669932 37.5890414189L192.053156625 37.6263311893L192.284618828 37.6776476641L192.506492311 37.7424778409L192.719212842 37.8203087178L193.118938125 38.0129205625L193.48728083 38.2513791807L193.827727109 38.5315805547L194.143763115 38.849420667L194.438875 39.2007955L194.716548916 39.5816010361L194.980271016 39.9877332578L195.233527451 40.4150881475L195.479804375 40.8595616875L195.965364297 41.7834486484L196.46484 42.726562L200.4668 50.035156L200.581100628 50.2709410432L200.66685616 50.5070634827L200.725141751 50.7430103141L200.757032559 50.9782685332L200.76360374 51.2123251359L200.745930452 51.4446671179L200.705087851 51.6747814751L200.642151094 51.9021552031L200.558195338 52.1262752979L200.45429574 52.3466287551L200.331527456 52.5627025706L200.190965645 52.7739837402L200.033685461 52.9799592597L199.860762063 53.1801161248L199.47228625 53.560921875L199.03413946 53.9122969573L198.554922949 54.2301373379L198.043237971 54.5103389832L197.507685781 54.7487978594L196.956867634 54.9414099329L196.399384785 55.0840711699L195.843838489 55.1726775369L195.29883 55.203125L182.65625 55.203125L182.111219502 55.1726775369L181.555611016 55.0840711699L180.998031553 54.9414099329L180.447088125 54.7487978594L179.911387744 54.5103389832L179.399537422 54.2301373379L178.92014417 53.9122969573L178.481815 53.560921875L178.093156924 53.1801161248L177.920144237 52.9799592597L177.762776953 52.7739837402L177.622130948 52.5627025706L177.4992821 52.3466287551L177.395306283 52.1262752979L177.311279375 51.9021552031L177.248277252 51.6747814751L177.207375791 51.4446671179L177.189650868 51.2123251359L177.196178359 50.9782685332L177.228034142 50.7430103141L177.286294092 50.5070634827L177.372034086 50.2709410432L177.48633 50.035156L181.48828 42.726562L181.987756133 41.7834486484L182.473317188 40.8595616875L182.719594868 40.4150881475L182.972852148 39.9877332578L183.236575151 39.5816010361L183.51425 39.2007955L183.809362817 38.849420667L184.125399727 38.5315805547L184.465846851 38.2513791807L184.834190313 38.0129205625L185.233916235 37.8203087178L185.446637033 37.7424778409L185.668510742 37.6776476641L185.899973128 37.6263311893L186.141459956 37.5890414189L186.393406992 37.5662913551L186.65625 37.558594L186.65625 37.558594"
       style="display:inline;fill:none;stroke:#000000;stroke-width:1.77637792;stroke-miterlimit:4;stroke-dasharray:none;stroke-opacity:1" />
  </g>
  <g
     inkscape:label="B.Cu-disabled"
     inkscape:groupmode="layer"
     id="g8159"
     sodipodi:insensitive="true" />
  <g
     inkscape:label="B.Mask-disabled"
     inkscape:groupmode="layer"
     id="g8161"
     sodipodi:insensitive="true" />
  <g
     inkscape:label="B.Silk-disabled"
     inkscape:groupmode="layer"
     id="g8163"
     sodipodi:insensitive="true" />
  <g
     inkscape:label="F.Cu"
     inkscape:groupmode="layer"
     id="g8165"
     style="display:inline"
     sodipodi:insensitive="true" />
  <g
     inkscape:label="F.Mask"
     inkscape:groupmode="layer"
     id="g8167"
     style="display:inline"
     sodipodi:insensitive="true">
    <path
       sodipodi:type="inkscape:offset"
       inkscape:radius="0.096423417"
       inkscape:original="M 52.234375 69.423828 L 52.234375 72.462891 L 52.578125 72.462891 L 52.601562 72.361328 C 52.691423 72.410818 52.782539 72.449862 52.875 72.478516 C 52.96746 72.508456 53.075504 72.523438 53.199219 72.523438 C 53.332049 72.523438 53.45376 72.498046 53.564453 72.447266 C 53.675145 72.395176 53.77668 72.317722 53.869141 72.214844 C 53.956391 72.115874 54.025384 71.993509 54.076172 71.847656 C 54.128262 71.701802 54.154297 71.537789 54.154297 71.355469 C 54.154297 70.994743 54.079449 70.715524 53.929688 70.517578 C 53.78123 70.319635 53.578162 70.220703 53.320312 70.220703 C 53.175762 70.220703 53.045591 70.248054 52.929688 70.302734 C 52.813786 70.356124 52.704441 70.425116 52.601562 70.509766 L 52.601562 69.423828 L 52.234375 69.423828 z M 58.537109 69.423828 L 58.537109 70.369141 C 58.439439 70.318351 58.346364 70.281249 58.257812 70.257812 C 58.169252 70.233052 58.067721 70.220703 57.953125 70.220703 C 57.826803 70.220703 57.704441 70.246728 57.585938 70.298828 C 57.468733 70.350918 57.3659 70.426418 57.277344 70.525391 C 57.187484 70.626965 57.115893 70.749978 57.0625 70.894531 C 57.01041 71.039084 56.984375 71.203752 56.984375 71.388672 C 56.984375 71.744194 57.060521 72.022105 57.212891 72.222656 C 57.366558 72.423203 57.573531 72.523437 57.833984 72.523438 C 57.968115 72.523438 58.092431 72.498046 58.207031 72.447266 C 58.321631 72.396476 58.431627 72.325535 58.537109 72.234375 L 58.537109 72.462891 L 58.904297 72.462891 L 58.904297 69.423828 L 58.537109 69.423828 z M 50.083984 69.554688 L 49.878906 70.378906 L 49.208984 70.378906 L 49.208984 70.642578 L 49.810547 70.642578 L 49.630859 71.376953 L 48.980469 71.376953 L 48.980469 71.640625 L 49.5625 71.640625 L 49.359375 72.462891 L 49.611328 72.462891 L 49.814453 71.640625 L 50.341797 71.640625 L 50.138672 72.462891 L 50.390625 72.462891 L 50.59375 71.640625 L 51.263672 71.640625 L 51.263672 71.376953 L 50.662109 71.376953 L 50.841797 70.642578 L 51.492188 70.642578 L 51.492188 70.378906 L 50.910156 70.378906 L 51.115234 69.554688 L 50.863281 69.554688 L 50.658203 70.378906 L 50.130859 70.378906 L 50.335938 69.554688 L 50.083984 69.554688 z M 64.53125 69.554688 L 64.53125 72.462891 L 64.917969 72.462891 L 64.917969 71.039062 L 66.369141 71.039062 L 66.369141 72.462891 L 66.755859 72.462891 L 66.755859 69.554688 L 66.369141 69.554688 L 66.369141 70.695312 L 64.917969 70.695312 L 64.917969 69.554688 L 64.53125 69.554688 z M 60.441406 70.220703 C 60.321598 70.220703 60.201188 70.246738 60.080078 70.298828 C 59.958966 70.349618 59.856131 70.421212 59.771484 70.513672 C 59.680324 70.612642 59.608081 70.730453 59.554688 70.867188 C 59.502598 71.002623 59.476562 71.164038 59.476562 71.351562 C 59.476562 71.694057 59.552712 71.959609 59.705078 72.148438 C 59.858745 72.335962 60.065719 72.429687 60.326172 72.429688 C 60.482443 72.429688 60.61066 72.408184 60.710938 72.365234 C 60.812511 72.320954 60.918605 72.254568 61.029297 72.166016 L 61.029297 72.365234 C 61.029297 72.453784 61.0195 72.533841 61 72.605469 C 60.98046 72.677089 60.947924 72.738271 60.902344 72.789062 C 60.856764 72.842452 60.792979 72.884119 60.710938 72.914062 C 60.628898 72.944002 60.525409 72.958984 60.400391 72.958984 C 60.270164 72.958984 60.139993 72.94141 60.009766 72.90625 C 59.879539 72.87238 59.784512 72.843752 59.724609 72.820312 L 59.705078 72.820312 L 59.705078 73.195312 C 59.811864 73.225252 59.919906 73.248042 60.029297 73.263672 C 60.139988 73.280602 60.253241 73.289062 60.369141 73.289062 C 60.71815 73.289062 60.976541 73.2025 61.144531 73.029297 C 61.312524 72.856099 61.396484 72.584688 61.396484 72.214844 L 61.396484 70.28125 L 61.052734 70.28125 L 61.029297 70.375 C 60.934227 70.32291 60.843763 70.284506 60.757812 70.259766 C 60.673162 70.233726 60.567728 70.220703 60.441406 70.220703 z M 63.025391 70.220703 C 62.707639 70.220703 62.451201 70.325491 62.255859 70.535156 C 62.061821 70.74482 61.964844 71.027944 61.964844 71.384766 C 61.964844 71.745493 62.066376 72.024061 62.269531 72.220703 C 62.472682 72.416045 62.75516 72.513672 63.117188 72.513672 C 63.259135 72.513672 63.394515 72.496098 63.523438 72.460938 C 63.652364 72.425787 63.778627 72.382164 63.902344 72.330078 L 63.902344 71.929688 L 63.882812 71.929688 C 63.819003 71.986987 63.711609 72.045562 63.560547 72.105469 C 63.410785 72.164069 63.261739 72.193359 63.113281 72.193359 C 63.001286 72.193359 62.898451 72.177754 62.804688 72.146484 C 62.712227 72.115224 62.632169 72.068374 62.564453 72.005859 C 62.494133 71.942049 62.438808 71.860692 62.398438 71.761719 C 62.358067 71.661445 62.337891 71.544287 62.337891 71.410156 L 63.945312 71.410156 L 63.945312 71.210938 C 63.945312 70.894486 63.865256 70.650418 63.705078 70.478516 C 63.546203 70.306618 63.319702 70.220703 63.025391 70.220703 z M 71.003906 70.220703 C 70.865866 70.220703 70.735695 70.248697 70.613281 70.304688 C 70.492172 70.359387 70.380872 70.42772 70.283203 70.509766 L 70.283203 70.28125 L 69.916016 70.28125 L 69.916016 73.267578 L 70.283203 73.267578 L 70.283203 72.353516 C 70.378263 72.405606 70.473293 72.44401 70.564453 72.46875 C 70.656913 72.49351 70.759747 72.505859 70.873047 72.505859 C 71.003273 72.505859 71.126287 72.479824 71.242188 72.427734 C 71.359392 72.374344 71.460928 72.299494 71.546875 72.203125 C 71.639335 72.101548 71.71093 71.977884 71.761719 71.832031 C 71.812509 71.684873 71.837891 71.52281 71.837891 71.345703 C 71.837891 70.99279 71.764349 70.717477 71.617188 70.519531 C 71.471334 70.320284 71.266964 70.220703 71.003906 70.220703 z M 73.496094 70.220703 C 73.358054 70.220703 73.227882 70.248697 73.105469 70.304688 C 72.98436 70.359387 72.875013 70.42772 72.777344 70.509766 L 72.777344 70.28125 L 72.410156 70.28125 L 72.410156 73.267578 L 72.777344 73.267578 L 72.777344 72.353516 C 72.872404 72.405606 72.965482 72.44401 73.056641 72.46875 C 73.149101 72.49351 73.251938 72.505859 73.365234 72.505859 C 73.495461 72.505859 73.618475 72.479824 73.734375 72.427734 C 73.85158 72.374344 73.953112 72.299494 74.039062 72.203125 C 74.131523 72.101548 74.203118 71.977884 74.253906 71.832031 C 74.304686 71.684873 74.330078 71.52281 74.330078 71.345703 C 74.330078 70.99279 74.256532 70.717477 74.109375 70.519531 C 73.963522 70.320284 73.759151 70.220703 73.496094 70.220703 z M 55.472656 70.228516 C 55.341129 70.228516 55.207702 70.240242 55.072266 70.263672 C 54.93683 70.287112 54.833343 70.308595 54.761719 70.328125 L 54.761719 70.701172 L 54.78125 70.701172 C 54.90757 70.652992 55.029932 70.616544 55.148438 70.591797 C 55.266942 70.565757 55.374335 70.552734 55.470703 70.552734 C 55.550143 70.552734 55.626294 70.557949 55.699219 70.568359 C 55.772149 70.578789 55.834626 70.598966 55.886719 70.628906 C 55.941409 70.660166 55.983062 70.703116 56.011719 70.757812 C 56.041659 70.812502 56.056641 70.881497 56.056641 70.964844 L 56.056641 71.021484 C 55.843072 71.031914 55.643255 71.047519 55.457031 71.068359 C 55.270807 71.089189 55.111346 71.128901 54.978516 71.1875 C 54.846986 71.2461 54.745453 71.326806 54.673828 71.429688 C 54.603508 71.531261 54.568359 71.664694 54.568359 71.830078 C 54.568359 72.03193 54.636701 72.197898 54.773438 72.328125 C 54.910176 72.458352 55.076799 72.523437 55.273438 72.523438 C 55.380224 72.523438 55.473296 72.513018 55.552734 72.492188 C 55.632174 72.472647 55.702466 72.447919 55.763672 72.417969 C 55.815762 72.394529 55.869135 72.363289 55.923828 72.324219 C 55.979828 72.283849 56.024084 72.252599 56.056641 72.230469 L 56.056641 72.462891 L 56.423828 72.462891 L 56.423828 70.982422 C 56.423828 70.841778 56.402365 70.72397 56.359375 70.628906 C 56.316395 70.533836 56.251964 70.456387 56.169922 70.396484 C 56.086582 70.335284 55.987647 70.292322 55.873047 70.267578 C 55.759752 70.241538 55.626326 70.228516 55.472656 70.228516 z M 68.255859 70.228516 C 68.124332 70.228516 67.990901 70.240242 67.855469 70.263672 C 67.720034 70.287112 67.616547 70.308595 67.544922 70.328125 L 67.544922 70.701172 L 67.564453 70.701172 C 67.690771 70.652992 67.813137 70.616544 67.931641 70.591797 C 68.05015 70.565757 68.157541 70.552734 68.253906 70.552734 C 68.333346 70.552734 68.409493 70.557949 68.482422 70.568359 C 68.555342 70.578789 68.617832 70.598966 68.669922 70.628906 C 68.724622 70.660166 68.766275 70.703116 68.794922 70.757812 C 68.824862 70.812502 68.839844 70.881497 68.839844 70.964844 L 68.839844 71.021484 C 68.626271 71.031914 68.426458 71.047519 68.240234 71.068359 C 68.054009 71.089189 67.89455 71.128901 67.761719 71.1875 C 67.630188 71.2461 67.528655 71.326806 67.457031 71.429688 C 67.386701 71.531261 67.351562 71.664694 67.351562 71.830078 C 67.351562 72.03193 67.419905 72.197898 67.556641 72.328125 C 67.693381 72.458352 67.859999 72.523437 68.056641 72.523438 C 68.163427 72.523438 68.256499 72.513018 68.335938 72.492188 C 68.415378 72.472647 68.485668 72.447919 68.546875 72.417969 C 68.598965 72.394529 68.652334 72.363289 68.707031 72.324219 C 68.763031 72.283849 68.807286 72.252599 68.839844 72.230469 L 68.839844 72.462891 L 69.205078 72.462891 L 69.205078 70.982422 C 69.205078 70.841778 69.183615 70.72397 69.140625 70.628906 C 69.097655 70.533836 69.035167 70.456387 68.953125 70.396484 C 68.869775 70.335284 68.77085 70.292322 68.65625 70.267578 C 68.542954 70.241538 68.409525 70.228516 68.255859 70.228516 z M 74.652344 70.28125 L 75.521484 72.357422 L 75.115234 73.267578 L 75.507812 73.267578 L 76.78125 70.28125 L 76.396484 70.28125 L 75.720703 71.898438 L 75.050781 70.28125 L 74.652344 70.28125 z M 63.005859 70.523438 C 63.201197 70.523438 63.346341 70.576156 63.441406 70.681641 C 63.537766 70.787124 63.586584 70.936169 63.587891 71.128906 L 62.337891 71.128906 C 62.353501 70.957008 62.41925 70.813166 62.535156 70.697266 C 62.652361 70.581362 62.809217 70.523438 63.005859 70.523438 z M 60.505859 70.550781 C 60.589209 70.550781 60.672516 70.560588 60.755859 70.580078 C 60.840509 70.598298 60.931628 70.629558 61.029297 70.673828 L 61.029297 71.863281 C 60.939437 71.932301 60.840509 71.987626 60.732422 72.029297 C 60.625635 72.069667 60.518896 72.089844 60.412109 72.089844 C 60.212863 72.089844 60.070326 72.02671 59.984375 71.900391 C 59.898425 71.774069 59.855469 71.588576 59.855469 71.34375 C 59.855469 71.085901 59.913394 70.889342 60.029297 70.753906 C 60.145197 70.618471 60.304008 70.550781 60.505859 70.550781 z M 58.015625 70.556641 C 58.108085 70.556641 58.193347 70.565131 58.271484 70.582031 C 58.349624 70.598961 58.438136 70.629548 58.537109 70.673828 L 58.537109 71.925781 C 58.444649 71.998711 58.345068 72.058588 58.238281 72.105469 C 58.131495 72.151049 58.026057 72.173828 57.921875 72.173828 C 57.726537 72.173828 57.584646 72.106786 57.496094 71.972656 C 57.407544 71.83722 57.363281 71.640012 57.363281 71.380859 C 57.363281 71.117805 57.420558 70.914733 57.535156 70.771484 C 57.649756 70.628235 57.809865 70.556641 58.015625 70.556641 z M 53.230469 70.570312 C 53.421901 70.570312 53.560536 70.638003 53.646484 70.773438 C 53.732434 70.907568 53.775391 71.104781 53.775391 71.365234 C 53.775391 71.650431 53.717466 71.86001 53.601562 71.994141 C 53.486964 72.126972 53.328153 72.193359 53.125 72.193359 C 53.02994 72.193359 52.944672 72.184246 52.869141 72.166016 C 52.794911 72.147796 52.705745 72.115239 52.601562 72.068359 L 52.601562 70.818359 C 52.695323 70.745429 52.79686 70.686205 52.90625 70.640625 C 53.015641 70.593745 53.123683 70.570312 53.230469 70.570312 z M 70.910156 70.570312 C 71.09638 70.570312 71.234363 70.635394 71.324219 70.765625 C 71.414079 70.895848 71.458984 71.092411 71.458984 71.355469 C 71.458984 71.62634 71.401706 71.83071 71.287109 71.96875 C 71.172509 72.10679 71.013053 72.175781 70.808594 72.175781 C 70.713524 72.175781 70.628267 72.167291 70.552734 72.150391 C 70.478504 72.133461 70.387382 72.101568 70.283203 72.054688 L 70.283203 70.818359 C 70.380873 70.744129 70.48501 70.684252 70.591797 70.638672 C 70.698579 70.593092 70.804674 70.570313 70.910156 70.570312 z M 73.402344 70.570312 C 73.588569 70.570312 73.726551 70.635394 73.816406 70.765625 C 73.906266 70.895848 73.951172 71.092411 73.951172 71.355469 C 73.951172 71.62634 73.893895 71.83071 73.779297 71.96875 C 73.664697 72.10679 73.505236 72.175781 73.300781 72.175781 C 73.205721 72.175781 73.120451 72.167291 73.044922 72.150391 C 72.970692 72.133461 72.881526 72.101568 72.777344 72.054688 L 72.777344 70.818359 C 72.875014 70.744129 72.977197 70.684252 73.083984 70.638672 C 73.190771 70.593092 73.296862 70.570313 73.402344 70.570312 z M 50.060547 70.638672 L 50.595703 70.638672 L 50.412109 71.380859 L 49.876953 71.380859 L 50.060547 70.638672 z M 56.056641 71.318359 L 56.056641 71.925781 C 55.965481 71.996101 55.866552 72.056633 55.759766 72.107422 C 55.652979 72.156902 55.535173 72.181641 55.40625 72.181641 C 55.251279 72.181641 55.136079 72.150401 55.060547 72.087891 C 54.985017 72.024081 54.947266 71.929705 54.947266 71.804688 C 54.947266 71.693996 54.979812 71.607429 55.044922 71.544922 C 55.110032 71.481112 55.195299 71.434247 55.300781 71.404297 C 55.389331 71.379537 55.509094 71.360676 55.660156 71.347656 C 55.812523 71.334616 55.944646 71.324869 56.056641 71.318359 z M 68.839844 71.318359 L 68.839844 71.925781 C 68.748684 71.996101 68.649752 72.056633 68.542969 72.107422 C 68.436182 72.156902 68.31838 72.181641 68.189453 72.181641 C 68.034486 72.181641 67.919283 72.150401 67.84375 72.087891 C 67.76822 72.024081 67.730469 71.929705 67.730469 71.804688 C 67.730469 71.693996 67.763005 71.607429 67.828125 71.544922 C 67.893235 71.481112 67.978502 71.434247 68.083984 71.404297 C 68.172534 71.379537 68.292293 71.360676 68.443359 71.347656 C 68.595722 71.334616 68.727849 71.324869 68.839844 71.318359 z "
       style="font-style:normal;font-weight:normal;font-size:medium;line-height:1.25;font-family:sans-serif;letter-spacing:0px;word-spacing:0px;display:inline;fill:#000000;fill-opacity:1;stroke:none;stroke-width:0.10001391"
       id="path3811"
       d="m 52.224609,69.328125 a 0.09643306,0.09643306 0 0 0 -0.08594,0.0957 v 3.039063 a 0.09643306,0.09643306 0 0 0 0.0957,0.0957 h 0.34375 a 0.09643306,0.09643306 0 0 0 0.0918,-0.06445 c 0.05852,0.02656 0.115895,0.05761 0.175781,0.07617 0.104436,0.03382 0.222016,0.04883 0.353516,0.04883 0.145118,0 0.282282,-0.02711 0.40625,-0.08398 0.123457,-0.0581 0.2361,-0.144774 0.335937,-0.255859 0.09609,-0.108995 0.170486,-0.243941 0.22461,-0.398438 0.05637,-0.157832 0.08398,-0.333891 0.08398,-0.52539 0,-0.374064 -0.07738,-0.676073 -0.244141,-0.896485 C 53.841331,70.239614 53.602826,70.125 53.320312,70.125 c -0.156713,0 -0.301763,0.02857 -0.43164,0.08984 -0.068,0.03133 -0.127798,0.07981 -0.191406,0.121094 v -0.91211 a 0.09643306,0.09643306 0 0 0 -0.0957,-0.0957 h -0.367187 a 0.09643306,0.09643306 0 0 0 -0.0098,0 z m 6.302735,0 a 0.09643306,0.09643306 0 0 0 -0.08594,0.0957 v 0.802734 c -0.05279,-0.02143 -0.107058,-0.04896 -0.158203,-0.0625 -0.09896,-0.02767 -0.208555,-0.03906 -0.330078,-0.03906 -0.139566,0 -0.27619,0.02876 -0.40625,0.08594 -0.129676,0.05763 -0.244755,0.141543 -0.341797,0.25 -0.09862,0.111474 -0.175483,0.246237 -0.232422,0.40039 -0.05653,0.156885 -0.08398,0.333374 -0.08398,0.527344 0,0.36929 0.07908,0.670182 0.248047,0.892578 0.169656,0.221414 0.412074,0.33789 0.697265,0.337891 0.1463,0 0.284781,-0.02756 0.41211,-0.08398 0.06868,-0.03044 0.130353,-0.0836 0.195312,-0.126953 v 0.05469 a 0.09643306,0.09643306 0 0 0 0.0957,0.0957 h 0.367188 A 0.09643306,0.09643306 0 0 0 59,72.462891 v -3.039063 a 0.09643306,0.09643306 0 0 0 -0.0957,-0.0957 h -0.367188 a 0.09643306,0.09643306 0 0 0 -0.0098,0 z m -8.453125,0.130859 a 0.09643306,0.09643306 0 0 0 -0.08398,0.07227 l -0.1875,0.751953 h -0.59375 a 0.09643306,0.09643306 0 0 0 -0.0957,0.0957 v 0.263672 a 0.09643306,0.09643306 0 0 0 0.0957,0.0957 H 49.6875 l -0.132812,0.542969 h -0.574219 a 0.09643306,0.09643306 0 0 0 -0.0957,0.0957 v 0.263672 a 0.09643306,0.09643306 0 0 0 0.0957,0.0957 h 0.458984 l -0.173828,0.703125 a 0.09643306,0.09643306 0 0 0 0.09375,0.119141 h 0.251953 a 0.09643306,0.09643306 0 0 0 0.09375,-0.07227 l 0.185547,-0.75 h 0.328125 l -0.173828,0.703125 a 0.09643306,0.09643306 0 0 0 0.09375,0.119141 h 0.251953 a 0.09643306,0.09643306 0 0 0 0.09375,-0.07227 l 0.185547,-0.75 h 0.59375 a 0.09643306,0.09643306 0 0 0 0.0957,-0.0957 v -0.263672 a 0.09643306,0.09643306 0 0 0 -0.0957,-0.0957 h -0.478516 l 0.132813,-0.542969 h 0.574219 a 0.09643306,0.09643306 0 0 0 0.0957,-0.0957 v -0.263672 a 0.09643306,0.09643306 0 0 0 -0.0957,-0.0957 h -0.458985 l 0.175781,-0.705078 a 0.09643306,0.09643306 0 0 0 -0.09375,-0.119141 h -0.251953 a 0.09643306,0.09643306 0 0 0 -0.09375,0.07227 l -0.1875,0.751953 h -0.328125 l 0.175782,-0.705078 a 0.09643306,0.09643306 0 0 0 -0.09375,-0.119141 h -0.251954 a 0.09643306,0.09643306 0 0 0 -0.0098,0 z m 14.447265,0 a 0.09643306,0.09643306 0 0 0 -0.08594,0.0957 v 2.908203 a 0.09643306,0.09643306 0 0 0 0.0957,0.0957 h 0.386719 a 0.09643306,0.09643306 0 0 0 0.0957,-0.0957 v -1.328125 h 1.259766 v 1.328125 a 0.09643306,0.09643306 0 0 0 0.0957,0.0957 h 0.386718 a 0.09643306,0.09643306 0 0 0 0.0957,-0.0957 v -2.908203 a 0.09643306,0.09643306 0 0 0 -0.0957,-0.0957 h -0.386718 a 0.09643306,0.09643306 0 0 0 -0.0957,0.0957 v 1.044921 h -1.259766 v -1.044921 a 0.09643306,0.09643306 0 0 0 -0.0957,-0.0957 H 64.53125 a 0.09643306,0.09643306 0 0 0 -0.0098,0 z M 60.441406,70.125 c -0.133777,0 -0.268683,0.02929 -0.40039,0.08594 -0.131868,0.05571 -0.246286,0.136087 -0.339844,0.238281 -0.0998,0.108344 -0.179042,0.236107 -0.236328,0.382812 -0.05744,0.149346 -0.08398,0.323082 -0.08398,0.519531 0,0.356788 0.07975,0.64643 0.25,0.857422 0.170588,0.208173 0.411728,0.316406 0.695313,0.316407 0.165117,0 0.30496,-0.02219 0.421875,-0.07227 a 0.09643306,0.09643306 0 0 0 0.002,0 c 0.06008,-0.02619 0.122428,-0.07413 0.183594,-0.113281 v 0.02539 c 0,0.08144 -0.01048,0.152888 -0.02734,0.214844 -0.01606,0.05885 -0.04107,0.105412 -0.07617,0.144531 a 0.09643306,0.09643306 0 0 0 -0.002,0.002 c -0.03282,0.03845 -0.08029,0.07207 -0.150391,0.09766 -0.06724,0.02454 -0.160029,0.03906 -0.277343,0.03906 -0.121553,0 -0.242812,-0.01773 -0.365235,-0.05078 a 0.09643306,0.09643306 0 0 0 -0.002,0 c -0.128476,-0.03342 -0.220949,-0.06149 -0.273437,-0.08203 a 0.09643306,0.09643306 0 0 0 -0.03516,-0.0059 h -0.01953 a 0.09643306,0.09643306 0 0 0 -0.0957,0.0957 v 0.375 a 0.09643306,0.09643306 0 0 0 0.07031,0.09375 c 0.110817,0.03107 0.222354,0.05408 0.335937,0.07031 0.115662,0.01769 0.232923,0.02539 0.353516,0.02539 0.364952,0 0.652535,-0.09191 0.84375,-0.289063 0.191865,-0.19781 0.279296,-0.496422 0.279297,-0.880859 V 70.28125 a 0.09643306,0.09643306 0 0 0 -0.0957,-0.0957 h -0.34375 a 0.09643306,0.09643306 0 0 0 -0.08789,0.05859 c -0.0598,-0.02719 -0.120091,-0.05949 -0.177735,-0.07617 h -0.002 c -0.09716,-0.02965 -0.21154,-0.04297 -0.34375,-0.04297 z m 2.583985,0 c -0.338951,0 -0.626734,0.115015 -0.839844,0.34375 -0.212552,0.229669 -0.316406,0.541723 -0.316406,0.916016 0,0.37882 0.109666,0.68717 0.333984,0.904296 a 0.09643306,0.09643306 0 0 0 0,0.002 c 0.223771,0.215169 0.5347,0.318359 0.914063,0.318359 0.149905,0 0.294055,-0.01717 0.43164,-0.05469 0.133045,-0.03627 0.26303,-0.08105 0.390625,-0.134766 a 0.09643306,0.09643306 0 0 0 0.05859,-0.08984 v -0.40039 a 0.09643306,0.09643306 0 0 0 -0.0957,-0.0957 h -0.01953 a 0.09643306,0.09643306 0 0 0 -0.06445,0.02344 c -0.0481,0.04319 -0.14737,0.100463 -0.292968,0.158203 -0.139699,0.05466 -0.276334,0.08203 -0.41211,0.08203 -0.103038,0 -0.19452,-0.01535 -0.277343,-0.04297 -0.08077,-0.02731 -0.149505,-0.06603 -0.207032,-0.119141 a 0.09643306,0.09643306 0 0 0 0,-0.002 c -0.05837,-0.05297 -0.104996,-0.120284 -0.140625,-0.207032 v -0.002 c -0.02396,-0.05998 -0.03139,-0.140804 -0.03906,-0.21875 h 1.496093 a 0.09643306,0.09643306 0 0 0 0.0957,-0.0957 v -0.199218 c 0,-0.332715 -0.08534,-0.605346 -0.265625,-0.798829 C 63.59638,70.218425 63.338467,70.125 63.025391,70.125 Z m 7.978515,0 c -0.151076,0 -0.296769,0.03011 -0.43164,0.0918 -0.07041,0.03188 -0.129372,0.08016 -0.19336,0.121094 v -0.05664 a 0.09643306,0.09643306 0 0 0 -0.0957,-0.0957 h -0.367187 a 0.09643306,0.09643306 0 0 0 -0.0957,0.0957 v 2.986328 a 0.09643306,0.09643306 0 0 0 0.0957,0.0957 h 0.367187 a 0.09643306,0.09643306 0 0 0 0.0957,-0.0957 v -0.771484 c 0.05352,0.02229 0.107668,0.05216 0.160156,0.06641 0.101979,0.02731 0.213679,0.03906 0.333985,0.03906 0.143077,0 0.279991,-0.02831 0.408203,-0.08594 0.129025,-0.05877 0.243343,-0.142034 0.337891,-0.248047 0.102004,-0.112063 0.179897,-0.247852 0.234375,-0.404297 0.05468,-0.158431 0.08008,-0.331258 0.08008,-0.517578 0,-0.366308 -0.07476,-0.662856 -0.238282,-0.882812 C 71.533145,70.241359 71.291298,70.125 71.003906,70.125 Z m 2.492188,0 c -0.151076,0 -0.29677,0.03011 -0.431641,0.0918 -0.07036,0.03187 -0.12814,0.0803 -0.191406,0.121094 v -0.05664 a 0.09643306,0.09643306 0 0 0 -0.0957,-0.0957 h -0.367188 a 0.09643306,0.09643306 0 0 0 -0.0957,0.0957 v 2.986328 a 0.09643306,0.09643306 0 0 0 0.0957,0.0957 h 0.367188 a 0.09643306,0.09643306 0 0 0 0.0957,-0.0957 v -0.771484 c 0.05275,0.02215 0.105797,0.05218 0.158203,0.06641 0.101979,0.02731 0.213682,0.03906 0.333984,0.03906 0.143079,0 0.279992,-0.02831 0.408204,-0.08594 0.129026,-0.05877 0.243341,-0.142036 0.33789,-0.248047 0.102006,-0.112063 0.179899,-0.247852 0.234375,-0.404297 0.05467,-0.158424 0.08008,-0.331255 0.08008,-0.517578 0,-0.366309 -0.07476,-0.662857 -0.238281,-0.882812 C 74.025334,70.241358 73.783485,70.125 73.496094,70.125 Z m -18.023438,0.0078 c -0.137258,10e-7 -0.275422,0.01084 -0.416015,0.03516 -0.137059,0.02372 -0.243261,0.0454 -0.320313,0.06641 a 0.09643306,0.09643306 0 0 0 -0.07031,0.09375 v 0.373047 a 0.09643306,0.09643306 0 0 0 0.0957,0.0957 h 0.01953 a 0.09643306,0.09643306 0 0 0 0.03516,-0.0059 c 0.122077,-0.04656 0.2386,-0.08188 0.351563,-0.105469 a 0.09643306,0.09643306 0 0 0 0.002,0 c 0.113159,-0.02487 0.2131,-0.03711 0.300781,-0.03711 0.07522,0 0.146756,0.0059 0.214844,0.01562 0.06332,0.0091 0.112902,0.02616 0.152344,0.04883 a 0.09643306,0.09643306 0 0 0 0.002,0 c 0.03997,0.02284 0.06548,0.05079 0.08594,0.08984 a 0.09643306,0.09643306 0 0 0 0.002,0.002 c 0.01615,0.0295 0.02345,0.07705 0.02734,0.128906 -0.176931,0.01024 -0.349711,0.02137 -0.507812,0.03906 -0.193636,0.02166 -0.363628,0.06334 -0.507813,0.126953 -0.144742,0.06449 -0.263174,0.156847 -0.345703,0.275391 -0.08426,0.121703 -0.121094,0.276032 -0.121094,0.455078 0,0.223616 0.07963,0.420982 0.234375,0.56836 0.153448,0.14614 0.348491,0.220702 0.566407,0.220703 0.112342,0 0.213479,-0.01 0.302734,-0.0332 0.08344,-0.02053 0.158927,-0.04736 0.226562,-0.08008 l 0.0039,-0.002 c 0.05108,-0.02329 0.10309,-0.05469 0.154297,-0.08984 v 0.04883 a 0.09643306,0.09643306 0 0 0 0.0957,0.0957 h 0.367187 a 0.09643306,0.09643306 0 0 0 0.0957,-0.0957 v -1.480469 c 0,-0.150454 -0.02192,-0.281242 -0.07227,-0.392578 -0.04978,-0.110119 -0.126112,-0.202418 -0.220704,-0.271485 -0.09486,-0.06966 -0.206868,-0.117271 -0.332031,-0.144531 h -0.002 c -0.122162,-0.02791 -0.261534,-0.04102 -0.419922,-0.04102 z m 12.783203,0 c -0.137258,10e-7 -0.275426,0.01083 -0.416015,0.03516 -0.137057,0.02372 -0.24326,0.0454 -0.320313,0.06641 a 0.09643306,0.09643306 0 0 0 -0.07031,0.09375 v 0.373047 a 0.09643306,0.09643306 0 0 0 0.0957,0.0957 h 0.01953 a 0.09643306,0.09643306 0 0 0 0.03516,-0.0059 c 0.122074,-0.04656 0.238602,-0.08188 0.351563,-0.105469 a 0.09643306,0.09643306 0 0 0 0.002,0 c 0.113165,-0.02487 0.213104,-0.03711 0.300781,-0.03711 0.07522,0 0.14675,0.0059 0.214844,0.01562 0.06331,0.0091 0.112913,0.02616 0.152344,0.04883 a 0.09643306,0.09643306 0 0 0 0.002,0 c 0.03997,0.02284 0.06549,0.0508 0.08594,0.08984 a 0.09643306,0.09643306 0 0 0 0.002,0.002 c 0.01615,0.0295 0.02344,0.07705 0.02734,0.128906 -0.176932,0.01024 -0.349711,0.02137 -0.507812,0.03906 -0.193637,0.02166 -0.363628,0.06334 -0.507813,0.126953 -0.144743,0.06449 -0.263175,0.156846 -0.345703,0.275391 -0.08427,0.121708 -0.121094,0.276036 -0.121094,0.455078 0,0.223617 0.07963,0.420982 0.234375,0.56836 0.153449,0.146139 0.348489,0.220702 0.566407,0.220703 0.112342,0 0.213478,-0.01 0.302734,-0.0332 0.08345,-0.02053 0.158927,-0.04736 0.226563,-0.08008 l 0.0039,-0.002 c 0.05108,-0.02329 0.103091,-0.0547 0.154297,-0.08984 v 0.04883 a 0.09643306,0.09643306 0 0 0 0.0957,0.0957 h 0.365234 a 0.09643306,0.09643306 0 0 0 0.0957,-0.0957 v -1.480469 c 0,-0.150454 -0.02192,-0.281242 -0.07227,-0.392578 -0.04933,-0.109131 -0.123573,-0.201991 -0.21875,-0.271485 -0.09487,-0.06965 -0.206868,-0.117271 -0.332032,-0.144531 h -0.002 c -0.122163,-0.02791 -0.261538,-0.04102 -0.419922,-0.04102 z m 6.386719,0.05273 a 0.09643306,0.09643306 0 0 0 -0.08008,0.132812 l 0.853516,2.03711 -0.388672,0.873047 a 0.09643306,0.09643306 0 0 0 0.08789,0.134765 h 0.392578 a 0.09643306,0.09643306 0 0 0 0.08789,-0.05859 l 1.273438,-2.986329 a 0.09643306,0.09643306 0 0 0 -0.08789,-0.132812 h -0.384766 a 0.09643306,0.09643306 0 0 0 -0.08984,0.05859 l -0.585938,1.40039 -0.580078,-1.40039 a 0.09643306,0.09643306 0 0 0 -0.08984,-0.05859 h -0.398437 a 0.09643306,0.09643306 0 0 0 -0.0098,0 z m -11.636719,0.433594 c 0.17799,0 0.290196,0.04586 0.363282,0.126953 a 0.09643306,0.09643306 0 0 0 0.002,0 c 0.06044,0.06617 0.09269,0.165708 0.107422,0.287109 h -1.017578 c 0.0261,-0.102028 0.06742,-0.192421 0.142578,-0.267578 0.09804,-0.09695 0.224637,-0.146484 0.402343,-0.146484 z m -2.5,0.02734 c 0.07579,0 0.152062,0.0095 0.228516,0.02734 a 0.09643306,0.09643306 0 0 0 0.002,0 c 0.05935,0.01278 0.12799,0.04025 0.197266,0.06836 v 1.066406 c -0.07312,0.05169 -0.150211,0.09766 -0.236328,0.130859 -0.09618,0.03613 -0.191137,0.05469 -0.285157,0.05469 -0.178877,0 -0.28119,-0.05076 -0.347656,-0.148438 -0.06966,-0.102379 -0.113281,-0.268406 -0.113281,-0.501953 0,-0.243408 0.05609,-0.414865 0.152344,-0.527344 0.09793,-0.114434 0.222049,-0.169922 0.402343,-0.169922 z m -2.490234,0.0059 c 0.08656,0 0.165835,0.0082 0.236328,0.02344 0.05343,0.01158 0.120886,0.03877 0.189453,0.06641 v 1.128906 c -0.07661,0.05658 -0.155488,0.108422 -0.242187,0.146484 -0.09568,0.04058 -0.187819,0.06055 -0.277344,0.06055 -0.173276,0 -0.275105,-0.05127 -0.345703,-0.158203 -0.07314,-0.111872 -0.117188,-0.290889 -0.117188,-0.539063 0,-0.249057 0.05573,-0.428052 0.152344,-0.548828 0.09702,-0.121277 0.220904,-0.179687 0.404297,-0.179687 z m -4.785156,0.01367 c 0.168701,0 0.265383,0.0501 0.333984,0.158203 a 0.09643306,0.09643306 0 0 0 0,0.002 c 0.07066,0.110268 0.115235,0.289212 0.115235,0.539062 0,0.272141 -0.05658,0.457847 -0.150391,0.566407 -0.0962,0.111501 -0.22215,0.166015 -0.404297,0.166015 -0.0889,0 -0.165856,-0.0093 -0.232422,-0.02539 -0.05091,-0.0125 -0.123128,-0.04041 -0.195312,-0.07031 v -1.128906 c 0.07725,-0.05593 0.157829,-0.105801 0.246093,-0.142578 a 0.09643306,0.09643306 0 0 0 0,-0.002 c 0.09896,-0.04241 0.19443,-0.0625 0.28711,-0.0625 z m 17.679687,0 c 0.163759,0 0.261805,0.04968 0.333985,0.154296 0.07263,0.105251 0.11914,0.283072 0.11914,0.535157 0,0.257278 -0.05558,0.436579 -0.15039,0.550781 -0.09661,0.116367 -0.221529,0.173828 -0.404297,0.173828 -0.08933,0 -0.167215,-0.0084 -0.234375,-0.02344 -0.05069,-0.01156 -0.122829,-0.04069 -0.195313,-0.07031 v -1.113281 c 0.0808,-0.0574 0.163273,-0.109467 0.25,-0.146485 0.09624,-0.04108 0.189649,-0.06055 0.28125,-0.06055 z m 2.492188,0 c 0.163759,0 0.261806,0.04968 0.333984,0.154296 0.07263,0.105251 0.119141,0.283072 0.119141,0.535157 0,0.257278 -0.05558,0.43658 -0.150391,0.550781 -0.09661,0.116366 -0.221533,0.173828 -0.404297,0.173828 -0.08932,0 -0.167222,-0.0084 -0.234375,-0.02344 -0.05031,-0.01147 -0.121421,-0.04073 -0.193359,-0.07031 v -1.113281 c 0.08066,-0.05755 0.161725,-0.10964 0.248047,-0.146485 0.09625,-0.04108 0.189649,-0.06055 0.28125,-0.06055 z m -23.265625,0.06836 h 0.335937 l -0.136718,0.550781 H 50 Z m 5.824219,0.6875 v 0.451172 c -0.07585,0.05507 -0.15491,0.104974 -0.242188,0.146484 -0.09337,0.04326 -0.195912,0.06641 -0.3125,0.06641 -0.140969,0 -0.232387,-0.03088 -0.283203,-0.07227 -0.05183,-0.04378 -0.08008,-0.103379 -0.08008,-0.208984 0,-0.09179 0.02375,-0.146631 0.06836,-0.189454 a 0.09643306,0.09643306 0 0 0 0.002,-0.002 c 0.05191,-0.05087 0.119699,-0.09073 0.212891,-0.117187 v 0.002 c 0.07907,-0.02211 0.194328,-0.04198 0.341797,-0.05469 0.112652,-0.0096 0.202849,-0.01546 0.292969,-0.02148 z m 12.783203,0 v 0.451172 c -0.07585,0.05507 -0.154912,0.104973 -0.242188,0.146484 -0.09337,0.04326 -0.195908,0.06641 -0.3125,0.06641 -0.140965,0 -0.232386,-0.03088 -0.283203,-0.07227 -0.05183,-0.04378 -0.08008,-0.103379 -0.08008,-0.208984 0,-0.0918 0.02375,-0.146634 0.06836,-0.189454 a 0.09643306,0.09643306 0 0 0 0.002,-0.002 c 0.05191,-0.05087 0.119699,-0.09073 0.212891,-0.117187 v 0.002 c 0.07907,-0.02211 0.194324,-0.04198 0.341797,-0.05469 0.112649,-0.0096 0.202848,-0.01546 0.292969,-0.02148 z"
       transform="matrix(0.96725142,-1.1091042,1.1091042,0.96725142,-74.54301,62.604108)" />
  </g>
  <g
     inkscape:label="Drill"
     inkscape:groupmode="layer"
     id="g8157"
     sodipodi:insensitive="true" />
  <g
     inkscape:label="F.Silk"
     inkscape:groupmode="layer"
     id="g8169"
     style="display:inline"
     sodipodi:insensitive="true">
    <path
       sodipodi:nodetypes="sccccccccs"
       style="fill:#ff5555;stroke-width:0.23969692"
       d="m 123.80049,59.593394 -11.76832,-13.453344 3.03409,-3.919669 3.0341,-3.919668 17.53332,-0.0099 17.53333,-0.0099 2.93218,3.743566 c 1.6127,2.058961 2.94504,3.880858 2.96076,4.048658 0.0257,0.274223 -22.92691,26.753002 -23.32536,26.908812 -0.0911,0.03566 -5.46153,-5.989175 -11.9341,-13.388514 z"
       id="path3834"
       inkscape:connector-curvature="0" />
    <text
       xml:space="preserve"
       style="font-style:normal;font-weight:normal;font-size:10.58333302px;line-height:1.25;font-family:sans-serif;letter-spacing:0px;word-spacing:0px;fill:#000000;fill-opacity:1;stroke:none;stroke-width:0.26458332"
       x="107.70962"
       y="89.041946"
       id="text3842"><tspan
         sodipodi:role="line"
         id="tspan3840"
         x="107.70962"
         y="89.041946"
         style="stroke-width:0.26458332">#badgeHappy</tspan></text>
    <path
       id="use3791"
       d="m 167.89337,-9.3362962 -19.35334,0.010848 -19.35386,0.010848 -3.34915,4.3268688 -3.34915,4.32635017 12.99042,14.85025523 c 7.14459,8.167571 13.07219,14.817786 13.17284,14.778426 0.43983,-0.171987 25.77567,-29.39988544 25.74727,-29.70257936 -0.0174,-0.18522156 -1.48788,-2.19624534 -3.26802,-4.46897644 z m -5.31957,2.0872105 2.1239,2.7114632 h -6.77943 l -0.12403,-2.7088782 z m -9.36429,0.00516 0.10697,2.7062959 h -9.27695 l -0.12403,-2.7011286 3.01843,-0.00159 z m -13.93196,0.00775 0.12402,2.6990595 h -9.81594 l -0.16123,0.2082562 -0.19275,0.2490814 0.15761,2.6546175 h 10.19679 l 0.46612,8.8082489 h -6.84557 l 2.72231,3.1119552 h 4.23489 l 0.216,5.078243 c 1.79726,2.046848 3.41736,3.883631 4.83485,5.480801 l -0.44855,-10.540442 4.58266,-0.01188 c 2.53027,-0.0066 4.60755,-0.0033 4.62039,0.0072 l 0.18707,5.160409 c -3.81839,4.381402 -6.9946,7.981807 -7.13238,8.035684 -0.0813,0.03181 -4.87169,-5.342591 -10.64534,-11.942939 L 126.36205,0.31116339 c -0.29251,-0.34126223 -0.4674,-0.5492062 -0.47129,-0.56223958 l 2.69648,-3.48402531 2.7063,-3.4964264 z m 4.98419,5.8104986 h 7.93491 c 0.80928,0.00741 1.28513,0.018283 1.34359,0.036174 l 0.35347,8.7720724 h -9.35034 z m 13.84153,0 h 8.97361 c 0.44784,0.61415616 0.73433,1.03725136 0.74983,1.11982782 -5.3e-4,0.009684 -0.0159,0.0358696 -0.0269,0.0568431 -0.23755,0.36787137 -3.00773,3.62225428 -6.46213,7.63157538 h -2.72284 c -0.071,-0.0037 -0.10622,-0.00762 -0.11988,-0.01188 z"
       style="fill:#000000;stroke-width:0.26458332"
       inkscape:connector-curvature="0" />
    <path
       inkscape:connector-curvature="0"
       style="fill:#ffffff;stroke-width:0.21381414"
       d="m 162.57379,-7.249086 -4.81159,0.0026 0.0263,0.419613 c 0.0159,0.250818 0.0406,0.782074 0.0548,1.180807 0.0142,0.398732 0.0367,0.814644 0.0501,0.923972 l 0.0243,0.198438 h 3.41168 3.37912 z m -9.35033,0.0052 -6.28954,0.0036 -3.02152,0.0016 c -0.0104,0.03209 0.008,0.591484 0.0419,1.265042 0.0342,0.681699 0.0628,1.287253 0.0641,1.345136 l 0.003,0.104902 h 4.6607 4.66018 l -0.0305,-0.736388 c -0.0168,-0.405165 -0.0437,-1.026046 -0.0599,-1.37976 z m -13.93868,0.0078 -7.99125,0.0047 -2.70629,3.496426 -2.69648,3.484025 c 0.004,0.01304 0.17878,0.220978 0.47129,0.56224 l 10.01644,11.45085 c 5.77366,6.600349 10.56401,11.974751 10.64535,11.94294 0.13806,-0.05399 3.32535,-3.667564 7.15408,-8.061007 l -0.093,-2.53886 c -0.0522,-1.417489 -0.1037,-2.585723 -0.1142,-2.596224 -0.0105,-0.0105 -2.09024,-0.01378 -4.62194,-0.0072 l -4.60334,0.01188 0.22118,5.144905 c 0.12161,2.829716 0.2166,5.180975 0.21084,5.225004 -0.0108,0.08258 -0.0876,-0.0019 -3.15433,-3.481959 -1.23832,-1.405247 -1.60514,-1.849662 -1.62264,-1.966288 -0.0124,-0.08288 -0.0558,-1.024286 -0.0966,-2.091862 -0.0408,-1.067575 -0.0871,-2.146456 -0.10284,-2.39727 l -0.0289,-0.455785 -2.10943,-0.0011 -2.10995,-5.29e-4 -1.33739,-1.531173 -1.33738,-1.530657 3.40341,-0.01188 3.40392,-0.01241 -0.0217,-0.244948 c -0.0277,-0.312574 -0.43925,-8.211812 -0.43925,-8.430493 V -1.436555 H 134.526 c -2.80399,0 -5.10014,-0.0049 -5.10305,-0.01138 -0.003,-0.0064 -0.0418,-0.600803 -0.0863,-1.320332 l -0.0811,-1.30793 0.16847,-0.221176 0.16794,-0.220657 4.9258,-0.0026 4.92632,-0.0026 -0.0253,-0.245981 c -0.0139,-0.135053 -0.0369,-0.560842 -0.0512,-0.946713 -0.0142,-0.385871 -0.0386,-0.885949 -0.0543,-1.111041 z m 18.81435,5.799129 5.3e-4,0.222208 c 5e-5,0.122193 0.0838,2.095765 0.18655,4.385262 0.10277,2.289498 0.18701,4.178385 0.18707,4.197679 5e-5,0.01929 0.64819,0.03514 1.44023,0.03514 h 1.40663 c 3.464,-4.020299 6.24168,-7.283646 6.4797,-7.652248 0.011,-0.02098 0.0264,-0.04717 0.0269,-0.05684 -0.0156,-0.083 -0.30368,-0.508264 -0.7555,-1.12758 l -4.47002,-0.0016 z m -13.84463,5.3e-4 -0.001,0.198956 c -0.002,0.40781 0.23832,7.975978 0.26355,8.301818 l 0.0263,0.338997 h 4.68705 4.68705 l -0.015,-0.291973 c -0.0159,-0.303953 -0.34003,-8.403616 -0.34003,-8.495604 0,-0.03817 -1.25592,-0.05219 -4.65398,-0.05219 z"
       id="use3793" />
    <path
       id="path3803"
       d="m 207.5372,-46.977779 -19.35334,0.01085 -19.35386,0.01085 -3.34915,4.326869 -3.34915,4.32635 12.99042,14.850256 c 7.14458,8.167571 13.07219,14.8177851 13.17284,14.7784257 0.43982,-0.1719871 25.77567,-29.3998857 25.74726,-29.7025797 -0.0173,-0.185221 -1.48787,-2.196245 -3.26801,-4.468976 z m -5.31958,2.08721 2.12391,2.711463 h -6.77944 l -0.12402,-2.708878 z m -9.36428,0.0052 0.10697,2.706295 h -9.27696 l -0.12402,-2.701128 3.01842,-0.0015 z m -13.93197,0.0078 0.12403,2.699059 h -9.81594 l -0.16123,0.208257 -0.19276,0.249081 0.15762,2.654617 h 10.19679 l 0.46612,8.808249 h -6.84558 l 2.72232,3.111955 h 4.23488 l 0.21601,5.078243 c 1.79726,2.046849 3.41736,3.883631 4.83485,5.480802 l -0.44855,-10.540442 4.58266,-0.01188 c 2.53027,-0.0066 4.60755,-0.0033 4.62039,0.0072 l 0.18707,5.160409 c -3.81839,4.381402 -6.9946,7.981807 -7.13238,8.035684 -0.0813,0.03181 -4.87169,-5.34259 -10.64535,-11.942939 l -10.01644,-11.451032 c -0.29251,-0.341263 -0.4674,-0.549207 -0.47129,-0.56224 l 2.69648,-3.484025 2.70629,-3.496427 z m 4.98419,5.810498 h 7.93492 c 0.80928,0.0074 1.28513,0.01828 1.34359,0.03617 l 0.35346,8.772073 h -9.35033 z m 13.84154,0 h 8.97361 c 0.44783,0.614157 0.73433,1.037252 0.74982,1.119828 -4.3e-4,0.0097 -0.0159,0.03587 -0.0269,0.05684 -0.23755,0.367872 -3.00773,3.622255 -6.46214,7.631576 h -2.72283 c -0.071,-0.0037 -0.10623,-0.0076 -0.11989,-0.01188 z"
       style="fill:#000000;stroke-width:0.26458332"
       inkscape:connector-curvature="0" />
    <path
       id="path3807"
       d="m 75.92737,18.555329 -8.866434,0.0048 0.04846,0.773231 c 0.0293,0.462188 0.07481,1.441147 0.100978,2.175902 0.02617,0.734753 0.06762,1.501164 0.09233,1.702626 l 0.04477,0.365666 h 6.286786 6.226787 z m -17.230081,0.0095 -11.589888,0.0066 -5.567828,0.0029 c -0.01916,0.05913 0.01474,1.089942 0.07721,2.331124 0.06302,1.256183 0.115722,2.372052 0.118118,2.478714 l 0.0055,0.193305 h 8.588386 8.587426 l -0.0562,-1.356959 c -0.03096,-0.746607 -0.08053,-1.89072 -0.110379,-2.542517 z m -25.685144,0.01437 -14.725671,0.0087 -4.986946,6.442949 -4.968869,6.420099 c 0.00737,0.02403 0.3294428,0.407201 0.868458,1.036053 l 18.457538,21.100759 c 10.639263,12.162623 19.466557,22.066164 19.616444,22.007546 0.254407,-0.09949 6.127703,-6.758309 13.182997,-14.854214 l -0.171373,-4.678419 c -0.0962,-2.61204 -0.191091,-4.764774 -0.21044,-4.784125 -0.01935,-0.01935 -3.851736,-0.0254 -8.516961,-0.01326 l -8.482685,0.02189 0.407573,9.480641 c 0.224094,5.214387 0.399134,9.547109 0.38852,9.628242 -0.0199,0.152173 -0.161422,-0.0035 -5.812561,-6.41629 -2.281882,-2.589483 -2.95783,-3.408417 -2.990078,-3.623327 -0.02285,-0.152725 -0.102822,-1.887477 -0.178007,-3.854725 -0.07518,-1.967246 -0.160502,-3.955327 -0.189506,-4.417508 l -0.05325,-0.839885 -3.887098,-0.0021 -3.888056,-9.75e-4 -2.464442,-2.82153 -2.464422,-2.820578 6.271547,-0.02189 6.272486,-0.02287 -0.03999,-0.451371 C 34.396307,44.527136 33.637934,29.971018 33.637934,29.568049 v -0.301827 h -9.394908 c -5.166981,0 -9.398152,-0.009 -9.403514,-0.02097 -0.0055,-0.0118 -0.07702,-1.107114 -0.159027,-2.433008 l -0.149445,-2.410154 0.310443,-0.407567 0.309467,-0.40661 9.076892,-0.0048 9.07785,-0.0048 -0.04662,-0.453275 c -0.02561,-0.248866 -0.068,-1.033477 -0.09434,-1.744531 -0.02617,-0.711053 -0.07113,-1.63256 -0.100057,-2.047342 z m 34.66966,10.686197 9.76e-4,0.409468 c 9.3e-5,0.225168 0.154421,3.861917 0.343761,8.080828 0.189377,4.218915 0.344607,7.699612 0.344718,7.735166 9.2e-5,0.03555 1.194436,0.06475 2.653947,0.06475 h 2.592031 c 6.383197,-7.408302 11.501696,-13.42175 11.940301,-14.100982 0.02027,-0.03866 0.04865,-0.08692 0.04957,-0.104741 -0.02875,-0.152946 -0.559599,-0.93659 -1.392178,-2.077819 l -8.237015,-0.0029 z m -25.511836,9.76e-4 -0.0018,0.366621 c -0.0037,0.751482 0.439158,14.697529 0.48565,15.297962 l 0.04846,0.624679 h 8.636941 8.63694 l -0.02764,-0.538027 c -0.0293,-0.560101 -0.626582,-15.485547 -0.626582,-15.655055 0,-0.07033 -2.314314,-0.09617 -8.576002,-0.09617 z"
       style="fill:#000000;stroke-width:0.3940005"
       inkscape:connector-curvature="0" />
  </g>
</svg>
