<?xml version="1.0" encoding="UTF-8" standalone="no"?>
<!-- Created with Inkscape (http://www.inkscape.org/) -->

<svg
   xmlns:dc="http://purl.org/dc/elements/1.1/"
   xmlns:cc="http://creativecommons.org/ns#"
   xmlns:rdf="http://www.w3.org/1999/02/22-rdf-syntax-ns#"
   xmlns:svg="http://www.w3.org/2000/svg"
   xmlns="http://www.w3.org/2000/svg"
   xmlns:sodipodi="http://sodipodi.sourceforge.net/DTD/sodipodi-0.dtd"
   xmlns:inkscape="http://www.inkscape.org/namespaces/inkscape"
   width="100.0mm"
   height="100.0mm"
   viewBox="0 0 100.000000 100.000000"
   id="svg2"
   version="1.1"
   inkscape:version="0.92.3 (2405546, 2018-03-11)"
   sodipodi:docname="superhashtagpcb.svg">
  <sodipodi:namedview
     id="base"
     pagecolor="#ffffff"
     bordercolor="#666666"
     borderopacity="1.0"
     inkscape:pageopacity="0.0"
     inkscape:pageshadow="2"
     inkscape:zoom="1.979899"
     inkscape:cx="256.36118"
     inkscape:cy="82.96279"
     inkscape:document-units="mm"
     inkscape:current-layer="g8169"
     showgrid="false"
     inkscape:window-width="1530"
     inkscape:window-height="791"
     inkscape:window-x="1298"
     inkscape:window-y="374"
     inkscape:window-maximized="0"
     inkscape:measure-start="0,0"
     inkscape:measure-end="0,0"
     inkscape:snap-others="false"
     inkscape:snap-nodes="false"
     inkscape:snap-global="false" />
  <defs
     id="defs4" />
  <metadata
     id="metadata7">
    <rdf:RDF>
      <cc:Work
         rdf:about="">
        <dc:format>image/svg+xml</dc:format>
        <dc:type
           rdf:resource="http://purl.org/dc/dcmitype/StillImage" />
        <dc:title></dc:title>
      </cc:Work>
    </rdf:RDF>
  </metadata>
  <g
     inkscape:label="Layer 1"
     inkscape:groupmode="layer"
     id="layer1" />
  <g
     inkscape:label="[fixed] BG"
     inkscape:groupmode="layer"
     sodipodi:insensitive="true"
     id="g8151">
    <rect
       x="0"
       y="0"
       width="100.0"
       height="100.0"
       style="stroke:none;fill-opacity:1;fill:#FFFFFF"
       id="rect8153" />
  </g>
  <g
     inkscape:label="Edge.Cuts"
     inkscape:groupmode="layer"
     id="g8155"
     style="display:inline"
     sodipodi:insensitive="true" />
  <g
     inkscape:label="B.Cu-disabled"
     inkscape:groupmode="layer"
     id="g8159"
     sodipodi:insensitive="true" />
  <g
     inkscape:label="B.Mask-disabled"
     inkscape:groupmode="layer"
     id="g8161"
     sodipodi:insensitive="true" />
  <g
     inkscape:label="B.Silk-disabled"
     inkscape:groupmode="layer"
     id="g8163"
     sodipodi:insensitive="true" />
  <g
     inkscape:label="F.Cu"
     inkscape:groupmode="layer"
     id="g8165"
     style="display:inline"
     sodipodi:insensitive="true" />
  <g
     inkscape:label="F.Mask"
     inkscape:groupmode="layer"
     id="g8167"
     style="display:inline"
     sodipodi:insensitive="true">
    <path
       inkscape:connector-curvature="0"
       id="path3876"
       d="m 51.506712,74.391008 3.585212,3.065148 0.3467,-0.405527 -0.09617,-0.130077 c 0.148987,-0.05609 0.286999,-0.124227 0.414032,-0.204389 0.12856,-0.07885 0.255239,-0.191249 0.379996,-0.337174 0.133948,-0.156672 0.226788,-0.325912 0.278509,-0.507697 0.05019,-0.183099 0.06122,-0.381052 0.03311,-0.593857 -0.02876,-0.202728 -0.10354,-0.407585 -0.224364,-0.614577 -0.119505,-0.208529 -0.286792,-0.404723 -0.501843,-0.588579 -0.425495,-0.363771 -0.830497,-0.557141 -1.215006,-0.580107 -0.383196,-0.02452 -0.704806,0.1153 -0.964831,0.419463 -0.145783,0.170506 -0.244842,0.351685 -0.297206,0.543557 -0.05389,0.190554 -0.0828,0.389187 -0.0867,0.595899 l -1.28109,-1.095259 z m 6.354864,-7.433095 1.115196,0.953428 c -0.158394,0.06399 -0.296076,0.136393 -0.413028,0.217207 -0.118485,0.0795 -0.235516,0.186839 -0.351084,0.322014 -0.127393,0.149005 -0.220109,0.319656 -0.278172,0.51197 -0.05676,0.190776 -0.07141,0.388296 -0.04396,0.592558 0.02921,0.208424 0.102133,0.417011 0.218791,0.625763 0.117966,0.207215 0.286022,0.404063 0.504145,0.590545 0.419352,0.35852 0.824131,0.54904 1.214336,0.571561 0.391522,0.021 0.718609,-0.122114 0.981262,-0.429341 0.135263,-0.158228 0.230725,-0.330526 0.286387,-0.516917 0.05564,-0.186393 0.08291,-0.387764 0.08177,-0.604116 l 0.269582,0.23048 0.370339,-0.433175 -3.585213,-3.065149 z m -8.369337,10.101915 0.7655,1.073222 -0.675671,0.790314 0.311056,0.265935 0.606725,-0.709668 0.685119,0.952656 -0.655974,0.767273 0.311057,0.265934 0.587026,-0.686624 0.765168,1.068949 0.254116,-0.29723 -0.765166,-1.068951 0.531869,-0.622115 0.765168,1.068958 0.254115,-0.297232 -0.765168,-1.068958 0.675675,-0.790316 -0.311057,-0.265934 -0.606728,0.709673 -0.685117,-0.952659 0.655972,-0.767273 -0.311056,-0.265936 -0.587026,0.686631 -0.765499,-1.073225 -0.254116,0.297229 0.765499,1.073228 -0.53187,0.622109 -0.765499,-1.073228 z m 14.569309,-17.041275 3.430835,2.933167 0.390039,-0.456216 -1.679705,-1.43605 1.46363,-1.711962 1.679702,1.436049 0.390039,-0.456215 -3.430834,-2.933167 -0.39004,0.456217 1.345606,1.150417 -1.463628,1.711961 -1.345605,-1.150418 z m -3.339245,5.496558 c -0.120819,0.14132 -0.211575,0.309673 -0.272267,0.505059 -0.06222,0.194073 -0.08148,0.387652 -0.05778,0.58074 0.02482,0.207332 0.09095,0.411435 0.198388,0.612306 0.107207,0.198024 0.271431,0.391589 0.492627,0.580699 0.403987,0.345385 0.794175,0.523431 1.170557,0.534133 0.37616,0.0079 0.695566,-0.141837 0.95822,-0.449046 0.157597,-0.184321 0.261599,-0.357302 0.31203,-0.518918 0.05021,-0.164468 0.07889,-0.356632 0.08607,-0.576501 l 0.23502,0.200927 c 0.104448,0.08931 0.189074,0.18158 0.253858,0.27686 0.06478,0.09528 0.104152,0.195397 0.118097,0.300376 0.01704,0.107596 0.0018,0.224898 -0.04558,0.351877 -0.04738,0.126967 -0.134134,0.264197 -0.26022,0.411663 -0.131337,0.153616 -0.283386,0.289487 -0.456186,0.407637 -0.171265,0.119467 -0.300925,0.202705 -0.388985,0.249724 l -0.0197,0.02304 0.44239,0.378219 c 0.143023,-0.09575 0.278899,-0.20027 0.407646,-0.31354 0.131598,-0.113503 0.255837,-0.238598 0.372715,-0.375309 0.351953,-0.411668 0.510486,-0.803912 0.4756,-1.176732 -0.03489,-0.372815 -0.270457,-0.745709 -0.706703,-1.118673 l -2.281081,-1.950197 -0.3467,0.405524 0.08695,0.122208 c -0.157302,0.05961 -0.293895,0.127633 -0.409756,0.204049 -0.116077,0.07358 -0.23782,0.184877 -0.365207,0.333868 z m 2.606164,-3.048349 c -0.320435,0.374801 -0.455493,0.783128 -0.405173,1.224974 0.05163,0.440312 0.287891,0.840385 0.708777,1.200218 0.425495,0.363773 0.85665,0.524996 1.293468,0.483669 0.435281,-0.04263 0.835464,-0.277474 1.20055,-0.704504 0.143134,-0.167432 0.258988,-0.344915 0.347527,-0.532443 0.08854,-0.187533 0.164467,-0.380526 0.227781,-0.578982 l -0.472346,-0.403828 -0.0197,0.02304 c 0.0034,0.13306 -0.03599,0.318875 -0.117671,0.55747 -0.08189,0.235746 -0.197708,0.441175 -0.347419,0.616288 -0.112948,0.132116 -0.235121,0.237695 -0.366542,0.316773 -0.130115,0.07754 -0.266171,0.124745 -0.408192,0.14158 -0.146171,0.01859 -0.298004,0.0018 -0.455455,-0.05039 -0.158988,-0.0535 -0.317594,-0.147894 -0.47581,-0.283154 l 1.621221,-1.896289 -0.235021,-0.200929 c -0.373268,-0.319123 -0.742048,-0.470889 -1.106341,-0.455302 -0.362981,0.01407 -0.692869,0.194653 -0.989665,0.541808 z m 8.045032,-9.410027 c -0.139209,0.16282 -0.237507,0.344669 -0.294901,0.545529 -0.05762,0.198012 -0.08728,0.395988 -0.089,0.593932 l -0.269583,-0.230478 -0.370338,0.433173 3.522999,3.011963 0.370339,-0.433173 -1.078328,-0.92191 c 0.157302,-0.05962 0.296521,-0.130689 0.417636,-0.213266 0.122429,-0.08411 0.240771,-0.192984 0.355023,-0.326622 0.131337,-0.153616 0.224706,-0.325033 0.280142,-0.514276 0.05521,-0.192089 0.06932,-0.387416 0.04232,-0.585978 -0.02658,-0.211496 -0.100257,-0.420742 -0.221094,-0.627733 -0.122356,-0.208305 -0.287995,-0.401761 -0.496901,-0.580363 -0.416277,-0.355894 -0.815358,-0.546861 -1.197241,-0.572898 -0.382107,-0.0289 -0.705797,0.111818 -0.971076,0.4221 z m 2.513581,-2.940059 c -0.139208,0.162821 -0.237506,0.344669 -0.294901,0.545531 -0.05762,0.198012 -0.0873,0.395989 -0.089,0.593931 l -0.269582,-0.230478 -0.37034,0.433175 3.523,3.011962 0.370339,-0.433174 -1.078328,-0.921908 c 0.15732,-0.05961 0.296524,-0.13069 0.417638,-0.213266 0.12243,-0.08411 0.240769,-0.192982 0.355023,-0.326624 0.131337,-0.153616 0.224705,-0.325033 0.280143,-0.514274 0.05522,-0.192089 0.06932,-0.387418 0.04232,-0.585982 -0.02658,-0.211494 -0.100267,-0.420738 -0.221094,-0.627732 -0.122355,-0.208305 -0.287994,-0.401757 -0.496903,-0.580361 -0.416275,-0.355895 -0.815354,-0.546862 -1.197239,-0.572898 -0.382104,-0.02889 -0.705797,0.111819 -0.971076,0.422098 z m -18.164992,21.26569 c -0.132634,0.155153 -0.253424,0.324416 -0.362353,0.507809 -0.108929,0.183395 -0.187988,0.327178 -0.237176,0.43136 l 0.440086,0.376248 0.0197,-0.02305 c 0.07054,-0.197588 0.150986,-0.378754 0.241308,-0.543486 0.08878,-0.166043 0.181765,-0.305906 0.27895,-0.419581 0.08011,-0.09368 0.163079,-0.178302 0.248911,-0.253821 0.08582,-0.07552 0.172673,-0.128893 0.260537,-0.160134 0.09202,-0.03302 0.184746,-0.03883 0.278145,-0.01741 0.09473,0.01983 0.191237,0.07176 0.289543,0.15582 l 0.06682,0.05715 c -0.203085,0.262421 -0.386237,0.513974 -0.549455,0.754643 -0.163227,0.24067 -0.277247,0.468893 -0.342074,0.684672 -0.0635,0.214244 -0.0707,0.415475 -0.02159,0.603707 0.04889,0.185381 0.170895,0.361473 0.36597,0.528252 0.238092,0.203555 0.50289,0.29035 0.79439,0.260392 0.291501,-0.02998 0.536401,-0.160913 0.734705,-0.392867 0.107689,-0.125967 0.189295,-0.246296 0.244829,-0.361007 0.05708,-0.113412 0.0988,-0.221301 0.125189,-0.3237 0.02487,-0.08508 0.04187,-0.179579 0.05095,-0.283493 0.0087,-0.106762 0.01666,-0.190508 0.02335,-0.251234 l 0.27419,0.234416 0.368367,-0.430872 -1.746522,-1.493178 c -0.165895,-0.141838 -0.326579,-0.235337 -0.482052,-0.280515 -0.155468,-0.04517 -0.309904,-0.04958 -0.4633,-0.01315 -0.156245,0.03662 -0.306739,0.110004 -0.451494,0.220214 -0.144967,0.107375 -0.294944,0.251686 -0.449909,0.432944 z M 68.61305,56.304207 c -0.132634,0.155134 -0.253424,0.324412 -0.362353,0.507804 -0.108929,0.183394 -0.187987,0.327177 -0.237176,0.43136 l 0.440086,0.376249 0.0197,-0.02303 c 0.07056,-0.197593 0.150987,-0.378754 0.241312,-0.543491 0.08878,-0.166042 0.181765,-0.305908 0.278948,-0.419578 0.08011,-0.0937 0.163079,-0.178302 0.248912,-0.253821 0.08582,-0.07552 0.172672,-0.128894 0.260534,-0.160135 0.09202,-0.033 0.184747,-0.03882 0.278148,-0.0174 0.09473,0.01983 0.191234,0.07176 0.289542,0.15582 l 0.06682,0.05713 c -0.203082,0.262426 -0.386236,0.513973 -0.549454,0.754645 -0.163228,0.240669 -0.277244,0.468895 -0.342074,0.684673 -0.0635,0.21424 -0.0707,0.415478 -0.02159,0.603706 0.04891,0.185386 0.170894,0.361467 0.365969,0.528252 0.238093,0.203556 0.50289,0.290353 0.794389,0.260388 0.291501,-0.02996 0.536402,-0.160912 0.734705,-0.392864 0.107688,-0.125967 0.189295,-0.246295 0.244828,-0.361008 0.05708,-0.113412 0.0988,-0.2213 0.12519,-0.3237 0.02487,-0.08508 0.04186,-0.179579 0.05093,-0.283494 0.0088,-0.106762 0.01667,-0.190506 0.02336,-0.251234 l 0.27419,0.234417 0.368372,-0.43087 -1.746524,-1.493175 c -0.165894,-0.141839 -0.326583,-0.23534 -0.482054,-0.280515 -0.155468,-0.04519 -0.309905,-0.0496 -0.463299,-0.01333 -0.156246,0.03657 -0.306743,0.110003 -0.451496,0.220215 -0.144967,0.107373 -0.294945,0.251687 -0.449909,0.432945 z m 6.511631,-7.490503 3.325883,1.068661 0.663983,1.397226 0.395947,-0.463129 -2.238632,-4.514248 -0.388068,0.453911 1.22623,2.428298 -2.583486,-0.840759 z M 63.665908,62.795136 c 0.19699,-0.230411 0.405628,-0.348498 0.625918,-0.354258 0.221596,-0.0072 0.446725,0.08549 0.675384,0.278296 l -1.260727,1.474637 C 63.519479,64.002027 63.41606,63.77934 63.39623,63.525748 63.37771,63.270622 63.4676,63.027085 63.665908,62.795136 Z m -2.489203,2.976852 c 0.08406,-0.0983 0.179617,-0.186769 0.286707,-0.265379 0.106874,-0.08147 0.235661,-0.157468 0.386382,-0.228021 l 1.40321,1.199661 c -0.0092,0.175599 -0.04373,0.348149 -0.103578,0.517668 -0.06008,0.166671 -0.143949,0.312984 -0.251635,0.438941 -0.200928,0.235021 -0.41923,0.339528 -0.654905,0.313526 -0.235675,-0.026 -0.497904,-0.16245 -0.786689,-0.409349 -0.304141,-0.260025 -0.477651,-0.526684 -0.520522,-0.799972 -0.04287,-0.27329 0.03746,-0.528983 0.241023,-0.767075 z m -2.504697,2.943664 c 0.09325,-0.109059 0.189243,-0.20114 0.288008,-0.276233 0.09876,-0.07509 0.224165,-0.148671 0.376199,-0.220776 l 1.476941,1.2627 c -0.0072,0.182599 -0.03702,0.360526 -0.08941,0.53376 -0.05393,0.171932 -0.133412,0.319327 -0.238481,0.442215 -0.196988,0.23041 -0.419239,0.330212 -0.66676,0.299396 -0.249053,-0.03214 -0.526419,-0.178858 -0.832099,-0.440194 -0.310288,-0.265279 -0.492134,-0.537734 -0.545536,-0.817369 -0.05341,-0.279632 0.02365,-0.540799 0.231138,-0.783499 z m -4.808131,5.656578 c 0.193047,-0.225805 0.412785,-0.321107 0.659214,-0.28591 0.244891,0.0339 0.520945,0.182154 0.82816,0.444806 0.336404,0.287605 0.52527,0.567396 0.566607,0.839373 0.04112,0.269125 -0.04076,0.523504 -0.245634,0.763131 -0.09586,0.112133 -0.192637,0.203554 -0.290313,0.274266 -0.09635,0.06917 -0.224722,0.14156 -0.385081,0.217169 l -1.474634,-1.260731 c 0.0085,-0.184135 0.04108,-0.363706 0.09762,-0.538705 0.05503,-0.176301 0.136356,-0.327441 0.244054,-0.453399 z M 71.691383,53.519944 c 0.187795,-0.219659 0.403806,-0.316821 0.648028,-0.291485 0.244223,0.02534 0.521478,0.170654 0.831768,0.435922 0.319505,0.273157 0.502885,0.546927 0.550142,0.821307 0.04726,0.274382 -0.03221,0.532154 -0.238388,0.773318 -0.09586,0.112134 -0.191869,0.204213 -0.288008,0.276232 -0.09482,0.07049 -0.222416,0.143523 -0.382777,0.219142 L 71.35364,54.507437 c 0.01092,-0.190061 0.04337,-0.371052 0.0973,-0.542976 0.05393,-0.171932 0.134078,-0.320096 0.240448,-0.444517 z m 2.513579,-2.940058 c 0.187797,-0.21966 0.403806,-0.316821 0.648027,-0.291485 0.244224,0.02533 0.521481,0.170635 0.831769,0.435923 0.319503,0.273159 0.502885,0.546928 0.550142,0.821307 0.04726,0.274381 -0.03221,0.532154 -0.238386,0.773319 -0.09587,0.112133 -0.19187,0.20421 -0.288008,0.276231 -0.09482,0.07049 -0.222417,0.143523 -0.382778,0.219139 l -1.458506,-1.246939 c 0.01092,-0.190061 0.04337,-0.371055 0.0973,-0.542977 0.05393,-0.171932 0.13406,-0.320095 0.240446,-0.444518 z m -23.457575,27.600878 0.539749,-0.631331 0.690398,0.96515 -0.53975,0.631324 z m 6.849398,-6.388126 0.716581,0.612637 c -0.0088,0.178451 -0.03736,0.356249 -0.08513,0.533425 -0.04932,0.175857 -0.138968,0.339829 -0.268994,0.491898 -0.156282,0.182802 -0.309365,0.287224 -0.459267,0.313275 -0.15143,0.02476 -0.300887,-0.02593 -0.448349,-0.151987 -0.130578,-0.111633 -0.199886,-0.237362 -0.207955,-0.377205 -0.0097,-0.141153 0.02111,-0.289043 0.09217,-0.443674 0.06012,-0.129393 0.158673,-0.289763 0.295642,-0.481082 0.1383,-0.192854 0.260064,-0.358614 0.365324,-0.497283 z m 12.89096,-15.078164 0.716581,0.612637 c -0.0088,0.17845 -0.03736,0.35625 -0.08513,0.533424 -0.04932,0.175858 -0.138986,0.339829 -0.268993,0.491903 -0.156283,0.182784 -0.309368,0.287219 -0.459269,0.313275 -0.151431,0.02474 -0.300887,-0.02593 -0.448351,-0.151986 -0.130579,-0.111634 -0.199885,-0.237361 -0.207953,-0.377202 -0.0097,-0.141153 0.02111,-0.289043 0.09217,-0.443673 0.06011,-0.129393 0.158671,-0.289765 0.295638,-0.481084 0.138301,-0.192854 0.260068,-0.358615 0.365326,-0.497285 z"
       style="font-style:normal;font-weight:normal;font-size:10.58333302px;line-height:1.25;font-family:sans-serif;letter-spacing:0px;word-spacing:0px;display:inline;fill:#ff0000;fill-opacity:1;stroke:none;stroke-width:0.1552081" />
  </g>
  <g
     inkscape:label="Drill"
     inkscape:groupmode="layer"
     id="g8157"
     sodipodi:insensitive="true" />
  <g
     inkscape:label="F.Silk"
     inkscape:groupmode="layer"
     id="g8169"
     style="display:inline">
    <path
       style="fill:#ff0000;stroke-width:0.49346954"
       d="m 50.214844,12.435547 c -12.359375,0.0063 -24.71875,0.0141 -37.078125,0.01953 C 8.4382413,18.528421 3.7365201,24.599254 -0.96289062,30.671875 15.858614,49.595071 32.894816,69.105774 50.19634,87.568359 67.393277,68.313042 86.536016,46.333092 100.62695,30.589844 97.251637,23.886795 91.565688,18.548881 87.285156,12.414062 c -12.356771,0.006 -24.713541,0.01452 -37.070312,0.02149 z"
       id="path4708"
       inkscape:connector-curvature="0"
       sodipodi:nodetypes="cccccccc" />
    <path
       style="fill:#000000;stroke-width:1.85191178"
       d="M 325.11523 54.925781 L 189.6543 55.001953 L 54.189453 55.078125 L 30.748047 85.363281 L 7.3066406 115.64453 L 98.230469 219.58594 C 148.23792 276.75362 189.72716 323.30088 190.43164 323.02539 C 193.51013 321.82158 370.84527 117.24561 370.64648 115.12695 C 370.52505 113.83052 360.23132 99.755298 347.77148 83.847656 L 325.11523 54.925781 z M 287.88086 69.535156 L 302.74805 88.513672 L 255.29688 88.513672 L 254.42773 69.552734 L 287.88086 69.535156 z M 222.33789 69.570312 L 223.08594 88.513672 L 158.1543 88.513672 L 157.28516 69.607422 L 178.41211 69.595703 L 222.33789 69.570312 z M 124.82227 69.625 L 125.69141 88.517578 L 56.986328 88.517578 L 55.857422 89.974609 L 54.507812 91.71875 L 55.611328 110.29883 L 126.98242 110.29883 L 130.24414 171.95117 L 82.330078 171.95117 L 101.38477 193.73242 L 131.02539 193.73242 L 132.53906 229.27734 C 145.11869 243.60394 156.4574 256.45952 166.37891 267.63867 L 163.23242 193.72852 L 227.65039 193.72852 L 228.96484 229.94531 C 202.23172 260.62053 180.00754 285.81618 179.04297 286.19336 C 178.47364 286.41601 144.9431 248.79973 104.53125 202.60156 L 31.054688 118.60352 L 49.998047 94.130859 L 68.939453 69.658203 L 124.82227 69.625 z M 159.70898 110.29492 L 224.64258 110.29492 L 227.12695 171.94727 L 161.67969 171.94727 L 159.70898 110.29492 z M 256.5918 110.29492 L 319.39648 110.29492 C 322.58281 114.66576 324.62613 117.67843 324.67383 118.1875 C 324.73404 118.83025 304.56909 142.53818 279.23047 171.94727 L 259.33594 171.94727 L 256.5918 110.29492 z M 292.05273 175 L 300.51172 192.06055 L 300.51172 192.0625 L 299.01562 193.8125 L 296.50391 188.53125 L 283.93555 184.49414 L 283.93555 184.49219 L 284.69531 183.60547 L 285.45508 182.7168 L 285.45508 182.71484 L 295.21875 185.89453 L 292.14062 179.79688 L 290.58398 176.71875 L 290.58398 176.7168 L 292.05078 175.00195 L 292.05273 175 z M 282.39648 187.81055 C 282.57011 187.80416 282.74721 187.80862 282.92773 187.82227 C 282.9284 187.82232 282.92902 187.82222 282.92969 187.82227 C 283.10948 187.83459 283.29085 187.857 283.47266 187.88867 C 283.4733 187.88878 283.47397 187.88856 283.47461 187.88867 C 283.65645 187.92041 283.83958 187.96258 284.02344 188.01367 C 284.02406 188.01384 284.02477 188.0135 284.02539 188.01367 C 284.20929 188.06483 284.39416 188.1248 284.58008 188.19531 C 284.58067 188.19554 284.58144 188.19509 284.58203 188.19531 C 284.768 188.2659 284.95459 188.34754 285.14258 188.4375 C 285.14313 188.43776 285.14398 188.43724 285.14453 188.4375 C 285.52114 188.61781 285.90044 188.83767 286.28516 189.0957 C 286.28565 189.09603 286.28661 189.09537 286.28711 189.0957 C 286.67192 189.35387 287.06021 189.65236 287.45312 189.98828 C 287.45354 189.98864 287.45466 189.98793 287.45508 189.98828 C 287.54944 190.06898 287.63297 190.15403 287.72266 190.23633 C 287.82056 190.32616 287.92329 190.41411 288.01562 190.50586 C 288.19219 190.68131 288.35942 190.85858 288.51562 191.04102 C 288.58448 191.12138 288.64409 191.20539 288.70898 191.28711 C 288.93927 191.5771 289.15146 191.87229 289.33203 192.17969 C 289.3323 192.18015 289.33176 192.18118 289.33203 192.18164 C 289.7887 192.96398 290.06751 193.75339 290.16797 194.55273 C 290.19348 194.74035 290.20875 194.92719 290.21484 195.11328 C 290.23338 195.67123 290.16446 196.22307 290.00781 196.76758 C 289.90304 197.1252 289.76264 197.46651 289.58594 197.79102 C 289.40948 198.11508 289.19698 198.42099 288.94922 198.71094 C 288.94888 198.71133 288.94956 198.71249 288.94922 198.71289 C 288.73361 198.965 288.51237 199.193 288.28906 199.39844 C 288.06509 199.60429 287.83912 199.78613 287.60742 199.94531 C 287.15011 200.25711 286.62318 200.52679 286.0293 200.75195 L 290.10352 204.23633 L 288.70312 205.87305 L 288.70312 205.875 L 275.38867 194.49219 L 275.38867 194.49023 L 276.78906 192.85352 L 277.80664 193.72266 C 277.80994 193.34924 277.84051 192.97505 277.89648 192.60156 C 277.95255 192.22743 278.03564 191.85271 278.14453 191.47852 C 278.30723 190.90914 278.55595 190.38108 278.89258 189.89258 C 279.00479 189.72974 279.12628 189.57182 279.25781 189.41797 C 279.38314 189.27138 279.5123 189.13437 279.64453 189.00781 C 280.4379 188.24845 281.35475 187.84884 282.39648 187.81055 z M 282.9082 190.06836 C 282.67744 190.04443 282.45371 190.0483 282.23633 190.08203 C 281.80156 190.1495 281.39317 190.33385 281.01172 190.63281 C 280.82094 190.78249 280.63643 190.96042 280.45898 191.16797 C 280.25794 191.4031 280.08309 191.6614 279.93164 191.94141 C 279.78019 192.22141 279.6527 192.52275 279.55078 192.84766 C 279.55059 192.84825 279.55097 192.84902 279.55078 192.84961 C 279.44913 193.17393 279.36783 193.50625 279.30664 193.84766 C 279.30653 193.84829 279.30675 193.84898 279.30664 193.84961 C 279.24553 194.19105 279.20419 194.54188 279.18359 194.90039 L 284.69531 199.61328 C 285.3014 199.32749 285.7842 199.05158 286.14258 198.78516 C 286.32388 198.64934 286.5045 198.49388 286.68555 198.32031 C 286.86702 198.14599 287.0493 197.95215 287.23047 197.74023 C 287.42528 197.51236 287.58966 197.28064 287.72461 197.04492 C 287.99444 196.57353 288.14542 196.08677 288.17578 195.58398 C 288.19096 195.33259 288.17551 195.07567 288.13086 194.81641 C 287.99689 194.03864 287.57422 193.26324 286.86133 192.48828 C 286.62374 192.22989 286.35463 191.97295 286.05273 191.71484 C 286.05232 191.71449 286.0512 191.7152 286.05078 191.71484 C 285.75801 191.46453 285.47443 191.24049 285.19727 191.04688 C 285.19678 191.04653 285.1958 191.04721 285.19531 191.04688 C 284.91778 190.85307 284.64863 190.68785 284.38672 190.55078 C 283.8629 190.27665 283.36973 190.11623 282.9082 190.06836 z M 272.89648 198.92188 C 273.07014 198.9155 273.24721 198.91994 273.42773 198.93359 C 273.78857 198.9582 274.15448 199.02248 274.52344 199.125 C 274.70868 199.17654 274.89279 199.2374 275.08008 199.30859 C 276.01263 199.6623 276.96979 200.25891 277.95312 201.09961 C 278.5453 201.60588 279.04495 202.14347 279.45312 202.71289 C 279.58918 202.9027 279.71642 203.09615 279.83203 203.29297 C 280.26785 204.03951 280.53508 204.79459 280.64648 205.55664 C 280.65172 205.59252 280.6615 205.62815 280.66602 205.66406 C 280.6661 205.6647 280.66594 205.66538 280.66602 205.66602 C 280.66815 205.6817 280.66792 205.69722 280.66992 205.71289 C 280.7157 206.0722 280.72867 206.42756 280.70312 206.78125 C 280.6899 206.96567 280.66745 207.1491 280.63477 207.33203 C 280.63465 207.33267 280.63488 207.33335 280.63477 207.33398 C 280.60202 207.51702 280.55998 207.69936 280.50781 207.88086 C 280.45561 208.05908 280.39228 208.23249 280.32227 208.40234 C 280.32203 208.40291 280.3225 208.40373 280.32227 208.4043 C 280.18166 208.74508 280.00529 209.06788 279.79297 209.375 C 279.68681 209.52856 279.57136 209.67907 279.44727 209.82422 C 279.23098 210.0772 279.01115 210.3057 278.78711 210.51172 C 278.56385 210.71703 278.33643 210.89992 278.10547 211.05859 C 277.87659 211.21465 277.62991 211.35967 277.36719 211.49414 C 277.10455 211.62817 276.82403 211.75279 276.52734 211.86523 L 280.60352 215.34766 L 280.60352 215.34961 L 279.95898 216.10352 L 279.20508 216.98633 L 279.20312 216.98633 L 265.89062 205.60352 L 265.88867 205.60156 L 266.79883 204.53906 L 267.28711 203.96484 L 267.28906 203.96484 L 268.30664 204.83594 C 268.31306 204.08843 268.42519 203.33957 268.64258 202.5918 C 268.64275 202.5912 268.64241 202.59044 268.64258 202.58984 C 268.75103 202.21027 268.89835 201.84947 269.08398 201.50586 C 269.26962 201.16225 269.4928 200.83698 269.75586 200.5293 C 269.88153 200.3823 270.01189 200.24599 270.14453 200.11914 C 270.27644 199.99299 270.41199 199.87576 270.55078 199.76953 C 270.68991 199.663 270.83249 199.56697 270.97852 199.48047 C 271.41678 199.221 271.8864 199.05186 272.38672 198.97266 C 272.55349 198.94625 272.72283 198.92825 272.89648 198.92188 z M 273.41016 201.17969 C 272.94902 201.13184 272.51369 201.19954 272.10547 201.38281 C 271.69698 201.56619 271.31605 201.8642 270.96094 202.2793 C 270.75992 202.51444 270.58378 202.77227 270.43164 203.05273 C 270.28018 203.33274 270.1527 203.63603 270.05078 203.96094 C 269.94887 204.28583 269.86794 204.61891 269.80664 204.96094 C 269.74534 205.30297 269.70423 205.65255 269.68359 206.01172 L 275.19727 210.72461 C 275.3532 210.65105 275.47766 210.58008 275.61719 210.50781 C 275.74815 210.44001 275.89519 210.37136 276.01172 210.30469 C 276.01259 210.30419 276.01281 210.30323 276.01367 210.30273 C 276.25481 210.16468 276.4634 210.02968 276.64258 209.89648 C 277.00594 209.62429 277.36816 209.27733 277.73047 208.85352 C 277.73109 208.85279 277.7318 208.85229 277.73242 208.85156 C 277.92662 208.62442 278.08993 208.39312 278.22461 208.1582 C 278.22505 208.15743 278.22612 208.15702 278.22656 208.15625 C 278.36117 207.92109 278.46601 207.68242 278.54102 207.43945 C 278.54121 207.43883 278.54083 207.43812 278.54102 207.4375 C 278.55248 207.40029 278.55243 207.36161 278.5625 207.32422 C 278.68391 206.8726 278.71325 206.40802 278.63086 205.92969 C 278.54155 205.41117 278.32506 204.89431 277.97852 204.37695 C 277.97825 204.37655 277.97878 204.3754 277.97852 204.375 C 277.63204 203.85804 277.15606 203.34198 276.55273 202.82617 C 275.96687 202.32532 275.41222 201.93667 274.88867 201.66211 C 274.88811 201.66181 274.88729 201.66241 274.88672 201.66211 C 274.62474 201.52481 274.37137 201.41656 274.125 201.33594 C 273.87868 201.25549 273.64092 201.20362 273.41016 201.17969 z M 263.60352 210.24414 C 263.89536 210.25252 264.18862 210.29937 264.48242 210.38477 C 264.77623 210.47014 265.07525 210.60064 265.37891 210.77734 C 265.68243 210.95371 265.9916 211.17772 266.30469 211.44531 C 266.30509 211.44566 266.30624 211.44497 266.30664 211.44531 L 272.90625 217.08789 L 271.51367 218.7168 L 271.51367 218.71875 L 270.47656 217.83203 C 270.45124 218.06152 270.42422 218.37576 270.39062 218.7793 C 270.35661 219.17203 270.29126 219.53001 270.19727 219.85156 C 270.14739 220.04507 270.08276 220.24337 270.00391 220.44727 C 269.92487 220.65184 269.83248 220.86185 269.72461 221.07617 C 269.51492 221.50933 269.20531 221.96382 268.79883 222.43945 C 268.79847 222.43987 268.79919 222.44099 268.79883 222.44141 C 268.61146 222.66057 268.41261 222.85412 268.20312 223.02539 C 267.78435 223.36829 267.32129 223.61553 266.81445 223.76758 C 266.56103 223.8436 266.29692 223.89747 266.02148 223.92578 C 264.91976 224.03903 263.91941 223.71075 263.01953 222.94141 C 263.0188 222.94078 263.01831 222.94008 263.01758 222.93945 C 262.83326 222.78186 262.66723 222.62293 262.51758 222.46094 C 262.21799 222.13697 261.98765 221.80444 261.82617 221.46289 C 261.74543 221.29212 261.68098 221.11853 261.63477 220.94336 C 261.58836 220.76551 261.55691 220.58634 261.53711 220.40234 C 261.53704 220.40171 261.53718 220.40103 261.53711 220.40039 C 261.49713 220.03227 261.50975 219.65246 261.57617 219.25977 C 261.60957 219.06348 261.6568 218.86454 261.7168 218.66211 C 261.71697 218.66154 261.71663 218.66073 261.7168 218.66016 C 261.77806 218.45627 261.85086 218.25063 261.93555 218.04102 C 262.02024 217.83077 262.11657 217.6185 262.22461 217.40234 C 262.3326 217.18689 262.45086 216.96942 262.58203 216.74805 C 262.71301 216.52652 262.85553 216.30162 263.00977 216.07422 C 263.19094 215.80707 263.39372 215.5301 263.58789 215.25586 C 263.7242 215.06313 263.84948 214.87594 263.99219 214.67969 C 263.99248 214.67928 263.99189 214.67814 263.99219 214.67773 C 264.25188 214.32062 264.53348 213.95251 264.81445 213.58398 C 264.90734 213.46223 264.99073 213.34568 265.08594 213.22266 L 264.92188 213.08203 L 264.83398 213.00781 C 264.64822 212.84896 264.46404 212.7194 264.28125 212.62109 C 264.09887 212.52294 263.91925 212.45544 263.74023 212.41797 C 263.73959 212.41782 263.73893 212.41812 263.73828 212.41797 C 263.56176 212.37751 263.38557 212.36223 263.21094 212.37305 C 263.03635 212.38416 262.86273 212.42028 262.68945 212.48242 C 262.52341 212.54146 262.35748 212.62179 262.19336 212.72266 C 262.02946 212.82323 261.86725 212.94322 261.70508 213.08594 C 261.70441 213.08652 261.70379 213.08731 261.70312 213.08789 C 261.69646 213.09376 261.69025 213.10153 261.68359 213.10742 C 261.36629 213.38836 261.06023 213.70196 260.76367 214.04883 C 260.39637 214.47845 260.04453 215.00525 259.70898 215.63281 C 259.5383 215.94414 259.37647 216.27085 259.22461 216.61328 C 259.07233 216.95613 258.93043 217.3135 258.79688 217.6875 L 258.72266 217.77539 L 258.7207 217.77539 L 257.05859 216.35352 L 257.05664 216.35352 C 257.24252 215.95973 257.54338 215.41581 257.95508 214.72266 C 258.23501 214.25135 258.54348 213.81385 258.86523 213.39258 C 259.01667 213.19372 259.16359 212.99061 259.32422 212.80273 C 259.61706 212.4602 259.90604 212.15358 260.18945 211.88086 C 260.47286 211.60814 260.75144 211.36893 261.02539 211.16602 C 261.57249 210.74947 262.14189 210.4722 262.73242 210.33398 C 263.0223 210.26544 263.31167 210.23576 263.60352 210.24414 z M 266.41016 214.35352 C 266.01233 214.87762 265.55201 215.50548 265.0293 216.23438 C 264.51163 216.95747 264.1393 217.56174 263.91211 218.05078 C 263.9119 218.05123 263.91232 218.05229 263.91211 218.05273 C 263.8453 218.19826 263.78816 218.34201 263.74023 218.48438 C 263.69212 218.6273 263.6521 218.77042 263.62305 218.91016 C 263.56525 219.18908 263.54626 219.46177 263.56445 219.72852 C 263.57211 219.86065 263.5944 219.98786 263.63086 220.11328 C 263.66745 220.2394 263.71739 220.36108 263.7832 220.48047 C 263.84856 220.59921 263.92911 220.71408 264.02344 220.82617 C 264.0238 220.8266 264.02308 220.8277 264.02344 220.82812 C 264.11757 220.93986 264.2266 221.04718 264.34961 221.15234 C 264.62829 221.39057 264.90852 221.5584 265.19141 221.6543 C 265.47429 221.7502 265.75875 221.77527 266.04492 221.72852 C 266.46984 221.65466 266.90137 221.41489 267.33984 221.00781 C 267.486 220.87212 267.63358 220.71763 267.78125 220.54492 C 267.90409 220.40123 268.01731 220.25478 268.12109 220.10547 C 268.43244 219.65753 268.65707 219.18404 268.79688 218.68555 C 268.87135 218.40932 268.92499 218.1325 268.97461 217.85547 C 268.98513 217.7967 269.00428 217.7385 269.01367 217.67969 C 269.01377 217.67904 269.01357 217.67838 269.01367 217.67773 C 269.01928 217.64256 269.02018 217.60745 269.02539 217.57227 C 269.06988 217.2719 269.10428 216.97126 269.11914 216.66992 L 266.41016 214.35352 z M 250.60156 216.92188 L 261.92578 226.60352 L 263.56836 228.00781 L 263.57031 228.00977 L 262.0957 229.73242 L 255.74805 224.30664 L 250.21484 230.77539 L 256.5625 236.20312 L 256.56445 236.20312 L 255.08984 237.92773 L 242.12305 226.8418 L 243.5957 225.11719 L 248.67969 229.46484 L 254.21484 222.99609 L 249.12891 218.64648 L 250.60156 216.92383 L 250.60156 216.92188 z M 243.0918 234.04688 C 243.2639 234.03951 243.43674 234.04229 243.60938 234.05469 C 243.95465 234.07949 244.30104 234.14418 244.64844 234.24805 C 244.82213 234.29998 244.99569 234.36189 245.16992 234.43359 C 245.51838 234.577 245.86818 234.75995 246.21875 234.98242 C 246.56932 235.20489 246.92074 235.46604 247.27344 235.76758 L 248.16211 236.52734 L 248.16406 236.5293 L 243.96875 241.43359 L 242.03711 243.69336 C 242.33527 243.94814 242.63294 244.16762 242.93164 244.3457 C 242.93207 244.34596 242.93317 244.34545 242.93359 244.3457 C 243.23281 244.52364 243.53209 244.66274 243.83203 244.76367 C 244.06338 244.84036 244.28875 244.88172 244.51367 244.91797 C 244.57803 244.92834 244.64515 244.95388 244.70898 244.96094 C 244.70959 244.96101 244.71033 244.96087 244.71094 244.96094 C 244.7175 244.96166 244.72391 244.9622 244.73047 244.96289 C 245.00989 244.99219 245.28541 244.98932 245.55469 244.95508 C 246.09062 244.89155 246.60463 244.71413 247.0957 244.42188 C 247.09647 244.42142 247.09689 244.42038 247.09766 244.41992 C 247.34525 244.27094 247.58422 244.09721 247.81445 243.89844 C 247.81513 243.89786 247.81573 243.89707 247.81641 243.89648 C 248.04696 243.69724 248.26926 243.47384 248.48242 243.22461 C 248.48276 243.22422 248.48209 243.22305 248.48242 243.22266 C 248.54382 243.15084 248.59787 243.07256 248.65625 242.99805 C 248.86654 242.72951 249.06327 242.4481 249.23438 242.14453 C 249.45294 241.75682 249.64029 241.33938 249.79492 240.89453 C 249.79515 240.89385 249.79469 240.89326 249.79492 240.89258 C 249.83877 240.76448 249.85518 240.67082 249.89258 240.55078 C 250.05226 240.03762 250.17747 239.56744 250.21875 239.20117 C 250.23572 239.05052 250.24345 238.91284 250.24023 238.78711 L 250.24023 238.78516 L 250.31445 238.69922 L 252.09766 240.22461 L 252.09961 240.22656 C 251.86031 240.97663 251.57292 241.70528 251.23828 242.41406 C 250.90365 243.12283 250.46676 243.79297 249.92578 244.42578 C 249.58082 244.82927 249.22678 245.18731 248.86523 245.5 C 248.14215 246.12539 247.38707 246.56985 246.59766 246.83203 C 246.20312 246.96341 245.79996 247.04956 245.38867 247.08984 C 244.56319 247.16795 243.74289 247.05522 242.92773 246.75 C 242.72459 246.67404 242.52084 246.58413 242.31836 246.48438 C 242.31786 246.48413 242.31691 246.48462 242.31641 246.48438 C 241.70733 246.1841 241.10306 245.7773 240.5 245.26172 C 240.49928 245.26111 240.49876 245.26038 240.49805 245.25977 C 240.2992 245.08977 240.11262 244.91888 239.93555 244.74414 C 239.75781 244.5687 239.5913 244.39117 239.43555 244.21094 C 239.28025 244.03146 239.13741 243.85024 239.00391 243.66602 C 238.33638 242.74488 237.94032 241.76471 237.81836 240.72461 C 237.72327 239.88962 237.80476 239.08608 238.06055 238.31445 C 238.18816 237.92863 238.35903 237.55162 238.57422 237.18164 C 238.78941 236.81166 239.04879 236.44985 239.35156 236.0957 C 239.49212 235.9313 239.63481 235.77745 239.7793 235.63281 C 240.49963 234.91171 241.26798 234.43488 242.08594 234.20508 C 242.41328 234.11311 242.74882 234.06017 243.0918 234.04688 z M 242.99023 235.99609 C 242.36625 236.01252 241.76783 236.26872 241.19336 236.76172 C 241.00172 236.92636 240.81309 237.11823 240.62695 237.33594 C 240.2522 237.77427 239.98042 238.22337 239.81055 238.68359 C 239.72561 238.91371 239.66653 239.14722 239.63281 239.38281 C 239.59936 239.61859 239.59187 239.85855 239.60938 240.09961 C 239.64188 240.51532 239.74527 240.90369 239.89648 241.27539 C 239.91944 241.33171 239.93134 241.39195 239.95703 241.44727 C 240.0135 241.56909 240.09045 241.68384 240.16016 241.80078 C 240.21087 241.88569 240.2509 241.97431 240.30859 242.05664 C 240.30911 242.05738 240.31003 242.05785 240.31055 242.05859 C 240.44739 242.25362 240.60521 242.44251 240.78125 242.62305 L 245.54492 237.04883 C 245.32835 236.86621 245.11334 236.70932 244.89844 236.57422 C 244.68447 236.43957 244.4721 236.32787 244.25977 236.24023 C 244.25917 236.23999 244.25841 236.24048 244.25781 236.24023 C 244.04557 236.15275 243.8336 236.08736 243.62305 236.04688 C 243.6224 236.04675 243.62174 236.047 243.62109 236.04688 C 243.40995 236.00641 243.19962 235.98927 242.99023 235.99609 z M 233.41211 243.58789 L 242.0332 250.95898 C 242.6515 251.48759 243.16338 252.01639 243.56836 252.54492 C 243.56865 252.54531 243.56807 252.54649 243.56836 252.54688 C 243.83789 252.89879 244.06137 253.24968 244.23633 253.60156 C 244.27413 253.67745 244.30058 253.7542 244.33398 253.83008 C 244.37795 253.9302 244.42658 254.03074 244.46289 254.13086 C 244.58094 254.45537 244.65393 254.77906 244.69141 255.10352 C 244.69462 255.13147 244.70246 255.15955 244.70508 255.1875 C 244.70514 255.18813 244.70502 255.18882 244.70508 255.18945 C 244.72142 255.36495 244.72704 255.54098 244.7207 255.71875 C 244.72068 255.71941 244.72073 255.72005 244.7207 255.7207 C 244.708 256.07683 244.64871 256.43759 244.54492 256.80273 C 244.54474 256.80336 244.5451 256.80406 244.54492 256.80469 C 244.4408 257.17047 244.2912 257.54106 244.0957 257.91602 C 243.99795 258.10349 243.88817 258.29067 243.76758 258.48047 C 243.76727 258.48096 243.76789 258.48193 243.76758 258.48242 C 243.71851 258.55962 243.65832 258.63726 243.60547 258.71484 C 243.39874 259.01832 243.17275 259.32534 242.9082 259.63477 C 242.79791 259.76377 242.68035 259.88238 242.56641 260.00586 C 242.45202 260.13007 242.34055 260.25827 242.22266 260.37695 C 241.98738 260.61321 241.74478 260.83823 241.49609 261.05273 C 241.2528 261.26677 241.00291 261.47207 240.74609 261.66992 C 240.48971 261.86708 240.22687 262.05763 239.95703 262.23828 L 238.28516 260.81055 L 238.28516 260.80859 L 238.35938 260.72266 C 238.35969 260.72249 238.36102 260.72282 238.36133 260.72266 C 238.69414 260.54486 239.18339 260.22845 239.83008 259.77734 C 240.15663 259.55407 240.4646 259.31537 240.75195 259.05859 C 241.03896 258.80213 241.30675 258.52819 241.55469 258.23828 C 241.55506 258.23785 241.55432 258.23676 241.55469 258.23633 C 241.79259 257.95808 241.99442 257.69059 242.1582 257.43164 C 242.15854 257.4311 242.15786 257.43022 242.1582 257.42969 C 242.32179 257.17091 242.44956 256.92307 242.53906 256.68359 C 242.5393 256.68296 242.53883 256.68228 242.53906 256.68164 C 242.62836 256.44232 242.68603 256.21136 242.71484 255.99023 C 242.71493 255.98956 242.71476 255.98896 242.71484 255.98828 C 242.74274 255.76707 242.74107 255.55427 242.70898 255.35156 C 242.68274 255.15317 242.63264 254.95885 242.55859 254.76953 C 242.4842 254.58032 242.38609 254.39685 242.26367 254.2168 C 242.14174 254.03747 242.00092 253.85926 241.8418 253.68555 C 241.8412 253.6849 241.84044 253.68424 241.83984 253.68359 C 241.67993 253.5092 241.50207 253.3387 241.30469 253.16992 L 240.41602 252.41016 C 240.40245 252.82566 240.36867 253.21498 240.31445 253.57812 C 240.26024 253.94127 240.18668 254.27904 240.0918 254.58984 C 239.99649 254.89526 239.84889 255.21023 239.65234 255.53711 C 239.55407 255.70055 239.4439 255.86635 239.32031 256.03516 C 239.19672 256.20396 239.06102 256.37662 238.91211 256.55078 C 238.78834 256.69555 238.65974 256.83077 238.5293 256.95703 C 238.26742 257.21052 237.99384 257.42658 237.70508 257.60547 C 237.70463 257.60575 237.70357 257.60519 237.70312 257.60547 C 237.5594 257.69443 237.41211 257.77522 237.26172 257.8457 C 236.65836 258.12933 236.00186 258.26309 235.29102 258.24805 C 234.93538 258.2379 234.575 258.18874 234.21289 258.09961 C 233.12656 257.83221 232.01233 257.20951 230.86719 256.23047 C 230.86646 256.22985 230.86596 256.22913 230.86523 256.22852 C 230.65664 256.0501 230.46113 255.87004 230.2793 255.68945 C 230.09756 255.50901 229.92835 255.32903 229.77344 255.14648 C 229.77309 255.14608 229.77378 255.14494 229.77344 255.14453 C 229.61862 254.96204 229.47566 254.77834 229.34766 254.59375 C 229.34733 254.59328 229.34798 254.59227 229.34766 254.5918 C 229.21942 254.40679 229.1052 254.22227 229.00391 254.03516 C 228.80087 253.65556 228.63669 253.27242 228.51172 252.88672 C 228.38675 252.50101 228.30081 252.11251 228.25391 251.7207 C 228.20912 251.35581 228.20579 250.98887 228.24219 250.62305 C 228.27858 250.25723 228.35508 249.89214 228.47266 249.52539 C 228.58735 249.15616 228.73084 248.81229 228.90234 248.49414 C 229.07385 248.17599 229.27363 247.8823 229.50195 247.61523 C 229.74268 247.33368 229.97698 247.08922 230.20703 246.87891 C 230.43718 246.66771 230.66091 246.49293 230.88086 246.35352 C 230.88131 246.35322 230.88236 246.35381 230.88281 246.35352 C 231.31997 246.06529 231.83457 245.80696 232.42773 245.58203 L 232.10352 245.12305 L 232.10156 245.12109 L 233.41211 243.58984 L 233.41211 243.58789 z M 233.76367 246.72266 C 233.47884 246.85598 233.21409 246.99309 232.9707 247.13672 C 232.72732 247.28035 232.5047 247.43003 232.30273 247.58398 C 231.89798 247.88109 231.53646 248.21636 231.21875 248.58789 C 231.02641 248.81286 230.86264 249.04211 230.72852 249.27539 C 230.59439 249.50867 230.48997 249.74473 230.41406 249.98633 C 230.26301 250.46904 230.22953 250.96793 230.31055 251.48438 C 230.39156 252.00083 230.59481 252.51163 230.92188 253.01562 C 230.99371 253.12611 231.09208 253.23582 231.17578 253.3457 C 231.28335 253.48692 231.37869 253.62736 231.50586 253.76758 C 231.731 254.0161 231.98644 254.2644 232.27344 254.50977 C 232.27382 254.51009 232.27501 254.50944 232.27539 254.50977 C 232.54826 254.74306 232.8139 254.94975 233.07422 255.13086 C 233.33453 255.31206 233.58818 255.46666 233.83594 255.5957 C 233.8364 255.59594 233.83743 255.59546 233.83789 255.5957 C 234.08506 255.72433 234.32587 255.82764 234.56055 255.9043 C 234.79634 255.98134 235.02485 256.03202 235.24805 256.05664 C 235.69272 256.10533 236.12263 256.03153 236.53516 255.83398 C 236.94769 255.63649 237.3449 255.31523 237.72461 254.87109 C 238.13124 254.39547 238.44875 253.84407 238.67578 253.21484 C 238.67599 253.21424 238.67557 253.21349 238.67578 253.21289 C 238.90176 252.57281 239.03148 251.92083 239.06641 251.25781 L 236.41406 248.98828 L 233.76367 246.72266 z M 220.08789 251.43164 L 220.08984 251.43164 L 224.36328 255.08594 L 233.64062 263.01562 L 233.63867 263.01758 L 232.24023 264.6543 L 231.2207 263.7832 C 231.22286 264.19206 231.198 264.58625 231.14648 264.9668 C 231.09497 265.34734 231.01726 265.71417 230.91211 266.06641 C 230.70173 266.77088 230.34131 267.4215 229.83008 268.01953 C 229.70599 268.16468 229.57701 268.30002 229.44531 268.42578 C 229.18192 268.67731 228.90321 268.89046 228.60938 269.06445 C 228.16862 269.32544 227.6948 269.4994 227.18555 269.58594 C 227.01586 269.61485 226.84139 269.63308 226.66406 269.64258 C 226.4867 269.65204 226.30606 269.6525 226.12109 269.64258 C 225.93738 269.63198 225.75183 269.61039 225.56641 269.58008 C 225.56579 269.57998 225.56507 269.58018 225.56445 269.58008 C 225.1929 269.51921 224.81787 269.41929 224.43945 269.2793 C 224.4389 269.27909 224.43805 269.2795 224.4375 269.2793 C 224.24799 269.20913 224.05842 269.12907 223.86719 269.03906 C 223.10215 268.67924 222.32372 268.15994 221.53125 267.48242 C 221.32515 267.30622 221.13166 267.12837 220.94922 266.94727 C 220.40168 266.40405 219.9594 265.83933 219.625 265.25195 C 219.62471 265.25143 219.62529 265.25052 219.625 265.25 C 219.51506 265.05327 219.41556 264.85681 219.32617 264.66016 C 219.32592 264.6596 219.32643 264.65876 219.32617 264.6582 C 219.2366 264.46103 219.1568 264.26545 219.08789 264.06836 C 218.95007 263.67418 218.85403 263.27864 218.79883 262.88477 C 218.69508 262.11275 218.75032 261.36753 218.96484 260.64648 C 219.07457 260.28306 219.21736 259.93969 219.39258 259.61719 C 219.47992 259.45643 219.57606 259.30098 219.67969 259.15039 C 219.67998 259.14997 219.6794 259.14886 219.67969 259.14844 C 219.78339 258.99784 219.89564 258.85332 220.01562 258.71289 C 220.01595 258.71251 220.0153 258.71131 220.01562 258.71094 C 220.23402 258.45549 220.45462 258.22628 220.67578 258.02344 C 220.89707 257.82012 221.11983 257.64244 221.34375 257.49219 C 221.48157 257.39694 221.64167 257.31173 221.79492 257.22266 C 222.13242 257.02638 222.49281 256.83811 222.9043 256.67188 L 220.79688 254.87109 L 218.68945 253.06836 L 218.6875 253.06836 L 220.08789 251.43164 z M 224.26367 257.83398 C 223.68906 258.10651 223.21506 258.38416 222.8418 258.66797 C 222.8414 258.66827 222.84024 258.66767 222.83984 258.66797 C 222.46696 258.95163 222.10404 259.30112 221.75195 259.71289 C 221.35985 260.17154 221.09092 260.64708 220.94531 261.14062 C 220.87257 261.38769 220.83118 261.63861 220.82031 261.89453 C 220.8095 262.14918 220.83052 262.40831 220.88086 262.67188 C 221.00992 263.34782 221.35858 264.01325 221.88477 264.66797 C 221.97538 264.78049 222.04997 264.894 222.15234 265.00586 C 222.38485 265.25991 222.64822 265.51301 222.94141 265.76367 C 223.51907 266.25754 224.06959 266.64264 224.59375 266.91992 C 224.85583 267.05856 225.11067 267.1694 225.35938 267.25391 C 225.60791 267.33808 225.84866 267.3954 226.08398 267.42578 C 226.55174 267.484 226.99771 267.41829 227.41797 267.23047 C 227.83797 267.04187 228.23321 266.73034 228.60547 266.29492 C 228.80368 266.0631 228.97886 265.80924 229.12891 265.53125 C 229.12918 265.53074 229.12863 265.52981 229.12891 265.5293 C 229.19142 265.41337 229.23296 265.2763 229.28711 265.15234 C 229.36264 264.97908 229.44657 264.81399 229.50586 264.625 C 229.60486 264.29764 229.68341 263.96538 229.74023 263.62891 C 229.79656 263.29268 229.8321 262.95249 229.8457 262.60742 L 224.26367 257.83398 z M 214.88281 267.23242 C 215.17466 267.24072 215.46792 267.28769 215.76172 267.37305 C 216.20199 267.50098 216.65285 267.73339 217.11523 268.06641 C 217.11569 268.06674 217.11673 268.06608 217.11719 268.06641 C 217.27085 268.17733 217.42569 268.29992 217.58203 268.43359 C 217.58244 268.43394 217.58358 268.43325 217.58398 268.43359 L 224.18164 274.07617 L 224.18359 274.07617 L 223.48828 274.89062 L 222.79297 275.70508 L 222.79102 275.70508 L 221.75586 274.82031 C 221.73057 275.04983 221.70085 275.36602 221.66797 275.76953 C 221.65081 275.9659 221.62585 276.15345 221.59375 276.33203 C 221.56165 276.51061 221.52161 276.67906 221.47461 276.83984 C 221.42489 277.03278 221.35979 277.23228 221.28125 277.43555 C 221.28102 277.43615 221.28148 277.4369 221.28125 277.4375 C 221.20325 277.64068 221.11148 277.84875 221.00391 278.0625 C 221.0035 278.06331 221.00236 278.06365 221.00195 278.06445 C 220.9586 278.15401 220.89356 278.24847 220.8418 278.33984 C 220.76849 278.46893 220.70343 278.59584 220.61328 278.72852 C 220.61294 278.72901 220.61362 278.72997 220.61328 278.73047 C 220.45909 278.95729 220.27932 279.18815 220.07617 279.42578 C 220.07581 279.4262 220.07653 279.42732 220.07617 279.42773 C 219.98202 279.53786 219.87705 279.62458 219.77734 279.72266 C 219.08331 280.40533 218.26217 280.81499 217.29883 280.91406 C 216.1971 281.02729 215.19675 280.69903 214.29688 279.92969 C 214.11293 279.77242 213.94644 279.61087 213.79688 279.44922 C 213.6467 279.28691 213.51394 279.12375 213.39844 278.95703 C 213.16842 278.62502 213.00851 278.28309 212.91602 277.93359 C 212.91581 277.9328 212.91427 277.93243 212.91406 277.93164 C 212.82126 277.57593 212.78132 277.20841 212.79492 276.82812 C 212.80172 276.63798 212.82207 276.44434 212.85547 276.24805 C 212.88868 276.0517 212.93414 275.85283 212.99414 275.65039 C 213.05541 275.4465 213.13016 275.23891 213.21484 275.0293 C 213.38364 274.61025 213.59977 274.1808 213.86133 273.73828 C 213.8616 273.73782 213.86106 273.73679 213.86133 273.73633 C 213.99204 273.51526 214.1352 273.29138 214.28906 273.06445 C 214.28935 273.06403 214.28877 273.06293 214.28906 273.0625 C 214.90595 272.15288 215.59767 271.20276 216.36523 270.21094 L 216.11328 269.99414 C 215.92751 269.83529 215.74293 269.70752 215.56055 269.60938 C 215.37775 269.51198 215.19658 269.44568 215.01758 269.4082 C 214.66461 269.32721 214.31654 269.34808 213.96875 269.47266 C 213.8027 269.53169 213.63551 269.61036 213.4707 269.71094 C 213.30632 269.81125 213.14419 269.93393 212.98242 270.07617 C 212.65835 270.3613 212.3435 270.68153 212.04102 271.03516 C 212.0407 271.03552 212.04133 271.03674 212.04102 271.03711 C 211.85768 271.25163 211.67693 271.48955 211.50195 271.75391 C 211.50165 271.75437 211.50226 271.7554 211.50195 271.75586 C 211.4545 271.82758 211.4082 271.9149 211.36133 271.99023 C 211.23535 272.1927 211.11035 272.39474 210.98828 272.62305 C 210.81787 272.93385 210.65557 273.25971 210.50391 273.60156 C 210.50366 273.60211 210.50415 273.60297 210.50391 273.60352 C 210.35202 273.94596 210.20946 274.30434 210.07617 274.67773 L 210 274.76367 L 208.33789 273.3418 L 208.33594 273.3418 C 208.52181 272.94801 208.82075 272.40407 209.23242 271.71094 C 209.43827 271.36436 209.65617 271.03115 209.88477 270.71094 C 210.11272 270.39148 210.35323 270.08582 210.60352 269.79297 C 210.60352 269.79297 210.60352 269.79102 210.60352 269.79102 C 210.89642 269.44848 211.18529 269.14183 211.46875 268.86914 C 211.75176 268.59688 212.02915 268.35889 212.30273 268.15625 C 212.84984 267.73971 213.41923 267.46263 214.00977 267.32422 C 214.15535 267.28964 214.30118 267.26511 214.44727 267.25 C 214.59205 267.23502 214.73754 267.22829 214.88281 267.23242 z M 217.68945 271.3418 C 217.29162 271.8659 216.8313 272.49376 216.30859 273.22266 C 215.79092 273.94575 215.41863 274.55002 215.19141 275.03906 C 215.12426 275.18517 215.06569 275.32973 215.01758 275.47266 C 214.96959 275.61571 214.93124 275.75657 214.90234 275.89648 C 214.87309 276.03683 214.85375 276.17536 214.84375 276.3125 C 214.83388 276.44919 214.83465 276.58343 214.84375 276.7168 C 214.85678 276.94179 214.92096 277.1558 215.01758 277.36133 C 215.03432 277.39679 215.04327 277.43386 215.0625 277.46875 C 215.0628 277.46929 215.0622 277.47016 215.0625 277.4707 C 215.19346 277.7078 215.38262 277.93202 215.62891 278.14258 C 215.76824 278.26169 215.9066 278.36377 216.04688 278.44727 C 216.32681 278.61389 216.60891 278.70962 216.89258 278.73438 C 216.8932 278.73443 216.89391 278.73432 216.89453 278.73438 C 217.03587 278.74647 217.17788 278.74007 217.32031 278.7168 C 217.46243 278.69209 217.60633 278.6501 217.75 278.58789 C 218.03587 278.46412 218.32531 278.2655 218.61719 277.99414 C 218.76338 277.85823 218.90898 277.70397 219.05664 277.53125 C 219.42521 277.10016 219.7074 276.64664 219.9043 276.16602 C 219.90461 276.16525 219.90594 276.16483 219.90625 276.16406 C 219.97159 276.00428 220.02775 275.84112 220.07422 275.67578 C 220.2548 275.00615 220.36093 274.33265 220.39453 273.6582 L 217.68945 271.3418 z M 205.47852 277.76758 C 205.65228 277.75975 205.82873 277.76185 206.00977 277.77344 C 206.7364 277.81684 207.48269 278.0213 208.24805 278.38672 C 208.2486 278.38698 208.24945 278.38646 208.25 278.38672 C 208.63221 278.5693 209.01829 278.7918 209.41016 279.05469 C 209.41065 279.05502 209.41161 279.05436 209.41211 279.05469 C 209.80407 279.31771 210.19994 279.62148 210.60156 279.96484 C 210.60198 279.9652 210.6031 279.96449 210.60352 279.96484 C 210.8063 280.13826 210.99743 280.31687 211.17773 280.49609 C 211.53914 280.85549 211.85599 281.22467 212.12695 281.60742 C 212.26244 281.79863 212.38708 281.99242 212.5 282.18945 C 212.72833 282.58062 212.91141 282.97029 213.05273 283.35742 C 213.1232 283.5509 213.18365 283.74305 213.23242 283.93555 C 213.24222 283.97405 213.24693 284.01232 213.25586 284.05078 C 213.29171 284.20527 213.32583 284.35983 213.34766 284.51367 C 213.37422 284.71475 213.39037 284.91141 213.39844 285.10547 C 213.41054 285.39652 213.39669 285.67786 213.36719 285.95312 C 213.33805 286.22875 213.29373 286.49827 213.22266 286.75781 C 213.12492 287.10134 212.98794 287.43214 212.8125 287.75195 C 212.63708 288.07131 212.42305 288.37972 212.16992 288.67578 C 211.6984 289.22731 211.21832 289.65316 210.73242 289.95117 C 210.2523 290.25415 209.73107 290.51066 209.16797 290.72266 L 209.5332 291.21484 L 208.2207 292.74805 L 194.67188 281.16211 L 196.07031 279.52539 L 196.07031 279.52344 L 200.91211 283.66406 C 200.91955 283.27411 200.95133 282.89036 201.00586 282.51562 C 201.06048 282.14026 201.1384 281.77221 201.24023 281.41211 C 201.28986 281.23026 201.35005 281.05177 201.42188 280.875 C 201.49357 280.69875 201.57612 280.52668 201.66992 280.35547 C 201.85713 280.01307 202.08779 279.68159 202.36328 279.35938 C 202.36389 279.35866 202.36462 279.35814 202.36523 279.35742 C 202.48808 279.21372 202.61404 279.07934 202.74414 278.95508 C 203.0901 278.62466 203.464 278.36884 203.86133 278.17578 C 204.3603 277.93339 204.8985 277.7937 205.47852 277.76758 z M 205.39258 280.00586 C 205.37598 280.008 205.36027 280.01509 205.34375 280.01758 C 205.16453 280.04462 204.98915 280.09388 204.81836 280.16211 C 204.76005 280.18527 204.70382 280.2162 204.64648 280.24414 C 204.50746 280.31223 204.37153 280.39391 204.23828 280.49023 C 204.1914 280.52403 204.14382 280.5545 204.09766 280.5918 C 203.9204 280.7353 203.7468 280.89678 203.58008 281.0918 C 203.4787 281.21047 203.38198 281.33428 203.29297 281.46484 C 203.02463 281.85789 202.81436 282.30439 202.6582 282.80469 C 202.44451 283.4661 202.32119 284.14585 202.28906 284.8418 L 207.86328 289.60547 C 208.16632 289.46258 208.43746 289.32347 208.67969 289.1875 C 208.9214 289.05119 209.13476 288.91738 209.31641 288.78711 C 209.31711 288.7866 209.31765 288.78567 209.31836 288.78516 C 209.50294 288.65153 209.68626 288.49894 209.86914 288.32617 C 210.05202 288.15341 210.23291 287.9619 210.41406 287.75 C 210.80123 287.29716 211.07378 286.83032 211.22852 286.34961 C 211.38264 285.86927 211.41948 285.37578 211.3418 284.86719 C 211.30274 284.6102 211.22983 284.35083 211.12109 284.08984 C 211.12089 284.08935 211.1213 284.08839 211.12109 284.08789 C 210.90356 283.5664 210.54463 283.03818 210.04883 282.50195 C 209.92782 282.37108 209.77235 282.23911 209.63477 282.10742 C 209.4905 281.96948 209.36365 281.83227 209.20117 281.69336 C 208.91089 281.44518 208.62908 281.22343 208.35352 281.0293 C 208.35273 281.02875 208.35234 281.02789 208.35156 281.02734 C 208.07613 280.83348 207.8095 280.66708 207.54883 280.52734 C 207.2888 280.38768 207.03446 280.27541 206.78906 280.18945 C 206.54307 280.10366 206.30366 280.04376 206.07227 280.01172 C 205.83937 279.97846 205.61278 279.97713 205.39258 280.00586 z M 190.98828 286.6543 L 193.88086 290.70703 L 196.09961 288.11523 L 196.09961 288.11328 L 197.27539 289.11719 L 194.79688 292.01758 L 197.38672 295.61914 L 199.67969 292.93555 L 199.68164 292.93555 L 200.85547 293.94141 L 198.30273 296.92969 L 201.19336 300.96875 L 200.23438 302.08984 L 200.23242 302.0918 L 197.33984 298.05078 L 195.33008 300.40234 L 198.22266 304.44141 L 198.22266 304.44336 L 197.26172 305.56641 L 194.36914 301.5293 L 193.59375 302.43555 L 192.15234 304.12109 L 192.15039 304.11914 L 190.97656 303.11719 L 190.97461 303.11719 L 193.45508 300.2168 L 190.86523 296.61523 L 188.57227 299.29883 L 187.39648 298.29297 L 189.95117 295.30664 L 189.95117 295.30469 L 187.05664 291.25 L 188.01562 290.125 L 188.01758 290.12695 L 190.91016 294.18359 L 192.91992 291.83203 L 190.02734 287.77539 L 190.98828 286.6543 z M 193.83984 293.10156 L 191.80078 295.48633 L 194.41016 299.13477 L 196.45117 296.74805 L 193.83984 293.10156 z "
       id="path99"
       transform="scale(0.26458333)" />
    <path
       sodipodi:nodetypes="sccccccccs"
       style="fill:#ff5555;stroke-width:0.23969692"
       d="m 116.65103,66.609219 -11.76832,-13.453344 3.03409,-3.919669 3.0341,-3.919668 17.53332,-0.0099 17.53333,-0.0099 2.93218,3.743566 c 1.6127,2.058961 2.94504,3.880858 2.96076,4.048658 0.0257,0.274223 -22.92691,26.753002 -23.32536,26.908812 -0.0911,0.03566 -5.46153,-5.989175 -11.9341,-13.388514 z"
       id="path3834"
       inkscape:connector-curvature="0" />
    <text
       xml:space="preserve"
       style="font-style:normal;font-weight:normal;font-size:10.58333302px;line-height:1.25;font-family:sans-serif;letter-spacing:0px;word-spacing:0px;fill:#000000;fill-opacity:1;stroke:none;stroke-width:0.26458332"
       x="107.70962"
       y="89.041946"
       id="text3842"><tspan
         sodipodi:role="line"
         id="tspan3840"
         x="107.70962"
         y="89.041946"
         style="stroke-width:0.26458332">#badgeHappy</tspan></text>
    <path
       style="font-style:normal;font-weight:normal;font-size:medium;line-height:1.25;font-family:sans-serif;letter-spacing:0px;word-spacing:0px;fill:#ff0000;fill-opacity:1;stroke:none;stroke-width:0.08380965"
       d="m 134.94743,106.50478 1.93595,1.65513 0.18721,-0.21898 -0.0519,-0.0702 c 0.0804,-0.0303 0.15497,-0.0671 0.22357,-0.11036 0.0694,-0.0426 0.13782,-0.10327 0.20519,-0.18207 0.0723,-0.0846 0.12246,-0.17599 0.15039,-0.27415 0.0271,-0.0989 0.0331,-0.20576 0.0179,-0.32067 -0.0155,-0.10947 -0.0559,-0.22009 -0.12115,-0.33186 -0.0645,-0.1126 -0.15486,-0.21854 -0.27099,-0.31782 -0.22976,-0.19643 -0.44845,-0.30085 -0.65608,-0.31325 -0.20692,-0.0132 -0.38058,0.0623 -0.52099,0.2265 -0.0787,0.0921 -0.13221,0.18991 -0.16049,0.29351 -0.0291,0.1029 -0.0447,0.21016 -0.0468,0.32178 l -0.69176,-0.59142 z m 3.43151,-4.01374 0.60219,0.51484 c -0.0855,0.0346 -0.15988,0.0737 -0.22303,0.11729 -0.064,0.0429 -0.12717,0.10089 -0.18958,0.17388 -0.0688,0.0805 -0.11885,0.17261 -0.15021,0.27645 -0.0307,0.10302 -0.0386,0.20968 -0.0237,0.31997 0.0158,0.11255 0.0551,0.22518 0.11815,0.3379 0.0637,0.1119 0.15444,0.21819 0.27223,0.31889 0.22644,0.19359 0.44501,0.29647 0.65572,0.30863 0.21141,0.0113 0.38803,-0.0659 0.52986,-0.23184 0.073,-0.0854 0.12459,-0.17847 0.15464,-0.27912 0.0301,-0.10065 0.0448,-0.20939 0.0442,-0.32621 l 0.14557,0.12445 0.19998,-0.23391 -1.93595,-1.65512 z m -4.51929,5.45486 0.41335,0.57952 -0.36485,0.42676 0.16797,0.1436 0.32762,-0.38321 0.36995,0.51442 -0.35421,0.41431 0.16796,0.1436 0.31699,-0.37076 0.41317,0.57721 0.13722,-0.1605 -0.41318,-0.57721 0.2872,-0.33594 0.41318,0.57722 0.13722,-0.1605 -0.41318,-0.57722 0.36485,-0.42675 -0.16796,-0.1436 -0.32762,0.38321 -0.36995,-0.51442 0.35421,-0.41431 -0.16797,-0.14361 -0.31698,0.37077 -0.41336,-0.57952 -0.13721,0.1605 0.41335,0.57952 -0.2872,0.33593 -0.41335,-0.57952 z m 7.86717,-9.201985 1.85259,1.583855 0.21061,-0.24635 -0.90701,-0.775435 0.79034,-0.92443 0.90701,0.77544 0.21061,-0.24635 -1.85259,-1.583856 -0.21061,0.246346 0.7266,0.62121 -0.79033,0.92443 -0.72661,-0.62121 z m -1.80314,2.968045 c -0.0652,0.0763 -0.11424,0.16721 -0.14701,0.27272 -0.0336,0.10479 -0.044,0.20932 -0.0312,0.31359 0.0134,0.11195 0.0491,0.22217 0.10712,0.33063 0.0579,0.10693 0.14657,0.21145 0.26601,0.31357 0.21815,0.1865 0.42884,0.28264 0.63208,0.28842 0.20312,0.004 0.3756,-0.0766 0.51742,-0.24247 0.0851,-0.0995 0.14126,-0.19294 0.16849,-0.28021 0.0271,-0.0888 0.0426,-0.19258 0.0465,-0.3113 l 0.12691,0.1085 c 0.0564,0.0482 0.1021,0.0981 0.13708,0.14949 0.035,0.0515 0.0562,0.10552 0.0638,0.1622 0.009,0.0581 9.6e-4,0.12144 -0.0246,0.19001 -0.0256,0.0686 -0.0724,0.14266 -0.14051,0.22229 -0.0709,0.0829 -0.15303,0.15632 -0.24634,0.22012 -0.0925,0.0645 -0.16249,0.10945 -0.21004,0.13484 l -0.0106,0.0124 0.23888,0.20424 c 0.0772,-0.0517 0.1506,-0.10815 0.22012,-0.16931 0.0711,-0.0613 0.13815,-0.12884 0.20126,-0.20266 0.19005,-0.22229 0.27566,-0.4341 0.25682,-0.63541 -0.0188,-0.20132 -0.14604,-0.40267 -0.38161,-0.60407 l -1.23174,-1.05307 -0.18721,0.21898 0.0469,0.066 c -0.0849,0.0322 -0.1587,0.0689 -0.22126,0.11018 -0.0627,0.0397 -0.12842,0.0998 -0.19721,0.18028 z m 1.40729,-1.64606 c -0.17303,0.20239 -0.24596,0.42288 -0.21879,0.66146 0.0279,0.23777 0.15546,0.4538 0.38273,0.6481 0.22976,0.19643 0.46257,0.28349 0.69845,0.26117 0.23504,-0.023 0.45113,-0.14983 0.64827,-0.38042 0.0773,-0.0904 0.13985,-0.18624 0.18766,-0.28751 0.0478,-0.10126 0.0888,-0.20547 0.123,-0.31264 l -0.25506,-0.21806 -0.0106,0.0124 c 0.002,0.0718 -0.0194,0.17219 -0.0635,0.30103 -0.0442,0.1273 -0.10676,0.23823 -0.1876,0.33278 -0.061,0.0713 -0.12696,0.12835 -0.19792,0.17106 -0.0703,0.0419 -0.14373,0.0674 -0.22042,0.0765 -0.0789,0.01 -0.16092,9.6e-4 -0.24594,-0.0272 -0.0858,-0.0289 -0.17149,-0.0799 -0.25693,-0.1529 l 0.87543,-1.02397 -0.1269,-0.10849 c -0.20156,-0.172315 -0.4007,-0.254275 -0.59741,-0.245855 -0.196,0.008 -0.37414,0.10511 -0.5344,0.292565 z m 4.34417,-5.081244 c -0.0752,0.08792 -0.12825,0.186115 -0.15924,0.294576 -0.0311,0.106923 -0.0471,0.213827 -0.0481,0.320713 l -0.14557,-0.124454 -0.19997,0.233906 1.90235,1.626407 0.19998,-0.233906 -0.58228,-0.497815 c 0.0849,-0.03219 0.16012,-0.07057 0.22552,-0.11516 0.0661,-0.04542 0.13001,-0.104208 0.1917,-0.17637 0.0709,-0.08295 0.12134,-0.175512 0.15128,-0.2777 0.0298,-0.103725 0.0374,-0.209198 0.0228,-0.316418 -0.0143,-0.114204 -0.0541,-0.227193 -0.11939,-0.338965 -0.0661,-0.112481 -0.15551,-0.216944 -0.26832,-0.313386 -0.22478,-0.192176 -0.44028,-0.295295 -0.64649,-0.309355 -0.20633,-0.0156 -0.38112,0.06038 -0.52436,0.227927 z m 1.35729,-1.58758 c -0.0752,0.08792 -0.12825,0.186115 -0.15924,0.294577 -0.0311,0.106923 -0.0471,0.213827 -0.0481,0.320712 l -0.14557,-0.124454 -0.19997,0.233907 1.90235,1.626407 0.19998,-0.233907 -0.58228,-0.497814 c 0.085,-0.03219 0.16012,-0.07057 0.22552,-0.11516 0.0661,-0.04542 0.13001,-0.104207 0.19171,-0.176371 0.0709,-0.08295 0.12133,-0.175512 0.15127,-0.277699 0.0298,-0.103725 0.0374,-0.209199 0.0229,-0.31642 -0.0143,-0.114203 -0.0541,-0.227191 -0.11939,-0.338964 -0.0661,-0.112481 -0.15551,-0.216942 -0.26832,-0.313385 -0.22478,-0.192177 -0.44028,-0.295296 -0.64649,-0.309355 -0.20633,-0.0156 -0.38111,0.06038 -0.52436,0.227926 z m -9.80877,11.483094 c -0.0716,0.0838 -0.13685,0.17518 -0.19567,0.27421 -0.0588,0.099 -0.10151,0.17667 -0.12807,0.23293 l 0.23764,0.20316 0.0106,-0.0125 c 0.0381,-0.10669 0.0815,-0.20452 0.1303,-0.29347 0.0479,-0.0897 0.0982,-0.16518 0.15063,-0.22657 0.0433,-0.0506 0.0881,-0.0963 0.13441,-0.13706 0.0463,-0.0408 0.0932,-0.0696 0.14068,-0.0865 0.0497,-0.0178 0.0998,-0.021 0.1502,-0.009 0.0511,0.0107 0.10326,0.0388 0.15634,0.0841 l 0.0361,0.0309 c -0.10966,0.14171 -0.20856,0.27754 -0.29669,0.4075 -0.0881,0.12996 -0.14971,0.25319 -0.18472,0.36971 -0.0343,0.11569 -0.0382,0.22435 -0.0117,0.32599 0.0264,0.1001 0.0923,0.19519 0.19762,0.28525 0.12857,0.10991 0.27155,0.15678 0.42896,0.1406 0.1574,-0.0162 0.28965,-0.0869 0.39673,-0.21214 0.0581,-0.068 0.10221,-0.13299 0.1322,-0.19493 0.0308,-0.0612 0.0534,-0.1195 0.0676,-0.1748 0.0134,-0.0459 0.0226,-0.097 0.0275,-0.15308 0.005,-0.0577 0.009,-0.10287 0.0126,-0.13566 l 0.14806,0.12658 0.19891,-0.23266 -0.94309,-0.80629 c -0.0896,-0.0766 -0.17635,-0.12708 -0.2603,-0.15148 -0.084,-0.0244 -0.16734,-0.0268 -0.25018,-0.007 -0.0844,0.0198 -0.16563,0.0594 -0.24379,0.11892 -0.0783,0.058 -0.15927,0.1359 -0.24295,0.23378 z m 6.96089,-8.141936 c -0.0716,0.08377 -0.13684,0.175177 -0.19566,0.274205 -0.0588,0.09903 -0.10151,0.17667 -0.12808,0.232927 l 0.23764,0.203168 0.0106,-0.01244 c 0.0381,-0.106696 0.0815,-0.20452 0.13031,-0.293475 0.0479,-0.08966 0.0982,-0.165185 0.15062,-0.226565 0.0433,-0.0506 0.0881,-0.09628 0.13441,-0.137059 0.0463,-0.04078 0.0932,-0.0696 0.14069,-0.08647 0.0497,-0.01782 0.0998,-0.02096 0.15019,-0.0094 0.0512,0.01071 0.10326,0.03875 0.15635,0.08414 l 0.0361,0.03085 c -0.10966,0.141705 -0.20856,0.277536 -0.2967,0.407495 -0.0881,0.129957 -0.1497,0.253195 -0.18471,0.369715 -0.0343,0.11568 -0.0382,0.22435 -0.0117,0.32599 0.0264,0.1001 0.0923,0.19518 0.19762,0.28524 0.12856,0.10992 0.27155,0.15679 0.42895,0.14061 0.15741,-0.0162 0.28965,-0.0869 0.39673,-0.21214 0.0582,-0.068 0.10222,-0.133 0.1322,-0.19494 0.0308,-0.0612 0.0533,-0.1195 0.0676,-0.17479 0.0134,-0.0459 0.0226,-0.097 0.0275,-0.15308 0.005,-0.05765 0.009,-0.102873 0.0126,-0.135665 l 0.14806,0.126585 0.19892,-0.232666 -0.9431,-0.806289 c -0.0896,-0.07659 -0.17635,-0.127079 -0.2603,-0.151473 -0.084,-0.0244 -0.16734,-0.02678 -0.25017,-0.0072 -0.0844,0.01975 -0.16564,0.0594 -0.2438,0.118912 -0.0783,0.05798 -0.15927,0.135907 -0.24294,0.233783 z m 3.51617,-4.04474 1.79592,0.577058 0.35853,0.754477 0.21381,-0.250081 -1.20882,-2.437615 -0.20955,0.245104 0.66214,1.311238 -1.39504,-0.453995 z m -6.18754,7.549726 c 0.10637,-0.12442 0.21903,-0.18819 0.33798,-0.1913 0.11966,-0.004 0.24123,0.0462 0.3647,0.15028 l -0.68077,0.79628 c -0.10098,-0.10356 -0.15682,-0.22381 -0.16753,-0.36075 -0.01,-0.13776 0.0385,-0.26927 0.14562,-0.39451 z m -1.34413,1.60744 c 0.0454,-0.0531 0.097,-0.10085 0.15482,-0.1433 0.0577,-0.044 0.12725,-0.085 0.20864,-0.12312 l 0.75771,0.64779 c -0.005,0.0948 -0.0236,0.188 -0.0559,0.27953 -0.0324,0.09 -0.0777,0.16901 -0.13588,0.23703 -0.1085,0.1269 -0.22638,0.18333 -0.35364,0.16929 -0.12726,-0.014 -0.26886,-0.0877 -0.4248,-0.22104 -0.16423,-0.14041 -0.25792,-0.2844 -0.28107,-0.43197 -0.0232,-0.14757 0.0202,-0.28564 0.13015,-0.41421 z m -1.35249,1.58953 c 0.0504,-0.0589 0.10219,-0.10861 0.15552,-0.14916 0.0533,-0.0405 0.12105,-0.0803 0.20314,-0.11921 l 0.79752,0.68183 c -0.004,0.0986 -0.02,0.19468 -0.0483,0.28822 -0.0291,0.0928 -0.072,0.17243 -0.12877,0.23879 -0.10637,0.12442 -0.22638,0.17831 -0.36004,0.16167 -0.13448,-0.0174 -0.28426,-0.0966 -0.44932,-0.2377 -0.16755,-0.14324 -0.26574,-0.29036 -0.29458,-0.44136 -0.0288,-0.151 0.0128,-0.29202 0.12481,-0.42308 z m -2.59631,3.05445 c 0.10425,-0.12193 0.2229,-0.17339 0.35597,-0.15438 0.13224,0.0183 0.2813,0.0984 0.44719,0.24019 0.18165,0.1553 0.28364,0.30638 0.30596,0.45324 0.0222,0.14533 -0.022,0.28269 -0.13264,0.41208 -0.0518,0.0606 -0.10402,0.10992 -0.15676,0.1481 -0.052,0.0374 -0.12135,0.0764 -0.20794,0.11727 l -0.79628,-0.68078 c 0.005,-0.0994 0.0222,-0.19639 0.0527,-0.29089 0.0297,-0.0952 0.0736,-0.17681 0.13179,-0.24483 z m 9.62655,-11.259859 c 0.1014,-0.118612 0.21804,-0.171078 0.34992,-0.157397 0.13188,0.01368 0.28159,0.09215 0.44914,0.23539 0.17253,0.1475 0.27155,0.295331 0.29707,0.443492 0.0255,0.148161 -0.0174,0.287353 -0.12873,0.417578 -0.0518,0.06055 -0.1036,0.110271 -0.15552,0.14916 -0.0512,0.03806 -0.1201,0.0775 -0.20669,0.118333 l -0.78757,-0.673327 c 0.006,-0.10263 0.0234,-0.200362 0.0525,-0.293198 0.0291,-0.09284 0.0724,-0.172846 0.12984,-0.240031 z m 1.35728,-1.58758 c 0.10141,-0.118613 0.21805,-0.171078 0.34993,-0.157397 0.13187,0.01368 0.28159,0.09214 0.44914,0.235391 0.17252,0.147501 0.27155,0.295331 0.29707,0.443491 0.0255,0.148161 -0.0174,0.287354 -0.12873,0.417579 -0.0518,0.06055 -0.10361,0.11027 -0.15552,0.14916 -0.0512,0.03806 -0.1201,0.0775 -0.20669,0.118331 l -0.78757,-0.673325 c 0.006,-0.10263 0.0234,-0.200363 0.0525,-0.293198 0.0291,-0.09284 0.0724,-0.172846 0.12984,-0.240032 z m -12.66668,14.903989 0.29146,-0.34091 0.3728,0.52116 -0.29145,0.34091 z m 3.69856,-3.44948 0.38694,0.33081 c -0.005,0.0964 -0.0202,0.19237 -0.046,0.28804 -0.0266,0.095 -0.075,0.18351 -0.14525,0.26562 -0.0844,0.0987 -0.16705,0.1551 -0.248,0.16916 -0.0818,0.0134 -0.16247,-0.014 -0.2421,-0.0821 -0.0705,-0.0603 -0.10793,-0.12817 -0.11229,-0.20368 -0.005,-0.0762 0.0114,-0.15608 0.0498,-0.23958 0.0325,-0.0699 0.0857,-0.15646 0.15964,-0.25977 0.0747,-0.10414 0.14043,-0.19365 0.19727,-0.26853 z m 6.96089,-8.141939 0.38694,0.330813 c -0.005,0.09636 -0.0202,0.192369 -0.046,0.288041 -0.0266,0.095 -0.0751,0.1835 -0.14525,0.26562 -0.0844,0.0987 -0.16705,0.15509 -0.248,0.16916 -0.0818,0.0134 -0.16247,-0.014 -0.2421,-0.0821 -0.0705,-0.0603 -0.10793,-0.12817 -0.11229,-0.20368 -0.005,-0.0762 0.0114,-0.15608 0.0498,-0.239577 0.0325,-0.06987 0.0857,-0.156468 0.15964,-0.259777 0.0747,-0.104138 0.14043,-0.193646 0.19727,-0.268525 z"
       id="path3874"
       inkscape:connector-curvature="0" />
    <path
       sodipodi:nodetypes="sccccccccs"
       style="fill:#000000;stroke-width:0.26458332"
       d="m 148.45024,32.727905 -12.99015,-14.850131 3.34911,-4.326626 3.3491,-4.3266266 19.35372,-0.01095 19.35371,-0.01095 3.23661,4.1322396 c 1.78014,2.272732 3.25081,4.283786 3.26816,4.469008 0.0284,0.302694 -25.30728,29.530618 -25.7471,29.702605 -0.10065,0.03936 -6.02857,-6.610998 -13.17316,-14.778569 z"
       id="path3882"
       inkscape:connector-curvature="0" />
    <path
       inkscape:connector-curvature="0"
       id="path3884"
       d="m 176.88951,44.639667 -4.57853,0.0026 0.14728,3.72277 h -9.27696 l -0.17053,-3.717602 -4.63796,0.0026 0.17053,3.715017 h -9.81593 l -0.16123,0.208256 -0.19276,0.249081 0.15762,2.654618 h 10.19679 l 0.46612,8.808249 h -6.84558 l 2.72232,3.111952 h 4.23488 l 0.21601,5.078243 c 1.79726,2.046849 3.41736,3.883634 4.83485,5.480804 l -0.44959,-10.559077 h 9.20357 l 0.40463,11.175548 c 1.32806,-1.511425 2.85906,-3.264202 4.4881,-5.135605 l -0.18087,-6.039943 h 5.41879 c 0.93056,-1.076722 1.82239,-2.108816 2.68563,-3.111952 h -8.28942 l -0.39222,-8.808249 h 9.60819 l -0.1111,-3.111955 h -9.6821 z m -13.486,6.83731 h 9.27696 l 0.35501,8.808249 h -9.35033 z"
       style="font-style:normal;font-variant:normal;font-weight:normal;font-stretch:normal;font-size:medium;line-height:1.25;font-family:'Nirmala UI';-inkscape-font-specification:'Nirmala UI';letter-spacing:0px;word-spacing:0px;fill:#000000;fill-opacity:1;stroke:none;stroke-width:1.68324411" />
    <circle
       style="fill:#501616;stroke-width:0.99999994"
       id="path4715"
       cx="50.000069"
       cy="87.446709"
       r="1.984375" />
    <path
       style="fill:#501616;stroke-width:0.99999994"
       d="M 49.085938 41.501953 L 49.085938 41.53125 A 7.4999995 7.4999995 0 0 0 43.470703 44.804688 L -6.3554688 110.19336 L -6.3457031 110.20117 A 7.4999999 7.4999999 0 0 0 -7.640625 114.41016 A 7.4999999 7.4999999 0 0 0 -6.2480469 118.75391 L -6.2617188 118.76758 L -6.0742188 118.98047 A 7.4999999 7.4999999 0 0 0 -5.3828125 119.77148 A 7.4999999 7.4999999 0 0 0 -5.3652344 119.79102 L 183.66992 335.85742 L 189.80859 329.61133 L 5.671875 119.14453 A 7.4999999 7.4999999 0 0 0 7.359375 114.41016 A 7.4999999 7.4999999 0 0 0 6.8085938 111.60156 L 48.833984 56.449219 A 7.4999995 7.4999995 0 0 0 49.580078 56.496094 A 7.4999995 7.4999995 0 0 0 49.59375 56.498047 A 7.4999995 7.4999995 0 0 0 49.609375 56.498047 A 7.4999995 7.4999995 0 0 0 49.681641 56.501953 A 7.4999995 7.4999995 0 0 0 49.710938 56.5 A 7.4999995 7.4999995 0 0 0 49.773438 56.501953 A 7.4999995 7.4999995 0 0 0 56.410156 52.484375 L 322.93164 52.484375 A 7.4999995 7.4999995 0 0 0 329.56836 56.501953 A 7.4999995 7.4999995 0 0 0 329.63086 56.5 A 7.4999995 7.4999995 0 0 0 329.66016 56.501953 A 7.4999995 7.4999995 0 0 0 329.73242 56.498047 A 7.4999995 7.4999995 0 0 0 329.74805 56.498047 A 7.4999995 7.4999995 0 0 0 329.76172 56.496094 A 7.4999995 7.4999995 0 0 0 330.50781 56.449219 L 372.53125 111.60156 A 7.4999999 7.4999999 0 0 0 371.98047 114.41016 A 7.4999999 7.4999999 0 0 0 379.48047 121.91016 A 7.4999999 7.4999999 0 0 0 386.98047 114.41016 A 7.4999999 7.4999999 0 0 0 385.68555 110.20117 L 385.69727 110.19336 L 335.87109 44.804688 A 7.4999995 7.4999995 0 0 0 330.25586 41.53125 L 330.25586 41.501953 L 329.78906 41.501953 L 329.66016 41.501953 L 329.56836 41.501953 L 49.773438 41.501953 L 49.681641 41.501953 L 49.552734 41.501953 L 49.085938 41.501953 z "
       transform="scale(0.26458333)"
       id="circle4717" />
    <path
       id="path4739"
       d="M 49.085938 41.501953 L 49.085938 41.53125 A 7.4999995 7.4999995 0 0 0 43.470703 44.804688 L -6.3554688 110.19336 L -6.3457031 110.20117 A 7.4999999 7.4999999 0 0 0 -7.640625 114.41016 A 7.4999999 7.4999999 0 0 0 -6.2480469 118.75391 L -6.2617188 118.76758 L -6.0742188 118.98047 A 7.4999999 7.4999999 0 0 0 -5.3828125 119.77148 A 7.4999999 7.4999999 0 0 0 -5.3652344 119.79102 L 183.66992 335.85742 L 189.80859 329.61133 L 5.671875 119.14453 A 7.4999999 7.4999999 0 0 0 7.359375 114.41016 A 7.4999999 7.4999999 0 0 0 6.8085938 111.60156 L 48.833984 56.449219 A 7.4999995 7.4999995 0 0 0 49.580078 56.496094 A 7.4999995 7.4999995 0 0 0 49.59375 56.498047 A 7.4999995 7.4999995 0 0 0 49.609375 56.498047 A 7.4999995 7.4999995 0 0 0 49.681641 56.501953 A 7.4999995 7.4999995 0 0 0 49.710938 56.5 A 7.4999995 7.4999995 0 0 0 49.773438 56.501953 A 7.4999995 7.4999995 0 0 0 56.410156 52.484375 L 322.93164 52.484375 A 7.4999995 7.4999995 0 0 0 329.56836 56.501953 A 7.4999995 7.4999995 0 0 0 329.63086 56.5 A 7.4999995 7.4999995 0 0 0 329.66016 56.501953 A 7.4999995 7.4999995 0 0 0 329.73242 56.498047 A 7.4999995 7.4999995 0 0 0 329.74805 56.498047 A 7.4999995 7.4999995 0 0 0 329.76172 56.496094 A 7.4999995 7.4999995 0 0 0 330.50781 56.449219 L 372.53125 111.60156 A 7.4999999 7.4999999 0 0 0 371.98047 114.41016 A 7.4999999 7.4999999 0 0 0 379.48047 121.91016 A 7.4999999 7.4999999 0 0 0 386.98047 114.41016 A 7.4999999 7.4999999 0 0 0 385.68555 110.20117 L 385.69727 110.19336 L 335.87109 44.804688 A 7.4999995 7.4999995 0 0 0 330.25586 41.53125 L 330.25586 41.501953 L 329.78906 41.501953 L 329.66016 41.501953 L 329.56836 41.501953 L 49.773438 41.501953 L 49.681641 41.501953 L 49.552734 41.501953 L 49.085938 41.501953 z "
       style="fill:#501616;stroke-width:0.99999994"
       transform="scale(0.26458333)" />
  </g>
</svg>
