<?xml version="1.0" encoding="UTF-8" standalone="no"?>
<!-- Created with Inkscape (http://www.inkscape.org/) -->

<svg
   xmlns:dc="http://purl.org/dc/elements/1.1/"
   xmlns:cc="http://creativecommons.org/ns#"
   xmlns:rdf="http://www.w3.org/1999/02/22-rdf-syntax-ns#"
   xmlns:svg="http://www.w3.org/2000/svg"
   xmlns="http://www.w3.org/2000/svg"
   xmlns:sodipodi="http://sodipodi.sourceforge.net/DTD/sodipodi-0.dtd"
   xmlns:inkscape="http://www.inkscape.org/namespaces/inkscape"
   width="100.0mm"
   height="100.0mm"
   viewBox="0 0 100.000000 100.000000"
   id="svg2"
   version="1.1"
   inkscape:version="0.92.3 (2405546, 2018-03-11)"
   sodipodi:docname="superhashtagpcb.svg">
  <sodipodi:namedview
     id="base"
     pagecolor="#ffffff"
     bordercolor="#666666"
     borderopacity="1.0"
     inkscape:pageopacity="0.0"
     inkscape:pageshadow="2"
     inkscape:zoom="5.6568543"
     inkscape:cx="239.67867"
     inkscape:cy="201.52754"
     inkscape:document-units="mm"
     inkscape:current-layer="g8169"
     showgrid="false"
     inkscape:window-width="1408"
     inkscape:window-height="859"
     inkscape:window-x="697"
     inkscape:window-y="184"
     inkscape:window-maximized="0"
     inkscape:measure-start="0,0"
     inkscape:measure-end="0,0"
     inkscape:snap-others="false"
     inkscape:snap-nodes="false"
     inkscape:snap-global="false" />
  <defs
     id="defs4" />
  <metadata
     id="metadata7">
    <rdf:RDF>
      <cc:Work
         rdf:about="">
        <dc:format>image/svg+xml</dc:format>
        <dc:type
           rdf:resource="http://purl.org/dc/dcmitype/StillImage" />
        <dc:title />
      </cc:Work>
    </rdf:RDF>
  </metadata>
  <g
     inkscape:label="Layer 1"
     inkscape:groupmode="layer"
     id="layer1" />
  <g
     inkscape:label="[fixed] BG"
     inkscape:groupmode="layer"
     sodipodi:insensitive="true"
     id="g8151">
    <rect
       x="0"
       y="0"
       width="100.0"
       height="100.0"
       style="stroke:none;fill-opacity:1;fill:#FFFFFF"
       id="rect8153" />
  </g>
  <g
     inkscape:label="Edge.Cuts"
     inkscape:groupmode="layer"
     id="g8155"
     style="display:inline"
     sodipodi:insensitive="true" />
  <g
     inkscape:label="B.Cu-disabled"
     inkscape:groupmode="layer"
     id="g8159"
     sodipodi:insensitive="true" />
  <g
     inkscape:label="B.Mask-disabled"
     inkscape:groupmode="layer"
     id="g8161"
     sodipodi:insensitive="true" />
  <g
     inkscape:label="B.Silk-disabled"
     inkscape:groupmode="layer"
     id="g8163"
     sodipodi:insensitive="true" />
  <g
     inkscape:label="F.Cu"
     inkscape:groupmode="layer"
     id="g8165"
     style="display:inline"
     sodipodi:insensitive="true" />
  <g
     inkscape:label="F.Mask"
     inkscape:groupmode="layer"
     id="g8167"
     style="display:inline"
     sodipodi:insensitive="true" />
  <g
     inkscape:label="Drill"
     inkscape:groupmode="layer"
     id="g8157"
     sodipodi:insensitive="true" />
  <g
     inkscape:label="F.Silk"
     inkscape:groupmode="layer"
     id="g8169">
    <path
       style="fill:#800000;stroke-width:0.99999994"
       d="M 108.84375 138.97266 L 108.84375 138.98828 A 1.2626906 1.2311234 0 0 0 107.83789 139.83984 L 82.351562 172.96875 A 1.2626906 1.2311234 0 0 0 82.279297 173.05273 A 1.2626906 1.2311234 0 0 0 82.261719 173.07422 A 1.2626906 1.2311234 0 0 0 82.199219 173.16406 A 1.2626906 1.2311234 0 0 0 82.142578 173.26562 A 1.2626906 1.2311234 0 0 0 82.132812 173.2832 A 1.2626906 1.2311234 0 0 0 82.101562 173.35352 A 1.2626906 1.2311234 0 0 0 82.076172 173.42188 A 1.2626906 1.2311234 0 0 0 82.0625 173.46875 A 1.2626906 1.2311234 0 0 0 82.042969 173.53906 A 1.2626906 1.2311234 0 0 0 82.033203 173.58594 A 1.2626906 1.2311234 0 0 0 82.023438 173.65234 A 1.2626906 1.2311234 0 0 0 82.015625 173.72656 A 1.2626906 1.2311234 0 0 0 82.011719 173.80664 A 1.2626906 1.2311234 0 0 0 82.015625 173.90234 A 1.2626906 1.2311234 0 0 0 82.023438 173.9668 A 1.2626906 1.2311234 0 0 0 82.037109 174.04883 A 1.2626906 1.2311234 0 0 0 82.039062 174.0625 A 1.2626906 1.2311234 0 0 0 82.066406 174.16016 A 1.2626906 1.2311234 0 0 0 82.076172 174.18945 A 1.2626906 1.2311234 0 0 0 82.107422 174.27734 A 1.2626906 1.2311234 0 0 0 82.132812 174.33008 A 1.2626906 1.2311234 0 0 0 82.158203 174.37891 A 1.2626906 1.2311234 0 0 0 82.185547 174.42578 A 1.2626906 1.2311234 0 0 0 82.230469 174.49805 A 1.2626906 1.2311234 0 0 0 82.236328 174.50781 A 1.2626906 1.2311234 0 0 0 82.308594 174.59961 A 1.2626906 1.2311234 0 0 0 82.392578 174.6875 A 1.2626906 1.2311234 0 0 0 82.400391 174.69336 A 1.2626906 1.2311234 0 0 0 82.478516 174.76172 A 1.2626906 1.2311234 0 0 0 82.535156 174.80273 A 1.2626906 1.2311234 0 0 0 82.572266 174.83008 A 1.2626906 1.2311234 0 0 0 82.628906 174.86328 L 182.48828 287.7832 L 182.49219 287.7793 A 1.2626906 1.2311234 0 0 0 182.55273 287.85547 A 1.2626906 1.2311234 0 0 0 182.63477 287.94727 A 1.2626906 1.2311234 0 0 0 182.72852 288.03125 A 1.2626906 1.2311234 0 0 0 182.82812 288.10547 A 1.2626906 1.2311234 0 0 0 182.93555 288.16992 A 1.2626906 1.2311234 0 0 0 183.03516 288.2168 A 1.2626906 1.2311234 0 0 0 183.05664 288.22656 A 1.2626906 1.2311234 0 0 0 183.14453 288.25781 A 1.2626906 1.2311234 0 0 0 183.17578 288.26758 A 1.2626906 1.2311234 0 0 0 183.23633 288.2832 A 1.2626906 1.2311234 0 0 0 183.3125 288.30078 A 1.2626906 1.2311234 0 0 0 183.31641 288.30078 A 1.2626906 1.2311234 0 0 0 183.33789 288.30273 A 1.2626906 1.2311234 0 0 0 183.43164 288.31445 A 1.2626906 1.2311234 0 0 0 183.44141 288.31641 A 1.2626906 1.2311234 0 0 0 183.54102 288.32031 A 1.2626906 1.2311234 0 0 0 183.66211 288.31445 A 1.2626906 1.2311234 0 0 0 183.69336 288.31055 A 1.2626906 1.2311234 0 0 0 183.7832 288.29688 A 1.2626906 1.2311234 0 0 0 183.78516 288.29688 A 1.2626906 1.2311234 0 0 0 183.79688 288.29297 A 1.2626906 1.2311234 0 0 0 183.90039 288.26758 A 1.2626906 1.2311234 0 0 0 183.92383 288.25977 A 1.2626906 1.2311234 0 0 0 184.02734 288.22266 A 1.2626906 1.2311234 0 0 0 184.14062 288.16992 A 1.2626906 1.2311234 0 0 0 184.34961 288.03125 A 1.2626906 1.2311234 0 0 0 184.52539 287.85547 A 1.2626906 1.2311234 0 0 0 184.58398 287.7793 L 184.58789 287.7832 L 284.44727 174.86328 A 1.2626906 1.2311234 0 0 0 284.50391 174.83008 A 1.2626906 1.2311234 0 0 0 284.54102 174.80273 A 1.2626906 1.2311234 0 0 0 284.59766 174.76172 A 1.2626906 1.2311234 0 0 0 284.67578 174.69336 A 1.2626906 1.2311234 0 0 0 284.68359 174.6875 A 1.2626906 1.2311234 0 0 0 284.76758 174.59961 A 1.2626906 1.2311234 0 0 0 284.83984 174.50781 A 1.2626906 1.2311234 0 0 0 284.8457 174.49805 A 1.2626906 1.2311234 0 0 0 284.89062 174.42578 A 1.2626906 1.2311234 0 0 0 284.91797 174.37891 A 1.2626906 1.2311234 0 0 0 284.94336 174.33008 A 1.2626906 1.2311234 0 0 0 284.96875 174.27734 A 1.2626906 1.2311234 0 0 0 285 174.18945 A 1.2626906 1.2311234 0 0 0 285.00977 174.16016 A 1.2626906 1.2311234 0 0 0 285.03711 174.0625 A 1.2626906 1.2311234 0 0 0 285.03906 174.04883 A 1.2626906 1.2311234 0 0 0 285.05273 173.9668 A 1.2626906 1.2311234 0 0 0 285.06055 173.90234 A 1.2626906 1.2311234 0 0 0 285.06445 173.80664 A 1.2626906 1.2311234 0 0 0 285.06055 173.72656 A 1.2626906 1.2311234 0 0 0 285.05273 173.65234 A 1.2626906 1.2311234 0 0 0 285.04297 173.58594 A 1.2626906 1.2311234 0 0 0 285.0332 173.53906 A 1.2626906 1.2311234 0 0 0 285.01367 173.46875 A 1.2626906 1.2311234 0 0 0 285 173.42188 A 1.2626906 1.2311234 0 0 0 284.97461 173.35352 A 1.2626906 1.2311234 0 0 0 284.94336 173.2832 A 1.2626906 1.2311234 0 0 0 284.93359 173.26562 A 1.2626906 1.2311234 0 0 0 284.87695 173.16406 A 1.2626906 1.2311234 0 0 0 284.81445 173.07422 A 1.2626906 1.2311234 0 0 0 284.79688 173.05273 A 1.2626906 1.2311234 0 0 0 284.72461 172.96875 L 259.23828 139.83984 A 1.2626906 1.2311234 0 0 0 258.23242 138.98828 L 258.23242 138.97266 L 258.03125 138.97266 L 256.48242 138.97266 L 256.28125 138.97266 L 198.75 138.97266 L 197 138.97266 L 170.07617 138.97266 L 168.32617 138.97266 L 110.59375 138.97266 L 109.04492 138.97266 L 108.84375 138.97266 z M 108.84375 143.43359 L 108.84375 143.51758 L 110.59375 143.51758 L 168.32617 143.51758 L 170.07617 143.51758 L 197 143.51758 L 198.75 143.51758 L 256.48242 143.51758 L 258.23242 143.51758 L 258.23242 143.43359 L 281.03711 173.07422 A 1.2626906 1.2311234 0 0 0 281 173.12695 A 1.2626906 1.2311234 0 0 0 280.9668 173.17969 A 1.2626906 1.2311234 0 0 0 280.93359 173.23828 A 1.2626906 1.2311234 0 0 0 280.91602 173.27148 A 1.2626906 1.2311234 0 0 0 280.87891 173.35352 A 1.2626906 1.2311234 0 0 0 280.8457 173.44336 A 1.2626906 1.2311234 0 0 0 280.84375 173.44922 A 1.2626906 1.2311234 0 0 0 280.81836 173.54688 A 1.2626906 1.2311234 0 0 0 280.81445 173.5625 A 1.2626906 1.2311234 0 0 0 280.8125 173.57031 A 1.2626906 1.2311234 0 0 0 280.80273 173.63672 A 1.2626906 1.2311234 0 0 0 280.79297 173.71875 A 1.2626906 1.2311234 0 0 0 280.78906 173.80664 A 1.2626906 1.2311234 0 0 0 280.79297 173.89844 A 1.2626906 1.2311234 0 0 0 280.80078 173.9707 A 1.2626906 1.2311234 0 0 0 280.81445 174.04883 A 1.2626906 1.2311234 0 0 0 280.81445 174.05078 A 1.2626906 1.2311234 0 0 0 280.81445 174.05469 A 1.2626906 1.2311234 0 0 0 280.8457 174.16992 A 1.2626906 1.2311234 0 0 0 280.88281 174.27148 A 1.2626906 1.2311234 0 0 0 280.90625 174.32031 A 1.2626906 1.2311234 0 0 0 280.93945 174.38867 A 1.2626906 1.2311234 0 0 0 280.94336 174.39648 A 1.2626906 1.2311234 0 0 0 280.95117 174.4082 A 1.2626906 1.2311234 0 0 0 281.00781 174.49805 A 1.2626906 1.2311234 0 0 0 281.00977 174.50195 A 1.2626906 1.2311234 0 0 0 281.01758 174.51172 A 1.2626906 1.2311234 0 0 0 281.07812 174.5918 A 1.2626906 1.2311234 0 0 0 281.08594 174.59961 A 1.2626906 1.2311234 0 0 0 281.10156 174.61523 A 1.2626906 1.2311234 0 0 0 281.16602 174.68359 A 1.2626906 1.2311234 0 0 0 281.17188 174.68945 A 1.2626906 1.2311234 0 0 0 281.21484 174.72656 A 1.2626906 1.2311234 0 0 0 281.24219 174.75195 A 1.2626906 1.2311234 0 0 0 281.30273 174.79883 A 1.2626906 1.2311234 0 0 0 281.36133 174.83789 A 1.2626906 1.2311234 0 0 0 281.38672 174.85352 A 1.2626906 1.2311234 0 0 0 281.47656 174.90234 A 1.2626906 1.2311234 0 0 0 281.47852 174.9043 A 1.2626906 1.2311234 0 0 0 281.48438 174.9082 A 1.2626906 1.2311234 0 0 0 281.58203 174.94922 A 1.2626906 1.2311234 0 0 0 281.625 174.96484 A 1.2626906 1.2311234 0 0 0 281.69727 174.98828 A 1.2626906 1.2311234 0 0 0 281.80078 175.01367 A 1.2626906 1.2311234 0 0 0 281.88086 175.02734 A 1.2626906 1.2311234 0 0 0 281.95703 175.03516 A 1.2626906 1.2311234 0 0 0 282.05078 175.03906 A 1.2626906 1.2311234 0 0 0 282.14258 175.03516 A 1.2626906 1.2311234 0 0 0 282.14844 175.03516 A 1.2626906 1.2311234 0 0 0 282.23438 175.02539 A 1.2626906 1.2311234 0 0 0 282.26758 175.02148 A 1.2626906 1.2311234 0 0 0 282.28125 175.01758 A 1.2626906 1.2311234 0 0 0 282.34766 175.00391 A 1.2626906 1.2311234 0 0 0 282.4082 174.98828 A 1.2626906 1.2311234 0 0 0 282.45703 174.97266 A 1.2626906 1.2311234 0 0 0 282.53125 174.94531 A 1.2626906 1.2311234 0 0 0 282.54297 174.94141 A 1.2626906 1.2311234 0 0 0 282.61328 174.9082 L 184.28516 286.0957 A 1.2626906 1.2311234 0 0 0 184.22266 286.05469 A 1.2626906 1.2311234 0 0 0 184.20898 286.04688 A 1.2626906 1.2311234 0 0 0 184.11523 285.99414 A 1.2626906 1.2311234 0 0 0 184.10742 285.99023 A 1.2626906 1.2311234 0 0 0 184.0957 285.98633 A 1.2626906 1.2311234 0 0 0 183.99219 285.94141 A 1.2626906 1.2311234 0 0 0 183.88867 285.9082 A 1.2626906 1.2311234 0 0 0 183.87305 285.90234 A 1.2626906 1.2311234 0 0 0 183.8418 285.89453 A 1.2626906 1.2311234 0 0 0 183.77148 285.87891 A 1.2626906 1.2311234 0 0 0 183.69336 285.86914 A 1.2626906 1.2311234 0 0 0 183.66797 285.86523 A 1.2626906 1.2311234 0 0 0 183.65234 285.86328 A 1.2626906 1.2311234 0 0 0 183.55469 285.85742 A 1.2626906 1.2311234 0 0 0 183.53516 285.85742 A 1.2626906 1.2311234 0 0 0 183.45117 285.86133 A 1.2626906 1.2311234 0 0 0 183.35352 285.87305 A 1.2626906 1.2311234 0 0 0 183.30469 285.87891 A 1.2626906 1.2311234 0 0 0 183.24414 285.89258 A 1.2626906 1.2311234 0 0 0 183.18555 285.9082 A 1.2626906 1.2311234 0 0 0 183.08398 285.94141 A 1.2626906 1.2311234 0 0 0 182.96875 285.99219 A 1.2626906 1.2311234 0 0 0 182.85938 286.05273 A 1.2626906 1.2311234 0 0 0 182.79102 286.0957 L 84.462891 174.9082 A 1.2626906 1.2311234 0 0 0 84.533203 174.94141 A 1.2626906 1.2311234 0 0 0 84.544922 174.94531 A 1.2626906 1.2311234 0 0 0 84.619141 174.97266 A 1.2626906 1.2311234 0 0 0 84.667969 174.98828 A 1.2626906 1.2311234 0 0 0 84.728516 175.00391 A 1.2626906 1.2311234 0 0 0 84.794922 175.01758 A 1.2626906 1.2311234 0 0 0 84.808594 175.02148 A 1.2626906 1.2311234 0 0 0 84.841797 175.02539 A 1.2626906 1.2311234 0 0 0 84.927734 175.03516 A 1.2626906 1.2311234 0 0 0 84.933594 175.03516 A 1.2626906 1.2311234 0 0 0 85.025391 175.03906 A 1.2626906 1.2311234 0 0 0 85.119141 175.03516 A 1.2626906 1.2311234 0 0 0 85.195312 175.02734 A 1.2626906 1.2311234 0 0 0 85.275391 175.01367 A 1.2626906 1.2311234 0 0 0 85.378906 174.98828 A 1.2626906 1.2311234 0 0 0 85.451172 174.96484 A 1.2626906 1.2311234 0 0 0 85.494141 174.94922 A 1.2626906 1.2311234 0 0 0 85.591797 174.9082 A 1.2626906 1.2311234 0 0 0 85.597656 174.9043 A 1.2626906 1.2311234 0 0 1 85.599609 174.90234 A 1.2626906 1.2311234 0 0 0 85.689453 174.85352 A 1.2626906 1.2311234 0 0 0 85.714844 174.83789 A 1.2626906 1.2311234 0 0 0 85.773438 174.79883 A 1.2626906 1.2311234 0 0 0 85.833984 174.75195 A 1.2626906 1.2311234 0 0 0 85.861328 174.72656 A 1.2626906 1.2311234 0 0 0 85.904297 174.68945 A 1.2626906 1.2311234 0 0 0 85.910156 174.68359 A 1.2626906 1.2311234 0 0 0 85.974609 174.61523 A 1.2626906 1.2311234 0 0 0 85.990234 174.59961 A 1.2626906 1.2311234 0 0 0 85.998047 174.5918 A 1.2626906 1.2311234 0 0 0 86.058594 174.51172 A 1.2626906 1.2311234 0 0 0 86.066406 174.50195 A 1.2626906 1.2311234 0 0 0 86.068359 174.49805 A 1.2626906 1.2311234 0 0 0 86.125 174.4082 A 1.2626906 1.2311234 0 0 0 86.132812 174.39648 A 1.2626906 1.2311234 0 0 0 86.136719 174.38867 A 1.2626906 1.2311234 0 0 0 86.169922 174.32031 A 1.2626906 1.2311234 0 0 0 86.193359 174.27148 A 1.2626906 1.2311234 0 0 0 86.230469 174.16992 A 1.2626906 1.2311234 0 0 0 86.261719 174.05469 A 1.2626906 1.2311234 0 0 0 86.261719 174.05078 A 1.2626906 1.2311234 0 0 1 86.261719 174.04883 A 1.2626906 1.2311234 0 0 0 86.275391 173.9707 A 1.2626906 1.2311234 0 0 0 86.283203 173.89844 A 1.2626906 1.2311234 0 0 0 86.287109 173.80664 A 1.2626906 1.2311234 0 0 0 86.283203 173.71875 A 1.2626906 1.2311234 0 0 0 86.273438 173.63672 A 1.2626906 1.2311234 0 0 0 86.263672 173.57031 A 1.2626906 1.2311234 0 0 0 86.261719 173.5625 A 1.2626906 1.2311234 0 0 0 86.257812 173.54688 A 1.2626906 1.2311234 0 0 0 86.232422 173.44922 A 1.2626906 1.2311234 0 0 0 86.230469 173.44336 A 1.2626906 1.2311234 0 0 0 86.197266 173.35352 A 1.2626906 1.2311234 0 0 0 86.160156 173.27148 A 1.2626906 1.2311234 0 0 0 86.142578 173.23828 A 1.2626906 1.2311234 0 0 0 86.109375 173.17969 A 1.2626906 1.2311234 0 0 0 86.076172 173.12695 A 1.2626906 1.2311234 0 0 0 86.039062 173.07422 L 108.84375 143.43359 z "
       transform="scale(0.26458333)"
       id="path59" />
    <path
       inkscape:connector-curvature="0"
       id="path99"
       d="m 35.368208,60.854706 -12.990152,-14.850131 3.349104,-4.326626 3.349105,-4.326627 19.353717,-0.01095 19.353715,-0.01095 3.23661,4.13224 c 1.78014,2.272732 3.25081,4.283786 3.26816,4.469008 0.0284,0.302694 -25.307281,29.530618 -25.747106,29.702605 -0.10065,0.03936 -6.02857,-6.610998 -13.173153,-14.778569 z"
       style="fill:#000000;stroke-width:0.26458332"
       sodipodi:nodetypes="sccccccccs" />
    <path
       sodipodi:nodetypes="sccccccccs"
       style="fill:#ffffff;stroke-width:0.21381414"
       d="M 36.26849,58.427948 25.770934,46.427313 28.4774,42.930895 l 2.706467,-3.496418 15.640057,-0.0088 15.640056,-0.0088 2.615558,3.339331 c 1.438561,1.836632 2.627033,3.461798 2.641054,3.611479 0.02295,0.244612 -20.451231,23.864179 -20.80666,24.003164 -0.08134,0.03181 -4.871787,-5.342456 -10.645442,-11.942805 z"
       id="path101"
       inkscape:connector-curvature="0" />
    <path
       style="font-style:normal;font-variant:normal;font-weight:normal;font-stretch:normal;font-size:medium;line-height:1.25;font-family:'Nirmala UI';-inkscape-font-specification:'Nirmala UI';letter-spacing:0px;word-spacing:0px;fill:#000000;fill-opacity:1;stroke:none;stroke-width:1.68324411"
       d="m 57.638026,38.40306 -4.578533,0.0026 0.147278,3.72277 h -9.276953 l -0.170532,-3.717602 -4.637961,0.0026 0.170532,3.715017 h -9.815938 l -0.161229,0.208256 -0.192754,0.249081 0.157614,2.654618 h 10.196793 l 0.466122,8.808249 h -6.845578 l 2.722314,3.111952 h 4.234884 l 0.216008,5.078243 c 1.797257,2.046849 3.417359,3.883634 4.834848,5.480804 L 44.655356,57.160571 h 9.20357 l 0.404628,11.175548 c 1.328057,-1.511425 2.859058,-3.264202 4.488098,-5.135605 l -0.180867,-6.039943 h 5.418791 c 0.930561,-1.076722 1.822389,-2.108816 2.685624,-3.111952 H 58.385783 L 57.99356,45.24037 h 9.608198 l -0.111104,-3.111955 h -9.682096 z m -13.486,6.83731 h 9.276953 l 0.355017,8.808249 h -9.350332 z"
       id="path3831"
       inkscape:connector-curvature="0" />
    <path
       sodipodi:nodetypes="sccccccccs"
       style="fill:#ff5555;stroke-width:0.23969692"
       d="m 123.80049,59.593394 -11.76832,-13.453344 3.03409,-3.919669 3.0341,-3.919668 17.53332,-0.0099 17.53333,-0.0099 2.93218,3.743566 c 1.6127,2.058961 2.94504,3.880858 2.96076,4.048658 0.0257,0.274223 -22.92691,26.753002 -23.32536,26.908812 -0.0911,0.03566 -5.46153,-5.989175 -11.9341,-13.388514 z"
       id="path3834"
       inkscape:connector-curvature="0" />
    <text
       xml:space="preserve"
       style="font-style:normal;font-weight:normal;font-size:10.58333302px;line-height:1.25;font-family:sans-serif;letter-spacing:0px;word-spacing:0px;fill:#000000;fill-opacity:1;stroke:none;stroke-width:0.26458332"
       x="107.70962"
       y="89.041946"
       id="text3842"><tspan
         sodipodi:role="line"
         id="tspan3840"
         x="107.70962"
         y="89.041946"
         style="stroke-width:0.26458332">#badgeHappy</tspan></text>
    <text
       id="text3846"
       y="91.981911"
       x="29.666916"
       style="font-style:normal;font-weight:normal;font-size:10.58333302px;line-height:1.25;font-family:sans-serif;letter-spacing:0px;word-spacing:0px;fill:#000000;fill-opacity:1;stroke:none;stroke-width:0.26458332"
       xml:space="preserve"><tspan
         style="stroke-width:0.26458332"
         y="91.981911"
         x="29.666916"
         id="tspan3844"
         sodipodi:role="line">#badgeHappy</tspan></text>
  </g>
</svg>
