M48
;DRILL file {KiCad (5.0.0)} date 05/26/19 16:40:13
;FORMAT={-:-/ absolute / inch / decimal}
FMAT,2
INCH,TZ
T1C0.0157
T2C0.0273
T3C0.0400
T4C0.1457
%
G90
G05
M72
T1
X5.475Y-4.925
X5.475Y-5.125
X5.5215Y-4.5179
X5.575Y-4.575
X5.6096Y-4.925
X5.65Y-5.05
X5.675Y-4.85
X5.75Y-5.025
X5.85Y-4.95
X6.125Y-5.0508
T2
X6.8495Y-2.3404
T3
X5.6524Y-4.6258
X5.6524Y-4.7258
X5.7524Y-4.6258
X5.7524Y-4.7258
X5.8524Y-4.6258
X5.8524Y-4.7258
T4
X6.028Y-3.735
X6.914Y-5.167
X4.595Y-5.167
X4.595Y-2.853
X5.478Y-3.735
X6.028Y-4.287
X6.914Y-2.853
X5.478Y-4.287
T0
M30
