G04 #@! TF.GenerationSoftware,KiCad,Pcbnew,(5.0.0)*
G04 #@! TF.CreationDate,2019-05-25T20:32:28-06:00*
G04 #@! TF.ProjectId,04-H+H_sao,30342D482B485F73616F2E6B69636164,rev?*
G04 #@! TF.SameCoordinates,Original*
G04 #@! TF.FileFunction,Soldermask,Top*
G04 #@! TF.FilePolarity,Negative*
%FSLAX46Y46*%
G04 Gerber Fmt 4.6, Leading zero omitted, Abs format (unit mm)*
G04 Created by KiCad (PCBNEW (5.0.0)) date 05/25/19 20:32:28*
%MOMM*%
%LPD*%
G01*
G04 APERTURE LIST*
%ADD10C,0.010000*%
%ADD11C,7.800000*%
%ADD12C,2.127200*%
%ADD13O,2.127200X2.127200*%
%ADD14R,2.127200X2.127200*%
%ADD15C,1.094531*%
%ADD16C,0.100000*%
%ADD17C,1.550000*%
%ADD18R,2.381200X0.958800*%
G04 APERTURE END LIST*
D10*
G04 #@! TO.C,G\002A\002A\002A*
G36*
X118571641Y-143242875D02*
X118648294Y-143309161D01*
X118732480Y-143460752D01*
X118733604Y-143616634D01*
X118652175Y-143767530D01*
X118621257Y-143801123D01*
X118482229Y-143898943D01*
X118331773Y-143916696D01*
X118208018Y-143882238D01*
X118094070Y-143793011D01*
X118034218Y-143641663D01*
X118025334Y-143532863D01*
X118061255Y-143383014D01*
X118154951Y-143271513D01*
X118285316Y-143205937D01*
X118431248Y-143193865D01*
X118571641Y-143242875D01*
X118571641Y-143242875D01*
G37*
X118571641Y-143242875D02*
X118648294Y-143309161D01*
X118732480Y-143460752D01*
X118733604Y-143616634D01*
X118652175Y-143767530D01*
X118621257Y-143801123D01*
X118482229Y-143898943D01*
X118331773Y-143916696D01*
X118208018Y-143882238D01*
X118094070Y-143793011D01*
X118034218Y-143641663D01*
X118025334Y-143532863D01*
X118061255Y-143383014D01*
X118154951Y-143271513D01*
X118285316Y-143205937D01*
X118431248Y-143193865D01*
X118571641Y-143242875D01*
G36*
X174120433Y-143223731D02*
X174238909Y-143310455D01*
X174313451Y-143441804D01*
X174328667Y-143546556D01*
X174294602Y-143721380D01*
X174195137Y-143843620D01*
X174034371Y-143908391D01*
X174023714Y-143910208D01*
X173912205Y-143917496D01*
X173827890Y-143885263D01*
X173737964Y-143806344D01*
X173633974Y-143656255D01*
X173612914Y-143501259D01*
X173675238Y-143348351D01*
X173705706Y-143309161D01*
X173833401Y-143215298D01*
X173978454Y-143189417D01*
X174120433Y-143223731D01*
X174120433Y-143223731D01*
G37*
X174120433Y-143223731D02*
X174238909Y-143310455D01*
X174313451Y-143441804D01*
X174328667Y-143546556D01*
X174294602Y-143721380D01*
X174195137Y-143843620D01*
X174034371Y-143908391D01*
X174023714Y-143910208D01*
X173912205Y-143917496D01*
X173827890Y-143885263D01*
X173737964Y-143806344D01*
X173633974Y-143656255D01*
X173612914Y-143501259D01*
X173675238Y-143348351D01*
X173705706Y-143309161D01*
X173833401Y-143215298D01*
X173978454Y-143189417D01*
X174120433Y-143223731D01*
G36*
X138846350Y-115190357D02*
X139034610Y-115238929D01*
X139101503Y-115284741D01*
X139217253Y-115382525D01*
X139372048Y-115523207D01*
X139556078Y-115697711D01*
X139759532Y-115896965D01*
X139915677Y-116053846D01*
X140154562Y-116297999D01*
X140340188Y-116491944D01*
X140479999Y-116644494D01*
X140581436Y-116764465D01*
X140651943Y-116860670D01*
X140698963Y-116941926D01*
X140729937Y-117017046D01*
X140730594Y-117018991D01*
X140792601Y-117297753D01*
X140784295Y-117548329D01*
X140741372Y-117690143D01*
X140705945Y-117733044D01*
X140613548Y-117832488D01*
X140467224Y-117985431D01*
X140270018Y-118188833D01*
X140024973Y-118439651D01*
X139735132Y-118734844D01*
X139403540Y-119071369D01*
X139033240Y-119446186D01*
X138627277Y-119856252D01*
X138188693Y-120298526D01*
X137720533Y-120769966D01*
X137225841Y-121267529D01*
X136707660Y-121788174D01*
X136169034Y-122328860D01*
X135613007Y-122886544D01*
X135042622Y-123458185D01*
X134460924Y-124040741D01*
X133870957Y-124631170D01*
X133275763Y-125226430D01*
X132678387Y-125823480D01*
X132081873Y-126419277D01*
X131489264Y-127010781D01*
X130903605Y-127594948D01*
X130327938Y-128168738D01*
X129765308Y-128729108D01*
X129218759Y-129273017D01*
X128691334Y-129797423D01*
X128186078Y-130299284D01*
X127706033Y-130775558D01*
X127254244Y-131223204D01*
X126833754Y-131639179D01*
X126447608Y-132020442D01*
X126098849Y-132363951D01*
X125790521Y-132666665D01*
X125525667Y-132925541D01*
X125307332Y-133137538D01*
X125138560Y-133299613D01*
X125022393Y-133408726D01*
X124961876Y-133461834D01*
X124954661Y-133466542D01*
X124758116Y-133505085D01*
X124525386Y-133484057D01*
X124354582Y-133440172D01*
X124282424Y-133413684D01*
X124207875Y-133374626D01*
X124122176Y-133315622D01*
X124016570Y-133229299D01*
X123882300Y-133108283D01*
X123710610Y-132945197D01*
X123492740Y-132732668D01*
X123365251Y-132607037D01*
X123150797Y-132392280D01*
X122954361Y-132189896D01*
X122784842Y-132009508D01*
X122651139Y-131860740D01*
X122562153Y-131753215D01*
X122528753Y-131702477D01*
X122476161Y-131486863D01*
X122485848Y-131258804D01*
X122514658Y-131153539D01*
X122548716Y-131111986D01*
X122639788Y-131013770D01*
X122784844Y-130861923D01*
X122980855Y-130659477D01*
X123224791Y-130409463D01*
X123513623Y-130114913D01*
X123844321Y-129778857D01*
X124213857Y-129404327D01*
X124619200Y-128994354D01*
X125057322Y-128551970D01*
X125525192Y-128080206D01*
X126019783Y-127582094D01*
X126538063Y-127060664D01*
X127077004Y-126518949D01*
X127633577Y-125959979D01*
X128204751Y-125386786D01*
X128787498Y-124802401D01*
X129378789Y-124209855D01*
X129975593Y-123612181D01*
X130574882Y-123012408D01*
X131173626Y-122413569D01*
X131768796Y-121818695D01*
X132357362Y-121230818D01*
X132936295Y-120652968D01*
X133502565Y-120088176D01*
X134053144Y-119539476D01*
X134585001Y-119009897D01*
X135095108Y-118502470D01*
X135580435Y-118020229D01*
X136037953Y-117566203D01*
X136464632Y-117143424D01*
X136857442Y-116754923D01*
X137213355Y-116403732D01*
X137529342Y-116092883D01*
X137802371Y-115825405D01*
X138029416Y-115604332D01*
X138207445Y-115432694D01*
X138333430Y-115313522D01*
X138404341Y-115249848D01*
X138418057Y-115239829D01*
X138621523Y-115188755D01*
X138846350Y-115190357D01*
X138846350Y-115190357D01*
G37*
X138846350Y-115190357D02*
X139034610Y-115238929D01*
X139101503Y-115284741D01*
X139217253Y-115382525D01*
X139372048Y-115523207D01*
X139556078Y-115697711D01*
X139759532Y-115896965D01*
X139915677Y-116053846D01*
X140154562Y-116297999D01*
X140340188Y-116491944D01*
X140479999Y-116644494D01*
X140581436Y-116764465D01*
X140651943Y-116860670D01*
X140698963Y-116941926D01*
X140729937Y-117017046D01*
X140730594Y-117018991D01*
X140792601Y-117297753D01*
X140784295Y-117548329D01*
X140741372Y-117690143D01*
X140705945Y-117733044D01*
X140613548Y-117832488D01*
X140467224Y-117985431D01*
X140270018Y-118188833D01*
X140024973Y-118439651D01*
X139735132Y-118734844D01*
X139403540Y-119071369D01*
X139033240Y-119446186D01*
X138627277Y-119856252D01*
X138188693Y-120298526D01*
X137720533Y-120769966D01*
X137225841Y-121267529D01*
X136707660Y-121788174D01*
X136169034Y-122328860D01*
X135613007Y-122886544D01*
X135042622Y-123458185D01*
X134460924Y-124040741D01*
X133870957Y-124631170D01*
X133275763Y-125226430D01*
X132678387Y-125823480D01*
X132081873Y-126419277D01*
X131489264Y-127010781D01*
X130903605Y-127594948D01*
X130327938Y-128168738D01*
X129765308Y-128729108D01*
X129218759Y-129273017D01*
X128691334Y-129797423D01*
X128186078Y-130299284D01*
X127706033Y-130775558D01*
X127254244Y-131223204D01*
X126833754Y-131639179D01*
X126447608Y-132020442D01*
X126098849Y-132363951D01*
X125790521Y-132666665D01*
X125525667Y-132925541D01*
X125307332Y-133137538D01*
X125138560Y-133299613D01*
X125022393Y-133408726D01*
X124961876Y-133461834D01*
X124954661Y-133466542D01*
X124758116Y-133505085D01*
X124525386Y-133484057D01*
X124354582Y-133440172D01*
X124282424Y-133413684D01*
X124207875Y-133374626D01*
X124122176Y-133315622D01*
X124016570Y-133229299D01*
X123882300Y-133108283D01*
X123710610Y-132945197D01*
X123492740Y-132732668D01*
X123365251Y-132607037D01*
X123150797Y-132392280D01*
X122954361Y-132189896D01*
X122784842Y-132009508D01*
X122651139Y-131860740D01*
X122562153Y-131753215D01*
X122528753Y-131702477D01*
X122476161Y-131486863D01*
X122485848Y-131258804D01*
X122514658Y-131153539D01*
X122548716Y-131111986D01*
X122639788Y-131013770D01*
X122784844Y-130861923D01*
X122980855Y-130659477D01*
X123224791Y-130409463D01*
X123513623Y-130114913D01*
X123844321Y-129778857D01*
X124213857Y-129404327D01*
X124619200Y-128994354D01*
X125057322Y-128551970D01*
X125525192Y-128080206D01*
X126019783Y-127582094D01*
X126538063Y-127060664D01*
X127077004Y-126518949D01*
X127633577Y-125959979D01*
X128204751Y-125386786D01*
X128787498Y-124802401D01*
X129378789Y-124209855D01*
X129975593Y-123612181D01*
X130574882Y-123012408D01*
X131173626Y-122413569D01*
X131768796Y-121818695D01*
X132357362Y-121230818D01*
X132936295Y-120652968D01*
X133502565Y-120088176D01*
X134053144Y-119539476D01*
X134585001Y-119009897D01*
X135095108Y-118502470D01*
X135580435Y-118020229D01*
X136037953Y-117566203D01*
X136464632Y-117143424D01*
X136857442Y-116754923D01*
X137213355Y-116403732D01*
X137529342Y-116092883D01*
X137802371Y-115825405D01*
X138029416Y-115604332D01*
X138207445Y-115432694D01*
X138333430Y-115313522D01*
X138404341Y-115249848D01*
X138418057Y-115239829D01*
X138621523Y-115188755D01*
X138846350Y-115190357D01*
G36*
X131423834Y-98875549D02*
X131902962Y-99351840D01*
X132381807Y-99827831D01*
X132855007Y-100298191D01*
X133317198Y-100757591D01*
X133763015Y-101200698D01*
X134187096Y-101622183D01*
X134584077Y-102016716D01*
X134948594Y-102378964D01*
X135275284Y-102703599D01*
X135558783Y-102985289D01*
X135793727Y-103218703D01*
X135974753Y-103398511D01*
X135995768Y-103419381D01*
X137054036Y-104470279D01*
X124311794Y-117212573D01*
X123441465Y-118082807D01*
X122586195Y-118937788D01*
X121747936Y-119775572D01*
X120928636Y-120594217D01*
X120130245Y-121391777D01*
X119354715Y-122166311D01*
X118603994Y-122915874D01*
X117880033Y-123638523D01*
X117184781Y-124332314D01*
X116520189Y-124995304D01*
X115888206Y-125625550D01*
X115290783Y-126221108D01*
X114729869Y-126780034D01*
X114207415Y-127300385D01*
X113725370Y-127780218D01*
X113285684Y-128217588D01*
X112890308Y-128610553D01*
X112541190Y-128957169D01*
X112240283Y-129255493D01*
X111989534Y-129503580D01*
X111790894Y-129699488D01*
X111646314Y-129841274D01*
X111557743Y-129926992D01*
X111527193Y-129954733D01*
X111492674Y-129925329D01*
X111401855Y-129839462D01*
X111258241Y-129700601D01*
X111065337Y-129512214D01*
X110826650Y-129277769D01*
X110545684Y-129000733D01*
X110225945Y-128684575D01*
X109870939Y-128332764D01*
X109484171Y-127948766D01*
X109069147Y-127536051D01*
X108629372Y-127098086D01*
X108168352Y-126638340D01*
X107689592Y-126160280D01*
X107473750Y-125944555D01*
X103462667Y-121934511D01*
X103462667Y-112062433D01*
X104510417Y-111989580D01*
X104805931Y-111968465D01*
X105078721Y-111947905D01*
X105315691Y-111928970D01*
X105503740Y-111912735D01*
X105629770Y-111900270D01*
X105674584Y-111894267D01*
X105791000Y-111871806D01*
X105791000Y-123204372D01*
X106183379Y-123595120D01*
X106575758Y-123985867D01*
X109304667Y-123985867D01*
X109304667Y-111588939D01*
X109569250Y-111563357D01*
X109647804Y-111556960D01*
X109804789Y-111545264D01*
X110034164Y-111528693D01*
X110329889Y-111507667D01*
X110685921Y-111482607D01*
X111096219Y-111453936D01*
X111554741Y-111422073D01*
X112055446Y-111387441D01*
X112592293Y-111350460D01*
X113159240Y-111311553D01*
X113750246Y-111271140D01*
X114173000Y-111242319D01*
X114780395Y-111200955D01*
X115370143Y-111160782D01*
X115935975Y-111122228D01*
X116471621Y-111085719D01*
X116970811Y-111051685D01*
X117427276Y-111020552D01*
X117834745Y-110992748D01*
X118186949Y-110968701D01*
X118477618Y-110948839D01*
X118700482Y-110933589D01*
X118849272Y-110923379D01*
X118903750Y-110919616D01*
X119295334Y-110892370D01*
X119295334Y-121170322D01*
X122851334Y-117615078D01*
X122851334Y-110566200D01*
X122967750Y-110564636D01*
X123026701Y-110561396D01*
X123163778Y-110552452D01*
X123372663Y-110538250D01*
X123647041Y-110519235D01*
X123980593Y-110495854D01*
X124367003Y-110468553D01*
X124799954Y-110437778D01*
X125273129Y-110403974D01*
X125780210Y-110367589D01*
X126314881Y-110329067D01*
X126759530Y-110296917D01*
X130434894Y-110030763D01*
X133985000Y-106481411D01*
X133985000Y-105750972D01*
X133984156Y-105512937D01*
X133981817Y-105307360D01*
X133978269Y-105147886D01*
X133973800Y-105048158D01*
X133969616Y-105020534D01*
X133920072Y-105023525D01*
X133792224Y-105032203D01*
X133592212Y-105046126D01*
X133326177Y-105064851D01*
X133000258Y-105087936D01*
X132620596Y-105114938D01*
X132193332Y-105145415D01*
X131724605Y-105178924D01*
X131220557Y-105215022D01*
X130687327Y-105253268D01*
X130131055Y-105293218D01*
X129557883Y-105334430D01*
X128973950Y-105376461D01*
X128385396Y-105418869D01*
X127798363Y-105461212D01*
X127218989Y-105503047D01*
X126653416Y-105543931D01*
X126107784Y-105583422D01*
X125588234Y-105621077D01*
X125100904Y-105656454D01*
X124651937Y-105689110D01*
X124247472Y-105718603D01*
X123893649Y-105744490D01*
X123596609Y-105766329D01*
X123362491Y-105783677D01*
X123197438Y-105796092D01*
X123107588Y-105803131D01*
X123094750Y-105804272D01*
X122851334Y-105829071D01*
X122851334Y-100789302D01*
X122851382Y-100029573D01*
X122851570Y-99350051D01*
X122851963Y-98746277D01*
X122852628Y-98213792D01*
X122853629Y-97748135D01*
X122855032Y-97344849D01*
X122856902Y-96999474D01*
X122859306Y-96707549D01*
X122862308Y-96464617D01*
X122865974Y-96266218D01*
X122870370Y-96107891D01*
X122875561Y-95985179D01*
X122881613Y-95893621D01*
X122888590Y-95828759D01*
X122896560Y-95786132D01*
X122905587Y-95761282D01*
X122915736Y-95749749D01*
X122925417Y-95747082D01*
X122980191Y-95743594D01*
X123111689Y-95734416D01*
X123312197Y-95720110D01*
X123574003Y-95701235D01*
X123889394Y-95678349D01*
X124250659Y-95652012D01*
X124650083Y-95622784D01*
X125079955Y-95591224D01*
X125454834Y-95563623D01*
X127910167Y-95382615D01*
X131423834Y-98875549D01*
X131423834Y-98875549D01*
G37*
X131423834Y-98875549D02*
X131902962Y-99351840D01*
X132381807Y-99827831D01*
X132855007Y-100298191D01*
X133317198Y-100757591D01*
X133763015Y-101200698D01*
X134187096Y-101622183D01*
X134584077Y-102016716D01*
X134948594Y-102378964D01*
X135275284Y-102703599D01*
X135558783Y-102985289D01*
X135793727Y-103218703D01*
X135974753Y-103398511D01*
X135995768Y-103419381D01*
X137054036Y-104470279D01*
X124311794Y-117212573D01*
X123441465Y-118082807D01*
X122586195Y-118937788D01*
X121747936Y-119775572D01*
X120928636Y-120594217D01*
X120130245Y-121391777D01*
X119354715Y-122166311D01*
X118603994Y-122915874D01*
X117880033Y-123638523D01*
X117184781Y-124332314D01*
X116520189Y-124995304D01*
X115888206Y-125625550D01*
X115290783Y-126221108D01*
X114729869Y-126780034D01*
X114207415Y-127300385D01*
X113725370Y-127780218D01*
X113285684Y-128217588D01*
X112890308Y-128610553D01*
X112541190Y-128957169D01*
X112240283Y-129255493D01*
X111989534Y-129503580D01*
X111790894Y-129699488D01*
X111646314Y-129841274D01*
X111557743Y-129926992D01*
X111527193Y-129954733D01*
X111492674Y-129925329D01*
X111401855Y-129839462D01*
X111258241Y-129700601D01*
X111065337Y-129512214D01*
X110826650Y-129277769D01*
X110545684Y-129000733D01*
X110225945Y-128684575D01*
X109870939Y-128332764D01*
X109484171Y-127948766D01*
X109069147Y-127536051D01*
X108629372Y-127098086D01*
X108168352Y-126638340D01*
X107689592Y-126160280D01*
X107473750Y-125944555D01*
X103462667Y-121934511D01*
X103462667Y-112062433D01*
X104510417Y-111989580D01*
X104805931Y-111968465D01*
X105078721Y-111947905D01*
X105315691Y-111928970D01*
X105503740Y-111912735D01*
X105629770Y-111900270D01*
X105674584Y-111894267D01*
X105791000Y-111871806D01*
X105791000Y-123204372D01*
X106183379Y-123595120D01*
X106575758Y-123985867D01*
X109304667Y-123985867D01*
X109304667Y-111588939D01*
X109569250Y-111563357D01*
X109647804Y-111556960D01*
X109804789Y-111545264D01*
X110034164Y-111528693D01*
X110329889Y-111507667D01*
X110685921Y-111482607D01*
X111096219Y-111453936D01*
X111554741Y-111422073D01*
X112055446Y-111387441D01*
X112592293Y-111350460D01*
X113159240Y-111311553D01*
X113750246Y-111271140D01*
X114173000Y-111242319D01*
X114780395Y-111200955D01*
X115370143Y-111160782D01*
X115935975Y-111122228D01*
X116471621Y-111085719D01*
X116970811Y-111051685D01*
X117427276Y-111020552D01*
X117834745Y-110992748D01*
X118186949Y-110968701D01*
X118477618Y-110948839D01*
X118700482Y-110933589D01*
X118849272Y-110923379D01*
X118903750Y-110919616D01*
X119295334Y-110892370D01*
X119295334Y-121170322D01*
X122851334Y-117615078D01*
X122851334Y-110566200D01*
X122967750Y-110564636D01*
X123026701Y-110561396D01*
X123163778Y-110552452D01*
X123372663Y-110538250D01*
X123647041Y-110519235D01*
X123980593Y-110495854D01*
X124367003Y-110468553D01*
X124799954Y-110437778D01*
X125273129Y-110403974D01*
X125780210Y-110367589D01*
X126314881Y-110329067D01*
X126759530Y-110296917D01*
X130434894Y-110030763D01*
X133985000Y-106481411D01*
X133985000Y-105750972D01*
X133984156Y-105512937D01*
X133981817Y-105307360D01*
X133978269Y-105147886D01*
X133973800Y-105048158D01*
X133969616Y-105020534D01*
X133920072Y-105023525D01*
X133792224Y-105032203D01*
X133592212Y-105046126D01*
X133326177Y-105064851D01*
X133000258Y-105087936D01*
X132620596Y-105114938D01*
X132193332Y-105145415D01*
X131724605Y-105178924D01*
X131220557Y-105215022D01*
X130687327Y-105253268D01*
X130131055Y-105293218D01*
X129557883Y-105334430D01*
X128973950Y-105376461D01*
X128385396Y-105418869D01*
X127798363Y-105461212D01*
X127218989Y-105503047D01*
X126653416Y-105543931D01*
X126107784Y-105583422D01*
X125588234Y-105621077D01*
X125100904Y-105656454D01*
X124651937Y-105689110D01*
X124247472Y-105718603D01*
X123893649Y-105744490D01*
X123596609Y-105766329D01*
X123362491Y-105783677D01*
X123197438Y-105796092D01*
X123107588Y-105803131D01*
X123094750Y-105804272D01*
X122851334Y-105829071D01*
X122851334Y-100789302D01*
X122851382Y-100029573D01*
X122851570Y-99350051D01*
X122851963Y-98746277D01*
X122852628Y-98213792D01*
X122853629Y-97748135D01*
X122855032Y-97344849D01*
X122856902Y-96999474D01*
X122859306Y-96707549D01*
X122862308Y-96464617D01*
X122865974Y-96266218D01*
X122870370Y-96107891D01*
X122875561Y-95985179D01*
X122881613Y-95893621D01*
X122888590Y-95828759D01*
X122896560Y-95786132D01*
X122905587Y-95761282D01*
X122915736Y-95749749D01*
X122925417Y-95747082D01*
X122980191Y-95743594D01*
X123111689Y-95734416D01*
X123312197Y-95720110D01*
X123574003Y-95701235D01*
X123889394Y-95678349D01*
X124250659Y-95652012D01*
X124650083Y-95622784D01*
X125079955Y-95591224D01*
X125454834Y-95563623D01*
X127910167Y-95382615D01*
X131423834Y-98875549D01*
G36*
X105733867Y-97076091D02*
X105737164Y-97120823D01*
X105740457Y-97243610D01*
X105743726Y-97438113D01*
X105746951Y-97697989D01*
X105750114Y-98016896D01*
X105753194Y-98388494D01*
X105756171Y-98806440D01*
X105759027Y-99264394D01*
X105761741Y-99756013D01*
X105764293Y-100274956D01*
X105766665Y-100814881D01*
X105768836Y-101369447D01*
X105770786Y-101932312D01*
X105772496Y-102497136D01*
X105773947Y-103057575D01*
X105775118Y-103607289D01*
X105775990Y-104139936D01*
X105776544Y-104649174D01*
X105776759Y-105128663D01*
X105776616Y-105572060D01*
X105776095Y-105973023D01*
X105775176Y-106325212D01*
X105773841Y-106622285D01*
X105772068Y-106857900D01*
X105769840Y-107025715D01*
X105767135Y-107119390D01*
X105765081Y-107137520D01*
X105714310Y-107140711D01*
X105590698Y-107149532D01*
X105405818Y-107163126D01*
X105171248Y-107180635D01*
X104898561Y-107201201D01*
X104626834Y-107221867D01*
X104329889Y-107244458D01*
X104060871Y-107264777D01*
X103831273Y-107281967D01*
X103652593Y-107295171D01*
X103536327Y-107303533D01*
X103494417Y-107306214D01*
X103490341Y-107264790D01*
X103486416Y-107143904D01*
X103482677Y-106948763D01*
X103479155Y-106684571D01*
X103475884Y-106356534D01*
X103472897Y-105969857D01*
X103470227Y-105529745D01*
X103467906Y-105041403D01*
X103465968Y-104510038D01*
X103464446Y-103940854D01*
X103463371Y-103339056D01*
X103462778Y-102709851D01*
X103462667Y-102288705D01*
X103462832Y-101502657D01*
X103463355Y-100797466D01*
X103464276Y-100169324D01*
X103465633Y-99614423D01*
X103467469Y-99128954D01*
X103469822Y-98709108D01*
X103472733Y-98351077D01*
X103476241Y-98051053D01*
X103480386Y-97805227D01*
X103485210Y-97609791D01*
X103490751Y-97460935D01*
X103497049Y-97354852D01*
X103504145Y-97287732D01*
X103512079Y-97255769D01*
X103515584Y-97251941D01*
X103567383Y-97244593D01*
X103688430Y-97232328D01*
X103865183Y-97216219D01*
X104084097Y-97197338D01*
X104331629Y-97176761D01*
X104594236Y-97155560D01*
X104858374Y-97134809D01*
X105110500Y-97115582D01*
X105337069Y-97098953D01*
X105524540Y-97085994D01*
X105659367Y-97077780D01*
X105728008Y-97075385D01*
X105733867Y-97076091D01*
X105733867Y-97076091D01*
G37*
X105733867Y-97076091D02*
X105737164Y-97120823D01*
X105740457Y-97243610D01*
X105743726Y-97438113D01*
X105746951Y-97697989D01*
X105750114Y-98016896D01*
X105753194Y-98388494D01*
X105756171Y-98806440D01*
X105759027Y-99264394D01*
X105761741Y-99756013D01*
X105764293Y-100274956D01*
X105766665Y-100814881D01*
X105768836Y-101369447D01*
X105770786Y-101932312D01*
X105772496Y-102497136D01*
X105773947Y-103057575D01*
X105775118Y-103607289D01*
X105775990Y-104139936D01*
X105776544Y-104649174D01*
X105776759Y-105128663D01*
X105776616Y-105572060D01*
X105776095Y-105973023D01*
X105775176Y-106325212D01*
X105773841Y-106622285D01*
X105772068Y-106857900D01*
X105769840Y-107025715D01*
X105767135Y-107119390D01*
X105765081Y-107137520D01*
X105714310Y-107140711D01*
X105590698Y-107149532D01*
X105405818Y-107163126D01*
X105171248Y-107180635D01*
X104898561Y-107201201D01*
X104626834Y-107221867D01*
X104329889Y-107244458D01*
X104060871Y-107264777D01*
X103831273Y-107281967D01*
X103652593Y-107295171D01*
X103536327Y-107303533D01*
X103494417Y-107306214D01*
X103490341Y-107264790D01*
X103486416Y-107143904D01*
X103482677Y-106948763D01*
X103479155Y-106684571D01*
X103475884Y-106356534D01*
X103472897Y-105969857D01*
X103470227Y-105529745D01*
X103467906Y-105041403D01*
X103465968Y-104510038D01*
X103464446Y-103940854D01*
X103463371Y-103339056D01*
X103462778Y-102709851D01*
X103462667Y-102288705D01*
X103462832Y-101502657D01*
X103463355Y-100797466D01*
X103464276Y-100169324D01*
X103465633Y-99614423D01*
X103467469Y-99128954D01*
X103469822Y-98709108D01*
X103472733Y-98351077D01*
X103476241Y-98051053D01*
X103480386Y-97805227D01*
X103485210Y-97609791D01*
X103490751Y-97460935D01*
X103497049Y-97354852D01*
X103504145Y-97287732D01*
X103512079Y-97255769D01*
X103515584Y-97251941D01*
X103567383Y-97244593D01*
X103688430Y-97232328D01*
X103865183Y-97216219D01*
X104084097Y-97197338D01*
X104331629Y-97176761D01*
X104594236Y-97155560D01*
X104858374Y-97134809D01*
X105110500Y-97115582D01*
X105337069Y-97098953D01*
X105524540Y-97085994D01*
X105659367Y-97077780D01*
X105728008Y-97075385D01*
X105733867Y-97076091D01*
G36*
X119337667Y-106205867D02*
X119207671Y-106205867D01*
X119148894Y-106208866D01*
X119012253Y-106217550D01*
X118804325Y-106231446D01*
X118531688Y-106250083D01*
X118200919Y-106272990D01*
X117818597Y-106299693D01*
X117391300Y-106329722D01*
X116925605Y-106362604D01*
X116428089Y-106397868D01*
X115905332Y-106435043D01*
X115363910Y-106473655D01*
X114810402Y-106513234D01*
X114251385Y-106553308D01*
X113693438Y-106593405D01*
X113143137Y-106633053D01*
X112607061Y-106671780D01*
X112091788Y-106709116D01*
X111603896Y-106744586D01*
X111149962Y-106777721D01*
X110736564Y-106808048D01*
X110370280Y-106835096D01*
X110057687Y-106858392D01*
X109805365Y-106877466D01*
X109619890Y-106891844D01*
X109507840Y-106901056D01*
X109484584Y-106903237D01*
X109262334Y-106926273D01*
X109262334Y-101823408D01*
X109262496Y-101030574D01*
X109263008Y-100318629D01*
X109263910Y-99683795D01*
X109265240Y-99122295D01*
X109267038Y-98630350D01*
X109269342Y-98204183D01*
X109272192Y-97840017D01*
X109275626Y-97534074D01*
X109279684Y-97282576D01*
X109284405Y-97081747D01*
X109289827Y-96927807D01*
X109295990Y-96816981D01*
X109302933Y-96745489D01*
X109310695Y-96709555D01*
X109315250Y-96703603D01*
X109363636Y-96698434D01*
X109491100Y-96687707D01*
X109692265Y-96671820D01*
X109961752Y-96651170D01*
X110294184Y-96626154D01*
X110684180Y-96597168D01*
X111126365Y-96564610D01*
X111615359Y-96528877D01*
X112145783Y-96490366D01*
X112712261Y-96449474D01*
X113309413Y-96406598D01*
X113931861Y-96362135D01*
X114173000Y-96344970D01*
X114806554Y-96299822D01*
X115418804Y-96256008D01*
X116004181Y-96213937D01*
X116557118Y-96174018D01*
X117072047Y-96136658D01*
X117543399Y-96102265D01*
X117965608Y-96071247D01*
X118333105Y-96044013D01*
X118640322Y-96020970D01*
X118881691Y-96002527D01*
X119051645Y-95989092D01*
X119144615Y-95981072D01*
X119157750Y-95979645D01*
X119337667Y-95956012D01*
X119337667Y-106205867D01*
X119337667Y-106205867D01*
G37*
X119337667Y-106205867D02*
X119207671Y-106205867D01*
X119148894Y-106208866D01*
X119012253Y-106217550D01*
X118804325Y-106231446D01*
X118531688Y-106250083D01*
X118200919Y-106272990D01*
X117818597Y-106299693D01*
X117391300Y-106329722D01*
X116925605Y-106362604D01*
X116428089Y-106397868D01*
X115905332Y-106435043D01*
X115363910Y-106473655D01*
X114810402Y-106513234D01*
X114251385Y-106553308D01*
X113693438Y-106593405D01*
X113143137Y-106633053D01*
X112607061Y-106671780D01*
X112091788Y-106709116D01*
X111603896Y-106744586D01*
X111149962Y-106777721D01*
X110736564Y-106808048D01*
X110370280Y-106835096D01*
X110057687Y-106858392D01*
X109805365Y-106877466D01*
X109619890Y-106891844D01*
X109507840Y-106901056D01*
X109484584Y-106903237D01*
X109262334Y-106926273D01*
X109262334Y-101823408D01*
X109262496Y-101030574D01*
X109263008Y-100318629D01*
X109263910Y-99683795D01*
X109265240Y-99122295D01*
X109267038Y-98630350D01*
X109269342Y-98204183D01*
X109272192Y-97840017D01*
X109275626Y-97534074D01*
X109279684Y-97282576D01*
X109284405Y-97081747D01*
X109289827Y-96927807D01*
X109295990Y-96816981D01*
X109302933Y-96745489D01*
X109310695Y-96709555D01*
X109315250Y-96703603D01*
X109363636Y-96698434D01*
X109491100Y-96687707D01*
X109692265Y-96671820D01*
X109961752Y-96651170D01*
X110294184Y-96626154D01*
X110684180Y-96597168D01*
X111126365Y-96564610D01*
X111615359Y-96528877D01*
X112145783Y-96490366D01*
X112712261Y-96449474D01*
X113309413Y-96406598D01*
X113931861Y-96362135D01*
X114173000Y-96344970D01*
X114806554Y-96299822D01*
X115418804Y-96256008D01*
X116004181Y-96213937D01*
X116557118Y-96174018D01*
X117072047Y-96136658D01*
X117543399Y-96102265D01*
X117965608Y-96071247D01*
X118333105Y-96044013D01*
X118640322Y-96020970D01*
X118881691Y-96002527D01*
X119051645Y-95989092D01*
X119144615Y-95981072D01*
X119157750Y-95979645D01*
X119337667Y-95956012D01*
X119337667Y-106205867D01*
G36*
X129856775Y-93674489D02*
X130047365Y-93861538D01*
X130206433Y-93766479D01*
X130387762Y-93660195D01*
X130513037Y-93594625D01*
X130597700Y-93565129D01*
X130657192Y-93567069D01*
X130706954Y-93595806D01*
X130724408Y-93610862D01*
X130790843Y-93687590D01*
X130797003Y-93755032D01*
X130737012Y-93825951D01*
X130604991Y-93913109D01*
X130578061Y-93928688D01*
X130453774Y-94003020D01*
X130361814Y-94064023D01*
X130325366Y-94094975D01*
X130338011Y-94144074D01*
X130397376Y-94215703D01*
X130398825Y-94217071D01*
X130493041Y-94305582D01*
X130755739Y-94138558D01*
X130888484Y-94057189D01*
X130994545Y-93997749D01*
X131053077Y-93971839D01*
X131055824Y-93971534D01*
X131122618Y-94005499D01*
X131186480Y-94082901D01*
X131221295Y-94166994D01*
X131219174Y-94201371D01*
X131171416Y-94254303D01*
X131071304Y-94328843D01*
X130957045Y-94399179D01*
X130719344Y-94533329D01*
X130879605Y-94697453D01*
X131039867Y-94861576D01*
X130810815Y-95090628D01*
X130628888Y-94912081D01*
X130527492Y-94817244D01*
X130449149Y-94752495D01*
X130415973Y-94733534D01*
X130364778Y-94754396D01*
X130269636Y-94807415D01*
X130211660Y-94842949D01*
X130038335Y-94952364D01*
X130170167Y-95088381D01*
X130269360Y-95211268D01*
X130296339Y-95309003D01*
X130253505Y-95396452D01*
X130224583Y-95425472D01*
X130157846Y-95476611D01*
X130099031Y-95485827D01*
X130028262Y-95446757D01*
X129925660Y-95353034D01*
X129891066Y-95318678D01*
X129714211Y-95141822D01*
X129461975Y-95297511D01*
X129327157Y-95375601D01*
X129214853Y-95431474D01*
X129149087Y-95453195D01*
X129148597Y-95453200D01*
X129074595Y-95422435D01*
X128997010Y-95352540D01*
X128950623Y-95277119D01*
X128947965Y-95259367D01*
X128982190Y-95220035D01*
X129071468Y-95153852D01*
X129196740Y-95074899D01*
X129201334Y-95072200D01*
X129327192Y-94995102D01*
X129417927Y-94933203D01*
X129454625Y-94899445D01*
X129454702Y-94898845D01*
X129427179Y-94855141D01*
X129367314Y-94793999D01*
X129310526Y-94748417D01*
X129259996Y-94739268D01*
X129186691Y-94768999D01*
X129102731Y-94816304D01*
X128926612Y-94918325D01*
X128809426Y-94984247D01*
X128735945Y-95018819D01*
X128690939Y-95026787D01*
X128659180Y-95012898D01*
X128625437Y-94981899D01*
X128611910Y-94969302D01*
X128546859Y-94892700D01*
X128524000Y-94835871D01*
X128557801Y-94788731D01*
X128646721Y-94715462D01*
X128772039Y-94631356D01*
X128781357Y-94625661D01*
X128942516Y-94527762D01*
X129573113Y-94527762D01*
X129668720Y-94629531D01*
X129764328Y-94731301D01*
X129969621Y-94616000D01*
X130082091Y-94548828D01*
X130156677Y-94496606D01*
X130174957Y-94476329D01*
X130147332Y-94433251D01*
X130080692Y-94363363D01*
X130079339Y-94362089D01*
X129983677Y-94272220D01*
X129573113Y-94527762D01*
X128942516Y-94527762D01*
X129038714Y-94469325D01*
X128908357Y-94334830D01*
X128815767Y-94229530D01*
X128785669Y-94154224D01*
X128815891Y-94084256D01*
X128880337Y-94017151D01*
X128982674Y-93921011D01*
X129174278Y-94097625D01*
X129365882Y-94274240D01*
X129561741Y-94159459D01*
X129757599Y-94044678D01*
X129597366Y-93880585D01*
X129437133Y-93716491D01*
X129551659Y-93601965D01*
X129666186Y-93487439D01*
X129856775Y-93674489D01*
X129856775Y-93674489D01*
G37*
X129856775Y-93674489D02*
X130047365Y-93861538D01*
X130206433Y-93766479D01*
X130387762Y-93660195D01*
X130513037Y-93594625D01*
X130597700Y-93565129D01*
X130657192Y-93567069D01*
X130706954Y-93595806D01*
X130724408Y-93610862D01*
X130790843Y-93687590D01*
X130797003Y-93755032D01*
X130737012Y-93825951D01*
X130604991Y-93913109D01*
X130578061Y-93928688D01*
X130453774Y-94003020D01*
X130361814Y-94064023D01*
X130325366Y-94094975D01*
X130338011Y-94144074D01*
X130397376Y-94215703D01*
X130398825Y-94217071D01*
X130493041Y-94305582D01*
X130755739Y-94138558D01*
X130888484Y-94057189D01*
X130994545Y-93997749D01*
X131053077Y-93971839D01*
X131055824Y-93971534D01*
X131122618Y-94005499D01*
X131186480Y-94082901D01*
X131221295Y-94166994D01*
X131219174Y-94201371D01*
X131171416Y-94254303D01*
X131071304Y-94328843D01*
X130957045Y-94399179D01*
X130719344Y-94533329D01*
X130879605Y-94697453D01*
X131039867Y-94861576D01*
X130810815Y-95090628D01*
X130628888Y-94912081D01*
X130527492Y-94817244D01*
X130449149Y-94752495D01*
X130415973Y-94733534D01*
X130364778Y-94754396D01*
X130269636Y-94807415D01*
X130211660Y-94842949D01*
X130038335Y-94952364D01*
X130170167Y-95088381D01*
X130269360Y-95211268D01*
X130296339Y-95309003D01*
X130253505Y-95396452D01*
X130224583Y-95425472D01*
X130157846Y-95476611D01*
X130099031Y-95485827D01*
X130028262Y-95446757D01*
X129925660Y-95353034D01*
X129891066Y-95318678D01*
X129714211Y-95141822D01*
X129461975Y-95297511D01*
X129327157Y-95375601D01*
X129214853Y-95431474D01*
X129149087Y-95453195D01*
X129148597Y-95453200D01*
X129074595Y-95422435D01*
X128997010Y-95352540D01*
X128950623Y-95277119D01*
X128947965Y-95259367D01*
X128982190Y-95220035D01*
X129071468Y-95153852D01*
X129196740Y-95074899D01*
X129201334Y-95072200D01*
X129327192Y-94995102D01*
X129417927Y-94933203D01*
X129454625Y-94899445D01*
X129454702Y-94898845D01*
X129427179Y-94855141D01*
X129367314Y-94793999D01*
X129310526Y-94748417D01*
X129259996Y-94739268D01*
X129186691Y-94768999D01*
X129102731Y-94816304D01*
X128926612Y-94918325D01*
X128809426Y-94984247D01*
X128735945Y-95018819D01*
X128690939Y-95026787D01*
X128659180Y-95012898D01*
X128625437Y-94981899D01*
X128611910Y-94969302D01*
X128546859Y-94892700D01*
X128524000Y-94835871D01*
X128557801Y-94788731D01*
X128646721Y-94715462D01*
X128772039Y-94631356D01*
X128781357Y-94625661D01*
X128942516Y-94527762D01*
X129573113Y-94527762D01*
X129668720Y-94629531D01*
X129764328Y-94731301D01*
X129969621Y-94616000D01*
X130082091Y-94548828D01*
X130156677Y-94496606D01*
X130174957Y-94476329D01*
X130147332Y-94433251D01*
X130080692Y-94363363D01*
X130079339Y-94362089D01*
X129983677Y-94272220D01*
X129573113Y-94527762D01*
X128942516Y-94527762D01*
X129038714Y-94469325D01*
X128908357Y-94334830D01*
X128815767Y-94229530D01*
X128785669Y-94154224D01*
X128815891Y-94084256D01*
X128880337Y-94017151D01*
X128982674Y-93921011D01*
X129174278Y-94097625D01*
X129365882Y-94274240D01*
X129561741Y-94159459D01*
X129757599Y-94044678D01*
X129597366Y-93880585D01*
X129437133Y-93716491D01*
X129551659Y-93601965D01*
X129666186Y-93487439D01*
X129856775Y-93674489D01*
G36*
X128877179Y-91785858D02*
X128976206Y-91846894D01*
X129090496Y-91945141D01*
X129200263Y-92059600D01*
X129285722Y-92169276D01*
X129327091Y-92253172D01*
X129328334Y-92264653D01*
X129361752Y-92315729D01*
X129384454Y-92320534D01*
X129451382Y-92350663D01*
X129533940Y-92421073D01*
X129601620Y-92501802D01*
X129624667Y-92556473D01*
X129595811Y-92595447D01*
X129514211Y-92686173D01*
X129387320Y-92820864D01*
X129222594Y-92991737D01*
X129027483Y-93191004D01*
X128809443Y-93410880D01*
X128744911Y-93475464D01*
X127865155Y-94354472D01*
X127720084Y-94204797D01*
X127575014Y-94055123D01*
X127837840Y-93789939D01*
X127955225Y-93668820D01*
X128045570Y-93570493D01*
X128095225Y-93510049D01*
X128100667Y-93499436D01*
X128064312Y-93474121D01*
X127979578Y-93449899D01*
X127830117Y-93386696D01*
X127680830Y-93270242D01*
X127561683Y-93126540D01*
X127523411Y-93054120D01*
X127470947Y-92844723D01*
X127482209Y-92727323D01*
X127908394Y-92727323D01*
X127909234Y-92848583D01*
X127960579Y-92948635D01*
X128047138Y-93035662D01*
X128166962Y-93121447D01*
X128288301Y-93186003D01*
X128374897Y-93209468D01*
X128420105Y-93181286D01*
X128510467Y-93104934D01*
X128631955Y-92992786D01*
X128742756Y-92884986D01*
X128885728Y-92741417D01*
X128976816Y-92642986D01*
X129024720Y-92575687D01*
X129038139Y-92525515D01*
X129025775Y-92478464D01*
X129012298Y-92451069D01*
X128890264Y-92281122D01*
X128740338Y-92174808D01*
X128595976Y-92142734D01*
X128469603Y-92153745D01*
X128361351Y-92195332D01*
X128248822Y-92280327D01*
X128110033Y-92421109D01*
X127974160Y-92588953D01*
X127908394Y-92727323D01*
X127482209Y-92727323D01*
X127491611Y-92629327D01*
X127573923Y-92416249D01*
X127732002Y-92172739D01*
X127933205Y-91975808D01*
X128163439Y-91832276D01*
X128408612Y-91748957D01*
X128654631Y-91732669D01*
X128877179Y-91785858D01*
X128877179Y-91785858D01*
G37*
X128877179Y-91785858D02*
X128976206Y-91846894D01*
X129090496Y-91945141D01*
X129200263Y-92059600D01*
X129285722Y-92169276D01*
X129327091Y-92253172D01*
X129328334Y-92264653D01*
X129361752Y-92315729D01*
X129384454Y-92320534D01*
X129451382Y-92350663D01*
X129533940Y-92421073D01*
X129601620Y-92501802D01*
X129624667Y-92556473D01*
X129595811Y-92595447D01*
X129514211Y-92686173D01*
X129387320Y-92820864D01*
X129222594Y-92991737D01*
X129027483Y-93191004D01*
X128809443Y-93410880D01*
X128744911Y-93475464D01*
X127865155Y-94354472D01*
X127720084Y-94204797D01*
X127575014Y-94055123D01*
X127837840Y-93789939D01*
X127955225Y-93668820D01*
X128045570Y-93570493D01*
X128095225Y-93510049D01*
X128100667Y-93499436D01*
X128064312Y-93474121D01*
X127979578Y-93449899D01*
X127830117Y-93386696D01*
X127680830Y-93270242D01*
X127561683Y-93126540D01*
X127523411Y-93054120D01*
X127470947Y-92844723D01*
X127482209Y-92727323D01*
X127908394Y-92727323D01*
X127909234Y-92848583D01*
X127960579Y-92948635D01*
X128047138Y-93035662D01*
X128166962Y-93121447D01*
X128288301Y-93186003D01*
X128374897Y-93209468D01*
X128420105Y-93181286D01*
X128510467Y-93104934D01*
X128631955Y-92992786D01*
X128742756Y-92884986D01*
X128885728Y-92741417D01*
X128976816Y-92642986D01*
X129024720Y-92575687D01*
X129038139Y-92525515D01*
X129025775Y-92478464D01*
X129012298Y-92451069D01*
X128890264Y-92281122D01*
X128740338Y-92174808D01*
X128595976Y-92142734D01*
X128469603Y-92153745D01*
X128361351Y-92195332D01*
X128248822Y-92280327D01*
X128110033Y-92421109D01*
X127974160Y-92588953D01*
X127908394Y-92727323D01*
X127482209Y-92727323D01*
X127491611Y-92629327D01*
X127573923Y-92416249D01*
X127732002Y-92172739D01*
X127933205Y-91975808D01*
X128163439Y-91832276D01*
X128408612Y-91748957D01*
X128654631Y-91732669D01*
X128877179Y-91785858D01*
G36*
X135907881Y-59310598D02*
X135917077Y-59408474D01*
X135930609Y-59569101D01*
X135947333Y-59777276D01*
X135966109Y-60017796D01*
X135985792Y-60275458D01*
X136005241Y-60535060D01*
X136023313Y-60781400D01*
X136038866Y-60999274D01*
X136050756Y-61173480D01*
X136057842Y-61288815D01*
X136059334Y-61325838D01*
X136038113Y-61333263D01*
X135972422Y-61339979D01*
X135859220Y-61346011D01*
X135695466Y-61351388D01*
X135478116Y-61356134D01*
X135204130Y-61360276D01*
X134870466Y-61363841D01*
X134474082Y-61366856D01*
X134011936Y-61369346D01*
X133480987Y-61371339D01*
X132878193Y-61372860D01*
X132200513Y-61373936D01*
X131444903Y-61374593D01*
X130608324Y-61374858D01*
X130417581Y-61374867D01*
X124775828Y-61374867D01*
X124385081Y-61767246D01*
X123994334Y-62159624D01*
X123994334Y-64930867D01*
X130176329Y-64930867D01*
X131052546Y-64930999D01*
X131847537Y-64931415D01*
X132564745Y-64932144D01*
X133207610Y-64933215D01*
X133779574Y-64934658D01*
X134284077Y-64936502D01*
X134724561Y-64938777D01*
X135104467Y-64941512D01*
X135427237Y-64944736D01*
X135696310Y-64948479D01*
X135915130Y-64952770D01*
X136087136Y-64957639D01*
X136215770Y-64963114D01*
X136304474Y-64969225D01*
X136356687Y-64976002D01*
X136375853Y-64983474D01*
X136375979Y-64983783D01*
X136381873Y-65034385D01*
X136392824Y-65162615D01*
X136408399Y-65362072D01*
X136428166Y-65626355D01*
X136451690Y-65949061D01*
X136478540Y-66323789D01*
X136508281Y-66744137D01*
X136540480Y-67203703D01*
X136574705Y-67696086D01*
X136610521Y-68214883D01*
X136647497Y-68753694D01*
X136685199Y-69306116D01*
X136723193Y-69865747D01*
X136761047Y-70426186D01*
X136798328Y-70981032D01*
X136834601Y-71523881D01*
X136869435Y-72048334D01*
X136902396Y-72547987D01*
X136933050Y-73016439D01*
X136960965Y-73447288D01*
X136985708Y-73834133D01*
X137006845Y-74170572D01*
X137023943Y-74450203D01*
X137036569Y-74666624D01*
X137044290Y-74813434D01*
X137046672Y-74884230D01*
X137046238Y-74889784D01*
X137002414Y-74893817D01*
X136879095Y-74897703D01*
X136681456Y-74901408D01*
X136414669Y-74904900D01*
X136083907Y-74908149D01*
X135694342Y-74911122D01*
X135251148Y-74913786D01*
X134759497Y-74916111D01*
X134224562Y-74918064D01*
X133651517Y-74919614D01*
X133045533Y-74920728D01*
X132411783Y-74921374D01*
X131897774Y-74921534D01*
X126767545Y-74921534D01*
X130322789Y-78477534D01*
X137367830Y-78477534D01*
X137389625Y-78615117D01*
X137395832Y-78677354D01*
X137407465Y-78817673D01*
X137424052Y-79029694D01*
X137445124Y-79307038D01*
X137470211Y-79643325D01*
X137498841Y-80032175D01*
X137530545Y-80467208D01*
X137564853Y-80942046D01*
X137601293Y-81450309D01*
X137639397Y-81985617D01*
X137669736Y-82414534D01*
X137928053Y-86076367D01*
X139692254Y-87843784D01*
X141456456Y-89611200D01*
X142983912Y-89611200D01*
X142614638Y-84478284D01*
X142567131Y-83817746D01*
X142520912Y-83174779D01*
X142476393Y-82555103D01*
X142433983Y-81964441D01*
X142394091Y-81408513D01*
X142357129Y-80893040D01*
X142323505Y-80423743D01*
X142293631Y-80006344D01*
X142267915Y-79646562D01*
X142246768Y-79350119D01*
X142230599Y-79122737D01*
X142219819Y-78970136D01*
X142215738Y-78911450D01*
X142186112Y-78477534D01*
X152253092Y-78477534D01*
X152621590Y-83578700D01*
X148078401Y-88097784D01*
X147560926Y-88612363D01*
X147059776Y-89110416D01*
X146578237Y-89588689D01*
X146119595Y-90043931D01*
X145687135Y-90472892D01*
X145284143Y-90872319D01*
X144913904Y-91238961D01*
X144579704Y-91569566D01*
X144284828Y-91860883D01*
X144032562Y-92109661D01*
X143826191Y-92312649D01*
X143669000Y-92466593D01*
X143564276Y-92568244D01*
X143515304Y-92614350D01*
X143511997Y-92616867D01*
X143480795Y-92587250D01*
X143391685Y-92499696D01*
X143246614Y-92356148D01*
X143047530Y-92158551D01*
X142796380Y-91908847D01*
X142495112Y-91608982D01*
X142145672Y-91260899D01*
X141750008Y-90866541D01*
X141310068Y-90427853D01*
X140827798Y-89946778D01*
X140305147Y-89425261D01*
X139744061Y-88865245D01*
X139146488Y-88268674D01*
X138514375Y-87637492D01*
X137849670Y-86973643D01*
X137154320Y-86279070D01*
X136430272Y-85555718D01*
X135679474Y-84805531D01*
X134903873Y-84030452D01*
X134105417Y-83232425D01*
X133286052Y-82413393D01*
X132447726Y-81575302D01*
X131592387Y-80720095D01*
X130757382Y-79885117D01*
X118025984Y-67153367D01*
X122036742Y-63131700D01*
X126047500Y-59110034D01*
X135883778Y-59087828D01*
X135907881Y-59310598D01*
X135907881Y-59310598D01*
G37*
X135907881Y-59310598D02*
X135917077Y-59408474D01*
X135930609Y-59569101D01*
X135947333Y-59777276D01*
X135966109Y-60017796D01*
X135985792Y-60275458D01*
X136005241Y-60535060D01*
X136023313Y-60781400D01*
X136038866Y-60999274D01*
X136050756Y-61173480D01*
X136057842Y-61288815D01*
X136059334Y-61325838D01*
X136038113Y-61333263D01*
X135972422Y-61339979D01*
X135859220Y-61346011D01*
X135695466Y-61351388D01*
X135478116Y-61356134D01*
X135204130Y-61360276D01*
X134870466Y-61363841D01*
X134474082Y-61366856D01*
X134011936Y-61369346D01*
X133480987Y-61371339D01*
X132878193Y-61372860D01*
X132200513Y-61373936D01*
X131444903Y-61374593D01*
X130608324Y-61374858D01*
X130417581Y-61374867D01*
X124775828Y-61374867D01*
X124385081Y-61767246D01*
X123994334Y-62159624D01*
X123994334Y-64930867D01*
X130176329Y-64930867D01*
X131052546Y-64930999D01*
X131847537Y-64931415D01*
X132564745Y-64932144D01*
X133207610Y-64933215D01*
X133779574Y-64934658D01*
X134284077Y-64936502D01*
X134724561Y-64938777D01*
X135104467Y-64941512D01*
X135427237Y-64944736D01*
X135696310Y-64948479D01*
X135915130Y-64952770D01*
X136087136Y-64957639D01*
X136215770Y-64963114D01*
X136304474Y-64969225D01*
X136356687Y-64976002D01*
X136375853Y-64983474D01*
X136375979Y-64983783D01*
X136381873Y-65034385D01*
X136392824Y-65162615D01*
X136408399Y-65362072D01*
X136428166Y-65626355D01*
X136451690Y-65949061D01*
X136478540Y-66323789D01*
X136508281Y-66744137D01*
X136540480Y-67203703D01*
X136574705Y-67696086D01*
X136610521Y-68214883D01*
X136647497Y-68753694D01*
X136685199Y-69306116D01*
X136723193Y-69865747D01*
X136761047Y-70426186D01*
X136798328Y-70981032D01*
X136834601Y-71523881D01*
X136869435Y-72048334D01*
X136902396Y-72547987D01*
X136933050Y-73016439D01*
X136960965Y-73447288D01*
X136985708Y-73834133D01*
X137006845Y-74170572D01*
X137023943Y-74450203D01*
X137036569Y-74666624D01*
X137044290Y-74813434D01*
X137046672Y-74884230D01*
X137046238Y-74889784D01*
X137002414Y-74893817D01*
X136879095Y-74897703D01*
X136681456Y-74901408D01*
X136414669Y-74904900D01*
X136083907Y-74908149D01*
X135694342Y-74911122D01*
X135251148Y-74913786D01*
X134759497Y-74916111D01*
X134224562Y-74918064D01*
X133651517Y-74919614D01*
X133045533Y-74920728D01*
X132411783Y-74921374D01*
X131897774Y-74921534D01*
X126767545Y-74921534D01*
X130322789Y-78477534D01*
X137367830Y-78477534D01*
X137389625Y-78615117D01*
X137395832Y-78677354D01*
X137407465Y-78817673D01*
X137424052Y-79029694D01*
X137445124Y-79307038D01*
X137470211Y-79643325D01*
X137498841Y-80032175D01*
X137530545Y-80467208D01*
X137564853Y-80942046D01*
X137601293Y-81450309D01*
X137639397Y-81985617D01*
X137669736Y-82414534D01*
X137928053Y-86076367D01*
X139692254Y-87843784D01*
X141456456Y-89611200D01*
X142983912Y-89611200D01*
X142614638Y-84478284D01*
X142567131Y-83817746D01*
X142520912Y-83174779D01*
X142476393Y-82555103D01*
X142433983Y-81964441D01*
X142394091Y-81408513D01*
X142357129Y-80893040D01*
X142323505Y-80423743D01*
X142293631Y-80006344D01*
X142267915Y-79646562D01*
X142246768Y-79350119D01*
X142230599Y-79122737D01*
X142219819Y-78970136D01*
X142215738Y-78911450D01*
X142186112Y-78477534D01*
X152253092Y-78477534D01*
X152621590Y-83578700D01*
X148078401Y-88097784D01*
X147560926Y-88612363D01*
X147059776Y-89110416D01*
X146578237Y-89588689D01*
X146119595Y-90043931D01*
X145687135Y-90472892D01*
X145284143Y-90872319D01*
X144913904Y-91238961D01*
X144579704Y-91569566D01*
X144284828Y-91860883D01*
X144032562Y-92109661D01*
X143826191Y-92312649D01*
X143669000Y-92466593D01*
X143564276Y-92568244D01*
X143515304Y-92614350D01*
X143511997Y-92616867D01*
X143480795Y-92587250D01*
X143391685Y-92499696D01*
X143246614Y-92356148D01*
X143047530Y-92158551D01*
X142796380Y-91908847D01*
X142495112Y-91608982D01*
X142145672Y-91260899D01*
X141750008Y-90866541D01*
X141310068Y-90427853D01*
X140827798Y-89946778D01*
X140305147Y-89425261D01*
X139744061Y-88865245D01*
X139146488Y-88268674D01*
X138514375Y-87637492D01*
X137849670Y-86973643D01*
X137154320Y-86279070D01*
X136430272Y-85555718D01*
X135679474Y-84805531D01*
X134903873Y-84030452D01*
X134105417Y-83232425D01*
X133286052Y-82413393D01*
X132447726Y-81575302D01*
X131592387Y-80720095D01*
X130757382Y-79885117D01*
X118025984Y-67153367D01*
X122036742Y-63131700D01*
X126047500Y-59110034D01*
X135883778Y-59087828D01*
X135907881Y-59310598D01*
G36*
X127296815Y-90190408D02*
X127374580Y-90260103D01*
X127445905Y-90345227D01*
X127488590Y-90420388D01*
X127489751Y-90453146D01*
X127506952Y-90495617D01*
X127585770Y-90547776D01*
X127622710Y-90564665D01*
X127840283Y-90689020D01*
X128002458Y-90850086D01*
X128103438Y-91034809D01*
X128137425Y-91230135D01*
X128098624Y-91423011D01*
X128046743Y-91519516D01*
X127882911Y-91707190D01*
X127699618Y-91814726D01*
X127499833Y-91840487D01*
X127469110Y-91837262D01*
X127288189Y-91785371D01*
X127086790Y-91684494D01*
X126896466Y-91552436D01*
X126789096Y-91453511D01*
X126686646Y-91366422D01*
X126616239Y-91355245D01*
X126580618Y-91419717D01*
X126576667Y-91473867D01*
X126611340Y-91589796D01*
X126703165Y-91723376D01*
X126833848Y-91853833D01*
X126985096Y-91960391D01*
X127022453Y-91980115D01*
X127153829Y-92048812D01*
X127214478Y-92101460D01*
X127210871Y-92156779D01*
X127149481Y-92233487D01*
X127120514Y-92263726D01*
X127033277Y-92347765D01*
X126969506Y-92398451D01*
X126954019Y-92405200D01*
X126908156Y-92381767D01*
X126813563Y-92319775D01*
X126689076Y-92231686D01*
X126664346Y-92213577D01*
X126436372Y-92014789D01*
X126271906Y-91804932D01*
X126175244Y-91593327D01*
X126150680Y-91389295D01*
X126200274Y-91206500D01*
X126246584Y-91142842D01*
X126307353Y-91072900D01*
X126939700Y-91072900D01*
X126979433Y-91143045D01*
X127082524Y-91227761D01*
X127209372Y-91311764D01*
X127379781Y-91401919D01*
X127511045Y-91425983D01*
X127615624Y-91384985D01*
X127654623Y-91348573D01*
X127709171Y-91234418D01*
X127703189Y-91159976D01*
X127640828Y-91050458D01*
X127523597Y-90942068D01*
X127378791Y-90856356D01*
X127273789Y-90820994D01*
X127176671Y-90814518D01*
X127094998Y-90853970D01*
X127023919Y-90920661D01*
X126956728Y-91003410D01*
X126939700Y-91072900D01*
X126307353Y-91072900D01*
X126338055Y-91037565D01*
X126462525Y-90902957D01*
X126607828Y-90751304D01*
X126761800Y-90594894D01*
X126912276Y-90446015D01*
X127047092Y-90316954D01*
X127154083Y-90219997D01*
X127221085Y-90167433D01*
X127234806Y-90161534D01*
X127296815Y-90190408D01*
X127296815Y-90190408D01*
G37*
X127296815Y-90190408D02*
X127374580Y-90260103D01*
X127445905Y-90345227D01*
X127488590Y-90420388D01*
X127489751Y-90453146D01*
X127506952Y-90495617D01*
X127585770Y-90547776D01*
X127622710Y-90564665D01*
X127840283Y-90689020D01*
X128002458Y-90850086D01*
X128103438Y-91034809D01*
X128137425Y-91230135D01*
X128098624Y-91423011D01*
X128046743Y-91519516D01*
X127882911Y-91707190D01*
X127699618Y-91814726D01*
X127499833Y-91840487D01*
X127469110Y-91837262D01*
X127288189Y-91785371D01*
X127086790Y-91684494D01*
X126896466Y-91552436D01*
X126789096Y-91453511D01*
X126686646Y-91366422D01*
X126616239Y-91355245D01*
X126580618Y-91419717D01*
X126576667Y-91473867D01*
X126611340Y-91589796D01*
X126703165Y-91723376D01*
X126833848Y-91853833D01*
X126985096Y-91960391D01*
X127022453Y-91980115D01*
X127153829Y-92048812D01*
X127214478Y-92101460D01*
X127210871Y-92156779D01*
X127149481Y-92233487D01*
X127120514Y-92263726D01*
X127033277Y-92347765D01*
X126969506Y-92398451D01*
X126954019Y-92405200D01*
X126908156Y-92381767D01*
X126813563Y-92319775D01*
X126689076Y-92231686D01*
X126664346Y-92213577D01*
X126436372Y-92014789D01*
X126271906Y-91804932D01*
X126175244Y-91593327D01*
X126150680Y-91389295D01*
X126200274Y-91206500D01*
X126246584Y-91142842D01*
X126307353Y-91072900D01*
X126939700Y-91072900D01*
X126979433Y-91143045D01*
X127082524Y-91227761D01*
X127209372Y-91311764D01*
X127379781Y-91401919D01*
X127511045Y-91425983D01*
X127615624Y-91384985D01*
X127654623Y-91348573D01*
X127709171Y-91234418D01*
X127703189Y-91159976D01*
X127640828Y-91050458D01*
X127523597Y-90942068D01*
X127378791Y-90856356D01*
X127273789Y-90820994D01*
X127176671Y-90814518D01*
X127094998Y-90853970D01*
X127023919Y-90920661D01*
X126956728Y-91003410D01*
X126939700Y-91072900D01*
X126307353Y-91072900D01*
X126338055Y-91037565D01*
X126462525Y-90902957D01*
X126607828Y-90751304D01*
X126761800Y-90594894D01*
X126912276Y-90446015D01*
X127047092Y-90316954D01*
X127154083Y-90219997D01*
X127221085Y-90167433D01*
X127234806Y-90161534D01*
X127296815Y-90190408D01*
G36*
X105748667Y-90838867D02*
X105655315Y-90838867D01*
X105579008Y-90842262D01*
X105421628Y-90852289D01*
X105186491Y-90868706D01*
X104876911Y-90891273D01*
X104496204Y-90919751D01*
X104047684Y-90953897D01*
X103706851Y-90980140D01*
X103584638Y-90985023D01*
X103501909Y-90979837D01*
X103484601Y-90973690D01*
X103480137Y-90928158D01*
X103476042Y-90806482D01*
X103472406Y-90617184D01*
X103469318Y-90368786D01*
X103466868Y-90069811D01*
X103465144Y-89728780D01*
X103464236Y-89354217D01*
X103464167Y-89022061D01*
X103465138Y-88534013D01*
X103467329Y-88124986D01*
X103470891Y-87789339D01*
X103475973Y-87521435D01*
X103482727Y-87315632D01*
X103491303Y-87166292D01*
X103501851Y-87067775D01*
X103514521Y-87014442D01*
X103517919Y-87007700D01*
X103559329Y-86959113D01*
X103653947Y-86858466D01*
X103794608Y-86713058D01*
X103974147Y-86530190D01*
X104185400Y-86317161D01*
X104421201Y-86081272D01*
X104659418Y-85844637D01*
X105748667Y-84766241D01*
X105748667Y-90838867D01*
X105748667Y-90838867D01*
G37*
X105748667Y-90838867D02*
X105655315Y-90838867D01*
X105579008Y-90842262D01*
X105421628Y-90852289D01*
X105186491Y-90868706D01*
X104876911Y-90891273D01*
X104496204Y-90919751D01*
X104047684Y-90953897D01*
X103706851Y-90980140D01*
X103584638Y-90985023D01*
X103501909Y-90979837D01*
X103484601Y-90973690D01*
X103480137Y-90928158D01*
X103476042Y-90806482D01*
X103472406Y-90617184D01*
X103469318Y-90368786D01*
X103466868Y-90069811D01*
X103465144Y-89728780D01*
X103464236Y-89354217D01*
X103464167Y-89022061D01*
X103465138Y-88534013D01*
X103467329Y-88124986D01*
X103470891Y-87789339D01*
X103475973Y-87521435D01*
X103482727Y-87315632D01*
X103491303Y-87166292D01*
X103501851Y-87067775D01*
X103514521Y-87014442D01*
X103517919Y-87007700D01*
X103559329Y-86959113D01*
X103653947Y-86858466D01*
X103794608Y-86713058D01*
X103974147Y-86530190D01*
X104185400Y-86317161D01*
X104421201Y-86081272D01*
X104659418Y-85844637D01*
X105748667Y-84766241D01*
X105748667Y-90838867D01*
G36*
X125907005Y-88795973D02*
X125986857Y-88871704D01*
X126055573Y-88963845D01*
X126090290Y-89044513D01*
X126088829Y-89069385D01*
X126096662Y-89123182D01*
X126177980Y-89156733D01*
X126187436Y-89158704D01*
X126333044Y-89219588D01*
X126482962Y-89332124D01*
X126606190Y-89471009D01*
X126641687Y-89529474D01*
X126692635Y-89701902D01*
X126697886Y-89907362D01*
X126658515Y-90108307D01*
X126622632Y-90194970D01*
X126499250Y-90377988D01*
X126327297Y-90562153D01*
X126136787Y-90718166D01*
X126007482Y-90795413D01*
X125778474Y-90865685D01*
X125533502Y-90872985D01*
X125304766Y-90817444D01*
X125251267Y-90792377D01*
X125130395Y-90705614D01*
X125007051Y-90582224D01*
X124956872Y-90518378D01*
X124823710Y-90329460D01*
X124334374Y-90813690D01*
X124206687Y-90691358D01*
X124126810Y-90604788D01*
X124082304Y-90537055D01*
X124079000Y-90523643D01*
X124107921Y-90482163D01*
X124188514Y-90391138D01*
X124311530Y-90259815D01*
X124467716Y-90097441D01*
X124478122Y-90086799D01*
X125156734Y-90086799D01*
X125173422Y-90173939D01*
X125241667Y-90266174D01*
X125317086Y-90340599D01*
X125476430Y-90435491D01*
X125658928Y-90458169D01*
X125828033Y-90410361D01*
X125972888Y-90310585D01*
X126114603Y-90172913D01*
X126217058Y-90032707D01*
X126220613Y-90026052D01*
X126278051Y-89848514D01*
X126254451Y-89693902D01*
X126150914Y-89564604D01*
X125968539Y-89463010D01*
X125959655Y-89459570D01*
X125765834Y-89385549D01*
X125446951Y-89704432D01*
X125290406Y-89867197D01*
X125194698Y-89989602D01*
X125156734Y-90086799D01*
X124478122Y-90086799D01*
X124647820Y-89913264D01*
X124842592Y-89716531D01*
X125042780Y-89516491D01*
X125239132Y-89322389D01*
X125422397Y-89143474D01*
X125583323Y-88988994D01*
X125712659Y-88868195D01*
X125801153Y-88790325D01*
X125838875Y-88764534D01*
X125907005Y-88795973D01*
X125907005Y-88795973D01*
G37*
X125907005Y-88795973D02*
X125986857Y-88871704D01*
X126055573Y-88963845D01*
X126090290Y-89044513D01*
X126088829Y-89069385D01*
X126096662Y-89123182D01*
X126177980Y-89156733D01*
X126187436Y-89158704D01*
X126333044Y-89219588D01*
X126482962Y-89332124D01*
X126606190Y-89471009D01*
X126641687Y-89529474D01*
X126692635Y-89701902D01*
X126697886Y-89907362D01*
X126658515Y-90108307D01*
X126622632Y-90194970D01*
X126499250Y-90377988D01*
X126327297Y-90562153D01*
X126136787Y-90718166D01*
X126007482Y-90795413D01*
X125778474Y-90865685D01*
X125533502Y-90872985D01*
X125304766Y-90817444D01*
X125251267Y-90792377D01*
X125130395Y-90705614D01*
X125007051Y-90582224D01*
X124956872Y-90518378D01*
X124823710Y-90329460D01*
X124334374Y-90813690D01*
X124206687Y-90691358D01*
X124126810Y-90604788D01*
X124082304Y-90537055D01*
X124079000Y-90523643D01*
X124107921Y-90482163D01*
X124188514Y-90391138D01*
X124311530Y-90259815D01*
X124467716Y-90097441D01*
X124478122Y-90086799D01*
X125156734Y-90086799D01*
X125173422Y-90173939D01*
X125241667Y-90266174D01*
X125317086Y-90340599D01*
X125476430Y-90435491D01*
X125658928Y-90458169D01*
X125828033Y-90410361D01*
X125972888Y-90310585D01*
X126114603Y-90172913D01*
X126217058Y-90032707D01*
X126220613Y-90026052D01*
X126278051Y-89848514D01*
X126254451Y-89693902D01*
X126150914Y-89564604D01*
X125968539Y-89463010D01*
X125959655Y-89459570D01*
X125765834Y-89385549D01*
X125446951Y-89704432D01*
X125290406Y-89867197D01*
X125194698Y-89989602D01*
X125156734Y-90086799D01*
X124478122Y-90086799D01*
X124647820Y-89913264D01*
X124842592Y-89716531D01*
X125042780Y-89516491D01*
X125239132Y-89322389D01*
X125422397Y-89143474D01*
X125583323Y-88988994D01*
X125712659Y-88868195D01*
X125801153Y-88790325D01*
X125838875Y-88764534D01*
X125907005Y-88795973D01*
G36*
X115410675Y-82869041D02*
X119295334Y-86753528D01*
X119295334Y-89813003D01*
X119030750Y-89839740D01*
X118953921Y-89846147D01*
X118800756Y-89857697D01*
X118577867Y-89873936D01*
X118291863Y-89894411D01*
X117949353Y-89918668D01*
X117556949Y-89946255D01*
X117121260Y-89976717D01*
X116648896Y-90009602D01*
X116146467Y-90044456D01*
X115620584Y-90080825D01*
X115077855Y-90118256D01*
X114524891Y-90156295D01*
X113968303Y-90194490D01*
X113414700Y-90232387D01*
X112870692Y-90269532D01*
X112342889Y-90305472D01*
X111837901Y-90339753D01*
X111362338Y-90371923D01*
X110922811Y-90401527D01*
X110525928Y-90428112D01*
X110178301Y-90451226D01*
X109886539Y-90470414D01*
X109657252Y-90485222D01*
X109497051Y-90495199D01*
X109412544Y-90499889D01*
X109402459Y-90500200D01*
X109304667Y-90500200D01*
X109304667Y-81211710D01*
X110415342Y-80098132D01*
X111526016Y-78984555D01*
X115410675Y-82869041D01*
X115410675Y-82869041D01*
G37*
X115410675Y-82869041D02*
X119295334Y-86753528D01*
X119295334Y-89813003D01*
X119030750Y-89839740D01*
X118953921Y-89846147D01*
X118800756Y-89857697D01*
X118577867Y-89873936D01*
X118291863Y-89894411D01*
X117949353Y-89918668D01*
X117556949Y-89946255D01*
X117121260Y-89976717D01*
X116648896Y-90009602D01*
X116146467Y-90044456D01*
X115620584Y-90080825D01*
X115077855Y-90118256D01*
X114524891Y-90156295D01*
X113968303Y-90194490D01*
X113414700Y-90232387D01*
X112870692Y-90269532D01*
X112342889Y-90305472D01*
X111837901Y-90339753D01*
X111362338Y-90371923D01*
X110922811Y-90401527D01*
X110525928Y-90428112D01*
X110178301Y-90451226D01*
X109886539Y-90470414D01*
X109657252Y-90485222D01*
X109497051Y-90495199D01*
X109412544Y-90499889D01*
X109402459Y-90500200D01*
X109304667Y-90500200D01*
X109304667Y-81211710D01*
X110415342Y-80098132D01*
X111526016Y-78984555D01*
X115410675Y-82869041D01*
G36*
X125132998Y-87236742D02*
X125342018Y-87344138D01*
X125542650Y-87508041D01*
X125718711Y-87716106D01*
X125812955Y-87870414D01*
X125838652Y-87937113D01*
X125825542Y-87995692D01*
X125763566Y-88072436D01*
X125717747Y-88119209D01*
X125569666Y-88267290D01*
X125494798Y-88145495D01*
X125381386Y-87965381D01*
X125294914Y-87841466D01*
X125221138Y-87755975D01*
X125145810Y-87691132D01*
X125110328Y-87665811D01*
X124962173Y-87597633D01*
X124820137Y-87608847D01*
X124694206Y-87678779D01*
X124647796Y-87718993D01*
X124654187Y-87749392D01*
X124724046Y-87786576D01*
X124778295Y-87809638D01*
X125008448Y-87944452D01*
X125173959Y-88126938D01*
X125204856Y-88180348D01*
X125253759Y-88346818D01*
X125258913Y-88547732D01*
X125221544Y-88745801D01*
X125183160Y-88840303D01*
X125072792Y-89004473D01*
X124918685Y-89172085D01*
X124747751Y-89317426D01*
X124586905Y-89414781D01*
X124577777Y-89418696D01*
X124358482Y-89473367D01*
X124121830Y-89473134D01*
X123904931Y-89419150D01*
X123856007Y-89396270D01*
X123733467Y-89308462D01*
X123611642Y-89185887D01*
X123570963Y-89133557D01*
X123459732Y-88990033D01*
X123330203Y-88842597D01*
X123285957Y-88796993D01*
X123126500Y-88638952D01*
X123127025Y-88638425D01*
X123719167Y-88638425D01*
X123803834Y-88796729D01*
X123912392Y-88936566D01*
X124055095Y-89036082D01*
X124206323Y-89080554D01*
X124288376Y-89075200D01*
X124393177Y-89033039D01*
X124514271Y-88961338D01*
X124537688Y-88944572D01*
X124685408Y-88804640D01*
X124791383Y-88644979D01*
X124839550Y-88490970D01*
X124840842Y-88465537D01*
X124803711Y-88349192D01*
X124705537Y-88230036D01*
X124566619Y-88128745D01*
X124464876Y-88082556D01*
X124399084Y-88062432D01*
X124344714Y-88061706D01*
X124285796Y-88089506D01*
X124206362Y-88154958D01*
X124090443Y-88267191D01*
X124021577Y-88335934D01*
X123719167Y-88638425D01*
X123127025Y-88638425D01*
X123761500Y-88002207D01*
X124015252Y-87751624D01*
X124222454Y-87557513D01*
X124392896Y-87413147D01*
X124536372Y-87311798D01*
X124662671Y-87246740D01*
X124781586Y-87211246D01*
X124902908Y-87198588D01*
X124931775Y-87198200D01*
X125132998Y-87236742D01*
X125132998Y-87236742D01*
G37*
X125132998Y-87236742D02*
X125342018Y-87344138D01*
X125542650Y-87508041D01*
X125718711Y-87716106D01*
X125812955Y-87870414D01*
X125838652Y-87937113D01*
X125825542Y-87995692D01*
X125763566Y-88072436D01*
X125717747Y-88119209D01*
X125569666Y-88267290D01*
X125494798Y-88145495D01*
X125381386Y-87965381D01*
X125294914Y-87841466D01*
X125221138Y-87755975D01*
X125145810Y-87691132D01*
X125110328Y-87665811D01*
X124962173Y-87597633D01*
X124820137Y-87608847D01*
X124694206Y-87678779D01*
X124647796Y-87718993D01*
X124654187Y-87749392D01*
X124724046Y-87786576D01*
X124778295Y-87809638D01*
X125008448Y-87944452D01*
X125173959Y-88126938D01*
X125204856Y-88180348D01*
X125253759Y-88346818D01*
X125258913Y-88547732D01*
X125221544Y-88745801D01*
X125183160Y-88840303D01*
X125072792Y-89004473D01*
X124918685Y-89172085D01*
X124747751Y-89317426D01*
X124586905Y-89414781D01*
X124577777Y-89418696D01*
X124358482Y-89473367D01*
X124121830Y-89473134D01*
X123904931Y-89419150D01*
X123856007Y-89396270D01*
X123733467Y-89308462D01*
X123611642Y-89185887D01*
X123570963Y-89133557D01*
X123459732Y-88990033D01*
X123330203Y-88842597D01*
X123285957Y-88796993D01*
X123126500Y-88638952D01*
X123127025Y-88638425D01*
X123719167Y-88638425D01*
X123803834Y-88796729D01*
X123912392Y-88936566D01*
X124055095Y-89036082D01*
X124206323Y-89080554D01*
X124288376Y-89075200D01*
X124393177Y-89033039D01*
X124514271Y-88961338D01*
X124537688Y-88944572D01*
X124685408Y-88804640D01*
X124791383Y-88644979D01*
X124839550Y-88490970D01*
X124840842Y-88465537D01*
X124803711Y-88349192D01*
X124705537Y-88230036D01*
X124566619Y-88128745D01*
X124464876Y-88082556D01*
X124399084Y-88062432D01*
X124344714Y-88061706D01*
X124285796Y-88089506D01*
X124206362Y-88154958D01*
X124090443Y-88267191D01*
X124021577Y-88335934D01*
X123719167Y-88638425D01*
X123127025Y-88638425D01*
X123761500Y-88002207D01*
X124015252Y-87751624D01*
X124222454Y-87557513D01*
X124392896Y-87413147D01*
X124536372Y-87311798D01*
X124662671Y-87246740D01*
X124781586Y-87211246D01*
X124902908Y-87198588D01*
X124931775Y-87198200D01*
X125132998Y-87236742D01*
G36*
X123168834Y-86124028D02*
X123437388Y-86294672D01*
X123644602Y-86500117D01*
X123785830Y-86730560D01*
X123856429Y-86976200D01*
X123851754Y-87227234D01*
X123788127Y-87431034D01*
X123690946Y-87584215D01*
X123544347Y-87748424D01*
X123375161Y-87897891D01*
X123210222Y-88006847D01*
X123167637Y-88026928D01*
X122971967Y-88075574D01*
X122754178Y-88079350D01*
X122557979Y-88038155D01*
X122533834Y-88028406D01*
X122326310Y-87902400D01*
X122153020Y-87729546D01*
X122028637Y-87529598D01*
X121969097Y-87326595D01*
X122367999Y-87326595D01*
X122421012Y-87462069D01*
X122522457Y-87579838D01*
X122654557Y-87665699D01*
X122799532Y-87705450D01*
X122939606Y-87684890D01*
X122978334Y-87664637D01*
X122998491Y-87634717D01*
X122979894Y-87584307D01*
X122914980Y-87502020D01*
X122796183Y-87376468D01*
X122767890Y-87347785D01*
X122644199Y-87226407D01*
X122541521Y-87132136D01*
X122474947Y-87078523D01*
X122459925Y-87071200D01*
X122422202Y-87106233D01*
X122381196Y-87187617D01*
X122367999Y-87326595D01*
X121969097Y-87326595D01*
X121967839Y-87322307D01*
X121964193Y-87261700D01*
X121998186Y-87079815D01*
X122090636Y-86882743D01*
X122227248Y-86698607D01*
X122275439Y-86649395D01*
X122429549Y-86502757D01*
X122872540Y-86944240D01*
X123044225Y-87114371D01*
X123166652Y-87231507D01*
X123250058Y-87302898D01*
X123304676Y-87335791D01*
X123340741Y-87337437D01*
X123368487Y-87315084D01*
X123378420Y-87302545D01*
X123418306Y-87208564D01*
X123440879Y-87075868D01*
X123442654Y-87033880D01*
X123435736Y-86920002D01*
X123402940Y-86830874D01*
X123329179Y-86735897D01*
X123260882Y-86665275D01*
X123057851Y-86504362D01*
X122879882Y-86429232D01*
X122764791Y-86389733D01*
X122693431Y-86348459D01*
X122682000Y-86329891D01*
X122710213Y-86274532D01*
X122781341Y-86189247D01*
X122819584Y-86150431D01*
X122957167Y-86017386D01*
X123168834Y-86124028D01*
X123168834Y-86124028D01*
G37*
X123168834Y-86124028D02*
X123437388Y-86294672D01*
X123644602Y-86500117D01*
X123785830Y-86730560D01*
X123856429Y-86976200D01*
X123851754Y-87227234D01*
X123788127Y-87431034D01*
X123690946Y-87584215D01*
X123544347Y-87748424D01*
X123375161Y-87897891D01*
X123210222Y-88006847D01*
X123167637Y-88026928D01*
X122971967Y-88075574D01*
X122754178Y-88079350D01*
X122557979Y-88038155D01*
X122533834Y-88028406D01*
X122326310Y-87902400D01*
X122153020Y-87729546D01*
X122028637Y-87529598D01*
X121969097Y-87326595D01*
X122367999Y-87326595D01*
X122421012Y-87462069D01*
X122522457Y-87579838D01*
X122654557Y-87665699D01*
X122799532Y-87705450D01*
X122939606Y-87684890D01*
X122978334Y-87664637D01*
X122998491Y-87634717D01*
X122979894Y-87584307D01*
X122914980Y-87502020D01*
X122796183Y-87376468D01*
X122767890Y-87347785D01*
X122644199Y-87226407D01*
X122541521Y-87132136D01*
X122474947Y-87078523D01*
X122459925Y-87071200D01*
X122422202Y-87106233D01*
X122381196Y-87187617D01*
X122367999Y-87326595D01*
X121969097Y-87326595D01*
X121967839Y-87322307D01*
X121964193Y-87261700D01*
X121998186Y-87079815D01*
X122090636Y-86882743D01*
X122227248Y-86698607D01*
X122275439Y-86649395D01*
X122429549Y-86502757D01*
X122872540Y-86944240D01*
X123044225Y-87114371D01*
X123166652Y-87231507D01*
X123250058Y-87302898D01*
X123304676Y-87335791D01*
X123340741Y-87337437D01*
X123368487Y-87315084D01*
X123378420Y-87302545D01*
X123418306Y-87208564D01*
X123440879Y-87075868D01*
X123442654Y-87033880D01*
X123435736Y-86920002D01*
X123402940Y-86830874D01*
X123329179Y-86735897D01*
X123260882Y-86665275D01*
X123057851Y-86504362D01*
X122879882Y-86429232D01*
X122764791Y-86389733D01*
X122693431Y-86348459D01*
X122682000Y-86329891D01*
X122710213Y-86274532D01*
X122781341Y-86189247D01*
X122819584Y-86150431D01*
X122957167Y-86017386D01*
X123168834Y-86124028D01*
G36*
X121493298Y-84391412D02*
X121574891Y-84462066D01*
X121653608Y-84546855D01*
X121702844Y-84618805D01*
X121708334Y-84638555D01*
X121680017Y-84681787D01*
X121602660Y-84771709D01*
X121487655Y-84895711D01*
X121346391Y-85041180D01*
X121327264Y-85060437D01*
X120946194Y-85443098D01*
X121306147Y-85801180D01*
X121666099Y-86159263D01*
X122468463Y-85360235D01*
X122596398Y-85482804D01*
X122676365Y-85569443D01*
X122720983Y-85637248D01*
X122724334Y-85650767D01*
X122695726Y-85689470D01*
X122616090Y-85778163D01*
X122494710Y-85907453D01*
X122340867Y-86067946D01*
X122163843Y-86250248D01*
X121972921Y-86444964D01*
X121777383Y-86642702D01*
X121586511Y-86834068D01*
X121409588Y-87009667D01*
X121255896Y-87160106D01*
X121134717Y-87275991D01*
X121055334Y-87347928D01*
X121027950Y-87367534D01*
X120986441Y-87339865D01*
X120912601Y-87271166D01*
X120890754Y-87248800D01*
X120817483Y-87163090D01*
X120778799Y-87099834D01*
X120777000Y-87091046D01*
X120805136Y-87046421D01*
X120881050Y-86957038D01*
X120992001Y-86837349D01*
X121082920Y-86744050D01*
X121388839Y-86436075D01*
X121030968Y-86076334D01*
X120673097Y-85716594D01*
X120374803Y-86012897D01*
X120241041Y-86139161D01*
X120123001Y-86238638D01*
X120037032Y-86298151D01*
X120007184Y-86309200D01*
X119937784Y-86278814D01*
X119850115Y-86203110D01*
X119825090Y-86175181D01*
X119712320Y-86041161D01*
X120551180Y-85201514D01*
X120770435Y-84983614D01*
X120971523Y-84786746D01*
X121146398Y-84618550D01*
X121287012Y-84486667D01*
X121385318Y-84398737D01*
X121433271Y-84362403D01*
X121435433Y-84361867D01*
X121493298Y-84391412D01*
X121493298Y-84391412D01*
G37*
X121493298Y-84391412D02*
X121574891Y-84462066D01*
X121653608Y-84546855D01*
X121702844Y-84618805D01*
X121708334Y-84638555D01*
X121680017Y-84681787D01*
X121602660Y-84771709D01*
X121487655Y-84895711D01*
X121346391Y-85041180D01*
X121327264Y-85060437D01*
X120946194Y-85443098D01*
X121306147Y-85801180D01*
X121666099Y-86159263D01*
X122468463Y-85360235D01*
X122596398Y-85482804D01*
X122676365Y-85569443D01*
X122720983Y-85637248D01*
X122724334Y-85650767D01*
X122695726Y-85689470D01*
X122616090Y-85778163D01*
X122494710Y-85907453D01*
X122340867Y-86067946D01*
X122163843Y-86250248D01*
X121972921Y-86444964D01*
X121777383Y-86642702D01*
X121586511Y-86834068D01*
X121409588Y-87009667D01*
X121255896Y-87160106D01*
X121134717Y-87275991D01*
X121055334Y-87347928D01*
X121027950Y-87367534D01*
X120986441Y-87339865D01*
X120912601Y-87271166D01*
X120890754Y-87248800D01*
X120817483Y-87163090D01*
X120778799Y-87099834D01*
X120777000Y-87091046D01*
X120805136Y-87046421D01*
X120881050Y-86957038D01*
X120992001Y-86837349D01*
X121082920Y-86744050D01*
X121388839Y-86436075D01*
X121030968Y-86076334D01*
X120673097Y-85716594D01*
X120374803Y-86012897D01*
X120241041Y-86139161D01*
X120123001Y-86238638D01*
X120037032Y-86298151D01*
X120007184Y-86309200D01*
X119937784Y-86278814D01*
X119850115Y-86203110D01*
X119825090Y-86175181D01*
X119712320Y-86041161D01*
X120551180Y-85201514D01*
X120770435Y-84983614D01*
X120971523Y-84786746D01*
X121146398Y-84618550D01*
X121287012Y-84486667D01*
X121385318Y-84398737D01*
X121433271Y-84362403D01*
X121435433Y-84361867D01*
X121493298Y-84391412D01*
G36*
X153234522Y-84175306D02*
X153323960Y-84299238D01*
X153373767Y-84383208D01*
X153510777Y-84622677D01*
X153645321Y-84492272D01*
X153736521Y-84412699D01*
X153807044Y-84366537D01*
X153823386Y-84361867D01*
X153883240Y-84392138D01*
X153960533Y-84462659D01*
X154026102Y-84542993D01*
X154051000Y-84599420D01*
X154022871Y-84650022D01*
X153950544Y-84735750D01*
X153885587Y-84802539D01*
X153720173Y-84964061D01*
X153831814Y-85148890D01*
X153943455Y-85333720D01*
X154102428Y-85178486D01*
X154261401Y-85023253D01*
X154367867Y-85123272D01*
X154447410Y-85216131D01*
X154465109Y-85301537D01*
X154418414Y-85398670D01*
X154315730Y-85515556D01*
X154157126Y-85677981D01*
X154259929Y-85856007D01*
X154363387Y-86034644D01*
X154429858Y-86154522D01*
X154462850Y-86231233D01*
X154465874Y-86280372D01*
X154442441Y-86317531D01*
X154396059Y-86358305D01*
X154376723Y-86374855D01*
X154289786Y-86442813D01*
X154227754Y-86477418D01*
X154221080Y-86478534D01*
X154182503Y-86444572D01*
X154118520Y-86356038D01*
X154051512Y-86246595D01*
X153964584Y-86099931D01*
X153904376Y-86018861D01*
X153858333Y-85993973D01*
X153813899Y-86015855D01*
X153784067Y-86046102D01*
X153751834Y-86092289D01*
X153750281Y-86144082D01*
X153784893Y-86222977D01*
X153861153Y-86350466D01*
X153862120Y-86352020D01*
X153960471Y-86529813D01*
X154001099Y-86661674D01*
X153986029Y-86761660D01*
X153931250Y-86831806D01*
X153857384Y-86885082D01*
X153793126Y-86888955D01*
X153724413Y-86835805D01*
X153637182Y-86718013D01*
X153592019Y-86648032D01*
X153431523Y-86394198D01*
X153310008Y-86521032D01*
X153189482Y-86620178D01*
X153086966Y-86641067D01*
X152992151Y-86585232D01*
X152978061Y-86570450D01*
X152921677Y-86487059D01*
X152920677Y-86406403D01*
X152979787Y-86309268D01*
X153065469Y-86215008D01*
X153222937Y-86053745D01*
X153119583Y-85864546D01*
X153016228Y-85675347D01*
X152855685Y-85832114D01*
X152695142Y-85988880D01*
X152559450Y-85853189D01*
X152423759Y-85717498D01*
X152610882Y-85526833D01*
X152702408Y-85433575D01*
X153310438Y-85433575D01*
X153344579Y-85507896D01*
X153394799Y-85589478D01*
X153463323Y-85692734D01*
X153508268Y-85734237D01*
X153549581Y-85724859D01*
X153586737Y-85694097D01*
X153639239Y-85632716D01*
X153636007Y-85569136D01*
X153608156Y-85510310D01*
X153543821Y-85399574D01*
X153491826Y-85322145D01*
X153445325Y-85271004D01*
X153404524Y-85281538D01*
X153358591Y-85328803D01*
X153316382Y-85383046D01*
X153310438Y-85433575D01*
X152702408Y-85433575D01*
X152798005Y-85336169D01*
X152702946Y-85177101D01*
X152623192Y-85038298D01*
X152548846Y-84900716D01*
X152537861Y-84879245D01*
X152495315Y-84783849D01*
X152499124Y-84722014D01*
X152555887Y-84652551D01*
X152577682Y-84630609D01*
X152660953Y-84566002D01*
X152726240Y-84546777D01*
X152734756Y-84549950D01*
X152780768Y-84598848D01*
X152854325Y-84697716D01*
X152931984Y-84813626D01*
X153013497Y-84937802D01*
X153066098Y-85001006D01*
X153105654Y-85014123D01*
X153148030Y-84988036D01*
X153164683Y-84973272D01*
X153220058Y-84907732D01*
X153211106Y-84844906D01*
X153190529Y-84810065D01*
X153136309Y-84722244D01*
X153061544Y-84596994D01*
X153019268Y-84524802D01*
X152904861Y-84327905D01*
X153005593Y-84210797D01*
X153086493Y-84136309D01*
X153159084Y-84122738D01*
X153234522Y-84175306D01*
X153234522Y-84175306D01*
G37*
X153234522Y-84175306D02*
X153323960Y-84299238D01*
X153373767Y-84383208D01*
X153510777Y-84622677D01*
X153645321Y-84492272D01*
X153736521Y-84412699D01*
X153807044Y-84366537D01*
X153823386Y-84361867D01*
X153883240Y-84392138D01*
X153960533Y-84462659D01*
X154026102Y-84542993D01*
X154051000Y-84599420D01*
X154022871Y-84650022D01*
X153950544Y-84735750D01*
X153885587Y-84802539D01*
X153720173Y-84964061D01*
X153831814Y-85148890D01*
X153943455Y-85333720D01*
X154102428Y-85178486D01*
X154261401Y-85023253D01*
X154367867Y-85123272D01*
X154447410Y-85216131D01*
X154465109Y-85301537D01*
X154418414Y-85398670D01*
X154315730Y-85515556D01*
X154157126Y-85677981D01*
X154259929Y-85856007D01*
X154363387Y-86034644D01*
X154429858Y-86154522D01*
X154462850Y-86231233D01*
X154465874Y-86280372D01*
X154442441Y-86317531D01*
X154396059Y-86358305D01*
X154376723Y-86374855D01*
X154289786Y-86442813D01*
X154227754Y-86477418D01*
X154221080Y-86478534D01*
X154182503Y-86444572D01*
X154118520Y-86356038D01*
X154051512Y-86246595D01*
X153964584Y-86099931D01*
X153904376Y-86018861D01*
X153858333Y-85993973D01*
X153813899Y-86015855D01*
X153784067Y-86046102D01*
X153751834Y-86092289D01*
X153750281Y-86144082D01*
X153784893Y-86222977D01*
X153861153Y-86350466D01*
X153862120Y-86352020D01*
X153960471Y-86529813D01*
X154001099Y-86661674D01*
X153986029Y-86761660D01*
X153931250Y-86831806D01*
X153857384Y-86885082D01*
X153793126Y-86888955D01*
X153724413Y-86835805D01*
X153637182Y-86718013D01*
X153592019Y-86648032D01*
X153431523Y-86394198D01*
X153310008Y-86521032D01*
X153189482Y-86620178D01*
X153086966Y-86641067D01*
X152992151Y-86585232D01*
X152978061Y-86570450D01*
X152921677Y-86487059D01*
X152920677Y-86406403D01*
X152979787Y-86309268D01*
X153065469Y-86215008D01*
X153222937Y-86053745D01*
X153119583Y-85864546D01*
X153016228Y-85675347D01*
X152855685Y-85832114D01*
X152695142Y-85988880D01*
X152559450Y-85853189D01*
X152423759Y-85717498D01*
X152610882Y-85526833D01*
X152702408Y-85433575D01*
X153310438Y-85433575D01*
X153344579Y-85507896D01*
X153394799Y-85589478D01*
X153463323Y-85692734D01*
X153508268Y-85734237D01*
X153549581Y-85724859D01*
X153586737Y-85694097D01*
X153639239Y-85632716D01*
X153636007Y-85569136D01*
X153608156Y-85510310D01*
X153543821Y-85399574D01*
X153491826Y-85322145D01*
X153445325Y-85271004D01*
X153404524Y-85281538D01*
X153358591Y-85328803D01*
X153316382Y-85383046D01*
X153310438Y-85433575D01*
X152702408Y-85433575D01*
X152798005Y-85336169D01*
X152702946Y-85177101D01*
X152623192Y-85038298D01*
X152548846Y-84900716D01*
X152537861Y-84879245D01*
X152495315Y-84783849D01*
X152499124Y-84722014D01*
X152555887Y-84652551D01*
X152577682Y-84630609D01*
X152660953Y-84566002D01*
X152726240Y-84546777D01*
X152734756Y-84549950D01*
X152780768Y-84598848D01*
X152854325Y-84697716D01*
X152931984Y-84813626D01*
X153013497Y-84937802D01*
X153066098Y-85001006D01*
X153105654Y-85014123D01*
X153148030Y-84988036D01*
X153164683Y-84973272D01*
X153220058Y-84907732D01*
X153211106Y-84844906D01*
X153190529Y-84810065D01*
X153136309Y-84722244D01*
X153061544Y-84596994D01*
X153019268Y-84524802D01*
X152904861Y-84327905D01*
X153005593Y-84210797D01*
X153086493Y-84136309D01*
X153159084Y-84122738D01*
X153234522Y-84175306D01*
G36*
X155475903Y-83125206D02*
X155694594Y-83237747D01*
X155893860Y-83398519D01*
X156062606Y-83595758D01*
X156189734Y-83817701D01*
X156264149Y-84052583D01*
X156274755Y-84288640D01*
X156254712Y-84396016D01*
X156190803Y-84546475D01*
X156088557Y-84699952D01*
X155967908Y-84832541D01*
X155848784Y-84920336D01*
X155802405Y-84938512D01*
X155725624Y-84976008D01*
X155702000Y-85014703D01*
X155672328Y-85075874D01*
X155601288Y-85159913D01*
X155515841Y-85239794D01*
X155442953Y-85288492D01*
X155424139Y-85293200D01*
X155385054Y-85264343D01*
X155294230Y-85182743D01*
X155159460Y-85055860D01*
X154988540Y-84891150D01*
X154789265Y-84696072D01*
X154569428Y-84478085D01*
X154505705Y-84414414D01*
X154282873Y-84190090D01*
X154080857Y-83984221D01*
X154078211Y-83981485D01*
X154824323Y-83981485D01*
X154847424Y-84044156D01*
X154907435Y-84126722D01*
X155013922Y-84243290D01*
X155113273Y-84344666D01*
X155245671Y-84474517D01*
X155357825Y-84578142D01*
X155435592Y-84642843D01*
X155462504Y-84658200D01*
X155510924Y-84630427D01*
X155596328Y-84558749D01*
X155670108Y-84488386D01*
X155767895Y-84383316D01*
X155814363Y-84304676D01*
X155822579Y-84223919D01*
X155815820Y-84170048D01*
X155760209Y-84017036D01*
X155653451Y-83860234D01*
X155515220Y-83718927D01*
X155365192Y-83612401D01*
X155223040Y-83559941D01*
X155190946Y-83557534D01*
X155078005Y-83594254D01*
X154963610Y-83689042D01*
X154870528Y-83818834D01*
X154828570Y-83924595D01*
X154824323Y-83981485D01*
X154078211Y-83981485D01*
X153907107Y-83804600D01*
X153769076Y-83659020D01*
X153674213Y-83555276D01*
X153629969Y-83501160D01*
X153627667Y-83495981D01*
X153658534Y-83431689D01*
X153732757Y-83347283D01*
X153822763Y-83268889D01*
X153900983Y-83222632D01*
X153920109Y-83218867D01*
X153979477Y-83247093D01*
X154077914Y-83321834D01*
X154196217Y-83428184D01*
X154221175Y-83452533D01*
X154457305Y-83686199D01*
X154531550Y-83517919D01*
X154666252Y-83311803D01*
X154857306Y-83160171D01*
X155024630Y-83091877D01*
X155248883Y-83072662D01*
X155475903Y-83125206D01*
X155475903Y-83125206D01*
G37*
X155475903Y-83125206D02*
X155694594Y-83237747D01*
X155893860Y-83398519D01*
X156062606Y-83595758D01*
X156189734Y-83817701D01*
X156264149Y-84052583D01*
X156274755Y-84288640D01*
X156254712Y-84396016D01*
X156190803Y-84546475D01*
X156088557Y-84699952D01*
X155967908Y-84832541D01*
X155848784Y-84920336D01*
X155802405Y-84938512D01*
X155725624Y-84976008D01*
X155702000Y-85014703D01*
X155672328Y-85075874D01*
X155601288Y-85159913D01*
X155515841Y-85239794D01*
X155442953Y-85288492D01*
X155424139Y-85293200D01*
X155385054Y-85264343D01*
X155294230Y-85182743D01*
X155159460Y-85055860D01*
X154988540Y-84891150D01*
X154789265Y-84696072D01*
X154569428Y-84478085D01*
X154505705Y-84414414D01*
X154282873Y-84190090D01*
X154080857Y-83984221D01*
X154078211Y-83981485D01*
X154824323Y-83981485D01*
X154847424Y-84044156D01*
X154907435Y-84126722D01*
X155013922Y-84243290D01*
X155113273Y-84344666D01*
X155245671Y-84474517D01*
X155357825Y-84578142D01*
X155435592Y-84642843D01*
X155462504Y-84658200D01*
X155510924Y-84630427D01*
X155596328Y-84558749D01*
X155670108Y-84488386D01*
X155767895Y-84383316D01*
X155814363Y-84304676D01*
X155822579Y-84223919D01*
X155815820Y-84170048D01*
X155760209Y-84017036D01*
X155653451Y-83860234D01*
X155515220Y-83718927D01*
X155365192Y-83612401D01*
X155223040Y-83559941D01*
X155190946Y-83557534D01*
X155078005Y-83594254D01*
X154963610Y-83689042D01*
X154870528Y-83818834D01*
X154828570Y-83924595D01*
X154824323Y-83981485D01*
X154078211Y-83981485D01*
X153907107Y-83804600D01*
X153769076Y-83659020D01*
X153674213Y-83555276D01*
X153629969Y-83501160D01*
X153627667Y-83495981D01*
X153658534Y-83431689D01*
X153732757Y-83347283D01*
X153822763Y-83268889D01*
X153900983Y-83222632D01*
X153920109Y-83218867D01*
X153979477Y-83247093D01*
X154077914Y-83321834D01*
X154196217Y-83428184D01*
X154221175Y-83452533D01*
X154457305Y-83686199D01*
X154531550Y-83517919D01*
X154666252Y-83311803D01*
X154857306Y-83160171D01*
X155024630Y-83091877D01*
X155248883Y-83072662D01*
X155475903Y-83125206D01*
G36*
X120185617Y-83071929D02*
X120269158Y-83173032D01*
X120298695Y-83256965D01*
X120297039Y-83268959D01*
X120308565Y-83328376D01*
X120390325Y-83365588D01*
X120405281Y-83369072D01*
X120524826Y-83422136D01*
X120659291Y-83521380D01*
X120788249Y-83646247D01*
X120891273Y-83776182D01*
X120947936Y-83890629D01*
X120952917Y-83920168D01*
X120935624Y-84179196D01*
X120857410Y-84388902D01*
X120723547Y-84542765D01*
X120539306Y-84634269D01*
X120356032Y-84658200D01*
X120170050Y-84630939D01*
X119972348Y-84545011D01*
X119750100Y-84394199D01*
X119658207Y-84319979D01*
X119542886Y-84227528D01*
X119473095Y-84185823D01*
X119432446Y-84187863D01*
X119410944Y-84214389D01*
X119394567Y-84324880D01*
X119447225Y-84455291D01*
X119559524Y-84593637D01*
X119722075Y-84727934D01*
X119893653Y-84830417D01*
X120012253Y-84906040D01*
X120050730Y-84978299D01*
X120012133Y-85059663D01*
X119962084Y-85110190D01*
X119870846Y-85185279D01*
X119797227Y-85214656D01*
X119716965Y-85196527D01*
X119605799Y-85129095D01*
X119534092Y-85078512D01*
X119290179Y-84874636D01*
X119112686Y-84663089D01*
X119005415Y-84451386D01*
X118972166Y-84247040D01*
X119016742Y-84057566D01*
X119017146Y-84056711D01*
X119069846Y-83978610D01*
X119151388Y-83879815D01*
X119746459Y-83879815D01*
X119774489Y-83929602D01*
X119789858Y-83947033D01*
X119868899Y-84018483D01*
X119982392Y-84103459D01*
X120105811Y-84185702D01*
X120214626Y-84248955D01*
X120284311Y-84276963D01*
X120288005Y-84277200D01*
X120355304Y-84254693D01*
X120428914Y-84211300D01*
X120502993Y-84117684D01*
X120510554Y-84002399D01*
X120460692Y-83881871D01*
X120362502Y-83772529D01*
X120225077Y-83690799D01*
X120124402Y-83661243D01*
X120009941Y-83650544D01*
X119924658Y-83681573D01*
X119843191Y-83750406D01*
X119766857Y-83829308D01*
X119746459Y-83879815D01*
X119151388Y-83879815D01*
X119171354Y-83855626D01*
X119309461Y-83701577D01*
X119471960Y-83530278D01*
X119569736Y-83431295D01*
X120055316Y-82947093D01*
X120185617Y-83071929D01*
X120185617Y-83071929D01*
G37*
X120185617Y-83071929D02*
X120269158Y-83173032D01*
X120298695Y-83256965D01*
X120297039Y-83268959D01*
X120308565Y-83328376D01*
X120390325Y-83365588D01*
X120405281Y-83369072D01*
X120524826Y-83422136D01*
X120659291Y-83521380D01*
X120788249Y-83646247D01*
X120891273Y-83776182D01*
X120947936Y-83890629D01*
X120952917Y-83920168D01*
X120935624Y-84179196D01*
X120857410Y-84388902D01*
X120723547Y-84542765D01*
X120539306Y-84634269D01*
X120356032Y-84658200D01*
X120170050Y-84630939D01*
X119972348Y-84545011D01*
X119750100Y-84394199D01*
X119658207Y-84319979D01*
X119542886Y-84227528D01*
X119473095Y-84185823D01*
X119432446Y-84187863D01*
X119410944Y-84214389D01*
X119394567Y-84324880D01*
X119447225Y-84455291D01*
X119559524Y-84593637D01*
X119722075Y-84727934D01*
X119893653Y-84830417D01*
X120012253Y-84906040D01*
X120050730Y-84978299D01*
X120012133Y-85059663D01*
X119962084Y-85110190D01*
X119870846Y-85185279D01*
X119797227Y-85214656D01*
X119716965Y-85196527D01*
X119605799Y-85129095D01*
X119534092Y-85078512D01*
X119290179Y-84874636D01*
X119112686Y-84663089D01*
X119005415Y-84451386D01*
X118972166Y-84247040D01*
X119016742Y-84057566D01*
X119017146Y-84056711D01*
X119069846Y-83978610D01*
X119151388Y-83879815D01*
X119746459Y-83879815D01*
X119774489Y-83929602D01*
X119789858Y-83947033D01*
X119868899Y-84018483D01*
X119982392Y-84103459D01*
X120105811Y-84185702D01*
X120214626Y-84248955D01*
X120284311Y-84276963D01*
X120288005Y-84277200D01*
X120355304Y-84254693D01*
X120428914Y-84211300D01*
X120502993Y-84117684D01*
X120510554Y-84002399D01*
X120460692Y-83881871D01*
X120362502Y-83772529D01*
X120225077Y-83690799D01*
X120124402Y-83661243D01*
X120009941Y-83650544D01*
X119924658Y-83681573D01*
X119843191Y-83750406D01*
X119766857Y-83829308D01*
X119746459Y-83879815D01*
X119151388Y-83879815D01*
X119171354Y-83855626D01*
X119309461Y-83701577D01*
X119471960Y-83530278D01*
X119569736Y-83431295D01*
X120055316Y-82947093D01*
X120185617Y-83071929D01*
G36*
X118779501Y-81834725D02*
X118996181Y-81902041D01*
X119108673Y-81973551D01*
X119220290Y-82080435D01*
X119312475Y-82194879D01*
X119330506Y-82224034D01*
X119381349Y-82314816D01*
X119411526Y-82367590D01*
X119412857Y-82369779D01*
X119445892Y-82351061D01*
X119523525Y-82284806D01*
X119631004Y-82183864D01*
X119668621Y-82146998D01*
X119912695Y-81905471D01*
X120202805Y-82204789D01*
X119336707Y-83071661D01*
X119114876Y-83292898D01*
X118912417Y-83493298D01*
X118737017Y-83665374D01*
X118596361Y-83801640D01*
X118498134Y-83894610D01*
X118450022Y-83936797D01*
X118446775Y-83938534D01*
X118405912Y-83910519D01*
X118330583Y-83839836D01*
X118292835Y-83800950D01*
X118217828Y-83707973D01*
X118180753Y-83634326D01*
X118180541Y-83615502D01*
X118157993Y-83572729D01*
X118080094Y-83538123D01*
X117917868Y-83466197D01*
X117758695Y-83345328D01*
X117639033Y-83204371D01*
X117623122Y-83176447D01*
X117570606Y-82999478D01*
X117567050Y-82839077D01*
X117989745Y-82839077D01*
X118012074Y-82985167D01*
X118114689Y-83114827D01*
X118258167Y-83211798D01*
X118350544Y-83249962D01*
X118438432Y-83249963D01*
X118536294Y-83205067D01*
X118658592Y-83108538D01*
X118819787Y-82953640D01*
X118826123Y-82947268D01*
X119137961Y-82633335D01*
X119056399Y-82493682D01*
X118937041Y-82347358D01*
X118789075Y-82250695D01*
X118635409Y-82216755D01*
X118581294Y-82222797D01*
X118457553Y-82276806D01*
X118312841Y-82377983D01*
X118174179Y-82503746D01*
X118068588Y-82631512D01*
X118045390Y-82670680D01*
X117989745Y-82839077D01*
X117567050Y-82839077D01*
X117565963Y-82790053D01*
X117608135Y-82584808D01*
X117642609Y-82502580D01*
X117761639Y-82322524D01*
X117925197Y-82144258D01*
X118107552Y-81992039D01*
X118282975Y-81890125D01*
X118299147Y-81883634D01*
X118538993Y-81827683D01*
X118779501Y-81834725D01*
X118779501Y-81834725D01*
G37*
X118779501Y-81834725D02*
X118996181Y-81902041D01*
X119108673Y-81973551D01*
X119220290Y-82080435D01*
X119312475Y-82194879D01*
X119330506Y-82224034D01*
X119381349Y-82314816D01*
X119411526Y-82367590D01*
X119412857Y-82369779D01*
X119445892Y-82351061D01*
X119523525Y-82284806D01*
X119631004Y-82183864D01*
X119668621Y-82146998D01*
X119912695Y-81905471D01*
X120202805Y-82204789D01*
X119336707Y-83071661D01*
X119114876Y-83292898D01*
X118912417Y-83493298D01*
X118737017Y-83665374D01*
X118596361Y-83801640D01*
X118498134Y-83894610D01*
X118450022Y-83936797D01*
X118446775Y-83938534D01*
X118405912Y-83910519D01*
X118330583Y-83839836D01*
X118292835Y-83800950D01*
X118217828Y-83707973D01*
X118180753Y-83634326D01*
X118180541Y-83615502D01*
X118157993Y-83572729D01*
X118080094Y-83538123D01*
X117917868Y-83466197D01*
X117758695Y-83345328D01*
X117639033Y-83204371D01*
X117623122Y-83176447D01*
X117570606Y-82999478D01*
X117567050Y-82839077D01*
X117989745Y-82839077D01*
X118012074Y-82985167D01*
X118114689Y-83114827D01*
X118258167Y-83211798D01*
X118350544Y-83249962D01*
X118438432Y-83249963D01*
X118536294Y-83205067D01*
X118658592Y-83108538D01*
X118819787Y-82953640D01*
X118826123Y-82947268D01*
X119137961Y-82633335D01*
X119056399Y-82493682D01*
X118937041Y-82347358D01*
X118789075Y-82250695D01*
X118635409Y-82216755D01*
X118581294Y-82222797D01*
X118457553Y-82276806D01*
X118312841Y-82377983D01*
X118174179Y-82503746D01*
X118068588Y-82631512D01*
X118045390Y-82670680D01*
X117989745Y-82839077D01*
X117567050Y-82839077D01*
X117565963Y-82790053D01*
X117608135Y-82584808D01*
X117642609Y-82502580D01*
X117761639Y-82322524D01*
X117925197Y-82144258D01*
X118107552Y-81992039D01*
X118282975Y-81890125D01*
X118299147Y-81883634D01*
X118538993Y-81827683D01*
X118779501Y-81834725D01*
G36*
X156624123Y-81746798D02*
X156730348Y-81782149D01*
X156848384Y-81853352D01*
X156990256Y-81967356D01*
X157167993Y-82131111D01*
X157342417Y-82300958D01*
X157512450Y-82471258D01*
X157659074Y-82623111D01*
X157772409Y-82745879D01*
X157842580Y-82828923D01*
X157861000Y-82859528D01*
X157829286Y-82925337D01*
X157752745Y-83009293D01*
X157659278Y-83086195D01*
X157576786Y-83130841D01*
X157556903Y-83134200D01*
X157496923Y-83169722D01*
X157439907Y-83256298D01*
X157435337Y-83266824D01*
X157301153Y-83499217D01*
X157121441Y-83660902D01*
X156898382Y-83750362D01*
X156714532Y-83769200D01*
X156586167Y-83763860D01*
X156494440Y-83737911D01*
X156406791Y-83676458D01*
X156310263Y-83584270D01*
X156206538Y-83474212D01*
X156151080Y-83387975D01*
X156128993Y-83293001D01*
X156125334Y-83180001D01*
X156132835Y-83094071D01*
X156564286Y-83094071D01*
X156581433Y-83153751D01*
X156608721Y-83198382D01*
X156700762Y-83286117D01*
X156811617Y-83292675D01*
X156920489Y-83237464D01*
X157021608Y-83134244D01*
X157102473Y-82996356D01*
X157140668Y-82863401D01*
X157141334Y-82847348D01*
X157112041Y-82765043D01*
X157041027Y-82673818D01*
X157035944Y-82668950D01*
X156961738Y-82604871D01*
X156912960Y-82596097D01*
X156853931Y-82639328D01*
X156841056Y-82650936D01*
X156765118Y-82737092D01*
X156678482Y-82859435D01*
X156645691Y-82912580D01*
X156584388Y-83023863D01*
X156564286Y-83094071D01*
X156132835Y-83094071D01*
X156141282Y-82997328D01*
X156196013Y-82830175D01*
X156299854Y-82654928D01*
X156426413Y-82491605D01*
X156533959Y-82352962D01*
X156581982Y-82264027D01*
X156572816Y-82216697D01*
X156509582Y-82202867D01*
X156400518Y-82239284D01*
X156273128Y-82338841D01*
X156142762Y-82487000D01*
X156033271Y-82653953D01*
X155958220Y-82773224D01*
X155891842Y-82855201D01*
X155854430Y-82880200D01*
X155796914Y-82851874D01*
X155708806Y-82779947D01*
X155660408Y-82732798D01*
X155517540Y-82585396D01*
X155683098Y-82345015D01*
X155839078Y-82149570D01*
X156016198Y-81977604D01*
X156195645Y-81844599D01*
X156358605Y-81766040D01*
X156398993Y-81755856D01*
X156517680Y-81740350D01*
X156624123Y-81746798D01*
X156624123Y-81746798D01*
G37*
X156624123Y-81746798D02*
X156730348Y-81782149D01*
X156848384Y-81853352D01*
X156990256Y-81967356D01*
X157167993Y-82131111D01*
X157342417Y-82300958D01*
X157512450Y-82471258D01*
X157659074Y-82623111D01*
X157772409Y-82745879D01*
X157842580Y-82828923D01*
X157861000Y-82859528D01*
X157829286Y-82925337D01*
X157752745Y-83009293D01*
X157659278Y-83086195D01*
X157576786Y-83130841D01*
X157556903Y-83134200D01*
X157496923Y-83169722D01*
X157439907Y-83256298D01*
X157435337Y-83266824D01*
X157301153Y-83499217D01*
X157121441Y-83660902D01*
X156898382Y-83750362D01*
X156714532Y-83769200D01*
X156586167Y-83763860D01*
X156494440Y-83737911D01*
X156406791Y-83676458D01*
X156310263Y-83584270D01*
X156206538Y-83474212D01*
X156151080Y-83387975D01*
X156128993Y-83293001D01*
X156125334Y-83180001D01*
X156132835Y-83094071D01*
X156564286Y-83094071D01*
X156581433Y-83153751D01*
X156608721Y-83198382D01*
X156700762Y-83286117D01*
X156811617Y-83292675D01*
X156920489Y-83237464D01*
X157021608Y-83134244D01*
X157102473Y-82996356D01*
X157140668Y-82863401D01*
X157141334Y-82847348D01*
X157112041Y-82765043D01*
X157041027Y-82673818D01*
X157035944Y-82668950D01*
X156961738Y-82604871D01*
X156912960Y-82596097D01*
X156853931Y-82639328D01*
X156841056Y-82650936D01*
X156765118Y-82737092D01*
X156678482Y-82859435D01*
X156645691Y-82912580D01*
X156584388Y-83023863D01*
X156564286Y-83094071D01*
X156132835Y-83094071D01*
X156141282Y-82997328D01*
X156196013Y-82830175D01*
X156299854Y-82654928D01*
X156426413Y-82491605D01*
X156533959Y-82352962D01*
X156581982Y-82264027D01*
X156572816Y-82216697D01*
X156509582Y-82202867D01*
X156400518Y-82239284D01*
X156273128Y-82338841D01*
X156142762Y-82487000D01*
X156033271Y-82653953D01*
X155958220Y-82773224D01*
X155891842Y-82855201D01*
X155854430Y-82880200D01*
X155796914Y-82851874D01*
X155708806Y-82779947D01*
X155660408Y-82732798D01*
X155517540Y-82585396D01*
X155683098Y-82345015D01*
X155839078Y-82149570D01*
X156016198Y-81977604D01*
X156195645Y-81844599D01*
X156358605Y-81766040D01*
X156398993Y-81755856D01*
X156517680Y-81740350D01*
X156624123Y-81746798D01*
G36*
X117564323Y-80489425D02*
X117766704Y-80616579D01*
X117924175Y-80807790D01*
X117940238Y-80836376D01*
X118012222Y-80970598D01*
X118198694Y-80779142D01*
X118333552Y-80644884D01*
X118428605Y-80568736D01*
X118501099Y-80546246D01*
X118568278Y-80572965D01*
X118647386Y-80644440D01*
X118662105Y-80659528D01*
X118803714Y-80805631D01*
X117980607Y-81634354D01*
X117762130Y-81853237D01*
X117560532Y-82053148D01*
X117384219Y-82225917D01*
X117241596Y-82363370D01*
X117141070Y-82457336D01*
X117091046Y-82499643D01*
X117089835Y-82500360D01*
X117025759Y-82506214D01*
X116943665Y-82451327D01*
X116893949Y-82402004D01*
X116819654Y-82309560D01*
X116783502Y-82236445D01*
X116783541Y-82218502D01*
X116760993Y-82175729D01*
X116683094Y-82141123D01*
X116518117Y-82067690D01*
X116357540Y-81943850D01*
X116236808Y-81797966D01*
X116222595Y-81772625D01*
X116161975Y-81568130D01*
X116167531Y-81444281D01*
X116592214Y-81444281D01*
X116616123Y-81590286D01*
X116720626Y-81720216D01*
X116861167Y-81814798D01*
X116953544Y-81852962D01*
X117041432Y-81852963D01*
X117139294Y-81808067D01*
X117261592Y-81711538D01*
X117422787Y-81556640D01*
X117429123Y-81550268D01*
X117740961Y-81236335D01*
X117659399Y-81096682D01*
X117535441Y-80945244D01*
X117382489Y-80849650D01*
X117221438Y-80821483D01*
X117174572Y-80827933D01*
X117047305Y-80883781D01*
X116901375Y-80988242D01*
X116763598Y-81118511D01*
X116660787Y-81251784D01*
X116646760Y-81276833D01*
X116592214Y-81444281D01*
X116167531Y-81444281D01*
X116172011Y-81344453D01*
X116245710Y-81116169D01*
X116376078Y-80897850D01*
X116556125Y-80704071D01*
X116778857Y-80549404D01*
X116819520Y-80528510D01*
X117077550Y-80441770D01*
X117330211Y-80429948D01*
X117564323Y-80489425D01*
X117564323Y-80489425D01*
G37*
X117564323Y-80489425D02*
X117766704Y-80616579D01*
X117924175Y-80807790D01*
X117940238Y-80836376D01*
X118012222Y-80970598D01*
X118198694Y-80779142D01*
X118333552Y-80644884D01*
X118428605Y-80568736D01*
X118501099Y-80546246D01*
X118568278Y-80572965D01*
X118647386Y-80644440D01*
X118662105Y-80659528D01*
X118803714Y-80805631D01*
X117980607Y-81634354D01*
X117762130Y-81853237D01*
X117560532Y-82053148D01*
X117384219Y-82225917D01*
X117241596Y-82363370D01*
X117141070Y-82457336D01*
X117091046Y-82499643D01*
X117089835Y-82500360D01*
X117025759Y-82506214D01*
X116943665Y-82451327D01*
X116893949Y-82402004D01*
X116819654Y-82309560D01*
X116783502Y-82236445D01*
X116783541Y-82218502D01*
X116760993Y-82175729D01*
X116683094Y-82141123D01*
X116518117Y-82067690D01*
X116357540Y-81943850D01*
X116236808Y-81797966D01*
X116222595Y-81772625D01*
X116161975Y-81568130D01*
X116167531Y-81444281D01*
X116592214Y-81444281D01*
X116616123Y-81590286D01*
X116720626Y-81720216D01*
X116861167Y-81814798D01*
X116953544Y-81852962D01*
X117041432Y-81852963D01*
X117139294Y-81808067D01*
X117261592Y-81711538D01*
X117422787Y-81556640D01*
X117429123Y-81550268D01*
X117740961Y-81236335D01*
X117659399Y-81096682D01*
X117535441Y-80945244D01*
X117382489Y-80849650D01*
X117221438Y-80821483D01*
X117174572Y-80827933D01*
X117047305Y-80883781D01*
X116901375Y-80988242D01*
X116763598Y-81118511D01*
X116660787Y-81251784D01*
X116646760Y-81276833D01*
X116592214Y-81444281D01*
X116167531Y-81444281D01*
X116172011Y-81344453D01*
X116245710Y-81116169D01*
X116376078Y-80897850D01*
X116556125Y-80704071D01*
X116778857Y-80549404D01*
X116819520Y-80528510D01*
X117077550Y-80441770D01*
X117330211Y-80429948D01*
X117564323Y-80489425D01*
G36*
X157498216Y-79691794D02*
X157589186Y-79772485D01*
X157720711Y-79895803D01*
X157883661Y-80052610D01*
X158068905Y-80233769D01*
X158267310Y-80430145D01*
X158469746Y-80632599D01*
X158667081Y-80831994D01*
X158850184Y-81019194D01*
X159009925Y-81185062D01*
X159137171Y-81320461D01*
X159222792Y-81416253D01*
X159257656Y-81463303D01*
X159258000Y-81465066D01*
X159226194Y-81529852D01*
X159149410Y-81612784D01*
X159055601Y-81688999D01*
X158972718Y-81733635D01*
X158952050Y-81737200D01*
X158891067Y-81775111D01*
X158838917Y-81872606D01*
X158837152Y-81877835D01*
X158775781Y-81998253D01*
X158681039Y-82122500D01*
X158653953Y-82150406D01*
X158452232Y-82299391D01*
X158238741Y-82365647D01*
X158008040Y-82350047D01*
X157818667Y-82284351D01*
X157626448Y-82169240D01*
X157433498Y-82006544D01*
X157269062Y-81823620D01*
X157181295Y-81688168D01*
X157091767Y-81437122D01*
X157081187Y-81285625D01*
X157539380Y-81285625D01*
X157596875Y-81429650D01*
X157706131Y-81586906D01*
X157844528Y-81730170D01*
X157989449Y-81832221D01*
X157996487Y-81835767D01*
X158094160Y-81883643D01*
X158151007Y-81899496D01*
X158204083Y-81884518D01*
X158280727Y-81844898D01*
X158379924Y-81761013D01*
X158470151Y-81633201D01*
X158528340Y-81498311D01*
X158538334Y-81433410D01*
X158509824Y-81380695D01*
X158432942Y-81284967D01*
X158320664Y-81161570D01*
X158231034Y-81069999D01*
X157923734Y-80764750D01*
X157788834Y-80846787D01*
X157625406Y-80980761D01*
X157543148Y-81133694D01*
X157539380Y-81285625D01*
X157081187Y-81285625D01*
X157074145Y-81184797D01*
X157124395Y-80946361D01*
X157238484Y-80736983D01*
X157412380Y-80571834D01*
X157490455Y-80525294D01*
X157617825Y-80459428D01*
X157123781Y-79960174D01*
X157267862Y-79811520D01*
X157360592Y-79724655D01*
X157434194Y-79671115D01*
X157456933Y-79662867D01*
X157498216Y-79691794D01*
X157498216Y-79691794D01*
G37*
X157498216Y-79691794D02*
X157589186Y-79772485D01*
X157720711Y-79895803D01*
X157883661Y-80052610D01*
X158068905Y-80233769D01*
X158267310Y-80430145D01*
X158469746Y-80632599D01*
X158667081Y-80831994D01*
X158850184Y-81019194D01*
X159009925Y-81185062D01*
X159137171Y-81320461D01*
X159222792Y-81416253D01*
X159257656Y-81463303D01*
X159258000Y-81465066D01*
X159226194Y-81529852D01*
X159149410Y-81612784D01*
X159055601Y-81688999D01*
X158972718Y-81733635D01*
X158952050Y-81737200D01*
X158891067Y-81775111D01*
X158838917Y-81872606D01*
X158837152Y-81877835D01*
X158775781Y-81998253D01*
X158681039Y-82122500D01*
X158653953Y-82150406D01*
X158452232Y-82299391D01*
X158238741Y-82365647D01*
X158008040Y-82350047D01*
X157818667Y-82284351D01*
X157626448Y-82169240D01*
X157433498Y-82006544D01*
X157269062Y-81823620D01*
X157181295Y-81688168D01*
X157091767Y-81437122D01*
X157081187Y-81285625D01*
X157539380Y-81285625D01*
X157596875Y-81429650D01*
X157706131Y-81586906D01*
X157844528Y-81730170D01*
X157989449Y-81832221D01*
X157996487Y-81835767D01*
X158094160Y-81883643D01*
X158151007Y-81899496D01*
X158204083Y-81884518D01*
X158280727Y-81844898D01*
X158379924Y-81761013D01*
X158470151Y-81633201D01*
X158528340Y-81498311D01*
X158538334Y-81433410D01*
X158509824Y-81380695D01*
X158432942Y-81284967D01*
X158320664Y-81161570D01*
X158231034Y-81069999D01*
X157923734Y-80764750D01*
X157788834Y-80846787D01*
X157625406Y-80980761D01*
X157543148Y-81133694D01*
X157539380Y-81285625D01*
X157081187Y-81285625D01*
X157074145Y-81184797D01*
X157124395Y-80946361D01*
X157238484Y-80736983D01*
X157412380Y-80571834D01*
X157490455Y-80525294D01*
X157617825Y-80459428D01*
X157123781Y-79960174D01*
X157267862Y-79811520D01*
X157360592Y-79724655D01*
X157434194Y-79671115D01*
X157456933Y-79662867D01*
X157498216Y-79691794D01*
G36*
X159975659Y-79344781D02*
X160253869Y-79626807D01*
X160471326Y-79863433D01*
X160632482Y-80063263D01*
X160741790Y-80234903D01*
X160803700Y-80386960D01*
X160822665Y-80528040D01*
X160803138Y-80666749D01*
X160749569Y-80811692D01*
X160742429Y-80827034D01*
X160666720Y-80963913D01*
X160580859Y-81087974D01*
X160563442Y-81108847D01*
X160483419Y-81187861D01*
X160371662Y-81284018D01*
X160248787Y-81381364D01*
X160135408Y-81463943D01*
X160052139Y-81515801D01*
X160025062Y-81525534D01*
X159979650Y-81497666D01*
X159900346Y-81427198D01*
X159858971Y-81385935D01*
X159777621Y-81292520D01*
X159729380Y-81218805D01*
X159723667Y-81199457D01*
X159757309Y-81152725D01*
X159843124Y-81085492D01*
X159906490Y-81045437D01*
X160136919Y-80885976D01*
X160284582Y-80726583D01*
X160348911Y-80568200D01*
X160329340Y-80411768D01*
X160311481Y-80373467D01*
X160280610Y-80327027D01*
X160251540Y-80330963D01*
X160209926Y-80395260D01*
X160170690Y-80471500D01*
X160039027Y-80656419D01*
X159858493Y-80806801D01*
X159656272Y-80901905D01*
X159585024Y-80918355D01*
X159372355Y-80912603D01*
X159152988Y-80837178D01*
X158941394Y-80704387D01*
X158752044Y-80526535D01*
X158599411Y-80315928D01*
X158497965Y-80084870D01*
X158471952Y-79971890D01*
X158473301Y-79818845D01*
X158919334Y-79818845D01*
X158958474Y-79991482D01*
X159066751Y-80163591D01*
X159230445Y-80317217D01*
X159363834Y-80400627D01*
X159461975Y-80448288D01*
X159528921Y-80458148D01*
X159596132Y-80424352D01*
X159695071Y-80341044D01*
X159698053Y-80338426D01*
X159795576Y-80229815D01*
X159862535Y-80113504D01*
X159873326Y-80079406D01*
X159881664Y-80013541D01*
X159867532Y-79952502D01*
X159820811Y-79879853D01*
X159731383Y-79779157D01*
X159615343Y-79660357D01*
X159482108Y-79527574D01*
X159392531Y-79446337D01*
X159330966Y-79407767D01*
X159281765Y-79402985D01*
X159229283Y-79423109D01*
X159212448Y-79431698D01*
X159076777Y-79530584D01*
X158972838Y-79659332D01*
X158921506Y-79790369D01*
X158919334Y-79818845D01*
X158473301Y-79818845D01*
X158474058Y-79733043D01*
X158547478Y-79498587D01*
X158680861Y-79291222D01*
X158862859Y-79133649D01*
X158902366Y-79111017D01*
X158999782Y-79043577D01*
X159117255Y-78940900D01*
X159177962Y-78879815D01*
X159336376Y-78710597D01*
X159975659Y-79344781D01*
X159975659Y-79344781D01*
G37*
X159975659Y-79344781D02*
X160253869Y-79626807D01*
X160471326Y-79863433D01*
X160632482Y-80063263D01*
X160741790Y-80234903D01*
X160803700Y-80386960D01*
X160822665Y-80528040D01*
X160803138Y-80666749D01*
X160749569Y-80811692D01*
X160742429Y-80827034D01*
X160666720Y-80963913D01*
X160580859Y-81087974D01*
X160563442Y-81108847D01*
X160483419Y-81187861D01*
X160371662Y-81284018D01*
X160248787Y-81381364D01*
X160135408Y-81463943D01*
X160052139Y-81515801D01*
X160025062Y-81525534D01*
X159979650Y-81497666D01*
X159900346Y-81427198D01*
X159858971Y-81385935D01*
X159777621Y-81292520D01*
X159729380Y-81218805D01*
X159723667Y-81199457D01*
X159757309Y-81152725D01*
X159843124Y-81085492D01*
X159906490Y-81045437D01*
X160136919Y-80885976D01*
X160284582Y-80726583D01*
X160348911Y-80568200D01*
X160329340Y-80411768D01*
X160311481Y-80373467D01*
X160280610Y-80327027D01*
X160251540Y-80330963D01*
X160209926Y-80395260D01*
X160170690Y-80471500D01*
X160039027Y-80656419D01*
X159858493Y-80806801D01*
X159656272Y-80901905D01*
X159585024Y-80918355D01*
X159372355Y-80912603D01*
X159152988Y-80837178D01*
X158941394Y-80704387D01*
X158752044Y-80526535D01*
X158599411Y-80315928D01*
X158497965Y-80084870D01*
X158471952Y-79971890D01*
X158473301Y-79818845D01*
X158919334Y-79818845D01*
X158958474Y-79991482D01*
X159066751Y-80163591D01*
X159230445Y-80317217D01*
X159363834Y-80400627D01*
X159461975Y-80448288D01*
X159528921Y-80458148D01*
X159596132Y-80424352D01*
X159695071Y-80341044D01*
X159698053Y-80338426D01*
X159795576Y-80229815D01*
X159862535Y-80113504D01*
X159873326Y-80079406D01*
X159881664Y-80013541D01*
X159867532Y-79952502D01*
X159820811Y-79879853D01*
X159731383Y-79779157D01*
X159615343Y-79660357D01*
X159482108Y-79527574D01*
X159392531Y-79446337D01*
X159330966Y-79407767D01*
X159281765Y-79402985D01*
X159229283Y-79423109D01*
X159212448Y-79431698D01*
X159076777Y-79530584D01*
X158972838Y-79659332D01*
X158921506Y-79790369D01*
X158919334Y-79818845D01*
X158473301Y-79818845D01*
X158474058Y-79733043D01*
X158547478Y-79498587D01*
X158680861Y-79291222D01*
X158862859Y-79133649D01*
X158902366Y-79111017D01*
X158999782Y-79043577D01*
X159117255Y-78940900D01*
X159177962Y-78879815D01*
X159336376Y-78710597D01*
X159975659Y-79344781D01*
G36*
X117120595Y-79117794D02*
X117205105Y-79205753D01*
X117256305Y-79270708D01*
X117263334Y-79287094D01*
X117226535Y-79314954D01*
X117128128Y-79363212D01*
X116986100Y-79423396D01*
X116914084Y-79451602D01*
X116750936Y-79517327D01*
X116616037Y-79577817D01*
X116530897Y-79623188D01*
X116515877Y-79634595D01*
X116485481Y-79687661D01*
X116429476Y-79806577D01*
X116353513Y-79978510D01*
X116263244Y-80190629D01*
X116164322Y-80430098D01*
X116149833Y-80465743D01*
X116051163Y-80705120D01*
X115961186Y-80916140D01*
X115885299Y-81086724D01*
X115828899Y-81204794D01*
X115797383Y-81258272D01*
X115794900Y-81260067D01*
X115745651Y-81239765D01*
X115663845Y-81173909D01*
X115618639Y-81129872D01*
X115480222Y-80987063D01*
X115714405Y-80422536D01*
X115796817Y-80221728D01*
X115865175Y-80051049D01*
X115913981Y-79924550D01*
X115937742Y-79856283D01*
X115938965Y-79848387D01*
X115898618Y-79860127D01*
X115794132Y-79898912D01*
X115639557Y-79959312D01*
X115448945Y-80035896D01*
X115361902Y-80071424D01*
X114794462Y-80304084D01*
X114644598Y-80154220D01*
X114562631Y-80065261D01*
X114517306Y-80002057D01*
X114514182Y-79984907D01*
X114556826Y-79964843D01*
X114668413Y-79917223D01*
X114839313Y-79846022D01*
X115059893Y-79755217D01*
X115320520Y-79648783D01*
X115611563Y-79530696D01*
X115755743Y-79472452D01*
X116977856Y-78979446D01*
X117120595Y-79117794D01*
X117120595Y-79117794D01*
G37*
X117120595Y-79117794D02*
X117205105Y-79205753D01*
X117256305Y-79270708D01*
X117263334Y-79287094D01*
X117226535Y-79314954D01*
X117128128Y-79363212D01*
X116986100Y-79423396D01*
X116914084Y-79451602D01*
X116750936Y-79517327D01*
X116616037Y-79577817D01*
X116530897Y-79623188D01*
X116515877Y-79634595D01*
X116485481Y-79687661D01*
X116429476Y-79806577D01*
X116353513Y-79978510D01*
X116263244Y-80190629D01*
X116164322Y-80430098D01*
X116149833Y-80465743D01*
X116051163Y-80705120D01*
X115961186Y-80916140D01*
X115885299Y-81086724D01*
X115828899Y-81204794D01*
X115797383Y-81258272D01*
X115794900Y-81260067D01*
X115745651Y-81239765D01*
X115663845Y-81173909D01*
X115618639Y-81129872D01*
X115480222Y-80987063D01*
X115714405Y-80422536D01*
X115796817Y-80221728D01*
X115865175Y-80051049D01*
X115913981Y-79924550D01*
X115937742Y-79856283D01*
X115938965Y-79848387D01*
X115898618Y-79860127D01*
X115794132Y-79898912D01*
X115639557Y-79959312D01*
X115448945Y-80035896D01*
X115361902Y-80071424D01*
X114794462Y-80304084D01*
X114644598Y-80154220D01*
X114562631Y-80065261D01*
X114517306Y-80002057D01*
X114514182Y-79984907D01*
X114556826Y-79964843D01*
X114668413Y-79917223D01*
X114839313Y-79846022D01*
X115059893Y-79755217D01*
X115320520Y-79648783D01*
X115611563Y-79530696D01*
X115755743Y-79472452D01*
X116977856Y-78979446D01*
X117120595Y-79117794D01*
G36*
X160912675Y-77596009D02*
X161086021Y-77662700D01*
X161255951Y-77788478D01*
X161350237Y-77880076D01*
X161516307Y-78051596D01*
X161084036Y-78490873D01*
X160905866Y-78674602D01*
X160785565Y-78808878D01*
X160719974Y-78902928D01*
X160705930Y-78965981D01*
X160740273Y-79007264D01*
X160819842Y-79036006D01*
X160891868Y-79051848D01*
X161036081Y-79040272D01*
X161187434Y-78960697D01*
X161331393Y-78826971D01*
X161453427Y-78652941D01*
X161539004Y-78452454D01*
X161545722Y-78428806D01*
X161585553Y-78325884D01*
X161630933Y-78269506D01*
X161643161Y-78265867D01*
X161706551Y-78296113D01*
X161794884Y-78370212D01*
X161883770Y-78463205D01*
X161948824Y-78550131D01*
X161967334Y-78597652D01*
X161942988Y-78688569D01*
X161879466Y-78819830D01*
X161791038Y-78966114D01*
X161691978Y-79102103D01*
X161664934Y-79134141D01*
X161476622Y-79303971D01*
X161257615Y-79430144D01*
X161028893Y-79504773D01*
X160811438Y-79519974D01*
X160697059Y-79497919D01*
X160436314Y-79374468D01*
X160199305Y-79186789D01*
X160009773Y-78955318D01*
X159954328Y-78858534D01*
X159893754Y-78662490D01*
X159885198Y-78506757D01*
X160302701Y-78506757D01*
X160324090Y-78584433D01*
X160354346Y-78604534D01*
X160394955Y-78576413D01*
X160478859Y-78501443D01*
X160590574Y-78393711D01*
X160635159Y-78349073D01*
X160758061Y-78220540D01*
X160825645Y-78136558D01*
X160845594Y-78085115D01*
X160825594Y-78054202D01*
X160824334Y-78053388D01*
X160691299Y-78013945D01*
X160552389Y-78046245D01*
X160426800Y-78141161D01*
X160335247Y-78285896D01*
X160305840Y-78397557D01*
X160302701Y-78506757D01*
X159885198Y-78506757D01*
X159881179Y-78433619D01*
X159916018Y-78208434D01*
X159966844Y-78075367D01*
X160125593Y-77843565D01*
X160324117Y-77680765D01*
X160554863Y-77592033D01*
X160710707Y-77576438D01*
X160912675Y-77596009D01*
X160912675Y-77596009D01*
G37*
X160912675Y-77596009D02*
X161086021Y-77662700D01*
X161255951Y-77788478D01*
X161350237Y-77880076D01*
X161516307Y-78051596D01*
X161084036Y-78490873D01*
X160905866Y-78674602D01*
X160785565Y-78808878D01*
X160719974Y-78902928D01*
X160705930Y-78965981D01*
X160740273Y-79007264D01*
X160819842Y-79036006D01*
X160891868Y-79051848D01*
X161036081Y-79040272D01*
X161187434Y-78960697D01*
X161331393Y-78826971D01*
X161453427Y-78652941D01*
X161539004Y-78452454D01*
X161545722Y-78428806D01*
X161585553Y-78325884D01*
X161630933Y-78269506D01*
X161643161Y-78265867D01*
X161706551Y-78296113D01*
X161794884Y-78370212D01*
X161883770Y-78463205D01*
X161948824Y-78550131D01*
X161967334Y-78597652D01*
X161942988Y-78688569D01*
X161879466Y-78819830D01*
X161791038Y-78966114D01*
X161691978Y-79102103D01*
X161664934Y-79134141D01*
X161476622Y-79303971D01*
X161257615Y-79430144D01*
X161028893Y-79504773D01*
X160811438Y-79519974D01*
X160697059Y-79497919D01*
X160436314Y-79374468D01*
X160199305Y-79186789D01*
X160009773Y-78955318D01*
X159954328Y-78858534D01*
X159893754Y-78662490D01*
X159885198Y-78506757D01*
X160302701Y-78506757D01*
X160324090Y-78584433D01*
X160354346Y-78604534D01*
X160394955Y-78576413D01*
X160478859Y-78501443D01*
X160590574Y-78393711D01*
X160635159Y-78349073D01*
X160758061Y-78220540D01*
X160825645Y-78136558D01*
X160845594Y-78085115D01*
X160825594Y-78054202D01*
X160824334Y-78053388D01*
X160691299Y-78013945D01*
X160552389Y-78046245D01*
X160426800Y-78141161D01*
X160335247Y-78285896D01*
X160305840Y-78397557D01*
X160302701Y-78506757D01*
X159885198Y-78506757D01*
X159881179Y-78433619D01*
X159916018Y-78208434D01*
X159966844Y-78075367D01*
X160125593Y-77843565D01*
X160324117Y-77680765D01*
X160554863Y-77592033D01*
X160710707Y-77576438D01*
X160912675Y-77596009D01*
G36*
X161971940Y-75373734D02*
X162065561Y-75454105D01*
X162199148Y-75576634D01*
X162363273Y-75731976D01*
X162548504Y-75910786D01*
X162745415Y-76103717D01*
X162944574Y-76301425D01*
X163136553Y-76494564D01*
X163311922Y-76673788D01*
X163461252Y-76829753D01*
X163575114Y-76953112D01*
X163644079Y-77034520D01*
X163660667Y-77062417D01*
X163627992Y-77129977D01*
X163548723Y-77213343D01*
X163450990Y-77288516D01*
X163362926Y-77331497D01*
X163341688Y-77334534D01*
X163280030Y-77305610D01*
X163174304Y-77226413D01*
X163038493Y-77108300D01*
X162898589Y-76974622D01*
X162537002Y-76614711D01*
X161863376Y-77292311D01*
X162232855Y-77663510D01*
X162374781Y-77811136D01*
X162491463Y-77942101D01*
X162571194Y-78042574D01*
X162602267Y-78098722D01*
X162602334Y-78100034D01*
X162573003Y-78168344D01*
X162502461Y-78257665D01*
X162416877Y-78340417D01*
X162342423Y-78389021D01*
X162324453Y-78392867D01*
X162285142Y-78364032D01*
X162194325Y-78282626D01*
X162060013Y-78156298D01*
X161890216Y-77992695D01*
X161692944Y-77799464D01*
X161476208Y-77584255D01*
X161448353Y-77556396D01*
X161230872Y-77336609D01*
X161034468Y-77134089D01*
X160866813Y-76957073D01*
X160735581Y-76813799D01*
X160648442Y-76712503D01*
X160613069Y-76661424D01*
X160612667Y-76659129D01*
X160641109Y-76590293D01*
X160709579Y-76499859D01*
X160792788Y-76415605D01*
X160865450Y-76365310D01*
X160884175Y-76360867D01*
X160930945Y-76389052D01*
X161022112Y-76465089D01*
X161142978Y-76576203D01*
X161236121Y-76666757D01*
X161544067Y-76972647D01*
X162221331Y-76299355D01*
X161924999Y-76001032D01*
X161798818Y-75867763D01*
X161699372Y-75750851D01*
X161639805Y-75666424D01*
X161628667Y-75637542D01*
X161660311Y-75562523D01*
X161736766Y-75470949D01*
X161830313Y-75389947D01*
X161913236Y-75346642D01*
X161927714Y-75344867D01*
X161971940Y-75373734D01*
X161971940Y-75373734D01*
G37*
X161971940Y-75373734D02*
X162065561Y-75454105D01*
X162199148Y-75576634D01*
X162363273Y-75731976D01*
X162548504Y-75910786D01*
X162745415Y-76103717D01*
X162944574Y-76301425D01*
X163136553Y-76494564D01*
X163311922Y-76673788D01*
X163461252Y-76829753D01*
X163575114Y-76953112D01*
X163644079Y-77034520D01*
X163660667Y-77062417D01*
X163627992Y-77129977D01*
X163548723Y-77213343D01*
X163450990Y-77288516D01*
X163362926Y-77331497D01*
X163341688Y-77334534D01*
X163280030Y-77305610D01*
X163174304Y-77226413D01*
X163038493Y-77108300D01*
X162898589Y-76974622D01*
X162537002Y-76614711D01*
X161863376Y-77292311D01*
X162232855Y-77663510D01*
X162374781Y-77811136D01*
X162491463Y-77942101D01*
X162571194Y-78042574D01*
X162602267Y-78098722D01*
X162602334Y-78100034D01*
X162573003Y-78168344D01*
X162502461Y-78257665D01*
X162416877Y-78340417D01*
X162342423Y-78389021D01*
X162324453Y-78392867D01*
X162285142Y-78364032D01*
X162194325Y-78282626D01*
X162060013Y-78156298D01*
X161890216Y-77992695D01*
X161692944Y-77799464D01*
X161476208Y-77584255D01*
X161448353Y-77556396D01*
X161230872Y-77336609D01*
X161034468Y-77134089D01*
X160866813Y-76957073D01*
X160735581Y-76813799D01*
X160648442Y-76712503D01*
X160613069Y-76661424D01*
X160612667Y-76659129D01*
X160641109Y-76590293D01*
X160709579Y-76499859D01*
X160792788Y-76415605D01*
X160865450Y-76365310D01*
X160884175Y-76360867D01*
X160930945Y-76389052D01*
X161022112Y-76465089D01*
X161142978Y-76576203D01*
X161236121Y-76666757D01*
X161544067Y-76972647D01*
X162221331Y-76299355D01*
X161924999Y-76001032D01*
X161798818Y-75867763D01*
X161699372Y-75750851D01*
X161639805Y-75666424D01*
X161628667Y-75637542D01*
X161660311Y-75562523D01*
X161736766Y-75470949D01*
X161830313Y-75389947D01*
X161913236Y-75346642D01*
X161927714Y-75344867D01*
X161971940Y-75373734D01*
G36*
X163967261Y-74628246D02*
X163970367Y-74629808D01*
X164041615Y-74680549D01*
X164152533Y-74776474D01*
X164290889Y-74905226D01*
X164444451Y-75054449D01*
X164600989Y-75211784D01*
X164748272Y-75364876D01*
X164874068Y-75501368D01*
X164966146Y-75608903D01*
X165012274Y-75675123D01*
X165015334Y-75685506D01*
X164985344Y-75761626D01*
X164912291Y-75849356D01*
X164821551Y-75925650D01*
X164738496Y-75967465D01*
X164705028Y-75967319D01*
X164651498Y-75980101D01*
X164619587Y-76064185D01*
X164577052Y-76168539D01*
X164497629Y-76292147D01*
X164456830Y-76342537D01*
X164271268Y-76504296D01*
X164068679Y-76594406D01*
X163862184Y-76610123D01*
X163664900Y-76548704D01*
X163615018Y-76518609D01*
X163424745Y-76353242D01*
X163315490Y-76167591D01*
X163287260Y-75960766D01*
X163291485Y-75942449D01*
X163750985Y-75942449D01*
X163798693Y-76051945D01*
X163815395Y-76071783D01*
X163898161Y-76137160D01*
X163983319Y-76135178D01*
X164094544Y-76065326D01*
X164178278Y-75971884D01*
X164255128Y-75842791D01*
X164271678Y-75805242D01*
X164312694Y-75694339D01*
X164316745Y-75625937D01*
X164278402Y-75563960D01*
X164227080Y-75508890D01*
X164153991Y-75442468D01*
X164092813Y-75423384D01*
X164027917Y-75458085D01*
X163943672Y-75553019D01*
X163865276Y-75658135D01*
X163772651Y-75815556D01*
X163750985Y-75942449D01*
X163291485Y-75942449D01*
X163340059Y-75731874D01*
X163473893Y-75480025D01*
X163622598Y-75281367D01*
X163714974Y-75167630D01*
X163757792Y-75102759D01*
X163756514Y-75071262D01*
X163716598Y-75057649D01*
X163702250Y-75055378D01*
X163614180Y-75058300D01*
X163525144Y-75099490D01*
X163426851Y-75187167D01*
X163311008Y-75329549D01*
X163169323Y-75534852D01*
X163082387Y-75669667D01*
X163048990Y-75709469D01*
X163009465Y-75708152D01*
X162944568Y-75658300D01*
X162871589Y-75588447D01*
X162709904Y-75429860D01*
X162787365Y-75286024D01*
X162950645Y-75038131D01*
X163142892Y-74836880D01*
X163352392Y-74688767D01*
X163567430Y-74600292D01*
X163776291Y-74577952D01*
X163967261Y-74628246D01*
X163967261Y-74628246D01*
G37*
X163967261Y-74628246D02*
X163970367Y-74629808D01*
X164041615Y-74680549D01*
X164152533Y-74776474D01*
X164290889Y-74905226D01*
X164444451Y-75054449D01*
X164600989Y-75211784D01*
X164748272Y-75364876D01*
X164874068Y-75501368D01*
X164966146Y-75608903D01*
X165012274Y-75675123D01*
X165015334Y-75685506D01*
X164985344Y-75761626D01*
X164912291Y-75849356D01*
X164821551Y-75925650D01*
X164738496Y-75967465D01*
X164705028Y-75967319D01*
X164651498Y-75980101D01*
X164619587Y-76064185D01*
X164577052Y-76168539D01*
X164497629Y-76292147D01*
X164456830Y-76342537D01*
X164271268Y-76504296D01*
X164068679Y-76594406D01*
X163862184Y-76610123D01*
X163664900Y-76548704D01*
X163615018Y-76518609D01*
X163424745Y-76353242D01*
X163315490Y-76167591D01*
X163287260Y-75960766D01*
X163291485Y-75942449D01*
X163750985Y-75942449D01*
X163798693Y-76051945D01*
X163815395Y-76071783D01*
X163898161Y-76137160D01*
X163983319Y-76135178D01*
X164094544Y-76065326D01*
X164178278Y-75971884D01*
X164255128Y-75842791D01*
X164271678Y-75805242D01*
X164312694Y-75694339D01*
X164316745Y-75625937D01*
X164278402Y-75563960D01*
X164227080Y-75508890D01*
X164153991Y-75442468D01*
X164092813Y-75423384D01*
X164027917Y-75458085D01*
X163943672Y-75553019D01*
X163865276Y-75658135D01*
X163772651Y-75815556D01*
X163750985Y-75942449D01*
X163291485Y-75942449D01*
X163340059Y-75731874D01*
X163473893Y-75480025D01*
X163622598Y-75281367D01*
X163714974Y-75167630D01*
X163757792Y-75102759D01*
X163756514Y-75071262D01*
X163716598Y-75057649D01*
X163702250Y-75055378D01*
X163614180Y-75058300D01*
X163525144Y-75099490D01*
X163426851Y-75187167D01*
X163311008Y-75329549D01*
X163169323Y-75534852D01*
X163082387Y-75669667D01*
X163048990Y-75709469D01*
X163009465Y-75708152D01*
X162944568Y-75658300D01*
X162871589Y-75588447D01*
X162709904Y-75429860D01*
X162787365Y-75286024D01*
X162950645Y-75038131D01*
X163142892Y-74836880D01*
X163352392Y-74688767D01*
X163567430Y-74600292D01*
X163776291Y-74577952D01*
X163967261Y-74628246D01*
G36*
X165357461Y-73185048D02*
X165584131Y-73294621D01*
X165795337Y-73458787D01*
X165976012Y-73663147D01*
X166111092Y-73893304D01*
X166185510Y-74134860D01*
X166188596Y-74155760D01*
X166179976Y-74388477D01*
X166101611Y-74619208D01*
X165965624Y-74824375D01*
X165784138Y-74980401D01*
X165756167Y-74996773D01*
X165715400Y-75025592D01*
X165710585Y-75060597D01*
X165749224Y-75118021D01*
X165838821Y-75214097D01*
X165872584Y-75248628D01*
X165974697Y-75361745D01*
X166047077Y-75459153D01*
X166073667Y-75518317D01*
X166042031Y-75593065D01*
X165965603Y-75684438D01*
X165872101Y-75765350D01*
X165789244Y-75808718D01*
X165774620Y-75810534D01*
X165729706Y-75781619D01*
X165633687Y-75699997D01*
X165494802Y-75573347D01*
X165321288Y-75409350D01*
X165121384Y-75215685D01*
X164903329Y-75000034D01*
X164877353Y-74974063D01*
X164659872Y-74754276D01*
X164463468Y-74551755D01*
X164295813Y-74374740D01*
X164164581Y-74231465D01*
X164077442Y-74130170D01*
X164044828Y-74083075D01*
X164708106Y-74083075D01*
X165019410Y-74396471D01*
X165153266Y-74526569D01*
X165268782Y-74630285D01*
X165351175Y-74694830D01*
X165381676Y-74709867D01*
X165440238Y-74682750D01*
X165531677Y-74613817D01*
X165583819Y-74567285D01*
X165699259Y-74423598D01*
X165734001Y-74277829D01*
X165690937Y-74114412D01*
X165674241Y-74080167D01*
X165594880Y-73967195D01*
X165476163Y-73841537D01*
X165344036Y-73727020D01*
X165224447Y-73647471D01*
X165184259Y-73630237D01*
X165067804Y-73634899D01*
X164945351Y-73709959D01*
X164832454Y-73843939D01*
X164787636Y-73922953D01*
X164708106Y-74083075D01*
X164044828Y-74083075D01*
X164042069Y-74079091D01*
X164041667Y-74076796D01*
X164073414Y-73998479D01*
X164150185Y-73904457D01*
X164244276Y-73822369D01*
X164327980Y-73779856D01*
X164340629Y-73778534D01*
X164404661Y-73739494D01*
X164436301Y-73657444D01*
X164513139Y-73475121D01*
X164654259Y-73320010D01*
X164840260Y-73206451D01*
X165051742Y-73148781D01*
X165130390Y-73144463D01*
X165357461Y-73185048D01*
X165357461Y-73185048D01*
G37*
X165357461Y-73185048D02*
X165584131Y-73294621D01*
X165795337Y-73458787D01*
X165976012Y-73663147D01*
X166111092Y-73893304D01*
X166185510Y-74134860D01*
X166188596Y-74155760D01*
X166179976Y-74388477D01*
X166101611Y-74619208D01*
X165965624Y-74824375D01*
X165784138Y-74980401D01*
X165756167Y-74996773D01*
X165715400Y-75025592D01*
X165710585Y-75060597D01*
X165749224Y-75118021D01*
X165838821Y-75214097D01*
X165872584Y-75248628D01*
X165974697Y-75361745D01*
X166047077Y-75459153D01*
X166073667Y-75518317D01*
X166042031Y-75593065D01*
X165965603Y-75684438D01*
X165872101Y-75765350D01*
X165789244Y-75808718D01*
X165774620Y-75810534D01*
X165729706Y-75781619D01*
X165633687Y-75699997D01*
X165494802Y-75573347D01*
X165321288Y-75409350D01*
X165121384Y-75215685D01*
X164903329Y-75000034D01*
X164877353Y-74974063D01*
X164659872Y-74754276D01*
X164463468Y-74551755D01*
X164295813Y-74374740D01*
X164164581Y-74231465D01*
X164077442Y-74130170D01*
X164044828Y-74083075D01*
X164708106Y-74083075D01*
X165019410Y-74396471D01*
X165153266Y-74526569D01*
X165268782Y-74630285D01*
X165351175Y-74694830D01*
X165381676Y-74709867D01*
X165440238Y-74682750D01*
X165531677Y-74613817D01*
X165583819Y-74567285D01*
X165699259Y-74423598D01*
X165734001Y-74277829D01*
X165690937Y-74114412D01*
X165674241Y-74080167D01*
X165594880Y-73967195D01*
X165476163Y-73841537D01*
X165344036Y-73727020D01*
X165224447Y-73647471D01*
X165184259Y-73630237D01*
X165067804Y-73634899D01*
X164945351Y-73709959D01*
X164832454Y-73843939D01*
X164787636Y-73922953D01*
X164708106Y-74083075D01*
X164044828Y-74083075D01*
X164042069Y-74079091D01*
X164041667Y-74076796D01*
X164073414Y-73998479D01*
X164150185Y-73904457D01*
X164244276Y-73822369D01*
X164327980Y-73779856D01*
X164340629Y-73778534D01*
X164404661Y-73739494D01*
X164436301Y-73657444D01*
X164513139Y-73475121D01*
X164654259Y-73320010D01*
X164840260Y-73206451D01*
X165051742Y-73148781D01*
X165130390Y-73144463D01*
X165357461Y-73185048D01*
G36*
X151318562Y-65153117D02*
X151325330Y-65233154D01*
X151337486Y-65389083D01*
X151354558Y-65614353D01*
X151376073Y-65902414D01*
X151401560Y-66246715D01*
X151430547Y-66640706D01*
X151462561Y-67077837D01*
X151497130Y-67551556D01*
X151533783Y-68055314D01*
X151572047Y-68582560D01*
X151611449Y-69126743D01*
X151651519Y-69681313D01*
X151691784Y-70239719D01*
X151731771Y-70795412D01*
X151771009Y-71341840D01*
X151809025Y-71872453D01*
X151845348Y-72380701D01*
X151879505Y-72860033D01*
X151911024Y-73303898D01*
X151939433Y-73705747D01*
X151964261Y-74059028D01*
X151985034Y-74357191D01*
X152001281Y-74593686D01*
X152012530Y-74761963D01*
X152018308Y-74855470D01*
X152019000Y-74871823D01*
X152019000Y-74963867D01*
X141823406Y-74963867D01*
X141797758Y-74699284D01*
X141791044Y-74619329D01*
X141778940Y-74463523D01*
X141761919Y-74238407D01*
X141740452Y-73950525D01*
X141715011Y-73606420D01*
X141686067Y-73212634D01*
X141654091Y-72775711D01*
X141619556Y-72302192D01*
X141582933Y-71798622D01*
X141544693Y-71271543D01*
X141505308Y-70727498D01*
X141465249Y-70173030D01*
X141424989Y-69614681D01*
X141384998Y-69058995D01*
X141345749Y-68512514D01*
X141307712Y-67981781D01*
X141271359Y-67473340D01*
X141237162Y-66993732D01*
X141205593Y-66549502D01*
X141177122Y-66147191D01*
X141152222Y-65793343D01*
X141131364Y-65494500D01*
X141115020Y-65257206D01*
X141103660Y-65088003D01*
X141097758Y-64993434D01*
X141097000Y-64976196D01*
X141097000Y-64888534D01*
X151292595Y-64888534D01*
X151318562Y-65153117D01*
X151318562Y-65153117D01*
G37*
X151318562Y-65153117D02*
X151325330Y-65233154D01*
X151337486Y-65389083D01*
X151354558Y-65614353D01*
X151376073Y-65902414D01*
X151401560Y-66246715D01*
X151430547Y-66640706D01*
X151462561Y-67077837D01*
X151497130Y-67551556D01*
X151533783Y-68055314D01*
X151572047Y-68582560D01*
X151611449Y-69126743D01*
X151651519Y-69681313D01*
X151691784Y-70239719D01*
X151731771Y-70795412D01*
X151771009Y-71341840D01*
X151809025Y-71872453D01*
X151845348Y-72380701D01*
X151879505Y-72860033D01*
X151911024Y-73303898D01*
X151939433Y-73705747D01*
X151964261Y-74059028D01*
X151985034Y-74357191D01*
X152001281Y-74593686D01*
X152012530Y-74761963D01*
X152018308Y-74855470D01*
X152019000Y-74871823D01*
X152019000Y-74963867D01*
X141823406Y-74963867D01*
X141797758Y-74699284D01*
X141791044Y-74619329D01*
X141778940Y-74463523D01*
X141761919Y-74238407D01*
X141740452Y-73950525D01*
X141715011Y-73606420D01*
X141686067Y-73212634D01*
X141654091Y-72775711D01*
X141619556Y-72302192D01*
X141582933Y-71798622D01*
X141544693Y-71271543D01*
X141505308Y-70727498D01*
X141465249Y-70173030D01*
X141424989Y-69614681D01*
X141384998Y-69058995D01*
X141345749Y-68512514D01*
X141307712Y-67981781D01*
X141271359Y-67473340D01*
X141237162Y-66993732D01*
X141205593Y-66549502D01*
X141177122Y-66147191D01*
X141152222Y-65793343D01*
X141131364Y-65494500D01*
X141115020Y-65257206D01*
X141103660Y-65088003D01*
X141097758Y-64993434D01*
X141097000Y-64976196D01*
X141097000Y-64888534D01*
X151292595Y-64888534D01*
X151318562Y-65153117D01*
G36*
X167904889Y-66021250D02*
X168154102Y-66271719D01*
X168383275Y-66504203D01*
X168585726Y-66711757D01*
X168754772Y-66887436D01*
X168883733Y-67024297D01*
X168965925Y-67115396D01*
X168994667Y-67153753D01*
X168965285Y-67188324D01*
X168879495Y-67279116D01*
X168740831Y-67422556D01*
X168552828Y-67615073D01*
X168319021Y-67853094D01*
X168042943Y-68133045D01*
X167728128Y-68451354D01*
X167378112Y-68804448D01*
X166996429Y-69188755D01*
X166586613Y-69600701D01*
X166152198Y-70036714D01*
X165696718Y-70493222D01*
X165223709Y-70966651D01*
X165131664Y-71058704D01*
X161268661Y-74921534D01*
X158115000Y-74921534D01*
X158115000Y-74781408D01*
X158112149Y-74720021D01*
X158103896Y-74580808D01*
X158090694Y-74370405D01*
X158072993Y-74095451D01*
X158051244Y-73762582D01*
X158025899Y-73378437D01*
X157997410Y-72949652D01*
X157966227Y-72482865D01*
X157932803Y-71984714D01*
X157897588Y-71461836D01*
X157861033Y-70920868D01*
X157823591Y-70368449D01*
X157785712Y-69811215D01*
X157747848Y-69255804D01*
X157710451Y-68708853D01*
X157673970Y-68177000D01*
X157638859Y-67666882D01*
X157605568Y-67185138D01*
X157574548Y-66738403D01*
X157546252Y-66333316D01*
X157521130Y-65976515D01*
X157499633Y-65674636D01*
X157482213Y-65434317D01*
X157469322Y-65262196D01*
X157461410Y-65164910D01*
X157460270Y-65153117D01*
X157436927Y-64930867D01*
X166815111Y-64930867D01*
X167904889Y-66021250D01*
X167904889Y-66021250D01*
G37*
X167904889Y-66021250D02*
X168154102Y-66271719D01*
X168383275Y-66504203D01*
X168585726Y-66711757D01*
X168754772Y-66887436D01*
X168883733Y-67024297D01*
X168965925Y-67115396D01*
X168994667Y-67153753D01*
X168965285Y-67188324D01*
X168879495Y-67279116D01*
X168740831Y-67422556D01*
X168552828Y-67615073D01*
X168319021Y-67853094D01*
X168042943Y-68133045D01*
X167728128Y-68451354D01*
X167378112Y-68804448D01*
X166996429Y-69188755D01*
X166586613Y-69600701D01*
X166152198Y-70036714D01*
X165696718Y-70493222D01*
X165223709Y-70966651D01*
X165131664Y-71058704D01*
X161268661Y-74921534D01*
X158115000Y-74921534D01*
X158115000Y-74781408D01*
X158112149Y-74720021D01*
X158103896Y-74580808D01*
X158090694Y-74370405D01*
X158072993Y-74095451D01*
X158051244Y-73762582D01*
X158025899Y-73378437D01*
X157997410Y-72949652D01*
X157966227Y-72482865D01*
X157932803Y-71984714D01*
X157897588Y-71461836D01*
X157861033Y-70920868D01*
X157823591Y-70368449D01*
X157785712Y-69811215D01*
X157747848Y-69255804D01*
X157710451Y-68708853D01*
X157673970Y-68177000D01*
X157638859Y-67666882D01*
X157605568Y-67185138D01*
X157574548Y-66738403D01*
X157546252Y-66333316D01*
X157521130Y-65976515D01*
X157499633Y-65674636D01*
X157482213Y-65434317D01*
X157469322Y-65262196D01*
X157461410Y-65164910D01*
X157460270Y-65153117D01*
X157436927Y-64930867D01*
X166815111Y-64930867D01*
X167904889Y-66021250D01*
G36*
X166752712Y-71787929D02*
X166977989Y-71896727D01*
X167188529Y-72058801D01*
X167369641Y-72259092D01*
X167506633Y-72482543D01*
X167584815Y-72714097D01*
X167597431Y-72844158D01*
X167558307Y-73080006D01*
X167452141Y-73306276D01*
X167294227Y-73496951D01*
X167153167Y-73599773D01*
X167112400Y-73628592D01*
X167107585Y-73663597D01*
X167146224Y-73721021D01*
X167235821Y-73817097D01*
X167269584Y-73851628D01*
X167371697Y-73964745D01*
X167444077Y-74062153D01*
X167470667Y-74121317D01*
X167441322Y-74189318D01*
X167370758Y-74278414D01*
X167285181Y-74361046D01*
X167210800Y-74409654D01*
X167192796Y-74413534D01*
X167153600Y-74384687D01*
X167062779Y-74303183D01*
X166928234Y-74176572D01*
X166757863Y-74012405D01*
X166559569Y-73818234D01*
X166341251Y-73601610D01*
X166295530Y-73555905D01*
X166075501Y-73334347D01*
X165876383Y-73131285D01*
X165705719Y-72954616D01*
X165571051Y-72812242D01*
X165479924Y-72712060D01*
X165459152Y-72686075D01*
X166105106Y-72686075D01*
X166416410Y-72999471D01*
X166550266Y-73129569D01*
X166665782Y-73233285D01*
X166748175Y-73297830D01*
X166778676Y-73312867D01*
X166837238Y-73285750D01*
X166928677Y-73216817D01*
X166980819Y-73170285D01*
X167096259Y-73026598D01*
X167131001Y-72880829D01*
X167087937Y-72717412D01*
X167071241Y-72683167D01*
X166991880Y-72570195D01*
X166873163Y-72444537D01*
X166741036Y-72330020D01*
X166621447Y-72250471D01*
X166581259Y-72233237D01*
X166464804Y-72237899D01*
X166342351Y-72312959D01*
X166229454Y-72446939D01*
X166184636Y-72525953D01*
X166105106Y-72686075D01*
X165459152Y-72686075D01*
X165439882Y-72661970D01*
X165438667Y-72658638D01*
X165470029Y-72592764D01*
X165545612Y-72508035D01*
X165637656Y-72430180D01*
X165718404Y-72384928D01*
X165737629Y-72381534D01*
X165801661Y-72342494D01*
X165833301Y-72260444D01*
X165910139Y-72078121D01*
X166051259Y-71923010D01*
X166237260Y-71809451D01*
X166448742Y-71751781D01*
X166527390Y-71747463D01*
X166752712Y-71787929D01*
X166752712Y-71787929D01*
G37*
X166752712Y-71787929D02*
X166977989Y-71896727D01*
X167188529Y-72058801D01*
X167369641Y-72259092D01*
X167506633Y-72482543D01*
X167584815Y-72714097D01*
X167597431Y-72844158D01*
X167558307Y-73080006D01*
X167452141Y-73306276D01*
X167294227Y-73496951D01*
X167153167Y-73599773D01*
X167112400Y-73628592D01*
X167107585Y-73663597D01*
X167146224Y-73721021D01*
X167235821Y-73817097D01*
X167269584Y-73851628D01*
X167371697Y-73964745D01*
X167444077Y-74062153D01*
X167470667Y-74121317D01*
X167441322Y-74189318D01*
X167370758Y-74278414D01*
X167285181Y-74361046D01*
X167210800Y-74409654D01*
X167192796Y-74413534D01*
X167153600Y-74384687D01*
X167062779Y-74303183D01*
X166928234Y-74176572D01*
X166757863Y-74012405D01*
X166559569Y-73818234D01*
X166341251Y-73601610D01*
X166295530Y-73555905D01*
X166075501Y-73334347D01*
X165876383Y-73131285D01*
X165705719Y-72954616D01*
X165571051Y-72812242D01*
X165479924Y-72712060D01*
X165459152Y-72686075D01*
X166105106Y-72686075D01*
X166416410Y-72999471D01*
X166550266Y-73129569D01*
X166665782Y-73233285D01*
X166748175Y-73297830D01*
X166778676Y-73312867D01*
X166837238Y-73285750D01*
X166928677Y-73216817D01*
X166980819Y-73170285D01*
X167096259Y-73026598D01*
X167131001Y-72880829D01*
X167087937Y-72717412D01*
X167071241Y-72683167D01*
X166991880Y-72570195D01*
X166873163Y-72444537D01*
X166741036Y-72330020D01*
X166621447Y-72250471D01*
X166581259Y-72233237D01*
X166464804Y-72237899D01*
X166342351Y-72312959D01*
X166229454Y-72446939D01*
X166184636Y-72525953D01*
X166105106Y-72686075D01*
X165459152Y-72686075D01*
X165439882Y-72661970D01*
X165438667Y-72658638D01*
X165470029Y-72592764D01*
X165545612Y-72508035D01*
X165637656Y-72430180D01*
X165718404Y-72384928D01*
X165737629Y-72381534D01*
X165801661Y-72342494D01*
X165833301Y-72260444D01*
X165910139Y-72078121D01*
X166051259Y-71923010D01*
X166237260Y-71809451D01*
X166448742Y-71751781D01*
X166527390Y-71747463D01*
X166752712Y-71787929D01*
G36*
X168016987Y-70178424D02*
X168080656Y-70297855D01*
X168171737Y-70496105D01*
X168289983Y-70772618D01*
X168435142Y-71126836D01*
X168518417Y-71334620D01*
X168637562Y-71635865D01*
X168745808Y-71913584D01*
X168839288Y-72157541D01*
X168914140Y-72357500D01*
X168966499Y-72503223D01*
X168992500Y-72584476D01*
X168994667Y-72596197D01*
X168962901Y-72671967D01*
X168886105Y-72763900D01*
X168792029Y-72844901D01*
X168708423Y-72887874D01*
X168694238Y-72889534D01*
X168646010Y-72849266D01*
X168580986Y-72732066D01*
X168502094Y-72543340D01*
X168491647Y-72515642D01*
X168352019Y-72141751D01*
X167526985Y-71807666D01*
X167280012Y-71706376D01*
X167060348Y-71613844D01*
X166879929Y-71535298D01*
X166750690Y-71475967D01*
X166684568Y-71441079D01*
X166678793Y-71436112D01*
X166693480Y-71388307D01*
X166755820Y-71304880D01*
X166819735Y-71236702D01*
X166983834Y-71074762D01*
X167449500Y-71265409D01*
X167641658Y-71344030D01*
X167812566Y-71413866D01*
X167942637Y-71466919D01*
X168009204Y-71493953D01*
X168103242Y-71531849D01*
X168023173Y-71332275D01*
X167966036Y-71191490D01*
X167891776Y-71010678D01*
X167816022Y-70827887D01*
X167812719Y-70819961D01*
X167750978Y-70663362D01*
X167705033Y-70530611D01*
X167683114Y-70445929D01*
X167682334Y-70436298D01*
X167714007Y-70357975D01*
X167790600Y-70264049D01*
X167884472Y-70182092D01*
X167967980Y-70139680D01*
X167980983Y-70138369D01*
X168016987Y-70178424D01*
X168016987Y-70178424D01*
G37*
X168016987Y-70178424D02*
X168080656Y-70297855D01*
X168171737Y-70496105D01*
X168289983Y-70772618D01*
X168435142Y-71126836D01*
X168518417Y-71334620D01*
X168637562Y-71635865D01*
X168745808Y-71913584D01*
X168839288Y-72157541D01*
X168914140Y-72357500D01*
X168966499Y-72503223D01*
X168992500Y-72584476D01*
X168994667Y-72596197D01*
X168962901Y-72671967D01*
X168886105Y-72763900D01*
X168792029Y-72844901D01*
X168708423Y-72887874D01*
X168694238Y-72889534D01*
X168646010Y-72849266D01*
X168580986Y-72732066D01*
X168502094Y-72543340D01*
X168491647Y-72515642D01*
X168352019Y-72141751D01*
X167526985Y-71807666D01*
X167280012Y-71706376D01*
X167060348Y-71613844D01*
X166879929Y-71535298D01*
X166750690Y-71475967D01*
X166684568Y-71441079D01*
X166678793Y-71436112D01*
X166693480Y-71388307D01*
X166755820Y-71304880D01*
X166819735Y-71236702D01*
X166983834Y-71074762D01*
X167449500Y-71265409D01*
X167641658Y-71344030D01*
X167812566Y-71413866D01*
X167942637Y-71466919D01*
X168009204Y-71493953D01*
X168103242Y-71531849D01*
X168023173Y-71332275D01*
X167966036Y-71191490D01*
X167891776Y-71010678D01*
X167816022Y-70827887D01*
X167812719Y-70819961D01*
X167750978Y-70663362D01*
X167705033Y-70530611D01*
X167683114Y-70445929D01*
X167682334Y-70436298D01*
X167714007Y-70357975D01*
X167790600Y-70264049D01*
X167884472Y-70182092D01*
X167967980Y-70139680D01*
X167980983Y-70138369D01*
X168016987Y-70178424D01*
G36*
X150766612Y-59184117D02*
X150774557Y-59250489D01*
X150786925Y-59386415D01*
X150802632Y-59576961D01*
X150820597Y-59807192D01*
X150839735Y-60062175D01*
X150858963Y-60326976D01*
X150877200Y-60586661D01*
X150893361Y-60826296D01*
X150906365Y-61030948D01*
X150915127Y-61185681D01*
X150918565Y-61275563D01*
X150918577Y-61279617D01*
X150918334Y-61374867D01*
X145900505Y-61374867D01*
X145114643Y-61374702D01*
X144409639Y-61374180D01*
X143781685Y-61373262D01*
X143226971Y-61371906D01*
X142741689Y-61370074D01*
X142322031Y-61367726D01*
X141964189Y-61364820D01*
X141664354Y-61361317D01*
X141418717Y-61357178D01*
X141223470Y-61352361D01*
X141074805Y-61346828D01*
X140968914Y-61340537D01*
X140901987Y-61333449D01*
X140870216Y-61325525D01*
X140866444Y-61321950D01*
X140858791Y-61265364D01*
X140846806Y-61138770D01*
X140831531Y-60956656D01*
X140814006Y-60733511D01*
X140795274Y-60483820D01*
X140776377Y-60222074D01*
X140758357Y-59962760D01*
X140742255Y-59720365D01*
X140729114Y-59509379D01*
X140719974Y-59344288D01*
X140715878Y-59239580D01*
X140715757Y-59226450D01*
X140716000Y-59088867D01*
X150747387Y-59088867D01*
X150766612Y-59184117D01*
X150766612Y-59184117D01*
G37*
X150766612Y-59184117D02*
X150774557Y-59250489D01*
X150786925Y-59386415D01*
X150802632Y-59576961D01*
X150820597Y-59807192D01*
X150839735Y-60062175D01*
X150858963Y-60326976D01*
X150877200Y-60586661D01*
X150893361Y-60826296D01*
X150906365Y-61030948D01*
X150915127Y-61185681D01*
X150918565Y-61275563D01*
X150918577Y-61279617D01*
X150918334Y-61374867D01*
X145900505Y-61374867D01*
X145114643Y-61374702D01*
X144409639Y-61374180D01*
X143781685Y-61373262D01*
X143226971Y-61371906D01*
X142741689Y-61370074D01*
X142322031Y-61367726D01*
X141964189Y-61364820D01*
X141664354Y-61361317D01*
X141418717Y-61357178D01*
X141223470Y-61352361D01*
X141074805Y-61346828D01*
X140968914Y-61340537D01*
X140901987Y-61333449D01*
X140870216Y-61325525D01*
X140866444Y-61321950D01*
X140858791Y-61265364D01*
X140846806Y-61138770D01*
X140831531Y-60956656D01*
X140814006Y-60733511D01*
X140795274Y-60483820D01*
X140776377Y-60222074D01*
X140758357Y-59962760D01*
X140742255Y-59720365D01*
X140729114Y-59509379D01*
X140719974Y-59344288D01*
X140715878Y-59239580D01*
X140715757Y-59226450D01*
X140716000Y-59088867D01*
X150747387Y-59088867D01*
X150766612Y-59184117D01*
G36*
X158972250Y-59089515D02*
X159376498Y-59090309D01*
X159755162Y-59092332D01*
X160099765Y-59095448D01*
X160401826Y-59099519D01*
X160652867Y-59104409D01*
X160844408Y-59109981D01*
X160967969Y-59116100D01*
X161014834Y-59122414D01*
X161053376Y-59158939D01*
X161144543Y-59248782D01*
X161281439Y-59385045D01*
X161457168Y-59560830D01*
X161664835Y-59769239D01*
X161897545Y-60003375D01*
X162148403Y-60256339D01*
X162156750Y-60264766D01*
X163256334Y-61374867D01*
X157145170Y-61374867D01*
X157123859Y-61237284D01*
X157115386Y-61159886D01*
X157102420Y-61013549D01*
X157086102Y-60813811D01*
X157067572Y-60576211D01*
X157047970Y-60316289D01*
X157028438Y-60049583D01*
X157010115Y-59791633D01*
X156994142Y-59557978D01*
X156981659Y-59364157D01*
X156973806Y-59225709D01*
X156971626Y-59162950D01*
X156975868Y-59145768D01*
X156993113Y-59131464D01*
X157030423Y-59119780D01*
X157094861Y-59110456D01*
X157193489Y-59103233D01*
X157333369Y-59097851D01*
X157521563Y-59094052D01*
X157765134Y-59091575D01*
X158071143Y-59090163D01*
X158446654Y-59089556D01*
X158898728Y-59089494D01*
X158972250Y-59089515D01*
X158972250Y-59089515D01*
G37*
X158972250Y-59089515D02*
X159376498Y-59090309D01*
X159755162Y-59092332D01*
X160099765Y-59095448D01*
X160401826Y-59099519D01*
X160652867Y-59104409D01*
X160844408Y-59109981D01*
X160967969Y-59116100D01*
X161014834Y-59122414D01*
X161053376Y-59158939D01*
X161144543Y-59248782D01*
X161281439Y-59385045D01*
X161457168Y-59560830D01*
X161664835Y-59769239D01*
X161897545Y-60003375D01*
X162148403Y-60256339D01*
X162156750Y-60264766D01*
X163256334Y-61374867D01*
X157145170Y-61374867D01*
X157123859Y-61237284D01*
X157115386Y-61159886D01*
X157102420Y-61013549D01*
X157086102Y-60813811D01*
X157067572Y-60576211D01*
X157047970Y-60316289D01*
X157028438Y-60049583D01*
X157010115Y-59791633D01*
X156994142Y-59557978D01*
X156981659Y-59364157D01*
X156973806Y-59225709D01*
X156971626Y-59162950D01*
X156975868Y-59145768D01*
X156993113Y-59131464D01*
X157030423Y-59119780D01*
X157094861Y-59110456D01*
X157193489Y-59103233D01*
X157333369Y-59097851D01*
X157521563Y-59094052D01*
X157765134Y-59091575D01*
X158071143Y-59090163D01*
X158446654Y-59089556D01*
X158898728Y-59089494D01*
X158972250Y-59089515D01*
G04 #@! TD*
D11*
G04 #@! TO.C,REF\002A\002A*
X139141200Y-94869000D03*
G04 #@! TD*
G04 #@! TO.C,REF\002A\002A*
X116713000Y-72466200D03*
G04 #@! TD*
G04 #@! TO.C,REF\002A\002A*
X175615600Y-72466200D03*
G04 #@! TD*
G04 #@! TO.C,REF\002A\002A*
X175615600Y-131241800D03*
G04 #@! TD*
G04 #@! TO.C,REF\002A\002A*
X153111200Y-108889800D03*
G04 #@! TD*
G04 #@! TO.C,REF\002A\002A*
X153111200Y-94869000D03*
G04 #@! TD*
G04 #@! TO.C,REF\002A\002A*
X139141200Y-108889800D03*
G04 #@! TD*
D12*
G04 #@! TO.C,X1*
X148650000Y-117495000D03*
X148650000Y-120035000D03*
D13*
X146110000Y-117495000D03*
X146110000Y-120035000D03*
X143570000Y-117495000D03*
D14*
X143570000Y-120035000D03*
G04 #@! TD*
D15*
G04 #@! TO.C,*
X173978079Y-59445629D03*
G04 #@! TD*
D16*
G04 #@! TO.C,C1*
G36*
X137241071Y-124196623D02*
X137273781Y-124201475D01*
X137305857Y-124209509D01*
X137336991Y-124220649D01*
X137366884Y-124234787D01*
X137395247Y-124251787D01*
X137421807Y-124271485D01*
X137446308Y-124293692D01*
X137468515Y-124318193D01*
X137488213Y-124344753D01*
X137505213Y-124373116D01*
X137519351Y-124403009D01*
X137530491Y-124434143D01*
X137538525Y-124466219D01*
X137543377Y-124498929D01*
X137545000Y-124531956D01*
X137545000Y-125658044D01*
X137543377Y-125691071D01*
X137538525Y-125723781D01*
X137530491Y-125755857D01*
X137519351Y-125786991D01*
X137505213Y-125816884D01*
X137488213Y-125845247D01*
X137468515Y-125871807D01*
X137446308Y-125896308D01*
X137421807Y-125918515D01*
X137395247Y-125938213D01*
X137366884Y-125955213D01*
X137336991Y-125969351D01*
X137305857Y-125980491D01*
X137273781Y-125988525D01*
X137241071Y-125993377D01*
X137208044Y-125995000D01*
X136331956Y-125995000D01*
X136298929Y-125993377D01*
X136266219Y-125988525D01*
X136234143Y-125980491D01*
X136203009Y-125969351D01*
X136173116Y-125955213D01*
X136144753Y-125938213D01*
X136118193Y-125918515D01*
X136093692Y-125896308D01*
X136071485Y-125871807D01*
X136051787Y-125845247D01*
X136034787Y-125816884D01*
X136020649Y-125786991D01*
X136009509Y-125755857D01*
X136001475Y-125723781D01*
X135996623Y-125691071D01*
X135995000Y-125658044D01*
X135995000Y-124531956D01*
X135996623Y-124498929D01*
X136001475Y-124466219D01*
X136009509Y-124434143D01*
X136020649Y-124403009D01*
X136034787Y-124373116D01*
X136051787Y-124344753D01*
X136071485Y-124318193D01*
X136093692Y-124293692D01*
X136118193Y-124271485D01*
X136144753Y-124251787D01*
X136173116Y-124234787D01*
X136203009Y-124220649D01*
X136234143Y-124209509D01*
X136266219Y-124201475D01*
X136298929Y-124196623D01*
X136331956Y-124195000D01*
X137208044Y-124195000D01*
X137241071Y-124196623D01*
X137241071Y-124196623D01*
G37*
D17*
X136770000Y-125095000D03*
D16*
G36*
X139291071Y-124196623D02*
X139323781Y-124201475D01*
X139355857Y-124209509D01*
X139386991Y-124220649D01*
X139416884Y-124234787D01*
X139445247Y-124251787D01*
X139471807Y-124271485D01*
X139496308Y-124293692D01*
X139518515Y-124318193D01*
X139538213Y-124344753D01*
X139555213Y-124373116D01*
X139569351Y-124403009D01*
X139580491Y-124434143D01*
X139588525Y-124466219D01*
X139593377Y-124498929D01*
X139595000Y-124531956D01*
X139595000Y-125658044D01*
X139593377Y-125691071D01*
X139588525Y-125723781D01*
X139580491Y-125755857D01*
X139569351Y-125786991D01*
X139555213Y-125816884D01*
X139538213Y-125845247D01*
X139518515Y-125871807D01*
X139496308Y-125896308D01*
X139471807Y-125918515D01*
X139445247Y-125938213D01*
X139416884Y-125955213D01*
X139386991Y-125969351D01*
X139355857Y-125980491D01*
X139323781Y-125988525D01*
X139291071Y-125993377D01*
X139258044Y-125995000D01*
X138381956Y-125995000D01*
X138348929Y-125993377D01*
X138316219Y-125988525D01*
X138284143Y-125980491D01*
X138253009Y-125969351D01*
X138223116Y-125955213D01*
X138194753Y-125938213D01*
X138168193Y-125918515D01*
X138143692Y-125896308D01*
X138121485Y-125871807D01*
X138101787Y-125845247D01*
X138084787Y-125816884D01*
X138070649Y-125786991D01*
X138059509Y-125755857D01*
X138051475Y-125723781D01*
X138046623Y-125691071D01*
X138045000Y-125658044D01*
X138045000Y-124531956D01*
X138046623Y-124498929D01*
X138051475Y-124466219D01*
X138059509Y-124434143D01*
X138070649Y-124403009D01*
X138084787Y-124373116D01*
X138101787Y-124344753D01*
X138121485Y-124318193D01*
X138143692Y-124293692D01*
X138168193Y-124271485D01*
X138194753Y-124251787D01*
X138223116Y-124234787D01*
X138253009Y-124220649D01*
X138284143Y-124209509D01*
X138316219Y-124201475D01*
X138348929Y-124196623D01*
X138381956Y-124195000D01*
X139258044Y-124195000D01*
X139291071Y-124196623D01*
X139291071Y-124196623D01*
G37*
D17*
X138820000Y-125095000D03*
G04 #@! TD*
D16*
G04 #@! TO.C,D1*
G36*
X124036199Y-133666575D02*
X124068909Y-133671427D01*
X124100985Y-133679461D01*
X124132119Y-133690601D01*
X124162012Y-133704739D01*
X124190375Y-133721739D01*
X124216935Y-133741437D01*
X124241436Y-133763644D01*
X124860924Y-134383132D01*
X124883131Y-134407633D01*
X124902829Y-134434193D01*
X124919829Y-134462556D01*
X124933967Y-134492449D01*
X124945107Y-134523583D01*
X124953141Y-134555659D01*
X124957993Y-134588369D01*
X124959616Y-134621396D01*
X124957993Y-134654423D01*
X124953141Y-134687133D01*
X124945107Y-134719209D01*
X124933967Y-134750343D01*
X124919829Y-134780236D01*
X124902829Y-134808599D01*
X124883131Y-134835159D01*
X124860924Y-134859660D01*
X124064660Y-135655924D01*
X124040159Y-135678131D01*
X124013599Y-135697829D01*
X123985236Y-135714829D01*
X123955343Y-135728967D01*
X123924209Y-135740107D01*
X123892133Y-135748141D01*
X123859423Y-135752993D01*
X123826396Y-135754616D01*
X123793369Y-135752993D01*
X123760659Y-135748141D01*
X123728583Y-135740107D01*
X123697449Y-135728967D01*
X123667556Y-135714829D01*
X123639193Y-135697829D01*
X123612633Y-135678131D01*
X123588132Y-135655924D01*
X122968644Y-135036436D01*
X122946437Y-135011935D01*
X122926739Y-134985375D01*
X122909739Y-134957012D01*
X122895601Y-134927119D01*
X122884461Y-134895985D01*
X122876427Y-134863909D01*
X122871575Y-134831199D01*
X122869952Y-134798172D01*
X122871575Y-134765145D01*
X122876427Y-134732435D01*
X122884461Y-134700359D01*
X122895601Y-134669225D01*
X122909739Y-134639332D01*
X122926739Y-134610969D01*
X122946437Y-134584409D01*
X122968644Y-134559908D01*
X123764908Y-133763644D01*
X123789409Y-133741437D01*
X123815969Y-133721739D01*
X123844332Y-133704739D01*
X123874225Y-133690601D01*
X123905359Y-133679461D01*
X123937435Y-133671427D01*
X123970145Y-133666575D01*
X124003172Y-133664952D01*
X124036199Y-133666575D01*
X124036199Y-133666575D01*
G37*
D17*
X123914784Y-134709784D03*
D16*
G36*
X122586631Y-132217007D02*
X122619341Y-132221859D01*
X122651417Y-132229893D01*
X122682551Y-132241033D01*
X122712444Y-132255171D01*
X122740807Y-132272171D01*
X122767367Y-132291869D01*
X122791868Y-132314076D01*
X123411356Y-132933564D01*
X123433563Y-132958065D01*
X123453261Y-132984625D01*
X123470261Y-133012988D01*
X123484399Y-133042881D01*
X123495539Y-133074015D01*
X123503573Y-133106091D01*
X123508425Y-133138801D01*
X123510048Y-133171828D01*
X123508425Y-133204855D01*
X123503573Y-133237565D01*
X123495539Y-133269641D01*
X123484399Y-133300775D01*
X123470261Y-133330668D01*
X123453261Y-133359031D01*
X123433563Y-133385591D01*
X123411356Y-133410092D01*
X122615092Y-134206356D01*
X122590591Y-134228563D01*
X122564031Y-134248261D01*
X122535668Y-134265261D01*
X122505775Y-134279399D01*
X122474641Y-134290539D01*
X122442565Y-134298573D01*
X122409855Y-134303425D01*
X122376828Y-134305048D01*
X122343801Y-134303425D01*
X122311091Y-134298573D01*
X122279015Y-134290539D01*
X122247881Y-134279399D01*
X122217988Y-134265261D01*
X122189625Y-134248261D01*
X122163065Y-134228563D01*
X122138564Y-134206356D01*
X121519076Y-133586868D01*
X121496869Y-133562367D01*
X121477171Y-133535807D01*
X121460171Y-133507444D01*
X121446033Y-133477551D01*
X121434893Y-133446417D01*
X121426859Y-133414341D01*
X121422007Y-133381631D01*
X121420384Y-133348604D01*
X121422007Y-133315577D01*
X121426859Y-133282867D01*
X121434893Y-133250791D01*
X121446033Y-133219657D01*
X121460171Y-133189764D01*
X121477171Y-133161401D01*
X121496869Y-133134841D01*
X121519076Y-133110340D01*
X122315340Y-132314076D01*
X122339841Y-132291869D01*
X122366401Y-132272171D01*
X122394764Y-132255171D01*
X122424657Y-132241033D01*
X122455791Y-132229893D01*
X122487867Y-132221859D01*
X122520577Y-132217007D01*
X122553604Y-132215384D01*
X122586631Y-132217007D01*
X122586631Y-132217007D01*
G37*
D17*
X122465216Y-133260216D03*
G04 #@! TD*
D16*
G04 #@! TO.C,D2*
G36*
X140366631Y-113712223D02*
X140399341Y-113717075D01*
X140431417Y-113725109D01*
X140462551Y-113736249D01*
X140492444Y-113750387D01*
X140520807Y-113767387D01*
X140547367Y-113787085D01*
X140571868Y-113809292D01*
X141191356Y-114428780D01*
X141213563Y-114453281D01*
X141233261Y-114479841D01*
X141250261Y-114508204D01*
X141264399Y-114538097D01*
X141275539Y-114569231D01*
X141283573Y-114601307D01*
X141288425Y-114634017D01*
X141290048Y-114667044D01*
X141288425Y-114700071D01*
X141283573Y-114732781D01*
X141275539Y-114764857D01*
X141264399Y-114795991D01*
X141250261Y-114825884D01*
X141233261Y-114854247D01*
X141213563Y-114880807D01*
X141191356Y-114905308D01*
X140395092Y-115701572D01*
X140370591Y-115723779D01*
X140344031Y-115743477D01*
X140315668Y-115760477D01*
X140285775Y-115774615D01*
X140254641Y-115785755D01*
X140222565Y-115793789D01*
X140189855Y-115798641D01*
X140156828Y-115800264D01*
X140123801Y-115798641D01*
X140091091Y-115793789D01*
X140059015Y-115785755D01*
X140027881Y-115774615D01*
X139997988Y-115760477D01*
X139969625Y-115743477D01*
X139943065Y-115723779D01*
X139918564Y-115701572D01*
X139299076Y-115082084D01*
X139276869Y-115057583D01*
X139257171Y-115031023D01*
X139240171Y-115002660D01*
X139226033Y-114972767D01*
X139214893Y-114941633D01*
X139206859Y-114909557D01*
X139202007Y-114876847D01*
X139200384Y-114843820D01*
X139202007Y-114810793D01*
X139206859Y-114778083D01*
X139214893Y-114746007D01*
X139226033Y-114714873D01*
X139240171Y-114684980D01*
X139257171Y-114656617D01*
X139276869Y-114630057D01*
X139299076Y-114605556D01*
X140095340Y-113809292D01*
X140119841Y-113787085D01*
X140146401Y-113767387D01*
X140174764Y-113750387D01*
X140204657Y-113736249D01*
X140235791Y-113725109D01*
X140267867Y-113717075D01*
X140300577Y-113712223D01*
X140333604Y-113710600D01*
X140366631Y-113712223D01*
X140366631Y-113712223D01*
G37*
D17*
X140245216Y-114755432D03*
D16*
G36*
X141816199Y-115161791D02*
X141848909Y-115166643D01*
X141880985Y-115174677D01*
X141912119Y-115185817D01*
X141942012Y-115199955D01*
X141970375Y-115216955D01*
X141996935Y-115236653D01*
X142021436Y-115258860D01*
X142640924Y-115878348D01*
X142663131Y-115902849D01*
X142682829Y-115929409D01*
X142699829Y-115957772D01*
X142713967Y-115987665D01*
X142725107Y-116018799D01*
X142733141Y-116050875D01*
X142737993Y-116083585D01*
X142739616Y-116116612D01*
X142737993Y-116149639D01*
X142733141Y-116182349D01*
X142725107Y-116214425D01*
X142713967Y-116245559D01*
X142699829Y-116275452D01*
X142682829Y-116303815D01*
X142663131Y-116330375D01*
X142640924Y-116354876D01*
X141844660Y-117151140D01*
X141820159Y-117173347D01*
X141793599Y-117193045D01*
X141765236Y-117210045D01*
X141735343Y-117224183D01*
X141704209Y-117235323D01*
X141672133Y-117243357D01*
X141639423Y-117248209D01*
X141606396Y-117249832D01*
X141573369Y-117248209D01*
X141540659Y-117243357D01*
X141508583Y-117235323D01*
X141477449Y-117224183D01*
X141447556Y-117210045D01*
X141419193Y-117193045D01*
X141392633Y-117173347D01*
X141368132Y-117151140D01*
X140748644Y-116531652D01*
X140726437Y-116507151D01*
X140706739Y-116480591D01*
X140689739Y-116452228D01*
X140675601Y-116422335D01*
X140664461Y-116391201D01*
X140656427Y-116359125D01*
X140651575Y-116326415D01*
X140649952Y-116293388D01*
X140651575Y-116260361D01*
X140656427Y-116227651D01*
X140664461Y-116195575D01*
X140675601Y-116164441D01*
X140689739Y-116134548D01*
X140706739Y-116106185D01*
X140726437Y-116079625D01*
X140748644Y-116055124D01*
X141544908Y-115258860D01*
X141569409Y-115236653D01*
X141595969Y-115216955D01*
X141624332Y-115199955D01*
X141654225Y-115185817D01*
X141685359Y-115174677D01*
X141717435Y-115166643D01*
X141750145Y-115161791D01*
X141783172Y-115160168D01*
X141816199Y-115161791D01*
X141816199Y-115161791D01*
G37*
D17*
X141694784Y-116205000D03*
G04 #@! TD*
D16*
G04 #@! TO.C,R1*
G36*
X145006071Y-129276623D02*
X145038781Y-129281475D01*
X145070857Y-129289509D01*
X145101991Y-129300649D01*
X145131884Y-129314787D01*
X145160247Y-129331787D01*
X145186807Y-129351485D01*
X145211308Y-129373692D01*
X145233515Y-129398193D01*
X145253213Y-129424753D01*
X145270213Y-129453116D01*
X145284351Y-129483009D01*
X145295491Y-129514143D01*
X145303525Y-129546219D01*
X145308377Y-129578929D01*
X145310000Y-129611956D01*
X145310000Y-130738044D01*
X145308377Y-130771071D01*
X145303525Y-130803781D01*
X145295491Y-130835857D01*
X145284351Y-130866991D01*
X145270213Y-130896884D01*
X145253213Y-130925247D01*
X145233515Y-130951807D01*
X145211308Y-130976308D01*
X145186807Y-130998515D01*
X145160247Y-131018213D01*
X145131884Y-131035213D01*
X145101991Y-131049351D01*
X145070857Y-131060491D01*
X145038781Y-131068525D01*
X145006071Y-131073377D01*
X144973044Y-131075000D01*
X144096956Y-131075000D01*
X144063929Y-131073377D01*
X144031219Y-131068525D01*
X143999143Y-131060491D01*
X143968009Y-131049351D01*
X143938116Y-131035213D01*
X143909753Y-131018213D01*
X143883193Y-130998515D01*
X143858692Y-130976308D01*
X143836485Y-130951807D01*
X143816787Y-130925247D01*
X143799787Y-130896884D01*
X143785649Y-130866991D01*
X143774509Y-130835857D01*
X143766475Y-130803781D01*
X143761623Y-130771071D01*
X143760000Y-130738044D01*
X143760000Y-129611956D01*
X143761623Y-129578929D01*
X143766475Y-129546219D01*
X143774509Y-129514143D01*
X143785649Y-129483009D01*
X143799787Y-129453116D01*
X143816787Y-129424753D01*
X143836485Y-129398193D01*
X143858692Y-129373692D01*
X143883193Y-129351485D01*
X143909753Y-129331787D01*
X143938116Y-129314787D01*
X143968009Y-129300649D01*
X143999143Y-129289509D01*
X144031219Y-129281475D01*
X144063929Y-129276623D01*
X144096956Y-129275000D01*
X144973044Y-129275000D01*
X145006071Y-129276623D01*
X145006071Y-129276623D01*
G37*
D17*
X144535000Y-130175000D03*
D16*
G36*
X142956071Y-129276623D02*
X142988781Y-129281475D01*
X143020857Y-129289509D01*
X143051991Y-129300649D01*
X143081884Y-129314787D01*
X143110247Y-129331787D01*
X143136807Y-129351485D01*
X143161308Y-129373692D01*
X143183515Y-129398193D01*
X143203213Y-129424753D01*
X143220213Y-129453116D01*
X143234351Y-129483009D01*
X143245491Y-129514143D01*
X143253525Y-129546219D01*
X143258377Y-129578929D01*
X143260000Y-129611956D01*
X143260000Y-130738044D01*
X143258377Y-130771071D01*
X143253525Y-130803781D01*
X143245491Y-130835857D01*
X143234351Y-130866991D01*
X143220213Y-130896884D01*
X143203213Y-130925247D01*
X143183515Y-130951807D01*
X143161308Y-130976308D01*
X143136807Y-130998515D01*
X143110247Y-131018213D01*
X143081884Y-131035213D01*
X143051991Y-131049351D01*
X143020857Y-131060491D01*
X142988781Y-131068525D01*
X142956071Y-131073377D01*
X142923044Y-131075000D01*
X142046956Y-131075000D01*
X142013929Y-131073377D01*
X141981219Y-131068525D01*
X141949143Y-131060491D01*
X141918009Y-131049351D01*
X141888116Y-131035213D01*
X141859753Y-131018213D01*
X141833193Y-130998515D01*
X141808692Y-130976308D01*
X141786485Y-130951807D01*
X141766787Y-130925247D01*
X141749787Y-130896884D01*
X141735649Y-130866991D01*
X141724509Y-130835857D01*
X141716475Y-130803781D01*
X141711623Y-130771071D01*
X141710000Y-130738044D01*
X141710000Y-129611956D01*
X141711623Y-129578929D01*
X141716475Y-129546219D01*
X141724509Y-129514143D01*
X141735649Y-129483009D01*
X141749787Y-129453116D01*
X141766787Y-129424753D01*
X141786485Y-129398193D01*
X141808692Y-129373692D01*
X141833193Y-129351485D01*
X141859753Y-129331787D01*
X141888116Y-129314787D01*
X141918009Y-129300649D01*
X141949143Y-129289509D01*
X141981219Y-129281475D01*
X142013929Y-129276623D01*
X142046956Y-129275000D01*
X142923044Y-129275000D01*
X142956071Y-129276623D01*
X142956071Y-129276623D01*
G37*
D17*
X142485000Y-130175000D03*
G04 #@! TD*
D16*
G04 #@! TO.C,R2*
G36*
X137241071Y-129276623D02*
X137273781Y-129281475D01*
X137305857Y-129289509D01*
X137336991Y-129300649D01*
X137366884Y-129314787D01*
X137395247Y-129331787D01*
X137421807Y-129351485D01*
X137446308Y-129373692D01*
X137468515Y-129398193D01*
X137488213Y-129424753D01*
X137505213Y-129453116D01*
X137519351Y-129483009D01*
X137530491Y-129514143D01*
X137538525Y-129546219D01*
X137543377Y-129578929D01*
X137545000Y-129611956D01*
X137545000Y-130738044D01*
X137543377Y-130771071D01*
X137538525Y-130803781D01*
X137530491Y-130835857D01*
X137519351Y-130866991D01*
X137505213Y-130896884D01*
X137488213Y-130925247D01*
X137468515Y-130951807D01*
X137446308Y-130976308D01*
X137421807Y-130998515D01*
X137395247Y-131018213D01*
X137366884Y-131035213D01*
X137336991Y-131049351D01*
X137305857Y-131060491D01*
X137273781Y-131068525D01*
X137241071Y-131073377D01*
X137208044Y-131075000D01*
X136331956Y-131075000D01*
X136298929Y-131073377D01*
X136266219Y-131068525D01*
X136234143Y-131060491D01*
X136203009Y-131049351D01*
X136173116Y-131035213D01*
X136144753Y-131018213D01*
X136118193Y-130998515D01*
X136093692Y-130976308D01*
X136071485Y-130951807D01*
X136051787Y-130925247D01*
X136034787Y-130896884D01*
X136020649Y-130866991D01*
X136009509Y-130835857D01*
X136001475Y-130803781D01*
X135996623Y-130771071D01*
X135995000Y-130738044D01*
X135995000Y-129611956D01*
X135996623Y-129578929D01*
X136001475Y-129546219D01*
X136009509Y-129514143D01*
X136020649Y-129483009D01*
X136034787Y-129453116D01*
X136051787Y-129424753D01*
X136071485Y-129398193D01*
X136093692Y-129373692D01*
X136118193Y-129351485D01*
X136144753Y-129331787D01*
X136173116Y-129314787D01*
X136203009Y-129300649D01*
X136234143Y-129289509D01*
X136266219Y-129281475D01*
X136298929Y-129276623D01*
X136331956Y-129275000D01*
X137208044Y-129275000D01*
X137241071Y-129276623D01*
X137241071Y-129276623D01*
G37*
D17*
X136770000Y-130175000D03*
D16*
G36*
X139291071Y-129276623D02*
X139323781Y-129281475D01*
X139355857Y-129289509D01*
X139386991Y-129300649D01*
X139416884Y-129314787D01*
X139445247Y-129331787D01*
X139471807Y-129351485D01*
X139496308Y-129373692D01*
X139518515Y-129398193D01*
X139538213Y-129424753D01*
X139555213Y-129453116D01*
X139569351Y-129483009D01*
X139580491Y-129514143D01*
X139588525Y-129546219D01*
X139593377Y-129578929D01*
X139595000Y-129611956D01*
X139595000Y-130738044D01*
X139593377Y-130771071D01*
X139588525Y-130803781D01*
X139580491Y-130835857D01*
X139569351Y-130866991D01*
X139555213Y-130896884D01*
X139538213Y-130925247D01*
X139518515Y-130951807D01*
X139496308Y-130976308D01*
X139471807Y-130998515D01*
X139445247Y-131018213D01*
X139416884Y-131035213D01*
X139386991Y-131049351D01*
X139355857Y-131060491D01*
X139323781Y-131068525D01*
X139291071Y-131073377D01*
X139258044Y-131075000D01*
X138381956Y-131075000D01*
X138348929Y-131073377D01*
X138316219Y-131068525D01*
X138284143Y-131060491D01*
X138253009Y-131049351D01*
X138223116Y-131035213D01*
X138194753Y-131018213D01*
X138168193Y-130998515D01*
X138143692Y-130976308D01*
X138121485Y-130951807D01*
X138101787Y-130925247D01*
X138084787Y-130896884D01*
X138070649Y-130866991D01*
X138059509Y-130835857D01*
X138051475Y-130803781D01*
X138046623Y-130771071D01*
X138045000Y-130738044D01*
X138045000Y-129611956D01*
X138046623Y-129578929D01*
X138051475Y-129546219D01*
X138059509Y-129514143D01*
X138070649Y-129483009D01*
X138084787Y-129453116D01*
X138101787Y-129424753D01*
X138121485Y-129398193D01*
X138143692Y-129373692D01*
X138168193Y-129351485D01*
X138194753Y-129331787D01*
X138223116Y-129314787D01*
X138253009Y-129300649D01*
X138284143Y-129289509D01*
X138316219Y-129281475D01*
X138348929Y-129276623D01*
X138381956Y-129275000D01*
X139258044Y-129275000D01*
X139291071Y-129276623D01*
X139291071Y-129276623D01*
G37*
D17*
X138820000Y-130175000D03*
G04 #@! TD*
D16*
G04 #@! TO.C,R3*
G36*
X145006071Y-124196623D02*
X145038781Y-124201475D01*
X145070857Y-124209509D01*
X145101991Y-124220649D01*
X145131884Y-124234787D01*
X145160247Y-124251787D01*
X145186807Y-124271485D01*
X145211308Y-124293692D01*
X145233515Y-124318193D01*
X145253213Y-124344753D01*
X145270213Y-124373116D01*
X145284351Y-124403009D01*
X145295491Y-124434143D01*
X145303525Y-124466219D01*
X145308377Y-124498929D01*
X145310000Y-124531956D01*
X145310000Y-125658044D01*
X145308377Y-125691071D01*
X145303525Y-125723781D01*
X145295491Y-125755857D01*
X145284351Y-125786991D01*
X145270213Y-125816884D01*
X145253213Y-125845247D01*
X145233515Y-125871807D01*
X145211308Y-125896308D01*
X145186807Y-125918515D01*
X145160247Y-125938213D01*
X145131884Y-125955213D01*
X145101991Y-125969351D01*
X145070857Y-125980491D01*
X145038781Y-125988525D01*
X145006071Y-125993377D01*
X144973044Y-125995000D01*
X144096956Y-125995000D01*
X144063929Y-125993377D01*
X144031219Y-125988525D01*
X143999143Y-125980491D01*
X143968009Y-125969351D01*
X143938116Y-125955213D01*
X143909753Y-125938213D01*
X143883193Y-125918515D01*
X143858692Y-125896308D01*
X143836485Y-125871807D01*
X143816787Y-125845247D01*
X143799787Y-125816884D01*
X143785649Y-125786991D01*
X143774509Y-125755857D01*
X143766475Y-125723781D01*
X143761623Y-125691071D01*
X143760000Y-125658044D01*
X143760000Y-124531956D01*
X143761623Y-124498929D01*
X143766475Y-124466219D01*
X143774509Y-124434143D01*
X143785649Y-124403009D01*
X143799787Y-124373116D01*
X143816787Y-124344753D01*
X143836485Y-124318193D01*
X143858692Y-124293692D01*
X143883193Y-124271485D01*
X143909753Y-124251787D01*
X143938116Y-124234787D01*
X143968009Y-124220649D01*
X143999143Y-124209509D01*
X144031219Y-124201475D01*
X144063929Y-124196623D01*
X144096956Y-124195000D01*
X144973044Y-124195000D01*
X145006071Y-124196623D01*
X145006071Y-124196623D01*
G37*
D17*
X144535000Y-125095000D03*
D16*
G36*
X142956071Y-124196623D02*
X142988781Y-124201475D01*
X143020857Y-124209509D01*
X143051991Y-124220649D01*
X143081884Y-124234787D01*
X143110247Y-124251787D01*
X143136807Y-124271485D01*
X143161308Y-124293692D01*
X143183515Y-124318193D01*
X143203213Y-124344753D01*
X143220213Y-124373116D01*
X143234351Y-124403009D01*
X143245491Y-124434143D01*
X143253525Y-124466219D01*
X143258377Y-124498929D01*
X143260000Y-124531956D01*
X143260000Y-125658044D01*
X143258377Y-125691071D01*
X143253525Y-125723781D01*
X143245491Y-125755857D01*
X143234351Y-125786991D01*
X143220213Y-125816884D01*
X143203213Y-125845247D01*
X143183515Y-125871807D01*
X143161308Y-125896308D01*
X143136807Y-125918515D01*
X143110247Y-125938213D01*
X143081884Y-125955213D01*
X143051991Y-125969351D01*
X143020857Y-125980491D01*
X142988781Y-125988525D01*
X142956071Y-125993377D01*
X142923044Y-125995000D01*
X142046956Y-125995000D01*
X142013929Y-125993377D01*
X141981219Y-125988525D01*
X141949143Y-125980491D01*
X141918009Y-125969351D01*
X141888116Y-125955213D01*
X141859753Y-125938213D01*
X141833193Y-125918515D01*
X141808692Y-125896308D01*
X141786485Y-125871807D01*
X141766787Y-125845247D01*
X141749787Y-125816884D01*
X141735649Y-125786991D01*
X141724509Y-125755857D01*
X141716475Y-125723781D01*
X141711623Y-125691071D01*
X141710000Y-125658044D01*
X141710000Y-124531956D01*
X141711623Y-124498929D01*
X141716475Y-124466219D01*
X141724509Y-124434143D01*
X141735649Y-124403009D01*
X141749787Y-124373116D01*
X141766787Y-124344753D01*
X141786485Y-124318193D01*
X141808692Y-124293692D01*
X141833193Y-124271485D01*
X141859753Y-124251787D01*
X141888116Y-124234787D01*
X141918009Y-124220649D01*
X141949143Y-124209509D01*
X141981219Y-124201475D01*
X142013929Y-124196623D01*
X142046956Y-124195000D01*
X142923044Y-124195000D01*
X142956071Y-124196623D01*
X142956071Y-124196623D01*
G37*
D17*
X142485000Y-125095000D03*
G04 #@! TD*
D18*
G04 #@! TO.C,U1*
X148666200Y-125730000D03*
X148666200Y-127000000D03*
X148666200Y-128270000D03*
X148666200Y-129540000D03*
X153593800Y-129540000D03*
X153593800Y-128270000D03*
X153593800Y-127000000D03*
X153593800Y-125730000D03*
G04 #@! TD*
D11*
G04 #@! TO.C,REF\002A\002A*
X116713000Y-131241800D03*
G04 #@! TD*
M02*
