G04 #@! TF.GenerationSoftware,KiCad,Pcbnew,(5.1.2)-1*
G04 #@! TF.CreationDate,2019-06-22T12:55:49-06:00*
G04 #@! TF.ProjectId,HtH_sao_prod,4874485f-7361-46f5-9f70-726f642e6b69,rev?*
G04 #@! TF.SameCoordinates,Original*
G04 #@! TF.FileFunction,Legend,Top*
G04 #@! TF.FilePolarity,Positive*
%FSLAX46Y46*%
G04 Gerber Fmt 4.6, Leading zero omitted, Abs format (unit mm)*
G04 Created by KiCad (PCBNEW (5.1.2)-1) date 2019-06-22 12:55:49*
%MOMM*%
%LPD*%
G04 APERTURE LIST*
%ADD10C,0.150000*%
%ADD11C,0.010000*%
%ADD12C,0.500000*%
%ADD13C,0.152400*%
%ADD14C,0.120000*%
%ADD15C,0.050000*%
G04 APERTURE END LIST*
D10*
X164235522Y-74392713D02*
X164639583Y-73988652D01*
X164437553Y-74190683D02*
X165144660Y-74897790D01*
X165110988Y-74729431D01*
X165110988Y-74594744D01*
X165144660Y-74493729D01*
X163562087Y-75066148D02*
X163966148Y-74662087D01*
X163764118Y-74864118D02*
X164471225Y-75571225D01*
X164437553Y-75402866D01*
X164437553Y-75268179D01*
X164471225Y-75167164D01*
X163831461Y-76210988D02*
X163764118Y-76278331D01*
X163663103Y-76312003D01*
X163595759Y-76312003D01*
X163494744Y-76278331D01*
X163326385Y-76177316D01*
X163158026Y-76008957D01*
X163057011Y-75840599D01*
X163023339Y-75739583D01*
X163023339Y-75672240D01*
X163057011Y-75571225D01*
X163124355Y-75503881D01*
X163225370Y-75470209D01*
X163292713Y-75470209D01*
X163393729Y-75503881D01*
X163562087Y-75604896D01*
X163730446Y-75773255D01*
X163831461Y-75941614D01*
X163865133Y-76042629D01*
X163865133Y-76109973D01*
X163831461Y-76210988D01*
X152397077Y-81659160D02*
X152801138Y-81255099D01*
X152599107Y-81457129D02*
X153306214Y-82164236D01*
X153272542Y-81995877D01*
X153272542Y-81861190D01*
X153306214Y-81760175D01*
X151723642Y-82332595D02*
X152127703Y-81928534D01*
X151925672Y-82130564D02*
X152632779Y-82837671D01*
X152599107Y-82669312D01*
X152599107Y-82534625D01*
X152632779Y-82433610D01*
X151993016Y-83477435D02*
X151925672Y-83544778D01*
X151824657Y-83578450D01*
X151757313Y-83578450D01*
X151656298Y-83544778D01*
X151487939Y-83443763D01*
X151319581Y-83275404D01*
X151218565Y-83107045D01*
X151184894Y-83006030D01*
X151184894Y-82938687D01*
X151218565Y-82837671D01*
X151285909Y-82770328D01*
X151386924Y-82736656D01*
X151454268Y-82736656D01*
X151555283Y-82770328D01*
X151723642Y-82871343D01*
X151892001Y-83039702D01*
X151993016Y-83208061D01*
X152026688Y-83309076D01*
X152026688Y-83376419D01*
X151993016Y-83477435D01*
X150747161Y-83309076D02*
X151454268Y-84016183D01*
X150343100Y-83713137D02*
X151050207Y-83814152D01*
X151050207Y-84420244D02*
X151050207Y-83612122D01*
D11*
G36*
X183768953Y-136800075D02*
G01*
X178953629Y-141615538D01*
X174138306Y-146431000D01*
X153289070Y-146425081D01*
X132439834Y-146419161D01*
X127680261Y-141651997D01*
X127151041Y-141121690D01*
X126638098Y-140607216D01*
X126144626Y-140111801D01*
X125673822Y-139638673D01*
X125228881Y-139191060D01*
X124812998Y-138772187D01*
X124429370Y-138385282D01*
X124081191Y-138033573D01*
X123771658Y-137720285D01*
X123503965Y-137448646D01*
X123281309Y-137221883D01*
X123106886Y-137043223D01*
X123046857Y-136981078D01*
X129316806Y-136981078D01*
X133460653Y-141128815D01*
X137604500Y-145276551D01*
X155680957Y-145282276D01*
X173757413Y-145288000D01*
X176466679Y-142568084D01*
X176905764Y-142127209D01*
X177357765Y-141673246D01*
X177814946Y-141213970D01*
X178269572Y-140757159D01*
X178713905Y-140310588D01*
X179140209Y-139882035D01*
X179540748Y-139479275D01*
X179907786Y-139110087D01*
X180233587Y-138782245D01*
X180510413Y-138503527D01*
X180604537Y-138408706D01*
X182033129Y-136969245D01*
X168856956Y-123793122D01*
X155680783Y-110617000D01*
X142498794Y-123799039D01*
X129316806Y-136981078D01*
X123046857Y-136981078D01*
X122983889Y-136915892D01*
X122915517Y-136843119D01*
X122901892Y-136826642D01*
X122930292Y-136792716D01*
X123017414Y-136700226D01*
X123162034Y-136550399D01*
X123362932Y-136344465D01*
X123618883Y-136083650D01*
X123928667Y-135769184D01*
X124291061Y-135402295D01*
X124704843Y-134984211D01*
X125168791Y-134516161D01*
X125681682Y-133999374D01*
X126242295Y-133435077D01*
X126849407Y-132824499D01*
X127501795Y-132168869D01*
X128198238Y-131469414D01*
X128322630Y-131344555D01*
X129327017Y-131344555D01*
X129776581Y-132463694D01*
X129895734Y-132760161D01*
X130007317Y-133037501D01*
X130106641Y-133284082D01*
X130189017Y-133488274D01*
X130249756Y-133638448D01*
X130284171Y-133722973D01*
X130286171Y-133727818D01*
X130346198Y-133872802D01*
X130490360Y-133733075D01*
X130578892Y-133636185D01*
X130609730Y-133564336D01*
X130598393Y-133503424D01*
X130569220Y-133431424D01*
X130515344Y-133298996D01*
X130444076Y-133124092D01*
X130362726Y-132924664D01*
X130350585Y-132894917D01*
X130274653Y-132703898D01*
X130215173Y-132544492D01*
X130177205Y-132431052D01*
X130165810Y-132377930D01*
X130167536Y-132375751D01*
X130214793Y-132390837D01*
X130325814Y-132432769D01*
X130486171Y-132495912D01*
X130681439Y-132574632D01*
X130781265Y-132615448D01*
X131366363Y-132855726D01*
X131663644Y-132558445D01*
X130793999Y-132202942D01*
X129924354Y-131847440D01*
X129790335Y-131487470D01*
X129727921Y-131324524D01*
X129674020Y-131192317D01*
X129636883Y-131110724D01*
X129627709Y-131095668D01*
X129584564Y-131104040D01*
X129507567Y-131161440D01*
X129463060Y-131204195D01*
X129327017Y-131344555D01*
X128322630Y-131344555D01*
X128679812Y-130986032D01*
X130814373Y-130986032D01*
X130834178Y-131232358D01*
X130920598Y-131478539D01*
X131066823Y-131710983D01*
X131266045Y-131916099D01*
X131511454Y-132080294D01*
X131540146Y-132094865D01*
X131714979Y-132148319D01*
X131913047Y-132160386D01*
X132094589Y-132130400D01*
X132156186Y-132105189D01*
X132346932Y-131960611D01*
X132487908Y-131759651D01*
X132525116Y-131671264D01*
X132578461Y-131562254D01*
X132635643Y-131514499D01*
X132645564Y-131513889D01*
X132713446Y-131488823D01*
X132803095Y-131419843D01*
X132826929Y-131396305D01*
X132944744Y-131273332D01*
X132057885Y-130385717D01*
X131208143Y-129535252D01*
X132252365Y-129535252D01*
X132266249Y-129779416D01*
X132356025Y-130026469D01*
X132518882Y-130266413D01*
X132617338Y-130371429D01*
X132852347Y-130561834D01*
X133088482Y-130680774D01*
X133317170Y-130725705D01*
X133529842Y-130694084D01*
X133601060Y-130663354D01*
X133764120Y-130540597D01*
X133903568Y-130365618D01*
X133985603Y-130194340D01*
X134033766Y-130092722D01*
X134084146Y-130061388D01*
X134089960Y-130062974D01*
X134149718Y-130047718D01*
X134236962Y-129984944D01*
X134275413Y-129948275D01*
X134406721Y-129812800D01*
X133518745Y-128925579D01*
X132737549Y-128145047D01*
X133459199Y-128145047D01*
X133965516Y-128655633D01*
X134138670Y-128827427D01*
X134296694Y-128978980D01*
X134427825Y-129099410D01*
X134520300Y-129177839D01*
X134556500Y-129202259D01*
X134753409Y-129241565D01*
X134965638Y-129204276D01*
X135133388Y-129122350D01*
X135319617Y-128974508D01*
X135510903Y-128770519D01*
X135684915Y-128534354D01*
X135693239Y-128521382D01*
X135731548Y-128452013D01*
X135730015Y-128399199D01*
X135680257Y-128334706D01*
X135620125Y-128275129D01*
X135477950Y-128137328D01*
X135349497Y-128364934D01*
X135204602Y-128582184D01*
X135052130Y-128740260D01*
X134900755Y-128833377D01*
X134759148Y-128855748D01*
X134664079Y-128822308D01*
X134640524Y-128789753D01*
X134657568Y-128734903D01*
X134722239Y-128643208D01*
X134791079Y-128559404D01*
X134991448Y-128292628D01*
X135115055Y-128055844D01*
X135162390Y-127844394D01*
X135133944Y-127653622D01*
X135030206Y-127478870D01*
X134916608Y-127366561D01*
X134730286Y-127257005D01*
X134534909Y-127225723D01*
X134340802Y-127268568D01*
X134158291Y-127381393D01*
X133997699Y-127560054D01*
X133875912Y-127784427D01*
X133817316Y-127887793D01*
X133761432Y-127918850D01*
X133754907Y-127917076D01*
X133692645Y-127931359D01*
X133606273Y-127993485D01*
X133578793Y-128020217D01*
X133459199Y-128145047D01*
X132737549Y-128145047D01*
X132630770Y-128038359D01*
X132494039Y-128175089D01*
X132357309Y-128311820D01*
X132599654Y-128556721D01*
X132733032Y-128694901D01*
X132809671Y-128785101D01*
X132835078Y-128836737D01*
X132814761Y-128859223D01*
X132778622Y-128862667D01*
X132700238Y-128893928D01*
X132593722Y-128974488D01*
X132479818Y-129084507D01*
X132379269Y-129204148D01*
X132317185Y-129303976D01*
X132252365Y-129535252D01*
X131208143Y-129535252D01*
X131171025Y-129498103D01*
X130917975Y-129751153D01*
X131160321Y-129996054D01*
X131294068Y-130134743D01*
X131370969Y-130225394D01*
X131396606Y-130277166D01*
X131376561Y-130299218D01*
X131346787Y-130302000D01*
X131270302Y-130332555D01*
X131163975Y-130411028D01*
X131048803Y-130517637D01*
X130945782Y-130632595D01*
X130875910Y-130736118D01*
X130867992Y-130753154D01*
X130814373Y-130986032D01*
X128679812Y-130986032D01*
X128937514Y-130727364D01*
X129718400Y-129943946D01*
X130539674Y-129120389D01*
X131400114Y-128257921D01*
X132298498Y-127357772D01*
X132931614Y-126723641D01*
X134873564Y-126723641D01*
X135730645Y-127581487D01*
X135951304Y-127801530D01*
X136152587Y-128000694D01*
X136326761Y-128171453D01*
X136466095Y-128306281D01*
X136562855Y-128397650D01*
X136609310Y-128438035D01*
X136611943Y-128439334D01*
X136653582Y-128411559D01*
X136728707Y-128342004D01*
X136758621Y-128311512D01*
X136881082Y-128183690D01*
X136576041Y-127876600D01*
X136448423Y-127744386D01*
X136347031Y-127632232D01*
X136284638Y-127554689D01*
X136271000Y-127529009D01*
X136299301Y-127485073D01*
X136376487Y-127394766D01*
X136490981Y-127270989D01*
X136631206Y-127126638D01*
X136640507Y-127117281D01*
X137010015Y-126746054D01*
X137339152Y-127073261D01*
X137668289Y-127400467D01*
X137964015Y-127104741D01*
X137097302Y-126238801D01*
X136230589Y-125372862D01*
X136080690Y-125518149D01*
X135930791Y-125663437D01*
X136343772Y-126077973D01*
X136756752Y-126492509D01*
X136365964Y-126883297D01*
X135975176Y-127274086D01*
X135561386Y-126861848D01*
X135147595Y-126449610D01*
X135010580Y-126586626D01*
X134873564Y-126723641D01*
X132931614Y-126723641D01*
X133233603Y-126421168D01*
X134204208Y-125449339D01*
X134506558Y-125146704D01*
X136599282Y-125146704D01*
X136750862Y-125298284D01*
X136841059Y-125384447D01*
X136891103Y-125415258D01*
X136918419Y-125397443D01*
X136930644Y-125367682D01*
X137060008Y-125058764D01*
X137208391Y-124831584D01*
X137376675Y-124685182D01*
X137565741Y-124618596D01*
X137621380Y-124614153D01*
X137758586Y-124627241D01*
X137885645Y-124666404D01*
X137976744Y-124720974D01*
X138006667Y-124773379D01*
X137978196Y-124817726D01*
X137899797Y-124909742D01*
X137781992Y-125037812D01*
X137635300Y-125190322D01*
X137559562Y-125266946D01*
X137112457Y-125715442D01*
X137288855Y-125874806D01*
X137506719Y-126041545D01*
X137710806Y-126130566D01*
X137912897Y-126144868D01*
X138124443Y-126087588D01*
X138350568Y-125951729D01*
X138524996Y-125763330D01*
X138640867Y-125538251D01*
X138691325Y-125292354D01*
X138669511Y-125041500D01*
X138629498Y-124919506D01*
X138520626Y-124732209D01*
X138362591Y-124552689D01*
X138175010Y-124396247D01*
X137977497Y-124278183D01*
X137789669Y-124213796D01*
X137715245Y-124206414D01*
X137497058Y-124243914D01*
X137269930Y-124350105D01*
X137050490Y-124512966D01*
X136855368Y-124720474D01*
X136719095Y-124926569D01*
X136599282Y-125146704D01*
X134506558Y-125146704D01*
X135209089Y-124443513D01*
X136247026Y-123404919D01*
X136615515Y-123036303D01*
X137833762Y-123036303D01*
X137836817Y-123264707D01*
X137899157Y-123444000D01*
X137950792Y-123517380D01*
X138052711Y-123639191D01*
X138194949Y-123798379D01*
X138367541Y-123983889D01*
X138560523Y-124184667D01*
X138636243Y-124261769D01*
X139297834Y-124931371D01*
X139451752Y-124759185D01*
X139543609Y-124663545D01*
X139615861Y-124601026D01*
X139643190Y-124587000D01*
X139716912Y-124555586D01*
X139818578Y-124474846D01*
X139927894Y-124365037D01*
X140024566Y-124246414D01*
X140085538Y-124145495D01*
X140155911Y-123902024D01*
X140143587Y-123660997D01*
X140047972Y-123419853D01*
X139868476Y-123176026D01*
X139859457Y-123166086D01*
X139627718Y-122954058D01*
X139395850Y-122822034D01*
X139168261Y-122770461D01*
X138949359Y-122799786D01*
X138743553Y-122910458D01*
X138607503Y-123038996D01*
X138518999Y-123159152D01*
X138456933Y-123278697D01*
X138444123Y-123320469D01*
X138413763Y-123416131D01*
X138369504Y-123434912D01*
X138300977Y-123377501D01*
X138263739Y-123332458D01*
X138189583Y-123195157D01*
X138190736Y-123055773D01*
X138267545Y-122897092D01*
X138272703Y-122889344D01*
X138359777Y-122791392D01*
X138492135Y-122675477D01*
X138640734Y-122564180D01*
X138776532Y-122480086D01*
X138831180Y-122455067D01*
X138831711Y-122420407D01*
X138787787Y-122352823D01*
X138719200Y-122274531D01*
X138645742Y-122207752D01*
X138590098Y-122176335D01*
X139427923Y-122176335D01*
X140315000Y-123064168D01*
X140540571Y-123288453D01*
X140748046Y-123491926D01*
X140929626Y-123667161D01*
X141077511Y-123806731D01*
X141183902Y-123903210D01*
X141240999Y-123949171D01*
X141247452Y-123952000D01*
X141303796Y-123923802D01*
X141386053Y-123853995D01*
X141406092Y-123833776D01*
X141519359Y-123715552D01*
X141265846Y-123464684D01*
X141126635Y-123322969D01*
X141045700Y-123228914D01*
X141017797Y-123174198D01*
X141037686Y-123150498D01*
X141066188Y-123147667D01*
X141149500Y-123115724D01*
X141258789Y-123033253D01*
X141373240Y-122920286D01*
X141472039Y-122796859D01*
X141524871Y-122706162D01*
X141595845Y-122460680D01*
X141584512Y-122214808D01*
X141490246Y-121965155D01*
X141348995Y-121753176D01*
X141143794Y-121540959D01*
X140918380Y-121390157D01*
X140684858Y-121304427D01*
X140455336Y-121287429D01*
X140241919Y-121342819D01*
X140154452Y-121392275D01*
X140036029Y-121499219D01*
X139929444Y-121640125D01*
X139853540Y-121785775D01*
X139827000Y-121900000D01*
X139801284Y-121948467D01*
X139750503Y-121943760D01*
X139659683Y-121959192D01*
X139550964Y-122047908D01*
X139427923Y-122176335D01*
X138590098Y-122176335D01*
X138587205Y-122174702D01*
X138580830Y-122174027D01*
X138527417Y-122198610D01*
X138428956Y-122263309D01*
X138305902Y-122354595D01*
X138295050Y-122363080D01*
X138065029Y-122579616D01*
X137910549Y-122805982D01*
X137833762Y-123036303D01*
X136615515Y-123036303D01*
X137316795Y-122334784D01*
X138096609Y-121554892D01*
X138935084Y-120716414D01*
X140886981Y-120716414D01*
X141404740Y-121231694D01*
X141629562Y-121451991D01*
X141807727Y-121615915D01*
X141949848Y-121729455D01*
X142066533Y-121798602D01*
X142168393Y-121829346D01*
X142266037Y-121827676D01*
X142370075Y-121799582D01*
X142394636Y-121790541D01*
X142558259Y-121700112D01*
X142737773Y-121555195D01*
X142910190Y-121376513D01*
X143033128Y-121214873D01*
X143184898Y-120986291D01*
X143064362Y-120860479D01*
X142983814Y-120781900D01*
X142928620Y-120738026D01*
X142919997Y-120734710D01*
X142887824Y-120768439D01*
X142830235Y-120855239D01*
X142782807Y-120935793D01*
X142668000Y-121108136D01*
X142534043Y-121261721D01*
X142400561Y-121376459D01*
X142301280Y-121428695D01*
X142198540Y-121426087D01*
X142136298Y-121397627D01*
X142102005Y-121365635D01*
X142095788Y-121326691D01*
X142124166Y-121265085D01*
X142193654Y-121165107D01*
X142280090Y-121051028D01*
X142414291Y-120869518D01*
X142501775Y-120730324D01*
X142551996Y-120612408D01*
X142574408Y-120494737D01*
X142578667Y-120386657D01*
X142539337Y-120194279D01*
X142433174Y-120023266D01*
X142277920Y-119891019D01*
X142091316Y-119814938D01*
X141983917Y-119803334D01*
X141786894Y-119842381D01*
X141597526Y-119948161D01*
X141435725Y-120103634D01*
X141321403Y-120291757D01*
X141286595Y-120400121D01*
X141253291Y-120488699D01*
X141200625Y-120506934D01*
X141186106Y-120503242D01*
X141101780Y-120518042D01*
X141000160Y-120598280D01*
X140886981Y-120716414D01*
X138935084Y-120716414D01*
X140403877Y-119247616D01*
X142518488Y-119247616D01*
X142535755Y-119489621D01*
X142627338Y-119738155D01*
X142793742Y-119983831D01*
X142833320Y-120028822D01*
X142966985Y-120159851D01*
X143109745Y-120276253D01*
X143224624Y-120349394D01*
X143432153Y-120418387D01*
X143649245Y-120434402D01*
X143843685Y-120396132D01*
X143888060Y-120376354D01*
X144027188Y-120275580D01*
X144153310Y-120135826D01*
X144239785Y-119988799D01*
X144256699Y-119937654D01*
X144283849Y-119840747D01*
X144304188Y-119788431D01*
X144340617Y-119800636D01*
X144422142Y-119862640D01*
X144535062Y-119963324D01*
X144615996Y-120041455D01*
X144907323Y-120330549D01*
X145180984Y-120056888D01*
X143361834Y-118232754D01*
X143213667Y-118395546D01*
X143090397Y-118514864D01*
X142954985Y-118623082D01*
X142907508Y-118654654D01*
X142704871Y-118820746D01*
X142575028Y-119021529D01*
X142518488Y-119247616D01*
X140403877Y-119247616D01*
X141458498Y-118192991D01*
X144340334Y-118192991D01*
X144441225Y-118300385D01*
X144542117Y-118407779D01*
X144694593Y-118258890D01*
X144790012Y-118173061D01*
X144864299Y-118119257D01*
X144887927Y-118110000D01*
X144927461Y-118142844D01*
X144991050Y-118224437D01*
X145061890Y-118329375D01*
X145123178Y-118432251D01*
X145158110Y-118507659D01*
X145161000Y-118522873D01*
X145133594Y-118565927D01*
X145062486Y-118648690D01*
X144983586Y-118732067D01*
X144806171Y-118912840D01*
X145007783Y-119127446D01*
X145160260Y-118978556D01*
X145252472Y-118893132D01*
X145319702Y-118839278D01*
X145338699Y-118829667D01*
X145370936Y-118863530D01*
X145432508Y-118953085D01*
X145511154Y-119080277D01*
X145525931Y-119105354D01*
X145687201Y-119381042D01*
X145790025Y-119278218D01*
X145892849Y-119175393D01*
X145773921Y-118970780D01*
X145696257Y-118838830D01*
X145627456Y-118724726D01*
X145598693Y-118678648D01*
X145569525Y-118615397D01*
X145586341Y-118558725D01*
X145658651Y-118479779D01*
X145666827Y-118471915D01*
X145791260Y-118352701D01*
X145910047Y-118554059D01*
X145989528Y-118684035D01*
X146062106Y-118794915D01*
X146092889Y-118837694D01*
X146140546Y-118890417D01*
X146180877Y-118887658D01*
X146245209Y-118826015D01*
X146250308Y-118820591D01*
X146343671Y-118721211D01*
X145997949Y-118143941D01*
X146390457Y-117745441D01*
X146283096Y-117644580D01*
X146175735Y-117543720D01*
X146015833Y-117699860D01*
X145922488Y-117787475D01*
X145855183Y-117844127D01*
X145835064Y-117856000D01*
X145805700Y-117821830D01*
X145750000Y-117732817D01*
X145689031Y-117624614D01*
X145563865Y-117393228D01*
X145751074Y-117202475D01*
X145851593Y-117097524D01*
X145900255Y-117032345D01*
X145905030Y-116986799D01*
X145873892Y-116940750D01*
X145860581Y-116925861D01*
X145789455Y-116861280D01*
X145724402Y-116849541D01*
X145644540Y-116894728D01*
X145541999Y-116988168D01*
X145390260Y-117136337D01*
X145229294Y-116861168D01*
X145148186Y-116729212D01*
X145080848Y-116631802D01*
X145039975Y-116587064D01*
X145036558Y-116586000D01*
X144987751Y-116614218D01*
X144925232Y-116673910D01*
X144889831Y-116711419D01*
X144870012Y-116742132D01*
X144870523Y-116781262D01*
X144896112Y-116844021D01*
X144951524Y-116945623D01*
X145041508Y-117101280D01*
X145078584Y-117165347D01*
X145180901Y-117342527D01*
X145078904Y-117451097D01*
X145004666Y-117523448D01*
X144956032Y-117558853D01*
X144952538Y-117559566D01*
X144920472Y-117526032D01*
X144857738Y-117437373D01*
X144776748Y-117311348D01*
X144760028Y-117284167D01*
X144591890Y-117008868D01*
X144385099Y-117215659D01*
X144560456Y-117503567D01*
X144735813Y-117791474D01*
X144538073Y-117992233D01*
X144340334Y-118192991D01*
X141458498Y-118192991D01*
X153310123Y-106341333D01*
X183768953Y-136800075D01*
X183768953Y-136800075D01*
G37*
X183768953Y-136800075D02*
X178953629Y-141615538D01*
X174138306Y-146431000D01*
X153289070Y-146425081D01*
X132439834Y-146419161D01*
X127680261Y-141651997D01*
X127151041Y-141121690D01*
X126638098Y-140607216D01*
X126144626Y-140111801D01*
X125673822Y-139638673D01*
X125228881Y-139191060D01*
X124812998Y-138772187D01*
X124429370Y-138385282D01*
X124081191Y-138033573D01*
X123771658Y-137720285D01*
X123503965Y-137448646D01*
X123281309Y-137221883D01*
X123106886Y-137043223D01*
X123046857Y-136981078D01*
X129316806Y-136981078D01*
X133460653Y-141128815D01*
X137604500Y-145276551D01*
X155680957Y-145282276D01*
X173757413Y-145288000D01*
X176466679Y-142568084D01*
X176905764Y-142127209D01*
X177357765Y-141673246D01*
X177814946Y-141213970D01*
X178269572Y-140757159D01*
X178713905Y-140310588D01*
X179140209Y-139882035D01*
X179540748Y-139479275D01*
X179907786Y-139110087D01*
X180233587Y-138782245D01*
X180510413Y-138503527D01*
X180604537Y-138408706D01*
X182033129Y-136969245D01*
X168856956Y-123793122D01*
X155680783Y-110617000D01*
X142498794Y-123799039D01*
X129316806Y-136981078D01*
X123046857Y-136981078D01*
X122983889Y-136915892D01*
X122915517Y-136843119D01*
X122901892Y-136826642D01*
X122930292Y-136792716D01*
X123017414Y-136700226D01*
X123162034Y-136550399D01*
X123362932Y-136344465D01*
X123618883Y-136083650D01*
X123928667Y-135769184D01*
X124291061Y-135402295D01*
X124704843Y-134984211D01*
X125168791Y-134516161D01*
X125681682Y-133999374D01*
X126242295Y-133435077D01*
X126849407Y-132824499D01*
X127501795Y-132168869D01*
X128198238Y-131469414D01*
X128322630Y-131344555D01*
X129327017Y-131344555D01*
X129776581Y-132463694D01*
X129895734Y-132760161D01*
X130007317Y-133037501D01*
X130106641Y-133284082D01*
X130189017Y-133488274D01*
X130249756Y-133638448D01*
X130284171Y-133722973D01*
X130286171Y-133727818D01*
X130346198Y-133872802D01*
X130490360Y-133733075D01*
X130578892Y-133636185D01*
X130609730Y-133564336D01*
X130598393Y-133503424D01*
X130569220Y-133431424D01*
X130515344Y-133298996D01*
X130444076Y-133124092D01*
X130362726Y-132924664D01*
X130350585Y-132894917D01*
X130274653Y-132703898D01*
X130215173Y-132544492D01*
X130177205Y-132431052D01*
X130165810Y-132377930D01*
X130167536Y-132375751D01*
X130214793Y-132390837D01*
X130325814Y-132432769D01*
X130486171Y-132495912D01*
X130681439Y-132574632D01*
X130781265Y-132615448D01*
X131366363Y-132855726D01*
X131663644Y-132558445D01*
X130793999Y-132202942D01*
X129924354Y-131847440D01*
X129790335Y-131487470D01*
X129727921Y-131324524D01*
X129674020Y-131192317D01*
X129636883Y-131110724D01*
X129627709Y-131095668D01*
X129584564Y-131104040D01*
X129507567Y-131161440D01*
X129463060Y-131204195D01*
X129327017Y-131344555D01*
X128322630Y-131344555D01*
X128679812Y-130986032D01*
X130814373Y-130986032D01*
X130834178Y-131232358D01*
X130920598Y-131478539D01*
X131066823Y-131710983D01*
X131266045Y-131916099D01*
X131511454Y-132080294D01*
X131540146Y-132094865D01*
X131714979Y-132148319D01*
X131913047Y-132160386D01*
X132094589Y-132130400D01*
X132156186Y-132105189D01*
X132346932Y-131960611D01*
X132487908Y-131759651D01*
X132525116Y-131671264D01*
X132578461Y-131562254D01*
X132635643Y-131514499D01*
X132645564Y-131513889D01*
X132713446Y-131488823D01*
X132803095Y-131419843D01*
X132826929Y-131396305D01*
X132944744Y-131273332D01*
X132057885Y-130385717D01*
X131208143Y-129535252D01*
X132252365Y-129535252D01*
X132266249Y-129779416D01*
X132356025Y-130026469D01*
X132518882Y-130266413D01*
X132617338Y-130371429D01*
X132852347Y-130561834D01*
X133088482Y-130680774D01*
X133317170Y-130725705D01*
X133529842Y-130694084D01*
X133601060Y-130663354D01*
X133764120Y-130540597D01*
X133903568Y-130365618D01*
X133985603Y-130194340D01*
X134033766Y-130092722D01*
X134084146Y-130061388D01*
X134089960Y-130062974D01*
X134149718Y-130047718D01*
X134236962Y-129984944D01*
X134275413Y-129948275D01*
X134406721Y-129812800D01*
X133518745Y-128925579D01*
X132737549Y-128145047D01*
X133459199Y-128145047D01*
X133965516Y-128655633D01*
X134138670Y-128827427D01*
X134296694Y-128978980D01*
X134427825Y-129099410D01*
X134520300Y-129177839D01*
X134556500Y-129202259D01*
X134753409Y-129241565D01*
X134965638Y-129204276D01*
X135133388Y-129122350D01*
X135319617Y-128974508D01*
X135510903Y-128770519D01*
X135684915Y-128534354D01*
X135693239Y-128521382D01*
X135731548Y-128452013D01*
X135730015Y-128399199D01*
X135680257Y-128334706D01*
X135620125Y-128275129D01*
X135477950Y-128137328D01*
X135349497Y-128364934D01*
X135204602Y-128582184D01*
X135052130Y-128740260D01*
X134900755Y-128833377D01*
X134759148Y-128855748D01*
X134664079Y-128822308D01*
X134640524Y-128789753D01*
X134657568Y-128734903D01*
X134722239Y-128643208D01*
X134791079Y-128559404D01*
X134991448Y-128292628D01*
X135115055Y-128055844D01*
X135162390Y-127844394D01*
X135133944Y-127653622D01*
X135030206Y-127478870D01*
X134916608Y-127366561D01*
X134730286Y-127257005D01*
X134534909Y-127225723D01*
X134340802Y-127268568D01*
X134158291Y-127381393D01*
X133997699Y-127560054D01*
X133875912Y-127784427D01*
X133817316Y-127887793D01*
X133761432Y-127918850D01*
X133754907Y-127917076D01*
X133692645Y-127931359D01*
X133606273Y-127993485D01*
X133578793Y-128020217D01*
X133459199Y-128145047D01*
X132737549Y-128145047D01*
X132630770Y-128038359D01*
X132494039Y-128175089D01*
X132357309Y-128311820D01*
X132599654Y-128556721D01*
X132733032Y-128694901D01*
X132809671Y-128785101D01*
X132835078Y-128836737D01*
X132814761Y-128859223D01*
X132778622Y-128862667D01*
X132700238Y-128893928D01*
X132593722Y-128974488D01*
X132479818Y-129084507D01*
X132379269Y-129204148D01*
X132317185Y-129303976D01*
X132252365Y-129535252D01*
X131208143Y-129535252D01*
X131171025Y-129498103D01*
X130917975Y-129751153D01*
X131160321Y-129996054D01*
X131294068Y-130134743D01*
X131370969Y-130225394D01*
X131396606Y-130277166D01*
X131376561Y-130299218D01*
X131346787Y-130302000D01*
X131270302Y-130332555D01*
X131163975Y-130411028D01*
X131048803Y-130517637D01*
X130945782Y-130632595D01*
X130875910Y-130736118D01*
X130867992Y-130753154D01*
X130814373Y-130986032D01*
X128679812Y-130986032D01*
X128937514Y-130727364D01*
X129718400Y-129943946D01*
X130539674Y-129120389D01*
X131400114Y-128257921D01*
X132298498Y-127357772D01*
X132931614Y-126723641D01*
X134873564Y-126723641D01*
X135730645Y-127581487D01*
X135951304Y-127801530D01*
X136152587Y-128000694D01*
X136326761Y-128171453D01*
X136466095Y-128306281D01*
X136562855Y-128397650D01*
X136609310Y-128438035D01*
X136611943Y-128439334D01*
X136653582Y-128411559D01*
X136728707Y-128342004D01*
X136758621Y-128311512D01*
X136881082Y-128183690D01*
X136576041Y-127876600D01*
X136448423Y-127744386D01*
X136347031Y-127632232D01*
X136284638Y-127554689D01*
X136271000Y-127529009D01*
X136299301Y-127485073D01*
X136376487Y-127394766D01*
X136490981Y-127270989D01*
X136631206Y-127126638D01*
X136640507Y-127117281D01*
X137010015Y-126746054D01*
X137339152Y-127073261D01*
X137668289Y-127400467D01*
X137964015Y-127104741D01*
X137097302Y-126238801D01*
X136230589Y-125372862D01*
X136080690Y-125518149D01*
X135930791Y-125663437D01*
X136343772Y-126077973D01*
X136756752Y-126492509D01*
X136365964Y-126883297D01*
X135975176Y-127274086D01*
X135561386Y-126861848D01*
X135147595Y-126449610D01*
X135010580Y-126586626D01*
X134873564Y-126723641D01*
X132931614Y-126723641D01*
X133233603Y-126421168D01*
X134204208Y-125449339D01*
X134506558Y-125146704D01*
X136599282Y-125146704D01*
X136750862Y-125298284D01*
X136841059Y-125384447D01*
X136891103Y-125415258D01*
X136918419Y-125397443D01*
X136930644Y-125367682D01*
X137060008Y-125058764D01*
X137208391Y-124831584D01*
X137376675Y-124685182D01*
X137565741Y-124618596D01*
X137621380Y-124614153D01*
X137758586Y-124627241D01*
X137885645Y-124666404D01*
X137976744Y-124720974D01*
X138006667Y-124773379D01*
X137978196Y-124817726D01*
X137899797Y-124909742D01*
X137781992Y-125037812D01*
X137635300Y-125190322D01*
X137559562Y-125266946D01*
X137112457Y-125715442D01*
X137288855Y-125874806D01*
X137506719Y-126041545D01*
X137710806Y-126130566D01*
X137912897Y-126144868D01*
X138124443Y-126087588D01*
X138350568Y-125951729D01*
X138524996Y-125763330D01*
X138640867Y-125538251D01*
X138691325Y-125292354D01*
X138669511Y-125041500D01*
X138629498Y-124919506D01*
X138520626Y-124732209D01*
X138362591Y-124552689D01*
X138175010Y-124396247D01*
X137977497Y-124278183D01*
X137789669Y-124213796D01*
X137715245Y-124206414D01*
X137497058Y-124243914D01*
X137269930Y-124350105D01*
X137050490Y-124512966D01*
X136855368Y-124720474D01*
X136719095Y-124926569D01*
X136599282Y-125146704D01*
X134506558Y-125146704D01*
X135209089Y-124443513D01*
X136247026Y-123404919D01*
X136615515Y-123036303D01*
X137833762Y-123036303D01*
X137836817Y-123264707D01*
X137899157Y-123444000D01*
X137950792Y-123517380D01*
X138052711Y-123639191D01*
X138194949Y-123798379D01*
X138367541Y-123983889D01*
X138560523Y-124184667D01*
X138636243Y-124261769D01*
X139297834Y-124931371D01*
X139451752Y-124759185D01*
X139543609Y-124663545D01*
X139615861Y-124601026D01*
X139643190Y-124587000D01*
X139716912Y-124555586D01*
X139818578Y-124474846D01*
X139927894Y-124365037D01*
X140024566Y-124246414D01*
X140085538Y-124145495D01*
X140155911Y-123902024D01*
X140143587Y-123660997D01*
X140047972Y-123419853D01*
X139868476Y-123176026D01*
X139859457Y-123166086D01*
X139627718Y-122954058D01*
X139395850Y-122822034D01*
X139168261Y-122770461D01*
X138949359Y-122799786D01*
X138743553Y-122910458D01*
X138607503Y-123038996D01*
X138518999Y-123159152D01*
X138456933Y-123278697D01*
X138444123Y-123320469D01*
X138413763Y-123416131D01*
X138369504Y-123434912D01*
X138300977Y-123377501D01*
X138263739Y-123332458D01*
X138189583Y-123195157D01*
X138190736Y-123055773D01*
X138267545Y-122897092D01*
X138272703Y-122889344D01*
X138359777Y-122791392D01*
X138492135Y-122675477D01*
X138640734Y-122564180D01*
X138776532Y-122480086D01*
X138831180Y-122455067D01*
X138831711Y-122420407D01*
X138787787Y-122352823D01*
X138719200Y-122274531D01*
X138645742Y-122207752D01*
X138590098Y-122176335D01*
X139427923Y-122176335D01*
X140315000Y-123064168D01*
X140540571Y-123288453D01*
X140748046Y-123491926D01*
X140929626Y-123667161D01*
X141077511Y-123806731D01*
X141183902Y-123903210D01*
X141240999Y-123949171D01*
X141247452Y-123952000D01*
X141303796Y-123923802D01*
X141386053Y-123853995D01*
X141406092Y-123833776D01*
X141519359Y-123715552D01*
X141265846Y-123464684D01*
X141126635Y-123322969D01*
X141045700Y-123228914D01*
X141017797Y-123174198D01*
X141037686Y-123150498D01*
X141066188Y-123147667D01*
X141149500Y-123115724D01*
X141258789Y-123033253D01*
X141373240Y-122920286D01*
X141472039Y-122796859D01*
X141524871Y-122706162D01*
X141595845Y-122460680D01*
X141584512Y-122214808D01*
X141490246Y-121965155D01*
X141348995Y-121753176D01*
X141143794Y-121540959D01*
X140918380Y-121390157D01*
X140684858Y-121304427D01*
X140455336Y-121287429D01*
X140241919Y-121342819D01*
X140154452Y-121392275D01*
X140036029Y-121499219D01*
X139929444Y-121640125D01*
X139853540Y-121785775D01*
X139827000Y-121900000D01*
X139801284Y-121948467D01*
X139750503Y-121943760D01*
X139659683Y-121959192D01*
X139550964Y-122047908D01*
X139427923Y-122176335D01*
X138590098Y-122176335D01*
X138587205Y-122174702D01*
X138580830Y-122174027D01*
X138527417Y-122198610D01*
X138428956Y-122263309D01*
X138305902Y-122354595D01*
X138295050Y-122363080D01*
X138065029Y-122579616D01*
X137910549Y-122805982D01*
X137833762Y-123036303D01*
X136615515Y-123036303D01*
X137316795Y-122334784D01*
X138096609Y-121554892D01*
X138935084Y-120716414D01*
X140886981Y-120716414D01*
X141404740Y-121231694D01*
X141629562Y-121451991D01*
X141807727Y-121615915D01*
X141949848Y-121729455D01*
X142066533Y-121798602D01*
X142168393Y-121829346D01*
X142266037Y-121827676D01*
X142370075Y-121799582D01*
X142394636Y-121790541D01*
X142558259Y-121700112D01*
X142737773Y-121555195D01*
X142910190Y-121376513D01*
X143033128Y-121214873D01*
X143184898Y-120986291D01*
X143064362Y-120860479D01*
X142983814Y-120781900D01*
X142928620Y-120738026D01*
X142919997Y-120734710D01*
X142887824Y-120768439D01*
X142830235Y-120855239D01*
X142782807Y-120935793D01*
X142668000Y-121108136D01*
X142534043Y-121261721D01*
X142400561Y-121376459D01*
X142301280Y-121428695D01*
X142198540Y-121426087D01*
X142136298Y-121397627D01*
X142102005Y-121365635D01*
X142095788Y-121326691D01*
X142124166Y-121265085D01*
X142193654Y-121165107D01*
X142280090Y-121051028D01*
X142414291Y-120869518D01*
X142501775Y-120730324D01*
X142551996Y-120612408D01*
X142574408Y-120494737D01*
X142578667Y-120386657D01*
X142539337Y-120194279D01*
X142433174Y-120023266D01*
X142277920Y-119891019D01*
X142091316Y-119814938D01*
X141983917Y-119803334D01*
X141786894Y-119842381D01*
X141597526Y-119948161D01*
X141435725Y-120103634D01*
X141321403Y-120291757D01*
X141286595Y-120400121D01*
X141253291Y-120488699D01*
X141200625Y-120506934D01*
X141186106Y-120503242D01*
X141101780Y-120518042D01*
X141000160Y-120598280D01*
X140886981Y-120716414D01*
X138935084Y-120716414D01*
X140403877Y-119247616D01*
X142518488Y-119247616D01*
X142535755Y-119489621D01*
X142627338Y-119738155D01*
X142793742Y-119983831D01*
X142833320Y-120028822D01*
X142966985Y-120159851D01*
X143109745Y-120276253D01*
X143224624Y-120349394D01*
X143432153Y-120418387D01*
X143649245Y-120434402D01*
X143843685Y-120396132D01*
X143888060Y-120376354D01*
X144027188Y-120275580D01*
X144153310Y-120135826D01*
X144239785Y-119988799D01*
X144256699Y-119937654D01*
X144283849Y-119840747D01*
X144304188Y-119788431D01*
X144340617Y-119800636D01*
X144422142Y-119862640D01*
X144535062Y-119963324D01*
X144615996Y-120041455D01*
X144907323Y-120330549D01*
X145180984Y-120056888D01*
X143361834Y-118232754D01*
X143213667Y-118395546D01*
X143090397Y-118514864D01*
X142954985Y-118623082D01*
X142907508Y-118654654D01*
X142704871Y-118820746D01*
X142575028Y-119021529D01*
X142518488Y-119247616D01*
X140403877Y-119247616D01*
X141458498Y-118192991D01*
X144340334Y-118192991D01*
X144441225Y-118300385D01*
X144542117Y-118407779D01*
X144694593Y-118258890D01*
X144790012Y-118173061D01*
X144864299Y-118119257D01*
X144887927Y-118110000D01*
X144927461Y-118142844D01*
X144991050Y-118224437D01*
X145061890Y-118329375D01*
X145123178Y-118432251D01*
X145158110Y-118507659D01*
X145161000Y-118522873D01*
X145133594Y-118565927D01*
X145062486Y-118648690D01*
X144983586Y-118732067D01*
X144806171Y-118912840D01*
X145007783Y-119127446D01*
X145160260Y-118978556D01*
X145252472Y-118893132D01*
X145319702Y-118839278D01*
X145338699Y-118829667D01*
X145370936Y-118863530D01*
X145432508Y-118953085D01*
X145511154Y-119080277D01*
X145525931Y-119105354D01*
X145687201Y-119381042D01*
X145790025Y-119278218D01*
X145892849Y-119175393D01*
X145773921Y-118970780D01*
X145696257Y-118838830D01*
X145627456Y-118724726D01*
X145598693Y-118678648D01*
X145569525Y-118615397D01*
X145586341Y-118558725D01*
X145658651Y-118479779D01*
X145666827Y-118471915D01*
X145791260Y-118352701D01*
X145910047Y-118554059D01*
X145989528Y-118684035D01*
X146062106Y-118794915D01*
X146092889Y-118837694D01*
X146140546Y-118890417D01*
X146180877Y-118887658D01*
X146245209Y-118826015D01*
X146250308Y-118820591D01*
X146343671Y-118721211D01*
X145997949Y-118143941D01*
X146390457Y-117745441D01*
X146283096Y-117644580D01*
X146175735Y-117543720D01*
X146015833Y-117699860D01*
X145922488Y-117787475D01*
X145855183Y-117844127D01*
X145835064Y-117856000D01*
X145805700Y-117821830D01*
X145750000Y-117732817D01*
X145689031Y-117624614D01*
X145563865Y-117393228D01*
X145751074Y-117202475D01*
X145851593Y-117097524D01*
X145900255Y-117032345D01*
X145905030Y-116986799D01*
X145873892Y-116940750D01*
X145860581Y-116925861D01*
X145789455Y-116861280D01*
X145724402Y-116849541D01*
X145644540Y-116894728D01*
X145541999Y-116988168D01*
X145390260Y-117136337D01*
X145229294Y-116861168D01*
X145148186Y-116729212D01*
X145080848Y-116631802D01*
X145039975Y-116587064D01*
X145036558Y-116586000D01*
X144987751Y-116614218D01*
X144925232Y-116673910D01*
X144889831Y-116711419D01*
X144870012Y-116742132D01*
X144870523Y-116781262D01*
X144896112Y-116844021D01*
X144951524Y-116945623D01*
X145041508Y-117101280D01*
X145078584Y-117165347D01*
X145180901Y-117342527D01*
X145078904Y-117451097D01*
X145004666Y-117523448D01*
X144956032Y-117558853D01*
X144952538Y-117559566D01*
X144920472Y-117526032D01*
X144857738Y-117437373D01*
X144776748Y-117311348D01*
X144760028Y-117284167D01*
X144591890Y-117008868D01*
X144385099Y-117215659D01*
X144560456Y-117503567D01*
X144735813Y-117791474D01*
X144538073Y-117992233D01*
X144340334Y-118192991D01*
X141458498Y-118192991D01*
X153310123Y-106341333D01*
X183768953Y-136800075D01*
G36*
X147824863Y-99224421D02*
G01*
X147885443Y-99245241D01*
X148054772Y-99357535D01*
X148204007Y-99536301D01*
X148319741Y-99763609D01*
X148357054Y-99876007D01*
X148394065Y-100034231D01*
X148406749Y-100178334D01*
X148391960Y-100327003D01*
X148346549Y-100498924D01*
X148267369Y-100712784D01*
X148181675Y-100917175D01*
X148091732Y-101126236D01*
X148002489Y-101334464D01*
X147926081Y-101513510D01*
X147886189Y-101607575D01*
X147837792Y-101745118D01*
X147797372Y-101915457D01*
X147761945Y-102134620D01*
X147728524Y-102418636D01*
X147720634Y-102496575D01*
X147675870Y-102899219D01*
X147626836Y-103228509D01*
X147570054Y-103495752D01*
X147502045Y-103712258D01*
X147419329Y-103889333D01*
X147318429Y-104038288D01*
X147209806Y-104157057D01*
X146990401Y-104312560D01*
X146726934Y-104395999D01*
X146420045Y-104407220D01*
X146267673Y-104388621D01*
X146030797Y-104325635D01*
X145842396Y-104216791D01*
X145688949Y-104050252D01*
X145556933Y-103814184D01*
X145523222Y-103737021D01*
X145484459Y-103607472D01*
X145446791Y-103418008D01*
X145413644Y-103193349D01*
X145388442Y-102958215D01*
X145374612Y-102737327D01*
X145373014Y-102652957D01*
X145360027Y-102526807D01*
X145330655Y-102376111D01*
X146614445Y-102376111D01*
X146620256Y-102401278D01*
X146642667Y-102404334D01*
X146677512Y-102388844D01*
X146674560Y-102383167D01*
X146981334Y-102383167D01*
X147002500Y-102404334D01*
X147023667Y-102383167D01*
X147002500Y-102362000D01*
X146981334Y-102383167D01*
X146674560Y-102383167D01*
X146670889Y-102376111D01*
X146620649Y-102371045D01*
X146614445Y-102376111D01*
X145330655Y-102376111D01*
X145325438Y-102349346D01*
X145323306Y-102340834D01*
X146473334Y-102340834D01*
X146494500Y-102362000D01*
X146515667Y-102340834D01*
X146494500Y-102319667D01*
X146473334Y-102340834D01*
X145323306Y-102340834D01*
X145314852Y-102307082D01*
X145949432Y-102307082D01*
X146007667Y-102312983D01*
X146067765Y-102306330D01*
X146063941Y-102298500D01*
X147235334Y-102298500D01*
X147256500Y-102319667D01*
X147277667Y-102298500D01*
X147256500Y-102277334D01*
X147235334Y-102298500D01*
X146063941Y-102298500D01*
X146060584Y-102291630D01*
X145973912Y-102286039D01*
X145954750Y-102291630D01*
X145949432Y-102307082D01*
X145314852Y-102307082D01*
X145306710Y-102274577D01*
X146187379Y-102274577D01*
X146193170Y-102277334D01*
X146231803Y-102247532D01*
X146240500Y-102235000D01*
X146246269Y-102213834D01*
X147320000Y-102213834D01*
X147341167Y-102235000D01*
X147362334Y-102213834D01*
X147341167Y-102192667D01*
X147320000Y-102213834D01*
X146246269Y-102213834D01*
X146251288Y-102195423D01*
X146245497Y-102192667D01*
X146206864Y-102222469D01*
X146198167Y-102235000D01*
X146187379Y-102274577D01*
X145306710Y-102274577D01*
X145275323Y-102149276D01*
X145243072Y-102039123D01*
X145238680Y-102023334D01*
X145807530Y-102023334D01*
X145810833Y-102114894D01*
X145819276Y-102140029D01*
X145825876Y-102118584D01*
X145832880Y-101995225D01*
X145828244Y-101950780D01*
X147279157Y-101950780D01*
X147309417Y-101966703D01*
X147356531Y-102022318D01*
X147362334Y-102055084D01*
X147375020Y-102099609D01*
X147388730Y-102095715D01*
X147398834Y-102038642D01*
X147390059Y-102003993D01*
X147340054Y-101948559D01*
X147310745Y-101942009D01*
X147279157Y-101950780D01*
X145828244Y-101950780D01*
X145825876Y-101928084D01*
X145815407Y-101908022D01*
X145808765Y-101961209D01*
X145807530Y-102023334D01*
X145238680Y-102023334D01*
X145179022Y-101808911D01*
X145848713Y-101808911D01*
X145854503Y-101811667D01*
X145893136Y-101781865D01*
X145901834Y-101769334D01*
X145907603Y-101748167D01*
X147330676Y-101748167D01*
X147334083Y-101835292D01*
X147343677Y-101857780D01*
X147349087Y-101843910D01*
X147356972Y-101742250D01*
X147349941Y-101674577D01*
X147338789Y-101651115D01*
X147331774Y-101701997D01*
X147330676Y-101748167D01*
X145907603Y-101748167D01*
X145912621Y-101729756D01*
X145906830Y-101727000D01*
X145868198Y-101756802D01*
X145859500Y-101769334D01*
X145848713Y-101808911D01*
X145179022Y-101808911D01*
X145174516Y-101792717D01*
X145145479Y-101604495D01*
X145154883Y-101501288D01*
X145883350Y-101501288D01*
X145892694Y-101573063D01*
X145917921Y-101642558D01*
X145944902Y-101673862D01*
X145950306Y-101671472D01*
X145949160Y-101624434D01*
X145936390Y-101584139D01*
X146382792Y-101584139D01*
X146439021Y-101591468D01*
X146452167Y-101591747D01*
X146524465Y-101587172D01*
X146530830Y-101573919D01*
X146527056Y-101572232D01*
X146443016Y-101563858D01*
X146400056Y-101570664D01*
X146382792Y-101584139D01*
X145936390Y-101584139D01*
X145926593Y-101553230D01*
X145917900Y-101536500D01*
X146261667Y-101536500D01*
X146282834Y-101557667D01*
X146304000Y-101536500D01*
X147277667Y-101536500D01*
X147298834Y-101557667D01*
X147320000Y-101536500D01*
X147298834Y-101515334D01*
X147277667Y-101536500D01*
X146304000Y-101536500D01*
X146282834Y-101515334D01*
X146261667Y-101536500D01*
X145917900Y-101536500D01*
X145896566Y-101495447D01*
X145883350Y-101501288D01*
X145154883Y-101501288D01*
X145158988Y-101456245D01*
X145210483Y-101346000D01*
X145838334Y-101346000D01*
X145853823Y-101380845D01*
X145866556Y-101374222D01*
X145871622Y-101323983D01*
X145870646Y-101322787D01*
X146016768Y-101322787D01*
X146022416Y-101367566D01*
X146050000Y-101409500D01*
X146102832Y-101453792D01*
X146125565Y-101453880D01*
X146119918Y-101409101D01*
X146092334Y-101367167D01*
X146727334Y-101367167D01*
X146748500Y-101388334D01*
X146769667Y-101367167D01*
X146748500Y-101346000D01*
X146727334Y-101367167D01*
X146092334Y-101367167D01*
X146039502Y-101322875D01*
X146016768Y-101322787D01*
X145870646Y-101322787D01*
X145866556Y-101317778D01*
X145841389Y-101323589D01*
X145838334Y-101346000D01*
X145210483Y-101346000D01*
X145218073Y-101329752D01*
X145243278Y-101300974D01*
X146569848Y-101300974D01*
X146606874Y-101328876D01*
X146635674Y-101334061D01*
X146623914Y-101307572D01*
X146626109Y-101275947D01*
X146693407Y-101265769D01*
X146776123Y-101269281D01*
X146897721Y-101287195D01*
X146946300Y-101320821D01*
X146947195Y-101342583D01*
X146949578Y-101380109D01*
X146993423Y-101353533D01*
X147004889Y-101346322D01*
X147153440Y-101346322D01*
X147163952Y-101368244D01*
X147187600Y-101398917D01*
X147249390Y-101464732D01*
X147276972Y-101464445D01*
X147277667Y-101457017D01*
X147248737Y-101421680D01*
X147203584Y-101382934D01*
X147153440Y-101346322D01*
X147004889Y-101346322D01*
X147051870Y-101316776D01*
X147070601Y-101314617D01*
X147070032Y-101302404D01*
X147066706Y-101298197D01*
X146986498Y-101248580D01*
X146862174Y-101213790D01*
X146733983Y-101201488D01*
X146644740Y-101217891D01*
X146571320Y-101265254D01*
X146569848Y-101300974D01*
X145243278Y-101300974D01*
X145296537Y-101240167D01*
X145965334Y-101240167D01*
X145986500Y-101261334D01*
X146007667Y-101240167D01*
X145986500Y-101219000D01*
X145965334Y-101240167D01*
X145296537Y-101240167D01*
X145325761Y-101206801D01*
X145391327Y-101147392D01*
X145493547Y-101047168D01*
X145838334Y-101047168D01*
X145869064Y-101090277D01*
X145880667Y-101092000D01*
X145921900Y-101077557D01*
X145923000Y-101073332D01*
X145893336Y-101037189D01*
X145880667Y-101028500D01*
X145841657Y-101031857D01*
X145838334Y-101047168D01*
X145493547Y-101047168D01*
X145531329Y-101010125D01*
X145703074Y-100816567D01*
X145893824Y-100582470D01*
X146090841Y-100323583D01*
X146281386Y-100055657D01*
X146318605Y-100000877D01*
X146491821Y-99772463D01*
X146684544Y-99566259D01*
X146880743Y-99396662D01*
X147064387Y-99278071D01*
X147171948Y-99234450D01*
X147393556Y-99195465D01*
X147623186Y-99192303D01*
X147824863Y-99224421D01*
X147824863Y-99224421D01*
G37*
X147824863Y-99224421D02*
X147885443Y-99245241D01*
X148054772Y-99357535D01*
X148204007Y-99536301D01*
X148319741Y-99763609D01*
X148357054Y-99876007D01*
X148394065Y-100034231D01*
X148406749Y-100178334D01*
X148391960Y-100327003D01*
X148346549Y-100498924D01*
X148267369Y-100712784D01*
X148181675Y-100917175D01*
X148091732Y-101126236D01*
X148002489Y-101334464D01*
X147926081Y-101513510D01*
X147886189Y-101607575D01*
X147837792Y-101745118D01*
X147797372Y-101915457D01*
X147761945Y-102134620D01*
X147728524Y-102418636D01*
X147720634Y-102496575D01*
X147675870Y-102899219D01*
X147626836Y-103228509D01*
X147570054Y-103495752D01*
X147502045Y-103712258D01*
X147419329Y-103889333D01*
X147318429Y-104038288D01*
X147209806Y-104157057D01*
X146990401Y-104312560D01*
X146726934Y-104395999D01*
X146420045Y-104407220D01*
X146267673Y-104388621D01*
X146030797Y-104325635D01*
X145842396Y-104216791D01*
X145688949Y-104050252D01*
X145556933Y-103814184D01*
X145523222Y-103737021D01*
X145484459Y-103607472D01*
X145446791Y-103418008D01*
X145413644Y-103193349D01*
X145388442Y-102958215D01*
X145374612Y-102737327D01*
X145373014Y-102652957D01*
X145360027Y-102526807D01*
X145330655Y-102376111D01*
X146614445Y-102376111D01*
X146620256Y-102401278D01*
X146642667Y-102404334D01*
X146677512Y-102388844D01*
X146674560Y-102383167D01*
X146981334Y-102383167D01*
X147002500Y-102404334D01*
X147023667Y-102383167D01*
X147002500Y-102362000D01*
X146981334Y-102383167D01*
X146674560Y-102383167D01*
X146670889Y-102376111D01*
X146620649Y-102371045D01*
X146614445Y-102376111D01*
X145330655Y-102376111D01*
X145325438Y-102349346D01*
X145323306Y-102340834D01*
X146473334Y-102340834D01*
X146494500Y-102362000D01*
X146515667Y-102340834D01*
X146494500Y-102319667D01*
X146473334Y-102340834D01*
X145323306Y-102340834D01*
X145314852Y-102307082D01*
X145949432Y-102307082D01*
X146007667Y-102312983D01*
X146067765Y-102306330D01*
X146063941Y-102298500D01*
X147235334Y-102298500D01*
X147256500Y-102319667D01*
X147277667Y-102298500D01*
X147256500Y-102277334D01*
X147235334Y-102298500D01*
X146063941Y-102298500D01*
X146060584Y-102291630D01*
X145973912Y-102286039D01*
X145954750Y-102291630D01*
X145949432Y-102307082D01*
X145314852Y-102307082D01*
X145306710Y-102274577D01*
X146187379Y-102274577D01*
X146193170Y-102277334D01*
X146231803Y-102247532D01*
X146240500Y-102235000D01*
X146246269Y-102213834D01*
X147320000Y-102213834D01*
X147341167Y-102235000D01*
X147362334Y-102213834D01*
X147341167Y-102192667D01*
X147320000Y-102213834D01*
X146246269Y-102213834D01*
X146251288Y-102195423D01*
X146245497Y-102192667D01*
X146206864Y-102222469D01*
X146198167Y-102235000D01*
X146187379Y-102274577D01*
X145306710Y-102274577D01*
X145275323Y-102149276D01*
X145243072Y-102039123D01*
X145238680Y-102023334D01*
X145807530Y-102023334D01*
X145810833Y-102114894D01*
X145819276Y-102140029D01*
X145825876Y-102118584D01*
X145832880Y-101995225D01*
X145828244Y-101950780D01*
X147279157Y-101950780D01*
X147309417Y-101966703D01*
X147356531Y-102022318D01*
X147362334Y-102055084D01*
X147375020Y-102099609D01*
X147388730Y-102095715D01*
X147398834Y-102038642D01*
X147390059Y-102003993D01*
X147340054Y-101948559D01*
X147310745Y-101942009D01*
X147279157Y-101950780D01*
X145828244Y-101950780D01*
X145825876Y-101928084D01*
X145815407Y-101908022D01*
X145808765Y-101961209D01*
X145807530Y-102023334D01*
X145238680Y-102023334D01*
X145179022Y-101808911D01*
X145848713Y-101808911D01*
X145854503Y-101811667D01*
X145893136Y-101781865D01*
X145901834Y-101769334D01*
X145907603Y-101748167D01*
X147330676Y-101748167D01*
X147334083Y-101835292D01*
X147343677Y-101857780D01*
X147349087Y-101843910D01*
X147356972Y-101742250D01*
X147349941Y-101674577D01*
X147338789Y-101651115D01*
X147331774Y-101701997D01*
X147330676Y-101748167D01*
X145907603Y-101748167D01*
X145912621Y-101729756D01*
X145906830Y-101727000D01*
X145868198Y-101756802D01*
X145859500Y-101769334D01*
X145848713Y-101808911D01*
X145179022Y-101808911D01*
X145174516Y-101792717D01*
X145145479Y-101604495D01*
X145154883Y-101501288D01*
X145883350Y-101501288D01*
X145892694Y-101573063D01*
X145917921Y-101642558D01*
X145944902Y-101673862D01*
X145950306Y-101671472D01*
X145949160Y-101624434D01*
X145936390Y-101584139D01*
X146382792Y-101584139D01*
X146439021Y-101591468D01*
X146452167Y-101591747D01*
X146524465Y-101587172D01*
X146530830Y-101573919D01*
X146527056Y-101572232D01*
X146443016Y-101563858D01*
X146400056Y-101570664D01*
X146382792Y-101584139D01*
X145936390Y-101584139D01*
X145926593Y-101553230D01*
X145917900Y-101536500D01*
X146261667Y-101536500D01*
X146282834Y-101557667D01*
X146304000Y-101536500D01*
X147277667Y-101536500D01*
X147298834Y-101557667D01*
X147320000Y-101536500D01*
X147298834Y-101515334D01*
X147277667Y-101536500D01*
X146304000Y-101536500D01*
X146282834Y-101515334D01*
X146261667Y-101536500D01*
X145917900Y-101536500D01*
X145896566Y-101495447D01*
X145883350Y-101501288D01*
X145154883Y-101501288D01*
X145158988Y-101456245D01*
X145210483Y-101346000D01*
X145838334Y-101346000D01*
X145853823Y-101380845D01*
X145866556Y-101374222D01*
X145871622Y-101323983D01*
X145870646Y-101322787D01*
X146016768Y-101322787D01*
X146022416Y-101367566D01*
X146050000Y-101409500D01*
X146102832Y-101453792D01*
X146125565Y-101453880D01*
X146119918Y-101409101D01*
X146092334Y-101367167D01*
X146727334Y-101367167D01*
X146748500Y-101388334D01*
X146769667Y-101367167D01*
X146748500Y-101346000D01*
X146727334Y-101367167D01*
X146092334Y-101367167D01*
X146039502Y-101322875D01*
X146016768Y-101322787D01*
X145870646Y-101322787D01*
X145866556Y-101317778D01*
X145841389Y-101323589D01*
X145838334Y-101346000D01*
X145210483Y-101346000D01*
X145218073Y-101329752D01*
X145243278Y-101300974D01*
X146569848Y-101300974D01*
X146606874Y-101328876D01*
X146635674Y-101334061D01*
X146623914Y-101307572D01*
X146626109Y-101275947D01*
X146693407Y-101265769D01*
X146776123Y-101269281D01*
X146897721Y-101287195D01*
X146946300Y-101320821D01*
X146947195Y-101342583D01*
X146949578Y-101380109D01*
X146993423Y-101353533D01*
X147004889Y-101346322D01*
X147153440Y-101346322D01*
X147163952Y-101368244D01*
X147187600Y-101398917D01*
X147249390Y-101464732D01*
X147276972Y-101464445D01*
X147277667Y-101457017D01*
X147248737Y-101421680D01*
X147203584Y-101382934D01*
X147153440Y-101346322D01*
X147004889Y-101346322D01*
X147051870Y-101316776D01*
X147070601Y-101314617D01*
X147070032Y-101302404D01*
X147066706Y-101298197D01*
X146986498Y-101248580D01*
X146862174Y-101213790D01*
X146733983Y-101201488D01*
X146644740Y-101217891D01*
X146571320Y-101265254D01*
X146569848Y-101300974D01*
X145243278Y-101300974D01*
X145296537Y-101240167D01*
X145965334Y-101240167D01*
X145986500Y-101261334D01*
X146007667Y-101240167D01*
X145986500Y-101219000D01*
X145965334Y-101240167D01*
X145296537Y-101240167D01*
X145325761Y-101206801D01*
X145391327Y-101147392D01*
X145493547Y-101047168D01*
X145838334Y-101047168D01*
X145869064Y-101090277D01*
X145880667Y-101092000D01*
X145921900Y-101077557D01*
X145923000Y-101073332D01*
X145893336Y-101037189D01*
X145880667Y-101028500D01*
X145841657Y-101031857D01*
X145838334Y-101047168D01*
X145493547Y-101047168D01*
X145531329Y-101010125D01*
X145703074Y-100816567D01*
X145893824Y-100582470D01*
X146090841Y-100323583D01*
X146281386Y-100055657D01*
X146318605Y-100000877D01*
X146491821Y-99772463D01*
X146684544Y-99566259D01*
X146880743Y-99396662D01*
X147064387Y-99278071D01*
X147171948Y-99234450D01*
X147393556Y-99195465D01*
X147623186Y-99192303D01*
X147824863Y-99224421D01*
G36*
X159849080Y-104065603D02*
G01*
X159996879Y-104081936D01*
X160212675Y-104110462D01*
X160274000Y-104118834D01*
X160462688Y-104144118D01*
X160622406Y-104164535D01*
X160733075Y-104177573D01*
X160771417Y-104180992D01*
X160823876Y-104203622D01*
X160817312Y-104253226D01*
X160762518Y-104308880D01*
X160686750Y-104345112D01*
X160504257Y-104383397D01*
X160275785Y-104406448D01*
X160038984Y-104412246D01*
X159831503Y-104398771D01*
X159793612Y-104393033D01*
X159642230Y-104361270D01*
X159567957Y-104328771D01*
X159563386Y-104289778D01*
X159607317Y-104248289D01*
X159667852Y-104174429D01*
X159681334Y-104124750D01*
X159685405Y-104091035D01*
X159706169Y-104070024D01*
X159756452Y-104061589D01*
X159849080Y-104065603D01*
X159849080Y-104065603D01*
G37*
X159849080Y-104065603D02*
X159996879Y-104081936D01*
X160212675Y-104110462D01*
X160274000Y-104118834D01*
X160462688Y-104144118D01*
X160622406Y-104164535D01*
X160733075Y-104177573D01*
X160771417Y-104180992D01*
X160823876Y-104203622D01*
X160817312Y-104253226D01*
X160762518Y-104308880D01*
X160686750Y-104345112D01*
X160504257Y-104383397D01*
X160275785Y-104406448D01*
X160038984Y-104412246D01*
X159831503Y-104398771D01*
X159793612Y-104393033D01*
X159642230Y-104361270D01*
X159567957Y-104328771D01*
X159563386Y-104289778D01*
X159607317Y-104248289D01*
X159667852Y-104174429D01*
X159681334Y-104124750D01*
X159685405Y-104091035D01*
X159706169Y-104070024D01*
X159756452Y-104061589D01*
X159849080Y-104065603D01*
G36*
X158479250Y-103320588D02*
G01*
X158633170Y-103409750D01*
X158738059Y-103490523D01*
X158883495Y-103601553D01*
X159042386Y-103722174D01*
X159083964Y-103753618D01*
X159218201Y-103860344D01*
X159321604Y-103952646D01*
X159378618Y-104016178D01*
X159385000Y-104031277D01*
X159346410Y-104135788D01*
X159240946Y-104217480D01*
X159084065Y-104273278D01*
X158891227Y-104300104D01*
X158677889Y-104294884D01*
X158459510Y-104254539D01*
X158382507Y-104230780D01*
X158237322Y-104165528D01*
X158079043Y-104071165D01*
X157929793Y-103963705D01*
X157811696Y-103859163D01*
X157746877Y-103773552D01*
X157745212Y-103769491D01*
X157740711Y-103650889D01*
X157804072Y-103531275D01*
X157919683Y-103423798D01*
X158071931Y-103341605D01*
X158245204Y-103297844D01*
X158309790Y-103294030D01*
X158479250Y-103320588D01*
X158479250Y-103320588D01*
G37*
X158479250Y-103320588D02*
X158633170Y-103409750D01*
X158738059Y-103490523D01*
X158883495Y-103601553D01*
X159042386Y-103722174D01*
X159083964Y-103753618D01*
X159218201Y-103860344D01*
X159321604Y-103952646D01*
X159378618Y-104016178D01*
X159385000Y-104031277D01*
X159346410Y-104135788D01*
X159240946Y-104217480D01*
X159084065Y-104273278D01*
X158891227Y-104300104D01*
X158677889Y-104294884D01*
X158459510Y-104254539D01*
X158382507Y-104230780D01*
X158237322Y-104165528D01*
X158079043Y-104071165D01*
X157929793Y-103963705D01*
X157811696Y-103859163D01*
X157746877Y-103773552D01*
X157745212Y-103769491D01*
X157740711Y-103650889D01*
X157804072Y-103531275D01*
X157919683Y-103423798D01*
X158071931Y-103341605D01*
X158245204Y-103297844D01*
X158309790Y-103294030D01*
X158479250Y-103320588D01*
G36*
X143959911Y-102505218D02*
G01*
X144148475Y-102546151D01*
X144401839Y-102618311D01*
X144422855Y-102624722D01*
X144866276Y-102760443D01*
X144954137Y-103055464D01*
X145003551Y-103248576D01*
X145018096Y-103387777D01*
X145004857Y-103480659D01*
X144975255Y-103558968D01*
X144927378Y-103599306D01*
X144835099Y-103616544D01*
X144757442Y-103621493D01*
X144494669Y-103594976D01*
X144365177Y-103548551D01*
X144156350Y-103436297D01*
X143962506Y-103302850D01*
X143806676Y-103165648D01*
X143723455Y-103062638D01*
X143643452Y-102893755D01*
X143610172Y-102734922D01*
X143626440Y-102607773D01*
X143657701Y-102559013D01*
X143727055Y-102512725D01*
X143823615Y-102494434D01*
X143959911Y-102505218D01*
X143959911Y-102505218D01*
G37*
X143959911Y-102505218D02*
X144148475Y-102546151D01*
X144401839Y-102618311D01*
X144422855Y-102624722D01*
X144866276Y-102760443D01*
X144954137Y-103055464D01*
X145003551Y-103248576D01*
X145018096Y-103387777D01*
X145004857Y-103480659D01*
X144975255Y-103558968D01*
X144927378Y-103599306D01*
X144835099Y-103616544D01*
X144757442Y-103621493D01*
X144494669Y-103594976D01*
X144365177Y-103548551D01*
X144156350Y-103436297D01*
X143962506Y-103302850D01*
X143806676Y-103165648D01*
X143723455Y-103062638D01*
X143643452Y-102893755D01*
X143610172Y-102734922D01*
X143626440Y-102607773D01*
X143657701Y-102559013D01*
X143727055Y-102512725D01*
X143823615Y-102494434D01*
X143959911Y-102505218D01*
G36*
X160603541Y-103130167D02*
G01*
X160731854Y-103146756D01*
X160901076Y-103170904D01*
X161092833Y-103199746D01*
X161288753Y-103230417D01*
X161470461Y-103260052D01*
X161619585Y-103285787D01*
X161717750Y-103304757D01*
X161747182Y-103313070D01*
X161749918Y-103357899D01*
X161682992Y-103405357D01*
X161561218Y-103452422D01*
X161399411Y-103496073D01*
X161212386Y-103533287D01*
X161014957Y-103561044D01*
X160821940Y-103576321D01*
X160648150Y-103576096D01*
X160528000Y-103561745D01*
X160414429Y-103524945D01*
X160381137Y-103479578D01*
X160430070Y-103429559D01*
X160455845Y-103416574D01*
X160533536Y-103364804D01*
X160548625Y-103289268D01*
X160541660Y-103245214D01*
X160529544Y-103159339D01*
X160534512Y-103124000D01*
X160603541Y-103130167D01*
X160603541Y-103130167D01*
G37*
X160603541Y-103130167D02*
X160731854Y-103146756D01*
X160901076Y-103170904D01*
X161092833Y-103199746D01*
X161288753Y-103230417D01*
X161470461Y-103260052D01*
X161619585Y-103285787D01*
X161717750Y-103304757D01*
X161747182Y-103313070D01*
X161749918Y-103357899D01*
X161682992Y-103405357D01*
X161561218Y-103452422D01*
X161399411Y-103496073D01*
X161212386Y-103533287D01*
X161014957Y-103561044D01*
X160821940Y-103576321D01*
X160648150Y-103576096D01*
X160528000Y-103561745D01*
X160414429Y-103524945D01*
X160381137Y-103479578D01*
X160430070Y-103429559D01*
X160455845Y-103416574D01*
X160533536Y-103364804D01*
X160548625Y-103289268D01*
X160541660Y-103245214D01*
X160529544Y-103159339D01*
X160534512Y-103124000D01*
X160603541Y-103130167D01*
G36*
X158002115Y-98263569D02*
G01*
X158267389Y-98296083D01*
X158470256Y-98365827D01*
X158627952Y-98481306D01*
X158744638Y-98630008D01*
X158845603Y-98811222D01*
X158921317Y-99005212D01*
X158976578Y-99230709D01*
X159016185Y-99506439D01*
X159040436Y-99784422D01*
X159068160Y-100088046D01*
X159106604Y-100335499D01*
X159160739Y-100555080D01*
X159194322Y-100660555D01*
X159260345Y-100876077D01*
X159287350Y-101044318D01*
X159270114Y-101187510D01*
X159203415Y-101327881D01*
X159082028Y-101487663D01*
X158970437Y-101613435D01*
X158731426Y-101880253D01*
X158537731Y-102109426D01*
X158373057Y-102321384D01*
X158221110Y-102536555D01*
X158156094Y-102634442D01*
X158026189Y-102812394D01*
X157870342Y-102994488D01*
X157705147Y-103164184D01*
X157547198Y-103304939D01*
X157413089Y-103400211D01*
X157363743Y-103424296D01*
X157235046Y-103455343D01*
X157058270Y-103476160D01*
X156866055Y-103485227D01*
X156691041Y-103481024D01*
X156565868Y-103462030D01*
X156564254Y-103461538D01*
X156396412Y-103368678D01*
X156246089Y-103209106D01*
X156123206Y-103000435D01*
X156037681Y-102760277D01*
X155999437Y-102506246D01*
X155998334Y-102456787D01*
X156024572Y-102267739D01*
X156102469Y-102015987D01*
X156230796Y-101704944D01*
X156294696Y-101571778D01*
X158510111Y-101571778D01*
X158515922Y-101596945D01*
X158538334Y-101600000D01*
X158573179Y-101584511D01*
X158566556Y-101571778D01*
X158516316Y-101566711D01*
X158510111Y-101571778D01*
X156294696Y-101571778D01*
X156331939Y-101494167D01*
X158453667Y-101494167D01*
X158474834Y-101515334D01*
X158496000Y-101494167D01*
X158474834Y-101473000D01*
X158453667Y-101494167D01*
X156331939Y-101494167D01*
X156382725Y-101388334D01*
X156420404Y-101312802D01*
X157316768Y-101312802D01*
X157327130Y-101334746D01*
X157402314Y-101396034D01*
X157526746Y-101439719D01*
X157665693Y-101458939D01*
X157784421Y-101446833D01*
X157818313Y-101431781D01*
X157840452Y-101409500D01*
X158411334Y-101409500D01*
X158432500Y-101430667D01*
X158580667Y-101430667D01*
X158596156Y-101465512D01*
X158608889Y-101458889D01*
X158613956Y-101408649D01*
X158608889Y-101402445D01*
X158583722Y-101408256D01*
X158580667Y-101430667D01*
X158432500Y-101430667D01*
X158453667Y-101409500D01*
X158432500Y-101388334D01*
X158411334Y-101409500D01*
X157840452Y-101409500D01*
X157859337Y-101390495D01*
X157827343Y-101341559D01*
X157822686Y-101337180D01*
X157785439Y-101310734D01*
X157791904Y-101332369D01*
X157787091Y-101381696D01*
X157723566Y-101409405D01*
X157625772Y-101409806D01*
X157546544Y-101389491D01*
X157466937Y-101340250D01*
X157464412Y-101293163D01*
X157471670Y-101275445D01*
X157621111Y-101275445D01*
X157626922Y-101300612D01*
X157649334Y-101303667D01*
X157684179Y-101288178D01*
X157677556Y-101275445D01*
X157627316Y-101270378D01*
X157621111Y-101275445D01*
X157471670Y-101275445D01*
X157477414Y-101261425D01*
X157437788Y-101287509D01*
X157431315Y-101292716D01*
X157363082Y-101322339D01*
X157331735Y-101313883D01*
X157316768Y-101312802D01*
X156420404Y-101312802D01*
X156466372Y-101220655D01*
X156486484Y-101176988D01*
X157144107Y-101176988D01*
X157154619Y-101198911D01*
X157178267Y-101229584D01*
X157240057Y-101295398D01*
X157267638Y-101295112D01*
X157268334Y-101287684D01*
X157239404Y-101252346D01*
X157194250Y-101213600D01*
X157190051Y-101210534D01*
X158284334Y-101210534D01*
X158307479Y-101261469D01*
X158355337Y-101313318D01*
X158395540Y-101332283D01*
X158398924Y-101330187D01*
X158398352Y-101284302D01*
X158391284Y-101261334D01*
X158538334Y-101261334D01*
X158553823Y-101296179D01*
X158566556Y-101289556D01*
X158571622Y-101239316D01*
X158566556Y-101233111D01*
X158541389Y-101238922D01*
X158538334Y-101261334D01*
X158391284Y-101261334D01*
X158386634Y-101246226D01*
X158345779Y-101190063D01*
X158301349Y-101177724D01*
X158284334Y-101210534D01*
X157190051Y-101210534D01*
X157144107Y-101176988D01*
X156486484Y-101176988D01*
X156525629Y-101092000D01*
X157099000Y-101092000D01*
X157114489Y-101126845D01*
X157127222Y-101120222D01*
X157128844Y-101104135D01*
X158121824Y-101104135D01*
X158132124Y-101127793D01*
X158174750Y-101173239D01*
X158199255Y-101163917D01*
X158199667Y-101157999D01*
X158169598Y-101122192D01*
X158151535Y-101109639D01*
X158499342Y-101109639D01*
X158507126Y-101164546D01*
X158521577Y-101165202D01*
X158531682Y-101108543D01*
X158524919Y-101084063D01*
X158506121Y-101068028D01*
X158499342Y-101109639D01*
X158151535Y-101109639D01*
X158150793Y-101109124D01*
X158121824Y-101104135D01*
X157128844Y-101104135D01*
X157131337Y-101079415D01*
X157929765Y-101079415D01*
X157988000Y-101085316D01*
X158048098Y-101078663D01*
X158040917Y-101063964D01*
X157954246Y-101058372D01*
X157935084Y-101063964D01*
X157929765Y-101079415D01*
X157131337Y-101079415D01*
X157132289Y-101069983D01*
X157127222Y-101063778D01*
X157102055Y-101069589D01*
X157099000Y-101092000D01*
X156525629Y-101092000D01*
X156529950Y-101082620D01*
X156559683Y-101004577D01*
X158464046Y-101004577D01*
X158469837Y-101007334D01*
X158508469Y-100977532D01*
X158517167Y-100965000D01*
X158527954Y-100925423D01*
X158522164Y-100922667D01*
X158483531Y-100952469D01*
X158474834Y-100965000D01*
X158464046Y-101004577D01*
X156559683Y-101004577D01*
X156577863Y-100956860D01*
X156593368Y-100901500D01*
X157064920Y-100901500D01*
X157069495Y-100973798D01*
X157082748Y-100980163D01*
X157084435Y-100976389D01*
X157092809Y-100892350D01*
X157086003Y-100849389D01*
X157082374Y-100844739D01*
X158565600Y-100844739D01*
X158588754Y-100846826D01*
X158589894Y-100845707D01*
X158616876Y-100773486D01*
X158614284Y-100726080D01*
X158598791Y-100689877D01*
X158580945Y-100732290D01*
X158573238Y-100767127D01*
X158565600Y-100844739D01*
X157082374Y-100844739D01*
X157072528Y-100832126D01*
X157065199Y-100888354D01*
X157064920Y-100901500D01*
X156593368Y-100901500D01*
X156614513Y-100826003D01*
X156644305Y-100672678D01*
X156658150Y-100574840D01*
X157028156Y-100574840D01*
X157031213Y-100637529D01*
X157066976Y-100701400D01*
X157113104Y-100735077D01*
X157136783Y-100727394D01*
X157129684Y-100691262D01*
X157109584Y-100680510D01*
X157061448Y-100627212D01*
X157053325Y-100591056D01*
X157043057Y-100551761D01*
X157028156Y-100574840D01*
X156658150Y-100574840D01*
X156662844Y-100541667D01*
X158580667Y-100541667D01*
X158596156Y-100576512D01*
X158608889Y-100569889D01*
X158613956Y-100519649D01*
X158608889Y-100513445D01*
X158583722Y-100519256D01*
X158580667Y-100541667D01*
X156662844Y-100541667D01*
X156671641Y-100479515D01*
X156685360Y-100362212D01*
X158387361Y-100362212D01*
X158428972Y-100368991D01*
X158483879Y-100361208D01*
X158484535Y-100346757D01*
X158427876Y-100336651D01*
X158403396Y-100343415D01*
X158387361Y-100362212D01*
X156685360Y-100362212D01*
X156691604Y-100308834D01*
X157268334Y-100308834D01*
X157289500Y-100330000D01*
X157310667Y-100308834D01*
X157861000Y-100308834D01*
X157882167Y-100330000D01*
X157903334Y-100308834D01*
X157882167Y-100287667D01*
X157861000Y-100308834D01*
X157310667Y-100308834D01*
X157289500Y-100287667D01*
X157268334Y-100308834D01*
X156691604Y-100308834D01*
X156695263Y-100277546D01*
X157413694Y-100277546D01*
X157455306Y-100284325D01*
X157503123Y-100277546D01*
X157667694Y-100277546D01*
X157709306Y-100284325D01*
X157764213Y-100276541D01*
X157764868Y-100262090D01*
X157708210Y-100251985D01*
X157683729Y-100258748D01*
X157667694Y-100277546D01*
X157503123Y-100277546D01*
X157510213Y-100276541D01*
X157510868Y-100262090D01*
X157454210Y-100251985D01*
X157429729Y-100258748D01*
X157413694Y-100277546D01*
X156695263Y-100277546D01*
X156700925Y-100229144D01*
X156719613Y-100059333D01*
X156767804Y-99665134D01*
X156819937Y-99344364D01*
X156879826Y-99085787D01*
X156951282Y-98878164D01*
X157038118Y-98710259D01*
X157144147Y-98570835D01*
X157263324Y-98456879D01*
X157440525Y-98341707D01*
X157646521Y-98277817D01*
X157901085Y-98260036D01*
X158002115Y-98263569D01*
X158002115Y-98263569D01*
G37*
X158002115Y-98263569D02*
X158267389Y-98296083D01*
X158470256Y-98365827D01*
X158627952Y-98481306D01*
X158744638Y-98630008D01*
X158845603Y-98811222D01*
X158921317Y-99005212D01*
X158976578Y-99230709D01*
X159016185Y-99506439D01*
X159040436Y-99784422D01*
X159068160Y-100088046D01*
X159106604Y-100335499D01*
X159160739Y-100555080D01*
X159194322Y-100660555D01*
X159260345Y-100876077D01*
X159287350Y-101044318D01*
X159270114Y-101187510D01*
X159203415Y-101327881D01*
X159082028Y-101487663D01*
X158970437Y-101613435D01*
X158731426Y-101880253D01*
X158537731Y-102109426D01*
X158373057Y-102321384D01*
X158221110Y-102536555D01*
X158156094Y-102634442D01*
X158026189Y-102812394D01*
X157870342Y-102994488D01*
X157705147Y-103164184D01*
X157547198Y-103304939D01*
X157413089Y-103400211D01*
X157363743Y-103424296D01*
X157235046Y-103455343D01*
X157058270Y-103476160D01*
X156866055Y-103485227D01*
X156691041Y-103481024D01*
X156565868Y-103462030D01*
X156564254Y-103461538D01*
X156396412Y-103368678D01*
X156246089Y-103209106D01*
X156123206Y-103000435D01*
X156037681Y-102760277D01*
X155999437Y-102506246D01*
X155998334Y-102456787D01*
X156024572Y-102267739D01*
X156102469Y-102015987D01*
X156230796Y-101704944D01*
X156294696Y-101571778D01*
X158510111Y-101571778D01*
X158515922Y-101596945D01*
X158538334Y-101600000D01*
X158573179Y-101584511D01*
X158566556Y-101571778D01*
X158516316Y-101566711D01*
X158510111Y-101571778D01*
X156294696Y-101571778D01*
X156331939Y-101494167D01*
X158453667Y-101494167D01*
X158474834Y-101515334D01*
X158496000Y-101494167D01*
X158474834Y-101473000D01*
X158453667Y-101494167D01*
X156331939Y-101494167D01*
X156382725Y-101388334D01*
X156420404Y-101312802D01*
X157316768Y-101312802D01*
X157327130Y-101334746D01*
X157402314Y-101396034D01*
X157526746Y-101439719D01*
X157665693Y-101458939D01*
X157784421Y-101446833D01*
X157818313Y-101431781D01*
X157840452Y-101409500D01*
X158411334Y-101409500D01*
X158432500Y-101430667D01*
X158580667Y-101430667D01*
X158596156Y-101465512D01*
X158608889Y-101458889D01*
X158613956Y-101408649D01*
X158608889Y-101402445D01*
X158583722Y-101408256D01*
X158580667Y-101430667D01*
X158432500Y-101430667D01*
X158453667Y-101409500D01*
X158432500Y-101388334D01*
X158411334Y-101409500D01*
X157840452Y-101409500D01*
X157859337Y-101390495D01*
X157827343Y-101341559D01*
X157822686Y-101337180D01*
X157785439Y-101310734D01*
X157791904Y-101332369D01*
X157787091Y-101381696D01*
X157723566Y-101409405D01*
X157625772Y-101409806D01*
X157546544Y-101389491D01*
X157466937Y-101340250D01*
X157464412Y-101293163D01*
X157471670Y-101275445D01*
X157621111Y-101275445D01*
X157626922Y-101300612D01*
X157649334Y-101303667D01*
X157684179Y-101288178D01*
X157677556Y-101275445D01*
X157627316Y-101270378D01*
X157621111Y-101275445D01*
X157471670Y-101275445D01*
X157477414Y-101261425D01*
X157437788Y-101287509D01*
X157431315Y-101292716D01*
X157363082Y-101322339D01*
X157331735Y-101313883D01*
X157316768Y-101312802D01*
X156420404Y-101312802D01*
X156466372Y-101220655D01*
X156486484Y-101176988D01*
X157144107Y-101176988D01*
X157154619Y-101198911D01*
X157178267Y-101229584D01*
X157240057Y-101295398D01*
X157267638Y-101295112D01*
X157268334Y-101287684D01*
X157239404Y-101252346D01*
X157194250Y-101213600D01*
X157190051Y-101210534D01*
X158284334Y-101210534D01*
X158307479Y-101261469D01*
X158355337Y-101313318D01*
X158395540Y-101332283D01*
X158398924Y-101330187D01*
X158398352Y-101284302D01*
X158391284Y-101261334D01*
X158538334Y-101261334D01*
X158553823Y-101296179D01*
X158566556Y-101289556D01*
X158571622Y-101239316D01*
X158566556Y-101233111D01*
X158541389Y-101238922D01*
X158538334Y-101261334D01*
X158391284Y-101261334D01*
X158386634Y-101246226D01*
X158345779Y-101190063D01*
X158301349Y-101177724D01*
X158284334Y-101210534D01*
X157190051Y-101210534D01*
X157144107Y-101176988D01*
X156486484Y-101176988D01*
X156525629Y-101092000D01*
X157099000Y-101092000D01*
X157114489Y-101126845D01*
X157127222Y-101120222D01*
X157128844Y-101104135D01*
X158121824Y-101104135D01*
X158132124Y-101127793D01*
X158174750Y-101173239D01*
X158199255Y-101163917D01*
X158199667Y-101157999D01*
X158169598Y-101122192D01*
X158151535Y-101109639D01*
X158499342Y-101109639D01*
X158507126Y-101164546D01*
X158521577Y-101165202D01*
X158531682Y-101108543D01*
X158524919Y-101084063D01*
X158506121Y-101068028D01*
X158499342Y-101109639D01*
X158151535Y-101109639D01*
X158150793Y-101109124D01*
X158121824Y-101104135D01*
X157128844Y-101104135D01*
X157131337Y-101079415D01*
X157929765Y-101079415D01*
X157988000Y-101085316D01*
X158048098Y-101078663D01*
X158040917Y-101063964D01*
X157954246Y-101058372D01*
X157935084Y-101063964D01*
X157929765Y-101079415D01*
X157131337Y-101079415D01*
X157132289Y-101069983D01*
X157127222Y-101063778D01*
X157102055Y-101069589D01*
X157099000Y-101092000D01*
X156525629Y-101092000D01*
X156529950Y-101082620D01*
X156559683Y-101004577D01*
X158464046Y-101004577D01*
X158469837Y-101007334D01*
X158508469Y-100977532D01*
X158517167Y-100965000D01*
X158527954Y-100925423D01*
X158522164Y-100922667D01*
X158483531Y-100952469D01*
X158474834Y-100965000D01*
X158464046Y-101004577D01*
X156559683Y-101004577D01*
X156577863Y-100956860D01*
X156593368Y-100901500D01*
X157064920Y-100901500D01*
X157069495Y-100973798D01*
X157082748Y-100980163D01*
X157084435Y-100976389D01*
X157092809Y-100892350D01*
X157086003Y-100849389D01*
X157082374Y-100844739D01*
X158565600Y-100844739D01*
X158588754Y-100846826D01*
X158589894Y-100845707D01*
X158616876Y-100773486D01*
X158614284Y-100726080D01*
X158598791Y-100689877D01*
X158580945Y-100732290D01*
X158573238Y-100767127D01*
X158565600Y-100844739D01*
X157082374Y-100844739D01*
X157072528Y-100832126D01*
X157065199Y-100888354D01*
X157064920Y-100901500D01*
X156593368Y-100901500D01*
X156614513Y-100826003D01*
X156644305Y-100672678D01*
X156658150Y-100574840D01*
X157028156Y-100574840D01*
X157031213Y-100637529D01*
X157066976Y-100701400D01*
X157113104Y-100735077D01*
X157136783Y-100727394D01*
X157129684Y-100691262D01*
X157109584Y-100680510D01*
X157061448Y-100627212D01*
X157053325Y-100591056D01*
X157043057Y-100551761D01*
X157028156Y-100574840D01*
X156658150Y-100574840D01*
X156662844Y-100541667D01*
X158580667Y-100541667D01*
X158596156Y-100576512D01*
X158608889Y-100569889D01*
X158613956Y-100519649D01*
X158608889Y-100513445D01*
X158583722Y-100519256D01*
X158580667Y-100541667D01*
X156662844Y-100541667D01*
X156671641Y-100479515D01*
X156685360Y-100362212D01*
X158387361Y-100362212D01*
X158428972Y-100368991D01*
X158483879Y-100361208D01*
X158484535Y-100346757D01*
X158427876Y-100336651D01*
X158403396Y-100343415D01*
X158387361Y-100362212D01*
X156685360Y-100362212D01*
X156691604Y-100308834D01*
X157268334Y-100308834D01*
X157289500Y-100330000D01*
X157310667Y-100308834D01*
X157861000Y-100308834D01*
X157882167Y-100330000D01*
X157903334Y-100308834D01*
X157882167Y-100287667D01*
X157861000Y-100308834D01*
X157310667Y-100308834D01*
X157289500Y-100287667D01*
X157268334Y-100308834D01*
X156691604Y-100308834D01*
X156695263Y-100277546D01*
X157413694Y-100277546D01*
X157455306Y-100284325D01*
X157503123Y-100277546D01*
X157667694Y-100277546D01*
X157709306Y-100284325D01*
X157764213Y-100276541D01*
X157764868Y-100262090D01*
X157708210Y-100251985D01*
X157683729Y-100258748D01*
X157667694Y-100277546D01*
X157503123Y-100277546D01*
X157510213Y-100276541D01*
X157510868Y-100262090D01*
X157454210Y-100251985D01*
X157429729Y-100258748D01*
X157413694Y-100277546D01*
X156695263Y-100277546D01*
X156700925Y-100229144D01*
X156719613Y-100059333D01*
X156767804Y-99665134D01*
X156819937Y-99344364D01*
X156879826Y-99085787D01*
X156951282Y-98878164D01*
X157038118Y-98710259D01*
X157144147Y-98570835D01*
X157263324Y-98456879D01*
X157440525Y-98341707D01*
X157646521Y-98277817D01*
X157901085Y-98260036D01*
X158002115Y-98263569D01*
G36*
X159164591Y-102297862D02*
G01*
X159297924Y-102353814D01*
X159466996Y-102436745D01*
X159653468Y-102538206D01*
X159660949Y-102542484D01*
X159852309Y-102652962D01*
X159982975Y-102733261D01*
X160065792Y-102795160D01*
X160113605Y-102850437D01*
X160139260Y-102910870D01*
X160155603Y-102988237D01*
X160157256Y-102997568D01*
X160176873Y-103182365D01*
X160153669Y-103312711D01*
X160078468Y-103396936D01*
X159942093Y-103443369D01*
X159735365Y-103460342D01*
X159646828Y-103460877D01*
X159367680Y-103434488D01*
X159114520Y-103355571D01*
X158850382Y-103226755D01*
X158668253Y-103094068D01*
X158568874Y-102958367D01*
X158552990Y-102820510D01*
X158581826Y-102740835D01*
X158673645Y-102602866D01*
X158792123Y-102469733D01*
X158917402Y-102359715D01*
X159029628Y-102291090D01*
X159085332Y-102277334D01*
X159164591Y-102297862D01*
X159164591Y-102297862D01*
G37*
X159164591Y-102297862D02*
X159297924Y-102353814D01*
X159466996Y-102436745D01*
X159653468Y-102538206D01*
X159660949Y-102542484D01*
X159852309Y-102652962D01*
X159982975Y-102733261D01*
X160065792Y-102795160D01*
X160113605Y-102850437D01*
X160139260Y-102910870D01*
X160155603Y-102988237D01*
X160157256Y-102997568D01*
X160176873Y-103182365D01*
X160153669Y-103312711D01*
X160078468Y-103396936D01*
X159942093Y-103443369D01*
X159735365Y-103460342D01*
X159646828Y-103460877D01*
X159367680Y-103434488D01*
X159114520Y-103355571D01*
X158850382Y-103226755D01*
X158668253Y-103094068D01*
X158568874Y-102958367D01*
X158552990Y-102820510D01*
X158581826Y-102740835D01*
X158673645Y-102602866D01*
X158792123Y-102469733D01*
X158917402Y-102359715D01*
X159029628Y-102291090D01*
X159085332Y-102277334D01*
X159164591Y-102297862D01*
G36*
X142546305Y-101839542D02*
G01*
X142705586Y-101921266D01*
X142905962Y-102037155D01*
X143094925Y-102150871D01*
X143222423Y-102232517D01*
X143300062Y-102292783D01*
X143339450Y-102342363D01*
X143352194Y-102391949D01*
X143350384Y-102446534D01*
X143355460Y-102558938D01*
X143383656Y-102637946D01*
X143384189Y-102638600D01*
X143404863Y-102696763D01*
X143391716Y-102716447D01*
X143343793Y-102702836D01*
X143245050Y-102647411D01*
X143111808Y-102559942D01*
X143015032Y-102490972D01*
X142845080Y-102358127D01*
X142682696Y-102216926D01*
X142541251Y-102080618D01*
X142434119Y-101962452D01*
X142374671Y-101875681D01*
X142367000Y-101848879D01*
X142384445Y-101805945D01*
X142441736Y-101801967D01*
X142546305Y-101839542D01*
X142546305Y-101839542D01*
G37*
X142546305Y-101839542D02*
X142705586Y-101921266D01*
X142905962Y-102037155D01*
X143094925Y-102150871D01*
X143222423Y-102232517D01*
X143300062Y-102292783D01*
X143339450Y-102342363D01*
X143352194Y-102391949D01*
X143350384Y-102446534D01*
X143355460Y-102558938D01*
X143383656Y-102637946D01*
X143384189Y-102638600D01*
X143404863Y-102696763D01*
X143391716Y-102716447D01*
X143343793Y-102702836D01*
X143245050Y-102647411D01*
X143111808Y-102559942D01*
X143015032Y-102490972D01*
X142845080Y-102358127D01*
X142682696Y-102216926D01*
X142541251Y-102080618D01*
X142434119Y-101962452D01*
X142374671Y-101875681D01*
X142367000Y-101848879D01*
X142384445Y-101805945D01*
X142441736Y-101801967D01*
X142546305Y-101839542D01*
G36*
X161148476Y-102205530D02*
G01*
X161270456Y-102240779D01*
X161439646Y-102293408D01*
X161639596Y-102358406D01*
X161693408Y-102376319D01*
X161951552Y-102466400D01*
X162128246Y-102537914D01*
X162224168Y-102592880D01*
X162239995Y-102633314D01*
X162176404Y-102661233D01*
X162034072Y-102678656D01*
X161813676Y-102687599D01*
X161798000Y-102687909D01*
X161561634Y-102685945D01*
X161347840Y-102672333D01*
X161183848Y-102649035D01*
X161151732Y-102641363D01*
X161006222Y-102597557D01*
X160932997Y-102559864D01*
X160921371Y-102517531D01*
X160960658Y-102459808D01*
X160965704Y-102454176D01*
X161021620Y-102356014D01*
X161036000Y-102284583D01*
X161057003Y-102212032D01*
X161090158Y-102192667D01*
X161148476Y-102205530D01*
X161148476Y-102205530D01*
G37*
X161148476Y-102205530D02*
X161270456Y-102240779D01*
X161439646Y-102293408D01*
X161639596Y-102358406D01*
X161693408Y-102376319D01*
X161951552Y-102466400D01*
X162128246Y-102537914D01*
X162224168Y-102592880D01*
X162239995Y-102633314D01*
X162176404Y-102661233D01*
X162034072Y-102678656D01*
X161813676Y-102687599D01*
X161798000Y-102687909D01*
X161561634Y-102685945D01*
X161347840Y-102672333D01*
X161183848Y-102649035D01*
X161151732Y-102641363D01*
X161006222Y-102597557D01*
X160932997Y-102559864D01*
X160921371Y-102517531D01*
X160960658Y-102459808D01*
X160965704Y-102454176D01*
X161021620Y-102356014D01*
X161036000Y-102284583D01*
X161057003Y-102212032D01*
X161090158Y-102192667D01*
X161148476Y-102205530D01*
G36*
X159711979Y-101329794D02*
G01*
X159867227Y-101400042D01*
X160045570Y-101502535D01*
X160226832Y-101625363D01*
X160390839Y-101756614D01*
X160433631Y-101795825D01*
X160565096Y-101925489D01*
X160644473Y-102019589D01*
X160684256Y-102097316D01*
X160696935Y-102177861D01*
X160697334Y-102200925D01*
X160684148Y-102313846D01*
X160629590Y-102390575D01*
X160554753Y-102443214D01*
X160410781Y-102506461D01*
X160244418Y-102524416D01*
X160036089Y-102497679D01*
X159894027Y-102463469D01*
X159700946Y-102397849D01*
X159512364Y-102310485D01*
X159355124Y-102215367D01*
X159262114Y-102134124D01*
X159236520Y-102079423D01*
X159246787Y-102001129D01*
X159296220Y-101874609D01*
X159297239Y-101872303D01*
X159349224Y-101732274D01*
X159380698Y-101604078D01*
X159385000Y-101558847D01*
X159416323Y-101442212D01*
X159493443Y-101347277D01*
X159591087Y-101304032D01*
X159600000Y-101303700D01*
X159711979Y-101329794D01*
X159711979Y-101329794D01*
G37*
X159711979Y-101329794D02*
X159867227Y-101400042D01*
X160045570Y-101502535D01*
X160226832Y-101625363D01*
X160390839Y-101756614D01*
X160433631Y-101795825D01*
X160565096Y-101925489D01*
X160644473Y-102019589D01*
X160684256Y-102097316D01*
X160696935Y-102177861D01*
X160697334Y-102200925D01*
X160684148Y-102313846D01*
X160629590Y-102390575D01*
X160554753Y-102443214D01*
X160410781Y-102506461D01*
X160244418Y-102524416D01*
X160036089Y-102497679D01*
X159894027Y-102463469D01*
X159700946Y-102397849D01*
X159512364Y-102310485D01*
X159355124Y-102215367D01*
X159262114Y-102134124D01*
X159236520Y-102079423D01*
X159246787Y-102001129D01*
X159296220Y-101874609D01*
X159297239Y-101872303D01*
X159349224Y-101732274D01*
X159380698Y-101604078D01*
X159385000Y-101558847D01*
X159416323Y-101442212D01*
X159493443Y-101347277D01*
X159591087Y-101304032D01*
X159600000Y-101303700D01*
X159711979Y-101329794D01*
G36*
X143917065Y-101356796D02*
G01*
X144146745Y-101392652D01*
X144398514Y-101459995D01*
X144490390Y-101491288D01*
X144653156Y-101552889D01*
X144759978Y-101609934D01*
X144822679Y-101681454D01*
X144853080Y-101786482D01*
X144863002Y-101944048D01*
X144864089Y-102092888D01*
X144860304Y-102265458D01*
X144838186Y-102370274D01*
X144782803Y-102424177D01*
X144679224Y-102444011D01*
X144550466Y-102446667D01*
X144360374Y-102416463D01*
X144138327Y-102330659D01*
X144119906Y-102321598D01*
X143955030Y-102224900D01*
X143793790Y-102107446D01*
X143705023Y-102027965D01*
X143600135Y-101905913D01*
X143544992Y-101792097D01*
X143520226Y-101649192D01*
X143512674Y-101519605D01*
X143527324Y-101446120D01*
X143572061Y-101401390D01*
X143595604Y-101387832D01*
X143727383Y-101354500D01*
X143917065Y-101356796D01*
X143917065Y-101356796D01*
G37*
X143917065Y-101356796D02*
X144146745Y-101392652D01*
X144398514Y-101459995D01*
X144490390Y-101491288D01*
X144653156Y-101552889D01*
X144759978Y-101609934D01*
X144822679Y-101681454D01*
X144853080Y-101786482D01*
X144863002Y-101944048D01*
X144864089Y-102092888D01*
X144860304Y-102265458D01*
X144838186Y-102370274D01*
X144782803Y-102424177D01*
X144679224Y-102444011D01*
X144550466Y-102446667D01*
X144360374Y-102416463D01*
X144138327Y-102330659D01*
X144119906Y-102321598D01*
X143955030Y-102224900D01*
X143793790Y-102107446D01*
X143705023Y-102027965D01*
X143600135Y-101905913D01*
X143544992Y-101792097D01*
X143520226Y-101649192D01*
X143512674Y-101519605D01*
X143527324Y-101446120D01*
X143572061Y-101401390D01*
X143595604Y-101387832D01*
X143727383Y-101354500D01*
X143917065Y-101356796D01*
G36*
X161272888Y-101025845D02*
G01*
X161290000Y-101029347D01*
X161425418Y-101066770D01*
X161543603Y-101114043D01*
X161544000Y-101114247D01*
X161638033Y-101174138D01*
X161763046Y-101269172D01*
X161903361Y-101385407D01*
X162043299Y-101508904D01*
X162167180Y-101625723D01*
X162259327Y-101721923D01*
X162304061Y-101783563D01*
X162306000Y-101791751D01*
X162300217Y-101844606D01*
X162295417Y-101849280D01*
X162254086Y-101833841D01*
X162147649Y-101794600D01*
X161990511Y-101736856D01*
X161797074Y-101665905D01*
X161714652Y-101635705D01*
X161508136Y-101557462D01*
X161330184Y-101485144D01*
X161196065Y-101425329D01*
X161121049Y-101384595D01*
X161111434Y-101375841D01*
X161116311Y-101311832D01*
X161180414Y-101234870D01*
X161246812Y-101168707D01*
X161252941Y-101122682D01*
X161212132Y-101071868D01*
X161172452Y-101025134D01*
X161188527Y-101012074D01*
X161272888Y-101025845D01*
X161272888Y-101025845D01*
G37*
X161272888Y-101025845D02*
X161290000Y-101029347D01*
X161425418Y-101066770D01*
X161543603Y-101114043D01*
X161544000Y-101114247D01*
X161638033Y-101174138D01*
X161763046Y-101269172D01*
X161903361Y-101385407D01*
X162043299Y-101508904D01*
X162167180Y-101625723D01*
X162259327Y-101721923D01*
X162304061Y-101783563D01*
X162306000Y-101791751D01*
X162300217Y-101844606D01*
X162295417Y-101849280D01*
X162254086Y-101833841D01*
X162147649Y-101794600D01*
X161990511Y-101736856D01*
X161797074Y-101665905D01*
X161714652Y-101635705D01*
X161508136Y-101557462D01*
X161330184Y-101485144D01*
X161196065Y-101425329D01*
X161121049Y-101384595D01*
X161111434Y-101375841D01*
X161116311Y-101311832D01*
X161180414Y-101234870D01*
X161246812Y-101168707D01*
X161252941Y-101122682D01*
X161212132Y-101071868D01*
X161172452Y-101025134D01*
X161188527Y-101012074D01*
X161272888Y-101025845D01*
G36*
X142149890Y-100861709D02*
G01*
X142248524Y-100889772D01*
X142390845Y-100935476D01*
X142462250Y-100959663D01*
X142661544Y-101027278D01*
X142867088Y-101095572D01*
X143038837Y-101151259D01*
X143059479Y-101157789D01*
X143228679Y-101222580D01*
X143316186Y-101286785D01*
X143324849Y-101354420D01*
X143257518Y-101429499D01*
X143254111Y-101432092D01*
X143188467Y-101493066D01*
X143187911Y-101543149D01*
X143210354Y-101574841D01*
X143242676Y-101626739D01*
X143206210Y-101640720D01*
X143187100Y-101640676D01*
X143095814Y-101623083D01*
X142977361Y-101582248D01*
X142962590Y-101575999D01*
X142862905Y-101519639D01*
X142730747Y-101427220D01*
X142581549Y-101311811D01*
X142430744Y-101186481D01*
X142293766Y-101064297D01*
X142186047Y-100958326D01*
X142123022Y-100881638D01*
X142113000Y-100856614D01*
X142149890Y-100861709D01*
X142149890Y-100861709D01*
G37*
X142149890Y-100861709D02*
X142248524Y-100889772D01*
X142390845Y-100935476D01*
X142462250Y-100959663D01*
X142661544Y-101027278D01*
X142867088Y-101095572D01*
X143038837Y-101151259D01*
X143059479Y-101157789D01*
X143228679Y-101222580D01*
X143316186Y-101286785D01*
X143324849Y-101354420D01*
X143257518Y-101429499D01*
X143254111Y-101432092D01*
X143188467Y-101493066D01*
X143187911Y-101543149D01*
X143210354Y-101574841D01*
X143242676Y-101626739D01*
X143206210Y-101640720D01*
X143187100Y-101640676D01*
X143095814Y-101623083D01*
X142977361Y-101582248D01*
X142962590Y-101575999D01*
X142862905Y-101519639D01*
X142730747Y-101427220D01*
X142581549Y-101311811D01*
X142430744Y-101186481D01*
X142293766Y-101064297D01*
X142186047Y-100958326D01*
X142123022Y-100881638D01*
X142113000Y-100856614D01*
X142149890Y-100861709D01*
G36*
X144314098Y-100173461D02*
G01*
X144565746Y-100232269D01*
X144818521Y-100338611D01*
X144993577Y-100434795D01*
X145099354Y-100514404D01*
X145145171Y-100592346D01*
X145140343Y-100683531D01*
X145100279Y-100789504D01*
X145051585Y-100925225D01*
X145025599Y-101051843D01*
X145024224Y-101078894D01*
X144997305Y-101204621D01*
X144928042Y-101301734D01*
X144836344Y-101343589D01*
X144826356Y-101343698D01*
X144747357Y-101327325D01*
X144628204Y-101288841D01*
X144577355Y-101269615D01*
X144463280Y-101207438D01*
X144317909Y-101104555D01*
X144159439Y-100976836D01*
X144006063Y-100840151D01*
X143875976Y-100710369D01*
X143787374Y-100603362D01*
X143762486Y-100558852D01*
X143744358Y-100416144D01*
X143807509Y-100297105D01*
X143910112Y-100222313D01*
X144090033Y-100169436D01*
X144314098Y-100173461D01*
X144314098Y-100173461D01*
G37*
X144314098Y-100173461D02*
X144565746Y-100232269D01*
X144818521Y-100338611D01*
X144993577Y-100434795D01*
X145099354Y-100514404D01*
X145145171Y-100592346D01*
X145140343Y-100683531D01*
X145100279Y-100789504D01*
X145051585Y-100925225D01*
X145025599Y-101051843D01*
X145024224Y-101078894D01*
X144997305Y-101204621D01*
X144928042Y-101301734D01*
X144836344Y-101343589D01*
X144826356Y-101343698D01*
X144747357Y-101327325D01*
X144628204Y-101288841D01*
X144577355Y-101269615D01*
X144463280Y-101207438D01*
X144317909Y-101104555D01*
X144159439Y-100976836D01*
X144006063Y-100840151D01*
X143875976Y-100710369D01*
X143787374Y-100603362D01*
X143762486Y-100558852D01*
X143744358Y-100416144D01*
X143807509Y-100297105D01*
X143910112Y-100222313D01*
X144090033Y-100169436D01*
X144314098Y-100173461D01*
G36*
X160016381Y-100226968D02*
G01*
X160193960Y-100277994D01*
X160259797Y-100305622D01*
X160409386Y-100391835D01*
X160574935Y-100511890D01*
X160693713Y-100614926D01*
X160808109Y-100730059D01*
X160872814Y-100815535D01*
X160901777Y-100897548D01*
X160908942Y-101002286D01*
X160909000Y-101019228D01*
X160899382Y-101154455D01*
X160865008Y-101230957D01*
X160827117Y-101259844D01*
X160685745Y-101296652D01*
X160485377Y-101293621D01*
X160240930Y-101252200D01*
X159977667Y-101177335D01*
X159803294Y-101116101D01*
X159693464Y-101068174D01*
X159631443Y-101023131D01*
X159600498Y-100970553D01*
X159591092Y-100936587D01*
X159569465Y-100791829D01*
X159560295Y-100625774D01*
X159563053Y-100464151D01*
X159577210Y-100332687D01*
X159602236Y-100257112D01*
X159605134Y-100253800D01*
X159697509Y-100212935D01*
X159842745Y-100204637D01*
X160016381Y-100226968D01*
X160016381Y-100226968D01*
G37*
X160016381Y-100226968D02*
X160193960Y-100277994D01*
X160259797Y-100305622D01*
X160409386Y-100391835D01*
X160574935Y-100511890D01*
X160693713Y-100614926D01*
X160808109Y-100730059D01*
X160872814Y-100815535D01*
X160901777Y-100897548D01*
X160908942Y-101002286D01*
X160909000Y-101019228D01*
X160899382Y-101154455D01*
X160865008Y-101230957D01*
X160827117Y-101259844D01*
X160685745Y-101296652D01*
X160485377Y-101293621D01*
X160240930Y-101252200D01*
X159977667Y-101177335D01*
X159803294Y-101116101D01*
X159693464Y-101068174D01*
X159631443Y-101023131D01*
X159600498Y-100970553D01*
X159591092Y-100936587D01*
X159569465Y-100791829D01*
X159560295Y-100625774D01*
X159563053Y-100464151D01*
X159577210Y-100332687D01*
X159602236Y-100257112D01*
X159605134Y-100253800D01*
X159697509Y-100212935D01*
X159842745Y-100204637D01*
X160016381Y-100226968D01*
G36*
X161080668Y-99950701D02*
G01*
X161167382Y-99998311D01*
X161289238Y-100079919D01*
X161431922Y-100184676D01*
X161581119Y-100301734D01*
X161722517Y-100420245D01*
X161841799Y-100529361D01*
X161919515Y-100611896D01*
X162010048Y-100737987D01*
X162034566Y-100819308D01*
X161994686Y-100862022D01*
X161985854Y-100864790D01*
X161935635Y-100848716D01*
X161829295Y-100796816D01*
X161682951Y-100717422D01*
X161530155Y-100629224D01*
X161327473Y-100508444D01*
X161187949Y-100421444D01*
X161101787Y-100359042D01*
X161059189Y-100312057D01*
X161050357Y-100271304D01*
X161065495Y-100227602D01*
X161077349Y-100204839D01*
X161105264Y-100115723D01*
X161077269Y-100053551D01*
X161042524Y-99980105D01*
X161043411Y-99947936D01*
X161080668Y-99950701D01*
X161080668Y-99950701D01*
G37*
X161080668Y-99950701D02*
X161167382Y-99998311D01*
X161289238Y-100079919D01*
X161431922Y-100184676D01*
X161581119Y-100301734D01*
X161722517Y-100420245D01*
X161841799Y-100529361D01*
X161919515Y-100611896D01*
X162010048Y-100737987D01*
X162034566Y-100819308D01*
X161994686Y-100862022D01*
X161985854Y-100864790D01*
X161935635Y-100848716D01*
X161829295Y-100796816D01*
X161682951Y-100717422D01*
X161530155Y-100629224D01*
X161327473Y-100508444D01*
X161187949Y-100421444D01*
X161101787Y-100359042D01*
X161059189Y-100312057D01*
X161050357Y-100271304D01*
X161065495Y-100227602D01*
X161077349Y-100204839D01*
X161105264Y-100115723D01*
X161077269Y-100053551D01*
X161042524Y-99980105D01*
X161043411Y-99947936D01*
X161080668Y-99950701D01*
G36*
X142898156Y-99969634D02*
G01*
X142909299Y-99971278D01*
X143112535Y-100007665D01*
X143283366Y-100045163D01*
X143406039Y-100079769D01*
X143464801Y-100107481D01*
X143467667Y-100113136D01*
X143445783Y-100165902D01*
X143403393Y-100233592D01*
X143358761Y-100320262D01*
X143350476Y-100375303D01*
X143349453Y-100413725D01*
X143317565Y-100430217D01*
X143244843Y-100422889D01*
X143121319Y-100389848D01*
X142937022Y-100329200D01*
X142737417Y-100258921D01*
X142540017Y-100186163D01*
X142374998Y-100121163D01*
X142256951Y-100069989D01*
X142200469Y-100038708D01*
X142197667Y-100034498D01*
X142236188Y-100012306D01*
X142336499Y-99991956D01*
X142475727Y-99975482D01*
X142630996Y-99964915D01*
X142779431Y-99962288D01*
X142898156Y-99969634D01*
X142898156Y-99969634D01*
G37*
X142898156Y-99969634D02*
X142909299Y-99971278D01*
X143112535Y-100007665D01*
X143283366Y-100045163D01*
X143406039Y-100079769D01*
X143464801Y-100107481D01*
X143467667Y-100113136D01*
X143445783Y-100165902D01*
X143403393Y-100233592D01*
X143358761Y-100320262D01*
X143350476Y-100375303D01*
X143349453Y-100413725D01*
X143317565Y-100430217D01*
X143244843Y-100422889D01*
X143121319Y-100389848D01*
X142937022Y-100329200D01*
X142737417Y-100258921D01*
X142540017Y-100186163D01*
X142374998Y-100121163D01*
X142256951Y-100069989D01*
X142200469Y-100038708D01*
X142197667Y-100034498D01*
X142236188Y-100012306D01*
X142336499Y-99991956D01*
X142475727Y-99975482D01*
X142630996Y-99964915D01*
X142779431Y-99962288D01*
X142898156Y-99969634D01*
G36*
X145010488Y-99237066D02*
G01*
X145244954Y-99301789D01*
X145465891Y-99397328D01*
X145654446Y-99514301D01*
X145791766Y-99643328D01*
X145850587Y-99744591D01*
X145843230Y-99834056D01*
X145784839Y-99955477D01*
X145691527Y-100089236D01*
X145579406Y-100215716D01*
X145464588Y-100315300D01*
X145363186Y-100368370D01*
X145334999Y-100372334D01*
X145273209Y-100351938D01*
X145155740Y-100296412D01*
X144999477Y-100214247D01*
X144822125Y-100114411D01*
X144644932Y-100010525D01*
X144491982Y-99918951D01*
X144379736Y-99849675D01*
X144324917Y-99812894D01*
X144293558Y-99745691D01*
X144274909Y-99621586D01*
X144272000Y-99540602D01*
X144276104Y-99405463D01*
X144295677Y-99328744D01*
X144341612Y-99284320D01*
X144388417Y-99261404D01*
X144492519Y-99234874D01*
X144644734Y-99217214D01*
X144781345Y-99212538D01*
X145010488Y-99237066D01*
X145010488Y-99237066D01*
G37*
X145010488Y-99237066D02*
X145244954Y-99301789D01*
X145465891Y-99397328D01*
X145654446Y-99514301D01*
X145791766Y-99643328D01*
X145850587Y-99744591D01*
X145843230Y-99834056D01*
X145784839Y-99955477D01*
X145691527Y-100089236D01*
X145579406Y-100215716D01*
X145464588Y-100315300D01*
X145363186Y-100368370D01*
X145334999Y-100372334D01*
X145273209Y-100351938D01*
X145155740Y-100296412D01*
X144999477Y-100214247D01*
X144822125Y-100114411D01*
X144644932Y-100010525D01*
X144491982Y-99918951D01*
X144379736Y-99849675D01*
X144324917Y-99812894D01*
X144293558Y-99745691D01*
X144274909Y-99621586D01*
X144272000Y-99540602D01*
X144276104Y-99405463D01*
X144295677Y-99328744D01*
X144341612Y-99284320D01*
X144388417Y-99261404D01*
X144492519Y-99234874D01*
X144644734Y-99217214D01*
X144781345Y-99212538D01*
X145010488Y-99237066D01*
G36*
X159925879Y-99058708D02*
G01*
X160199558Y-99177442D01*
X160445546Y-99336791D01*
X160595971Y-99474065D01*
X160714139Y-99633425D01*
X160792712Y-99797571D01*
X160824350Y-99949204D01*
X160801714Y-100071025D01*
X160773534Y-100109867D01*
X160698303Y-100141495D01*
X160574404Y-100157199D01*
X160436456Y-100156279D01*
X160319078Y-100138036D01*
X160275133Y-100119929D01*
X160203472Y-100089964D01*
X160077426Y-100050358D01*
X159935334Y-100012500D01*
X159785988Y-99973122D01*
X159666493Y-99936573D01*
X159605296Y-99912000D01*
X159568282Y-99857407D01*
X159520499Y-99744447D01*
X159471890Y-99596847D01*
X159468923Y-99586564D01*
X159424521Y-99412638D01*
X159409078Y-99290134D01*
X159420179Y-99191833D01*
X159430693Y-99155653D01*
X159465232Y-99071392D01*
X159514023Y-99031166D01*
X159605303Y-99019072D01*
X159674033Y-99018597D01*
X159925879Y-99058708D01*
X159925879Y-99058708D01*
G37*
X159925879Y-99058708D02*
X160199558Y-99177442D01*
X160445546Y-99336791D01*
X160595971Y-99474065D01*
X160714139Y-99633425D01*
X160792712Y-99797571D01*
X160824350Y-99949204D01*
X160801714Y-100071025D01*
X160773534Y-100109867D01*
X160698303Y-100141495D01*
X160574404Y-100157199D01*
X160436456Y-100156279D01*
X160319078Y-100138036D01*
X160275133Y-100119929D01*
X160203472Y-100089964D01*
X160077426Y-100050358D01*
X159935334Y-100012500D01*
X159785988Y-99973122D01*
X159666493Y-99936573D01*
X159605296Y-99912000D01*
X159568282Y-99857407D01*
X159520499Y-99744447D01*
X159471890Y-99596847D01*
X159468923Y-99586564D01*
X159424521Y-99412638D01*
X159409078Y-99290134D01*
X159420179Y-99191833D01*
X159430693Y-99155653D01*
X159465232Y-99071392D01*
X159514023Y-99031166D01*
X159605303Y-99019072D01*
X159674033Y-99018597D01*
X159925879Y-99058708D01*
G36*
X143830070Y-99113590D02*
G01*
X143953556Y-99140994D01*
X144008779Y-99167882D01*
X143995106Y-99194307D01*
X143938754Y-99226433D01*
X143865088Y-99293225D01*
X143859744Y-99381247D01*
X143864769Y-99445811D01*
X143832702Y-99474461D01*
X143742701Y-99480514D01*
X143705213Y-99479991D01*
X143585238Y-99474507D01*
X143501153Y-99464973D01*
X143488834Y-99461888D01*
X143430089Y-99449933D01*
X143309135Y-99430551D01*
X143147734Y-99407143D01*
X143071969Y-99396773D01*
X142894173Y-99370754D01*
X142788602Y-99348585D01*
X142743185Y-99326200D01*
X142745851Y-99299536D01*
X142754469Y-99289850D01*
X142854608Y-99231645D01*
X143016610Y-99181221D01*
X143217816Y-99141390D01*
X143435567Y-99114967D01*
X143647204Y-99104762D01*
X143830070Y-99113590D01*
X143830070Y-99113590D01*
G37*
X143830070Y-99113590D02*
X143953556Y-99140994D01*
X144008779Y-99167882D01*
X143995106Y-99194307D01*
X143938754Y-99226433D01*
X143865088Y-99293225D01*
X143859744Y-99381247D01*
X143864769Y-99445811D01*
X143832702Y-99474461D01*
X143742701Y-99480514D01*
X143705213Y-99479991D01*
X143585238Y-99474507D01*
X143501153Y-99464973D01*
X143488834Y-99461888D01*
X143430089Y-99449933D01*
X143309135Y-99430551D01*
X143147734Y-99407143D01*
X143071969Y-99396773D01*
X142894173Y-99370754D01*
X142788602Y-99348585D01*
X142743185Y-99326200D01*
X142745851Y-99299536D01*
X142754469Y-99289850D01*
X142854608Y-99231645D01*
X143016610Y-99181221D01*
X143217816Y-99141390D01*
X143435567Y-99114967D01*
X143647204Y-99104762D01*
X143830070Y-99113590D01*
G36*
X145787771Y-98391543D02*
G01*
X146045136Y-98448258D01*
X146289104Y-98571858D01*
X146505139Y-98741519D01*
X146611379Y-98840988D01*
X146664457Y-98907548D01*
X146675079Y-98963875D01*
X146653947Y-99032643D01*
X146648661Y-99045530D01*
X146553173Y-99170566D01*
X146406646Y-99264230D01*
X146230597Y-99334300D01*
X146087490Y-99348692D01*
X145947634Y-99308704D01*
X145901834Y-99286276D01*
X145790112Y-99214571D01*
X145664362Y-99115897D01*
X145626667Y-99082364D01*
X145501138Y-98975898D01*
X145349930Y-98860751D01*
X145277417Y-98810026D01*
X145167749Y-98726827D01*
X145094713Y-98653178D01*
X145076334Y-98616490D01*
X145115674Y-98523006D01*
X145225032Y-98450281D01*
X145391410Y-98402424D01*
X145601813Y-98383544D01*
X145787771Y-98391543D01*
X145787771Y-98391543D01*
G37*
X145787771Y-98391543D02*
X146045136Y-98448258D01*
X146289104Y-98571858D01*
X146505139Y-98741519D01*
X146611379Y-98840988D01*
X146664457Y-98907548D01*
X146675079Y-98963875D01*
X146653947Y-99032643D01*
X146648661Y-99045530D01*
X146553173Y-99170566D01*
X146406646Y-99264230D01*
X146230597Y-99334300D01*
X146087490Y-99348692D01*
X145947634Y-99308704D01*
X145901834Y-99286276D01*
X145790112Y-99214571D01*
X145664362Y-99115897D01*
X145626667Y-99082364D01*
X145501138Y-98975898D01*
X145349930Y-98860751D01*
X145277417Y-98810026D01*
X145167749Y-98726827D01*
X145094713Y-98653178D01*
X145076334Y-98616490D01*
X145115674Y-98523006D01*
X145225032Y-98450281D01*
X145391410Y-98402424D01*
X145601813Y-98383544D01*
X145787771Y-98391543D01*
G36*
X144373395Y-98267093D02*
G01*
X144534804Y-98278974D01*
X144672125Y-98298789D01*
X144771781Y-98324868D01*
X144820194Y-98355543D01*
X144803786Y-98389145D01*
X144770591Y-98405180D01*
X144723486Y-98461921D01*
X144726116Y-98512401D01*
X144722592Y-98578647D01*
X144689688Y-98588787D01*
X144626681Y-98581431D01*
X144498667Y-98565582D01*
X144324604Y-98543612D01*
X144134417Y-98519304D01*
X143887254Y-98482401D01*
X143724178Y-98445749D01*
X143644612Y-98408841D01*
X143647979Y-98371168D01*
X143733704Y-98332224D01*
X143880417Y-98295746D01*
X144032624Y-98273810D01*
X144201475Y-98264816D01*
X144373395Y-98267093D01*
X144373395Y-98267093D01*
G37*
X144373395Y-98267093D02*
X144534804Y-98278974D01*
X144672125Y-98298789D01*
X144771781Y-98324868D01*
X144820194Y-98355543D01*
X144803786Y-98389145D01*
X144770591Y-98405180D01*
X144723486Y-98461921D01*
X144726116Y-98512401D01*
X144722592Y-98578647D01*
X144689688Y-98588787D01*
X144626681Y-98581431D01*
X144498667Y-98565582D01*
X144324604Y-98543612D01*
X144134417Y-98519304D01*
X143887254Y-98482401D01*
X143724178Y-98445749D01*
X143644612Y-98408841D01*
X143647979Y-98371168D01*
X143733704Y-98332224D01*
X143880417Y-98295746D01*
X144032624Y-98273810D01*
X144201475Y-98264816D01*
X144373395Y-98267093D01*
G36*
X132001985Y-130837753D02*
G01*
X132148429Y-130985603D01*
X132242992Y-131089650D01*
X132295289Y-131164288D01*
X132314938Y-131223908D01*
X132311556Y-131282900D01*
X132308760Y-131296834D01*
X132235939Y-131504396D01*
X132124200Y-131659076D01*
X131984707Y-131751897D01*
X131828625Y-131773880D01*
X131741334Y-131753122D01*
X131584151Y-131663519D01*
X131422208Y-131519956D01*
X131314236Y-131390752D01*
X131211393Y-131191895D01*
X131191225Y-131000107D01*
X131251739Y-130822705D01*
X131390943Y-130667010D01*
X131536648Y-130573557D01*
X131667920Y-130505673D01*
X132001985Y-130837753D01*
X132001985Y-130837753D01*
G37*
X132001985Y-130837753D02*
X132148429Y-130985603D01*
X132242992Y-131089650D01*
X132295289Y-131164288D01*
X132314938Y-131223908D01*
X132311556Y-131282900D01*
X132308760Y-131296834D01*
X132235939Y-131504396D01*
X132124200Y-131659076D01*
X131984707Y-131751897D01*
X131828625Y-131773880D01*
X131741334Y-131753122D01*
X131584151Y-131663519D01*
X131422208Y-131519956D01*
X131314236Y-131390752D01*
X131211393Y-131191895D01*
X131191225Y-131000107D01*
X131251739Y-130822705D01*
X131390943Y-130667010D01*
X131536648Y-130573557D01*
X131667920Y-130505673D01*
X132001985Y-130837753D01*
G36*
X133123046Y-129102714D02*
G01*
X133212766Y-129179652D01*
X133333869Y-129292841D01*
X133450734Y-129407870D01*
X133596479Y-129556926D01*
X133690438Y-129661936D01*
X133742159Y-129737223D01*
X133761189Y-129797109D01*
X133757075Y-129855915D01*
X133755243Y-129864663D01*
X133680973Y-130068228D01*
X133566157Y-130214592D01*
X133421591Y-130295627D01*
X133258074Y-130303208D01*
X133195497Y-130285974D01*
X132979509Y-130165604D01*
X132788161Y-129968451D01*
X132739967Y-129901406D01*
X132648538Y-129708039D01*
X132641195Y-129521819D01*
X132697852Y-129375263D01*
X132770953Y-129284190D01*
X132875137Y-129189528D01*
X132983275Y-129112732D01*
X133068234Y-129075252D01*
X133078446Y-129074334D01*
X133123046Y-129102714D01*
X133123046Y-129102714D01*
G37*
X133123046Y-129102714D02*
X133212766Y-129179652D01*
X133333869Y-129292841D01*
X133450734Y-129407870D01*
X133596479Y-129556926D01*
X133690438Y-129661936D01*
X133742159Y-129737223D01*
X133761189Y-129797109D01*
X133757075Y-129855915D01*
X133755243Y-129864663D01*
X133680973Y-130068228D01*
X133566157Y-130214592D01*
X133421591Y-130295627D01*
X133258074Y-130303208D01*
X133195497Y-130285974D01*
X132979509Y-130165604D01*
X132788161Y-129968451D01*
X132739967Y-129901406D01*
X132648538Y-129708039D01*
X132641195Y-129521819D01*
X132697852Y-129375263D01*
X132770953Y-129284190D01*
X132875137Y-129189528D01*
X132983275Y-129112732D01*
X133068234Y-129075252D01*
X133078446Y-129074334D01*
X133123046Y-129102714D01*
G36*
X134662640Y-127669625D02*
G01*
X134752960Y-127761436D01*
X134786568Y-127892339D01*
X134754479Y-128044239D01*
X134741404Y-128071700D01*
X134685585Y-128161374D01*
X134604347Y-128272166D01*
X134514889Y-128383044D01*
X134434413Y-128472979D01*
X134380118Y-128520941D01*
X134371470Y-128524000D01*
X134325962Y-128496102D01*
X134246235Y-128425390D01*
X134201889Y-128381221D01*
X134118749Y-128288787D01*
X134086093Y-128218107D01*
X134093121Y-128132516D01*
X134109516Y-128067557D01*
X134183007Y-127893829D01*
X134292848Y-127751732D01*
X134421201Y-127659854D01*
X134524590Y-127635000D01*
X134662640Y-127669625D01*
X134662640Y-127669625D01*
G37*
X134662640Y-127669625D02*
X134752960Y-127761436D01*
X134786568Y-127892339D01*
X134754479Y-128044239D01*
X134741404Y-128071700D01*
X134685585Y-128161374D01*
X134604347Y-128272166D01*
X134514889Y-128383044D01*
X134434413Y-128472979D01*
X134380118Y-128520941D01*
X134371470Y-128524000D01*
X134325962Y-128496102D01*
X134246235Y-128425390D01*
X134201889Y-128381221D01*
X134118749Y-128288787D01*
X134086093Y-128218107D01*
X134093121Y-128132516D01*
X134109516Y-128067557D01*
X134183007Y-127893829D01*
X134292848Y-127751732D01*
X134421201Y-127659854D01*
X134524590Y-127635000D01*
X134662640Y-127669625D01*
G36*
X138290839Y-125079016D02*
G01*
X138292295Y-125080981D01*
X138327224Y-125169961D01*
X138344827Y-125295484D01*
X138345334Y-125318991D01*
X138310459Y-125482441D01*
X138218293Y-125619415D01*
X138087528Y-125718785D01*
X137936852Y-125769419D01*
X137784956Y-125760188D01*
X137686675Y-125711231D01*
X137653606Y-125680860D01*
X137646785Y-125646204D01*
X137673964Y-125594675D01*
X137742893Y-125513687D01*
X137861325Y-125390652D01*
X137921878Y-125329288D01*
X138063973Y-125187844D01*
X138159992Y-125100088D01*
X138221860Y-125058026D01*
X138261502Y-125053667D01*
X138290839Y-125079016D01*
X138290839Y-125079016D01*
G37*
X138290839Y-125079016D02*
X138292295Y-125080981D01*
X138327224Y-125169961D01*
X138344827Y-125295484D01*
X138345334Y-125318991D01*
X138310459Y-125482441D01*
X138218293Y-125619415D01*
X138087528Y-125718785D01*
X137936852Y-125769419D01*
X137784956Y-125760188D01*
X137686675Y-125711231D01*
X137653606Y-125680860D01*
X137646785Y-125646204D01*
X137673964Y-125594675D01*
X137742893Y-125513687D01*
X137861325Y-125390652D01*
X137921878Y-125329288D01*
X138063973Y-125187844D01*
X138159992Y-125100088D01*
X138221860Y-125058026D01*
X138261502Y-125053667D01*
X138290839Y-125079016D01*
G36*
X139263172Y-123196729D02*
G01*
X139449720Y-123310481D01*
X139495832Y-123349977D01*
X139673185Y-123544368D01*
X139767325Y-123731365D01*
X139778014Y-123909942D01*
X139705016Y-124079073D01*
X139673791Y-124119606D01*
X139584201Y-124207678D01*
X139473856Y-124292756D01*
X139370936Y-124355056D01*
X139309526Y-124375334D01*
X139276124Y-124347133D01*
X139196157Y-124270730D01*
X139082293Y-124158422D01*
X138971611Y-124047250D01*
X138647375Y-123719167D01*
X138703996Y-123557615D01*
X138806765Y-123347362D01*
X138937209Y-123216346D01*
X139090840Y-123165743D01*
X139263172Y-123196729D01*
X139263172Y-123196729D01*
G37*
X139263172Y-123196729D02*
X139449720Y-123310481D01*
X139495832Y-123349977D01*
X139673185Y-123544368D01*
X139767325Y-123731365D01*
X139778014Y-123909942D01*
X139705016Y-124079073D01*
X139673791Y-124119606D01*
X139584201Y-124207678D01*
X139473856Y-124292756D01*
X139370936Y-124355056D01*
X139309526Y-124375334D01*
X139276124Y-124347133D01*
X139196157Y-124270730D01*
X139082293Y-124158422D01*
X138971611Y-124047250D01*
X138647375Y-123719167D01*
X138703996Y-123557615D01*
X138806765Y-123347362D01*
X138937209Y-123216346D01*
X139090840Y-123165743D01*
X139263172Y-123196729D01*
G36*
X140646306Y-121697704D02*
G01*
X140794273Y-121781034D01*
X140942760Y-121898323D01*
X141067703Y-122031901D01*
X141114457Y-122100351D01*
X141202987Y-122299526D01*
X141215419Y-122472217D01*
X141151728Y-122629104D01*
X141113124Y-122680273D01*
X141023535Y-122768345D01*
X140913189Y-122853423D01*
X140810269Y-122915723D01*
X140748859Y-122936000D01*
X140715383Y-122907877D01*
X140635158Y-122831657D01*
X140520846Y-122719567D01*
X140408090Y-122606980D01*
X140233150Y-122420987D01*
X140123857Y-122281245D01*
X140081519Y-122189455D01*
X140081000Y-122181545D01*
X140113204Y-122032862D01*
X140196983Y-121885063D01*
X140313087Y-121760604D01*
X140442270Y-121681941D01*
X140522921Y-121666000D01*
X140646306Y-121697704D01*
X140646306Y-121697704D01*
G37*
X140646306Y-121697704D02*
X140794273Y-121781034D01*
X140942760Y-121898323D01*
X141067703Y-122031901D01*
X141114457Y-122100351D01*
X141202987Y-122299526D01*
X141215419Y-122472217D01*
X141151728Y-122629104D01*
X141113124Y-122680273D01*
X141023535Y-122768345D01*
X140913189Y-122853423D01*
X140810269Y-122915723D01*
X140748859Y-122936000D01*
X140715383Y-122907877D01*
X140635158Y-122831657D01*
X140520846Y-122719567D01*
X140408090Y-122606980D01*
X140233150Y-122420987D01*
X140123857Y-122281245D01*
X140081519Y-122189455D01*
X140081000Y-122181545D01*
X140113204Y-122032862D01*
X140196983Y-121885063D01*
X140313087Y-121760604D01*
X140442270Y-121681941D01*
X140522921Y-121666000D01*
X140646306Y-121697704D01*
G36*
X142084290Y-120239009D02*
G01*
X142089208Y-120242221D01*
X142174657Y-120344607D01*
X142199104Y-120485887D01*
X142159264Y-120643010D01*
X142149208Y-120663367D01*
X142077650Y-120779726D01*
X141987926Y-120899152D01*
X141897938Y-121000634D01*
X141825591Y-121063161D01*
X141799863Y-121073334D01*
X141739040Y-121044970D01*
X141654162Y-120974765D01*
X141634087Y-120954600D01*
X141559200Y-120852890D01*
X141521429Y-120755498D01*
X141520334Y-120741247D01*
X141553704Y-120587650D01*
X141639324Y-120427328D01*
X141755460Y-120294719D01*
X141836807Y-120239797D01*
X141937878Y-120197884D01*
X142006514Y-120197488D01*
X142084290Y-120239009D01*
X142084290Y-120239009D01*
G37*
X142084290Y-120239009D02*
X142089208Y-120242221D01*
X142174657Y-120344607D01*
X142199104Y-120485887D01*
X142159264Y-120643010D01*
X142149208Y-120663367D01*
X142077650Y-120779726D01*
X141987926Y-120899152D01*
X141897938Y-121000634D01*
X141825591Y-121063161D01*
X141799863Y-121073334D01*
X141739040Y-121044970D01*
X141654162Y-120974765D01*
X141634087Y-120954600D01*
X141559200Y-120852890D01*
X141521429Y-120755498D01*
X141520334Y-120741247D01*
X141553704Y-120587650D01*
X141639324Y-120427328D01*
X141755460Y-120294719D01*
X141836807Y-120239797D01*
X141937878Y-120197884D01*
X142006514Y-120197488D01*
X142084290Y-120239009D01*
G36*
X143344462Y-118815039D02*
G01*
X143403849Y-118848224D01*
X143488956Y-118920131D01*
X143612708Y-119039330D01*
X143705802Y-119132029D01*
X144059485Y-119485834D01*
X144013585Y-119651831D01*
X143946685Y-119804091D01*
X143845225Y-119936279D01*
X143729283Y-120027238D01*
X143629673Y-120056370D01*
X143524279Y-120036988D01*
X143401032Y-119991168D01*
X143391742Y-119986690D01*
X143256141Y-119894823D01*
X143117198Y-119760851D01*
X142996073Y-119609623D01*
X142913924Y-119465988D01*
X142893437Y-119401505D01*
X142900750Y-119222323D01*
X142984255Y-119051402D01*
X143135627Y-118902029D01*
X143251144Y-118830552D01*
X143297868Y-118812006D01*
X143344462Y-118815039D01*
X143344462Y-118815039D01*
G37*
X143344462Y-118815039D02*
X143403849Y-118848224D01*
X143488956Y-118920131D01*
X143612708Y-119039330D01*
X143705802Y-119132029D01*
X144059485Y-119485834D01*
X144013585Y-119651831D01*
X143946685Y-119804091D01*
X143845225Y-119936279D01*
X143729283Y-120027238D01*
X143629673Y-120056370D01*
X143524279Y-120036988D01*
X143401032Y-119991168D01*
X143391742Y-119986690D01*
X143256141Y-119894823D01*
X143117198Y-119760851D01*
X142996073Y-119609623D01*
X142913924Y-119465988D01*
X142893437Y-119401505D01*
X142900750Y-119222323D01*
X142984255Y-119051402D01*
X143135627Y-118902029D01*
X143251144Y-118830552D01*
X143297868Y-118812006D01*
X143344462Y-118815039D01*
G36*
X145365522Y-117661084D02*
G01*
X145409066Y-117709916D01*
X145475714Y-117807282D01*
X145521557Y-117882220D01*
X145636137Y-118077736D01*
X145510371Y-118203501D01*
X145384605Y-118329267D01*
X145251636Y-118113164D01*
X145180666Y-117992490D01*
X145132424Y-117900257D01*
X145118667Y-117862743D01*
X145148144Y-117805462D01*
X145217168Y-117736469D01*
X145296631Y-117679546D01*
X145357421Y-117658472D01*
X145365522Y-117661084D01*
X145365522Y-117661084D01*
G37*
X145365522Y-117661084D02*
X145409066Y-117709916D01*
X145475714Y-117807282D01*
X145521557Y-117882220D01*
X145636137Y-118077736D01*
X145510371Y-118203501D01*
X145384605Y-118329267D01*
X145251636Y-118113164D01*
X145180666Y-117992490D01*
X145132424Y-117900257D01*
X145118667Y-117862743D01*
X145148144Y-117805462D01*
X145217168Y-117736469D01*
X145296631Y-117679546D01*
X145357421Y-117658472D01*
X145365522Y-117661084D01*
D12*
X148895000Y-59055000D02*
G75*
G03X148895000Y-59055000I-1000000J0D01*
G01*
D13*
X146360344Y-75204604D02*
G75*
G02X146791396Y-75635656I215526J-215526D01*
G01*
X146791396Y-75635656D02*
X147545737Y-76389998D01*
X146360344Y-75204604D02*
X146791396Y-75635656D01*
X145606002Y-74450263D02*
X146360344Y-75204604D01*
X151065998Y-72869737D02*
X149126263Y-70930002D01*
D14*
X166597903Y-71666005D02*
X166228437Y-72035471D01*
X167601995Y-72670097D02*
X167232529Y-73039563D01*
X170497313Y-69774779D02*
X170866779Y-69405313D01*
X169493221Y-68770687D02*
X169862687Y-68401221D01*
X154913903Y-79286004D02*
X154544437Y-79655470D01*
X155917995Y-80290096D02*
X155548529Y-80659562D01*
X160198825Y-87721179D02*
X158176500Y-85698854D01*
X158841180Y-89078824D02*
X160198825Y-87721179D01*
X156818855Y-87056499D02*
X158841180Y-89078824D01*
X178778041Y-68708395D02*
X176755716Y-66686070D01*
X177420396Y-70066040D02*
X178778041Y-68708395D01*
X175398071Y-68043715D02*
X177420396Y-70066040D01*
X142569220Y-79057313D02*
X142938686Y-79426779D01*
X143573312Y-78053221D02*
X143942778Y-78422687D01*
D15*
X143691583Y-75523421D02*
X142750067Y-76464937D01*
X142694683Y-76631087D01*
X142694683Y-76741853D01*
X142750067Y-76908003D01*
X142971600Y-77129536D01*
X143137750Y-77184920D01*
X143248516Y-77184920D01*
X143414666Y-77129536D01*
X144356182Y-76188020D01*
X144356182Y-78514119D02*
X143691583Y-77849519D01*
X144023882Y-78181819D02*
X145186932Y-77018770D01*
X144910015Y-77074153D01*
X144688482Y-77074153D01*
X144522332Y-77018770D01*
X146424742Y-66186271D02*
X147584857Y-65026156D01*
X147750588Y-67291142D02*
X147640101Y-67291142D01*
X147419126Y-67180655D01*
X147308639Y-67070168D01*
X147198152Y-66849194D01*
X147198152Y-66628219D01*
X147253396Y-66462489D01*
X147419126Y-66186271D01*
X147584857Y-66020540D01*
X147861075Y-65854810D01*
X148026805Y-65799566D01*
X148247780Y-65799566D01*
X148468754Y-65910053D01*
X148579241Y-66020540D01*
X148689728Y-66241514D01*
X148689728Y-66352002D01*
X148137293Y-67898821D02*
X149297407Y-66738706D01*
X148855459Y-67954065D01*
X150070817Y-67512116D01*
X148910702Y-68672231D01*
X150512766Y-67954065D02*
X151286175Y-68727475D01*
X149628869Y-69390397D01*
X152280560Y-69721859D02*
X151728124Y-69169423D01*
X151120445Y-69666615D01*
X151230932Y-69666615D01*
X151396663Y-69721859D01*
X151672880Y-69998076D01*
X151728124Y-70163807D01*
X151728124Y-70274294D01*
X151672880Y-70440025D01*
X151396663Y-70716243D01*
X151230932Y-70771486D01*
X151120445Y-70771486D01*
X150954714Y-70716243D01*
X150678496Y-70440025D01*
X150623253Y-70274294D01*
X150623253Y-70163807D01*
X153385431Y-70826730D02*
X152832995Y-70274294D01*
X152225316Y-70771486D01*
X152335803Y-70771486D01*
X152501534Y-70826730D01*
X152777752Y-71102948D01*
X152832995Y-71268678D01*
X152832995Y-71379165D01*
X152777752Y-71544896D01*
X152501534Y-71821114D01*
X152335803Y-71876357D01*
X152225316Y-71876357D01*
X152059585Y-71821114D01*
X151783367Y-71544896D01*
X151728124Y-71379165D01*
X151728124Y-71268678D01*
X154490302Y-71931601D02*
X153937866Y-71379165D01*
X153330187Y-71876357D01*
X153440674Y-71876357D01*
X153606405Y-71931601D01*
X153882623Y-72207819D01*
X153937866Y-72373549D01*
X153937866Y-72484037D01*
X153882623Y-72649767D01*
X153606405Y-72925985D01*
X153440674Y-72981229D01*
X153330187Y-72981229D01*
X153164456Y-72925985D01*
X152888239Y-72649767D01*
X152832995Y-72484037D01*
X152832995Y-72373549D01*
D10*
X168283972Y-73957242D02*
X167711552Y-73856227D01*
X167879911Y-74361303D02*
X167172804Y-73654197D01*
X167442178Y-73384822D01*
X167543193Y-73351151D01*
X167610537Y-73351151D01*
X167711552Y-73384822D01*
X167812567Y-73485838D01*
X167846239Y-73586853D01*
X167846239Y-73654197D01*
X167812567Y-73755212D01*
X167543193Y-74024586D01*
X167812567Y-73014433D02*
X168250300Y-72576700D01*
X168283972Y-73081777D01*
X168384987Y-72980761D01*
X168486003Y-72947090D01*
X168553346Y-72947090D01*
X168654361Y-72980761D01*
X168822720Y-73149120D01*
X168856392Y-73250135D01*
X168856392Y-73317479D01*
X168822720Y-73418494D01*
X168620690Y-73620525D01*
X168519674Y-73654197D01*
X168452331Y-73654197D01*
X169215304Y-68359006D02*
X168642884Y-68257991D01*
X168811243Y-68763067D02*
X168104136Y-68055961D01*
X168373510Y-67786586D01*
X168474525Y-67752915D01*
X168541869Y-67752915D01*
X168642884Y-67786586D01*
X168743899Y-67887602D01*
X168777571Y-67988617D01*
X168777571Y-68055961D01*
X168743899Y-68156976D01*
X168474525Y-68426350D01*
X168844915Y-67449869D02*
X168844915Y-67382525D01*
X168878586Y-67281510D01*
X169046945Y-67113151D01*
X169147961Y-67079480D01*
X169215304Y-67079480D01*
X169316319Y-67113151D01*
X169383663Y-67180495D01*
X169451006Y-67315182D01*
X169451006Y-68123304D01*
X169888739Y-67685571D01*
X156599972Y-81577241D02*
X156027552Y-81476226D01*
X156195911Y-81981302D02*
X155488804Y-81274196D01*
X155758178Y-81004821D01*
X155859193Y-80971150D01*
X155926537Y-80971150D01*
X156027552Y-81004821D01*
X156128567Y-81105837D01*
X156162239Y-81206852D01*
X156162239Y-81274196D01*
X156128567Y-81375211D01*
X155859193Y-81644585D01*
X157273407Y-80903806D02*
X156869346Y-81307867D01*
X157071377Y-81105837D02*
X156364270Y-80398730D01*
X156397942Y-80567089D01*
X156397942Y-80701776D01*
X156364270Y-80802791D01*
X156196264Y-88049478D02*
X156903370Y-87342371D01*
X157071729Y-87510730D01*
X157139073Y-87645417D01*
X157139073Y-87780104D01*
X157105401Y-87881119D01*
X157004386Y-88049478D01*
X156903370Y-88150493D01*
X156735012Y-88251509D01*
X156633996Y-88285180D01*
X156499309Y-88285180D01*
X156364622Y-88217837D01*
X156196264Y-88049478D01*
X157509462Y-88083150D02*
X157576806Y-88083150D01*
X157677821Y-88116821D01*
X157846180Y-88285180D01*
X157879851Y-88386196D01*
X157879851Y-88453539D01*
X157846180Y-88554554D01*
X157778836Y-88621898D01*
X157644149Y-88689241D01*
X156836027Y-88689241D01*
X157273760Y-89126974D01*
X174775480Y-69036694D02*
X175482586Y-68329587D01*
X175650945Y-68497946D01*
X175718289Y-68632633D01*
X175718289Y-68767320D01*
X175684617Y-68868335D01*
X175583602Y-69036694D01*
X175482586Y-69137709D01*
X175314228Y-69238725D01*
X175213212Y-69272396D01*
X175078525Y-69272396D01*
X174943838Y-69205053D01*
X174775480Y-69036694D01*
X175852976Y-70114190D02*
X175448915Y-69710129D01*
X175650945Y-69912160D02*
X176358052Y-69205053D01*
X176189693Y-69238725D01*
X176055006Y-69238725D01*
X175953991Y-69205053D01*
X144052335Y-77707961D02*
X143984992Y-77707961D01*
X143850305Y-77640617D01*
X143782961Y-77573274D01*
X143715618Y-77438586D01*
X143715618Y-77303899D01*
X143749289Y-77202884D01*
X143850305Y-77034525D01*
X143951320Y-76933510D01*
X144119679Y-76832495D01*
X144220694Y-76798823D01*
X144355381Y-76798823D01*
X144490068Y-76866167D01*
X144557412Y-76933510D01*
X144624755Y-77068197D01*
X144624755Y-77135541D01*
X144658427Y-78448739D02*
X144254366Y-78044678D01*
X144456396Y-78246709D02*
X145163503Y-77539602D01*
X144995144Y-77573274D01*
X144860457Y-77573274D01*
X144759442Y-77539602D01*
M02*
