M48
; DRILL file {KiCad (5.1.2)-1} date 6/22/2019 12:55:52 PM
; FORMAT={-:-/ absolute / inch / decimal}
; #@! TF.CreationDate,2019-06-22T12:55:52-06:00
; #@! TF.GenerationSoftware,Kicad,Pcbnew,(5.1.2)-1
FMAT,2
INCH
T1C0.0157
T2C0.0400
T3C0.0197
%
G90
G05
T1
X5.78Y-3.1
X5.84Y-2.52
X6.22Y-3.5
X6.72Y-2.8
X7.0Y-2.8
T2
X5.92Y-2.4108
X5.92Y-2.5108
X6.02Y-2.4108
X6.02Y-2.5108
X6.12Y-2.4108
X6.12Y-2.5108
T3
X5.7902Y-3.736
X5.8111Y-3.7569
X5.832Y-3.6942
X5.832Y-3.7778
X5.8529Y-3.7151
X5.8738Y-3.736
X6.3642Y-4.44
X6.3851Y-4.4609
X6.406Y-4.3982
X6.406Y-4.4818
X6.4269Y-4.4191
X6.4478Y-4.44
X6.3622Y-3.524
X6.3831Y-3.5031
X6.404Y-3.4822
X6.404Y-3.5658
X6.4249Y-3.5449
X6.4458Y-3.524
X4.6862Y-2.631
X4.7071Y-2.6519
X4.728Y-2.5892
X4.728Y-2.6728
X4.7489Y-2.6101
X4.7698Y-2.631
X7.1792Y-2.707
X7.2001Y-2.6861
X7.221Y-2.6652
X7.221Y-2.7488
X7.2419Y-2.7279
X7.2628Y-2.707
X5.7912Y-4.225
X5.8121Y-4.2041
X5.833Y-4.1832
X5.833Y-4.2668
X5.8539Y-4.2459
X5.8748Y-4.225
X7.0532Y-5.131
X7.0741Y-5.1519
X7.095Y-5.0892
X7.095Y-5.1728
X7.1159Y-5.1101
X7.1368Y-5.131
X4.6952Y-5.321
X4.7161Y-5.3001
X4.737Y-5.2792
X4.737Y-5.3628
X4.7579Y-5.3419
X4.7788Y-5.321
T0
M30
